<?xml version="1.0" standalone="no"?>
<!DOCTYPE svg PUBLIC "-//W3C//DTD SVG 1.1//EN" "http://www.w3.org/Graphics/SVG/1.1/DTD/svg11.dtd" >
<svg xmlns="http://www.w3.org/2000/svg" xmlns:xlink="http://www.w3.org/1999/xlink" version="1.1">
<metadata>
Created by FontForge 20161013 at Sun Jan 26 01:19:11 2014
 By ,,,
Copyright (c) 2013 by Type Dynamic. All rights reserved.
</metadata>
<defs>
<font id="Celias-Thin" horiz-adv-x="584" >
  <font-face 
    font-family="Celias Thin"
    font-weight="250"
    font-stretch="normal"
    units-per-em="1000"
    panose-1="0 0 3 0 0 0 0 0 0 0"
    ascent="750"
    descent="-250"
    x-height="503"
    cap-height="748"
    bbox="-203 -263 1204 1049"
    underline-thickness="50"
    underline-position="-200"
    unicode-range="U+000D-FB02"
  />
<missing-glyph horiz-adv-x="676" 
d="M582 0h-489v748h489v-748zM142 721l196 -322l196 322h-392zM122 47l200 327l-200 327v-654zM356 374l198 -324v648zM142 27h393l-197 323z" />
    <glyph glyph-name="fi" unicode="fi" horiz-adv-x="547" 
d="M272 780q14 0 28 -2v-32q-14 2 -25 2q-55 0 -86.5 -34t-31.5 -97v-114h140v-31h-140v-472h-35v472h-105v31h105v114q0 78 40.5 120.5t109.5 42.5zM429 732q13 0 22 -9t9 -22q0 -12 -9 -21t-22 -9t-21.5 9t-8.5 21q0 13 9 22t21 9zM446 0h-35v503h35v-503z" />
    <glyph glyph-name="f_j" unicode="fj" horiz-adv-x="547" 
d="M272 780q14 0 28 -2v-32q-14 2 -25 2q-55 0 -86.5 -34t-31.5 -97v-114h140v-31h-140v-472h-35v472h-105v31h105v114q0 78 40.5 120.5t109.5 42.5zM429 732q13 0 22 -9t9 -22q0 -12 -9 -21t-22 -9t-21.5 9t-8.5 21q0 13 8.5 22t21.5 9zM447 503v-600q0 -79 -36.5 -120
t-103.5 -41q-9 0 -29 2v32q12 -3 26 -3q108 0 108 129v601h35z" />
    <glyph glyph-name=".notdef" horiz-adv-x="676" 
d="M582 0h-489v748h489v-748zM142 721l196 -322l196 322h-392zM122 47l200 327l-200 327v-654zM356 374l198 -324v648zM142 27h393l-197 323z" />
    <glyph glyph-name=".null" horiz-adv-x="0" 
 />
    <glyph glyph-name="nonmarkingreturn" horiz-adv-x="333" 
 />
    <glyph glyph-name="CR" unicode="&#xd;" horiz-adv-x="600" 
 />
    <glyph glyph-name="space" unicode=" " horiz-adv-x="249" 
 />
    <glyph glyph-name="exclam" unicode="!" horiz-adv-x="241" 
d="M138 180h-36l-2 568h40zM120 59q15 0 25 -10t10 -24t-10 -24t-25 -10q-14 0 -23.5 10t-9.5 24t9.5 24t23.5 10z" />
    <glyph glyph-name="quotedbl" unicode="&#x22;" horiz-adv-x="257" 
d="M90 546h-34l-7 185h48zM201 546h-34l-7 185h48z" />
    <glyph glyph-name="numbersign" unicode="#" horiz-adv-x="607" 
d="M463 523h134l-7 -29h-135l-57 -239h144l-7 -29h-143l-54 -226h-32l54 226h-185l-54 -226h-31l54 226h-134l7 29h134l57 239h-143l7 29h143l54 225h31l-54 -225h185l54 225h31zM239 494l-57 -239h185l57 239h-185z" />
    <glyph glyph-name="dollar" unicode="$" horiz-adv-x="649" 
d="M593 195q0 -99 -69.5 -150.5t-178.5 -53.5v-109h-30v110q-105 5 -174 57.5t-76 140.5l37 2q8 -77 73.5 -122.5t161.5 -45.5q97 0 158 43t61 126q0 25 -6.5 45t-14.5 34t-27.5 27t-33 20t-45.5 16.5t-50 14t-59 13.5q-50 12 -76.5 19.5t-62.5 23t-54 34t-31 49t-13 70.5
q0 83 59.5 139t172.5 59v108h30v-109q94 -5 154 -54t67 -134l-37 -3q-7 75 -61.5 117t-141.5 42q-100 0 -153 -46.5t-53 -117.5q0 -29 6.5 -51t22.5 -38.5t31.5 -27t44.5 -20.5t49.5 -15t58.5 -14q142 -31 201 -70t59 -129z" />
    <glyph glyph-name="percent" unicode="%" horiz-adv-x="794" 
d="M197 757q67 0 109.5 -46t42.5 -124t-42.5 -124t-109.5 -46q-66 0 -109 46t-43 124t43 124t109 46zM136 0h-36l558 748h36zM196 730q-53 0 -88.5 -38.5t-35.5 -104.5t35.5 -105t88.5 -39q55 0 90 39t35 105t-35 104.5t-90 38.5zM597 331q67 0 109.5 -45.5t42.5 -123.5
t-42.5 -124.5t-109.5 -46.5q-66 0 -109 46.5t-43 124.5t43 123.5t109 45.5zM596 305q-54 0 -89 -38.5t-35 -104.5t35.5 -105t88.5 -39q55 0 90 38.5t35 105.5q0 66 -35 104.5t-90 38.5z" />
    <glyph glyph-name="ampersand" unicode="&#x26;" horiz-adv-x="677" 
d="M640 -8l-133 128q-97 -127 -236 -127q-106 0 -166 56t-60 147q0 140 142 232q-68 76 -68 157q0 83 49 127.5t129 44.5q71 0 119 -40t56 -109l-36 -2q-7 56 -44.5 87t-94.5 31q-64 0 -102.5 -35.5t-38.5 -103.5q0 -30 8 -55.5t30 -53.5t36.5 -43t52.5 -51l220 -209
q51 82 86 206l33 -10q-38 -134 -95 -220l136 -129zM271 25q124 0 211 118l-224 214q-17 16 -48 47q-62 -41 -95 -89.5t-33 -115.5q0 -79 50.5 -126.5t138.5 -47.5z" />
    <glyph glyph-name="quotesingle" unicode="'" horiz-adv-x="146" 
d="M90 546h-34l-7 185h48z" />
    <glyph glyph-name="parenleft" unicode="(" horiz-adv-x="219" 
d="M165 721l31 -11q-52 -76 -85 -177t-33 -213q0 -218 118 -389l-31 -12q-122 178 -122 401q0 115 34.5 219.5t87.5 181.5z" />
    <glyph glyph-name="parenright" unicode=")" horiz-adv-x="219" 
d="M23 710l30 11q54 -77 88.5 -181t34.5 -220q0 -224 -123 -401l-30 12q118 174 118 389q0 216 -118 390z" />
    <glyph glyph-name="asterisk" unicode="*" horiz-adv-x="302" 
d="M161 625l120 39l8 -21l-120 -39l74 -101l-18 -14l-74 102l-74 -103l-19 15l75 101l-120 39l7 21l120 -39v126h22z" />
    <glyph glyph-name="plus" unicode="+" horiz-adv-x="545" 
d="M289 385h221v-32h-221v-225h-34v225h-221v32h221v217h34v-217z" />
    <glyph glyph-name="comma" unicode="," horiz-adv-x="166" 
d="M83 58q32 0 32 -41q0 -103 -78 -155v19q50 44 50 112h-3q-13 0 -22.5 9.5t-9.5 22.5q0 14 9 23.5t22 9.5z" />
    <glyph glyph-name="hyphen" unicode="-" horiz-adv-x="400" 
d="M355 245h-310v33h310v-33z" />
    <glyph glyph-name="period" unicode="." horiz-adv-x="168" 
d="M83 59q15 0 25 -10t10 -24t-10 -24t-25 -10q-14 0 -23.5 10t-9.5 24t9.5 24t23.5 10z" />
    <glyph glyph-name="slash" unicode="/" horiz-adv-x="318" 
d="M50 -67h-37l256 815h35z" />
    <glyph glyph-name="zero" unicode="0" horiz-adv-x="639" 
d="M320 757q120 0 188 -100t68 -283t-68 -283t-188 -100q-121 0 -189 100t-68 283t68 283t189 100zM319 723q-104 0 -161.5 -89.5t-57.5 -259.5t57.5 -259.5t161.5 -89.5q105 0 162.5 90t57.5 259t-57.5 259t-162.5 90z" />
    <glyph glyph-name="one" unicode="1" horiz-adv-x="353" 
d="M249 0h-36v685l-172 -140l-18 28l226 184v-757z" />
    <glyph glyph-name="two" unicode="2" horiz-adv-x="531" 
d="M273 757q97 0 149.5 -57.5t52.5 -151.5q0 -88 -38 -157.5t-117 -154.5l-188 -203h356v-33h-436l237 254q79 85 114 148.5t35 144.5q0 80 -43 128t-122 48q-85 0 -131.5 -50t-48.5 -139l-37 2q2 104 59 162.5t158 58.5z" />
    <glyph glyph-name="three" unicode="3" horiz-adv-x="547" 
d="M271 757q92 0 146.5 -52t54.5 -141q0 -68 -35.5 -115.5t-87.5 -60.5q66 -12 106 -59.5t40 -126.5q0 -96 -60 -153.5t-160 -57.5t-158 56t-68 156l37 2q10 -86 58 -133t131 -47q85 0 134 48t49 129q0 82 -52 125t-138 43h-70v34h69q75 0 121.5 44t46.5 116q0 75 -44.5 117
t-119.5 42q-76 0 -121.5 -45t-51.5 -126l-37 2q6 95 61.5 149t148.5 54z" />
    <glyph glyph-name="four" unicode="4" horiz-adv-x="589" 
d="M418 246h147v-33h-147v-213h-37v213h-367l404 544v-511zM82 246h300v406z" />
    <glyph glyph-name="five" unicode="5" horiz-adv-x="550" 
d="M279 445q97 0 157.5 -61.5t60.5 -162.5t-59 -165.5t-163 -64.5q-100 0 -157 55.5t-67 154.5l37 2q10 -85 57 -131.5t130 -46.5q88 0 137 55t49 140q0 86 -51 139t-134 53q-88 0 -164 -60h-34v396h391v-33h-355v-326q70 56 165 56z" />
    <glyph glyph-name="six" unicode="6" horiz-adv-x="578" 
d="M291 464q103 0 170.5 -65t67.5 -172t-67.5 -171.5t-170.5 -64.5q-104 0 -171.5 64.5t-67.5 171.5q0 90 48 150l290 371h43l-233 -300q43 16 91 16zM291 25q87 0 144 55.5t57 147.5q0 93 -56.5 147.5t-144.5 54.5q-103 0 -159 -69q-43 -53 -43 -133q0 -92 57 -147.5
t145 -55.5z" />
    <glyph glyph-name="seven" unicode="7" horiz-adv-x="542" 
d="M114 0h-40l400 715h-449v33h504z" />
    <glyph glyph-name="eight" unicode="8" horiz-adv-x="585" 
d="M292 757q92 0 151.5 -51.5t59.5 -140.5q0 -66 -34.5 -112t-84.5 -63q58 -17 97 -68t39 -124q0 -95 -64.5 -151t-163.5 -56t-163 56t-64 151q0 73 38.5 123.5t96.5 68.5q-51 17 -85 63t-34 112q0 89 59.5 140.5t151.5 51.5zM293 723q-76 0 -125.5 -43t-49.5 -117
q0 -72 49.5 -114.5t125.5 -42.5q75 0 124.5 42.5t49.5 114.5q0 74 -49.5 117t-124.5 43zM292 372q-83 0 -136.5 -46.5t-53.5 -126.5q0 -79 54 -126.5t136 -47.5q83 0 137 47.5t54 126.5q0 80 -54 126.5t-137 46.5z" />
    <glyph glyph-name="nine" unicode="9" horiz-adv-x="578" 
d="M287 757q104 0 171.5 -64.5t67.5 -171.5q0 -90 -48 -150l-290 -371h-43l233 300q-43 -16 -91 -16q-103 0 -170.5 65t-67.5 172t67.5 171.5t170.5 64.5zM287 318q103 0 159 69q43 53 43 133q0 92 -57 147.5t-145 55.5q-87 0 -144 -55.5t-57 -147.5q0 -93 56.5 -147.5
t144.5 -54.5z" />
    <glyph glyph-name="colon" unicode=":" horiz-adv-x="168" 
d="M81 512q15 0 25 -10t10 -24t-10 -24t-25 -10q-14 0 -23.5 10t-9.5 24t9.5 24t23.5 10zM81 59q15 0 25 -10t10 -24t-10 -24t-25 -10q-14 0 -23.5 10t-9.5 24t9.5 24t23.5 10z" />
    <glyph glyph-name="semicolon" unicode=";" horiz-adv-x="168" 
d="M81 444q-14 0 -23.5 10t-9.5 24t9.5 24t23.5 10q15 0 25 -10t10 -24t-10 -24t-25 -10zM83 58q32 0 32 -41q0 -103 -78 -155v19q50 44 50 112h-3q-13 0 -22.5 9.5t-9.5 22.5q0 14 9 23.5t22 9.5z" />
    <glyph glyph-name="less" unicode="&#x3c;" horiz-adv-x="501" 
d="M467 533l-369 -164l369 -164l-2 -38l-439 202l439 202z" />
    <glyph glyph-name="equal" unicode="=" horiz-adv-x="545" 
d="M510 467h-476v34h476v-34zM510 232h-476v33h476v-33z" />
    <glyph glyph-name="greater" unicode="&#x3e;" horiz-adv-x="501" 
d="M475 369l-439 -202l-2 38l369 164l-369 164l2 38z" />
    <glyph glyph-name="question" unicode="?" horiz-adv-x="473" 
d="M237 757q100 0 156.5 -58t56.5 -147q0 -65 -26.5 -104.5t-85.5 -80.5q-53 -39 -71.5 -73t-18.5 -89v-25h-37v27q0 56 20 94t76 81q55 38 80 74.5t25 94.5q0 75 -46 124t-129 49q-161 0 -181 -153l-37 2q8 86 65.5 135t152.5 49zM227 59q15 0 25 -10t10 -24t-10 -24
t-25 -10q-14 0 -23.5 10t-9.5 24t9.5 24t23.5 10z" />
    <glyph glyph-name="at" unicode="@" horiz-adv-x="794" 
d="M396 597q151 0 252 -100.5t101 -251.5q0 -92 -33.5 -144.5t-90.5 -52.5q-77 0 -82 80q-41 -83 -155 -83q-83 0 -134.5 54.5t-51.5 150.5t51.5 151t134.5 55q117 0 156 -88v79h27v-304q0 -70 59 -70q42 0 66.5 45.5t24.5 126.5q0 140 -92.5 233t-232.5 93
q-141 0 -232.5 -92.5t-91.5 -233.5t92 -232.5t231 -91.5q107 0 190 55l8 -25q-87 -57 -198 -57q-150 0 -250.5 100t-100.5 251t100 251.5t252 100.5zM391 70q69 0 110.5 42t41.5 124v29q0 82 -41 123.5t-111 41.5q-72 0 -116 -47t-44 -133t44 -133t116 -47z" />
    <glyph glyph-name="A" unicode="A" horiz-adv-x="691" 
d="M667 0h-41l-95 226h-372l-95 -226h-41l322 760zM175 259h341l-170 407z" />
    <glyph glyph-name="B" unicode="B" horiz-adv-x="669" 
d="M103 748h250q96 0 155.5 -49.5t59.5 -141.5q0 -65 -24.5 -107.5t-60.5 -62.5q49 -18 84 -66t35 -123q0 -98 -62 -148t-157 -50h-280v748zM140 715v-314h249q65 0 103.5 37t38.5 117q0 77 -49.5 118.5t-131.5 41.5h-210zM140 368v-335h240q80 0 132.5 41t52.5 126
t-51 126.5t-122 41.5h-252z" />
    <glyph glyph-name="C" unicode="C" horiz-adv-x="793" 
d="M418 757q131 0 223 -73.5t106 -196.5l-38 -4q-13 110 -94.5 175t-197.5 65q-141 0 -229 -93t-88 -256q0 -164 90 -256.5t230 -92.5q115 0 193 59t97 163l38 -3q-20 -118 -109 -185.5t-218 -67.5q-156 0 -257 102.5t-101 280.5q0 179 99 281t256 102z" />
    <glyph glyph-name="D" unicode="D" horiz-adv-x="795" 
d="M103 748h278q154 0 252 -100t98 -274t-99.5 -274t-252.5 -100h-276v748zM140 716v-684h239q139 0 227.5 91t88.5 251q0 161 -87 251.5t-226 90.5h-242z" />
    <glyph glyph-name="E" unicode="E" 
d="M550 715h-410v-310h366v-33h-366v-339h410v-33h-447v748h447v-33z" />
    <glyph glyph-name="F" unicode="F" horiz-adv-x="578" 
d="M551 715h-411v-318h348v-33h-348v-364h-37v748h448v-33z" />
    <glyph glyph-name="G" unicode="G" horiz-adv-x="809" 
d="M751 356v-16q0 -166 -90.5 -257.5t-244.5 -91.5t-253.5 102.5t-99.5 280.5q0 179 98.5 281t253.5 102q131 0 223.5 -73t107.5 -198l-38 -6q-12 112 -94 177.5t-199 65.5q-140 0 -227.5 -92.5t-87.5 -256.5t88.5 -256.5t226.5 -92.5q133 0 213 76t84 222h-293v33h332z" />
    <glyph glyph-name="H" unicode="H" horiz-adv-x="745" 
d="M642 0h-37v374h-465v-374h-37v748h37v-340h465v340h37v-748z" />
    <glyph glyph-name="I" unicode="I" horiz-adv-x="243" 
d="M140 0h-37v748h37v-748z" />
    <glyph glyph-name="J" unicode="J" horiz-adv-x="549" 
d="M453 748v-536q0 -106 -55.5 -163.5t-152.5 -57.5t-154.5 58.5t-62.5 158.5l37 5q4 -90 52.5 -139t127.5 -49q81 0 126 48t45 138v537h37z" />
    <glyph glyph-name="K" unicode="K" horiz-adv-x="637" 
d="M254 422l358 -422h-47l-336 394l-89 -95v-299h-37v748h37v-395l376 395h48z" />
    <glyph glyph-name="L" unicode="L" horiz-adv-x="591" 
d="M140 33h417v-33h-454v748h37v-715z" />
    <glyph glyph-name="M" unicode="M" horiz-adv-x="984" 
d="M881 0h-37v619l-352 -626l-352 626v-619h-37v757l389 -691l389 691v-757z" />
    <glyph glyph-name="N" unicode="N" horiz-adv-x="734" 
d="M594 100v648h37v-757l-491 657v-648h-37v757z" />
    <glyph glyph-name="O" unicode="O" horiz-adv-x="858" 
d="M429 757q157 0 261 -103.5t104 -279.5t-104 -279.5t-261 -103.5t-261.5 103.5t-104.5 279.5t104.5 279.5t261.5 103.5zM429 723q-141 0 -234.5 -94t-93.5 -255t93.5 -255t234.5 -94t234.5 94t93.5 255t-93.5 255t-234.5 94z" />
    <glyph glyph-name="P" unicode="P" horiz-adv-x="634" 
d="M103 748h267q94 0 156.5 -55t62.5 -159t-62.5 -159t-156.5 -55h-230v-320h-37v748zM140 715v-362h226q79 0 132 46t53 135t-53 135t-132 46h-226z" />
    <glyph glyph-name="Q" unicode="Q" horiz-adv-x="859" 
d="M813 -75l-147 147q-98 -81 -237 -81q-157 0 -261.5 103.5t-104.5 279.5t104.5 279.5t261.5 103.5t261 -103.5t104 -279.5q0 -170 -102 -277l146 -145zM429 25q124 0 211 73l-177 177l25 26l179 -178q90 95 90 251q0 161 -93.5 255t-234.5 94t-234.5 -94t-93.5 -255
t93.5 -255t234.5 -94z" />
    <glyph glyph-name="R" unicode="R" horiz-adv-x="668" 
d="M583 0l-188 328q-10 -2 -30 -2h-225v-326h-37v748h262q95 0 157 -54t62 -157q0 -83 -41 -134.5t-109 -68.5l191 -334h-42zM140 359h222q79 0 132 45t53 133t-53 133t-132 45h-222v-356z" />
    <glyph glyph-name="S" unicode="S" horiz-adv-x="649" 
d="M325 757q102 0 168 -50t73 -139l-37 -3q-7 75 -61.5 117t-141.5 42q-100 0 -153 -46.5t-53 -117.5q0 -29 6.5 -51t22.5 -38.5t31.5 -27t44.5 -20.5t49.5 -15t58.5 -14q142 -31 201 -70t59 -129q0 -101 -71.5 -152.5t-184.5 -51.5q-112 0 -188 53t-84 146l37 2
q8 -77 73.5 -122.5t161.5 -45.5q97 0 158 43t61 126q0 25 -6.5 45t-14.5 34t-27.5 27t-33 20t-45.5 16.5t-50 14t-59 13.5q-50 12 -76.5 19.5t-62.5 23t-54 34t-31 49t-13 70.5q0 85 62.5 141.5t179.5 56.5z" />
    <glyph glyph-name="T" unicode="T" horiz-adv-x="673" 
d="M657 715h-302v-715h-37v715h-302v33h641v-33z" />
    <glyph glyph-name="U" unicode="U" horiz-adv-x="753" 
d="M656 748v-487q0 -131 -75.5 -200.5t-205.5 -69.5q-129 0 -204 69.5t-75 200.5v487h37v-487q0 -116 64.5 -176t177.5 -60t178.5 60t65.5 176v487h37z" />
    <glyph glyph-name="V" unicode="V" horiz-adv-x="711" 
d="M354 -11l-328 759h41l287 -673l289 673h41z" />
    <glyph glyph-name="W" unicode="W" horiz-adv-x="1104" 
d="M794 85l240 663h40l-279 -759l-243 671l-242 -671l-280 759h40l240 -663l242 672z" />
    <glyph glyph-name="X" unicode="X" horiz-adv-x="660" 
d="M357 381l273 -381h-44l-256 355l-256 -355h-43l273 381l-262 367h43l245 -342l246 342h43z" />
    <glyph glyph-name="Y" unicode="Y" horiz-adv-x="648" 
d="M342 330v-330h-37v330l-283 418h43l259 -382l258 382h43z" />
    <glyph glyph-name="Z" unicode="Z" horiz-adv-x="611" 
d="M94 33h483v-33h-545l482 715h-456v33h518z" />
    <glyph glyph-name="bracketleft" unicode="[" horiz-adv-x="228" 
d="M205 688h-107v-735h107v-30h-142v795h142v-30z" />
    <glyph glyph-name="backslash" unicode="\" horiz-adv-x="318" 
d="M304 -67h-37l-254 815h36z" />
    <glyph glyph-name="bracketright" unicode="]" horiz-adv-x="228" 
d="M166 -77h-142v30h107v735h-107v30h142v-795z" />
    <glyph glyph-name="asciicircum" unicode="^" horiz-adv-x="519" 
d="M485 375h-39l-187 325l-187 -325h-39l226 383z" />
    <glyph glyph-name="underscore" unicode="_" horiz-adv-x="682" 
d="M637 -33h-592v33h592v-33z" />
    <glyph glyph-name="grave" unicode="`" horiz-adv-x="209" 
d="M185 592h-29l-130 191h41z" />
    <glyph glyph-name="a" unicode="a" horiz-adv-x="642" 
d="M305 512q74 0 126.5 -32t76.5 -84v107h34v-503h-34v106q-24 -51 -77 -83t-126 -32q-105 0 -174.5 69.5t-69.5 190.5t69.5 191t174.5 70zM306 480q-91 0 -150.5 -60.5t-59.5 -167.5q0 -108 59.5 -168.5t150.5 -60.5q89 0 144.5 53.5t55.5 156.5v37q0 103 -55.5 156.5
t-144.5 53.5z" />
    <glyph glyph-name="b" unicode="b" horiz-adv-x="642" 
d="M135 777v-380q24 52 76 83.5t126 31.5q105 0 174.5 -70t69.5 -191t-69.5 -190.5t-174.5 -69.5q-74 0 -126.5 32t-76.5 84v-107h-34v777h35zM336 480q-89 0 -144.5 -53.5t-55.5 -156.5v-37q0 -103 55.5 -156.5t144.5 -53.5q91 0 150.5 60.5t59.5 168.5q0 107 -59.5 167.5
t-150.5 60.5z" />
    <glyph glyph-name="c" unicode="c" horiz-adv-x="565" 
d="M299 512q88 0 147.5 -49.5t69.5 -133.5l-34 -3q-9 72 -59 113.5t-124 41.5q-90 0 -146 -60.5t-56 -168.5t57 -168.5t146 -60.5q75 0 123.5 37.5t59.5 104.5l34 -3q-14 -80 -71 -125.5t-146 -45.5q-105 0 -172 69.5t-67 191.5q0 121 66.5 190.5t171.5 69.5z" />
    <glyph glyph-name="d" unicode="d" horiz-adv-x="642" 
d="M542 0h-34v107q-24 -52 -76.5 -84t-126.5 -32q-105 0 -174.5 69.5t-69.5 190.5t69.5 191t174.5 70q74 0 126 -31.5t76 -83.5v380h35v-777zM306 480q-91 0 -150.5 -60.5t-59.5 -167.5q0 -108 59.5 -168.5t150.5 -60.5q89 0 144.5 53.5t55.5 156.5v37q0 103 -55.5 156.5
t-144.5 53.5z" />
    <glyph glyph-name="e" unicode="e" 
d="M525 239h-427q1 -101 58.5 -158.5t144.5 -57.5q72 0 120 32.5t64 91.5l35 -3q-18 -71 -75.5 -112t-142.5 -41q-105 0 -173 70t-68 191t67 190.5t173 69.5t165 -67t59 -177v-29zM300 480q-86 0 -142.5 -55t-59.5 -154h393v3q0 92 -49.5 149t-141.5 57z" />
    <glyph glyph-name="f" unicode="f" horiz-adv-x="311" 
d="M272 780q14 0 28 -2v-32q-14 2 -25 2q-55 0 -86.5 -34t-31.5 -97v-114h140v-31h-140v-472h-35v472h-105v31h105v114q0 78 40.5 120.5t109.5 42.5z" />
    <glyph glyph-name="g" unicode="g" horiz-adv-x="640" 
d="M305 512q74 0 126.5 -32t76.5 -84v107h34v-541q0 -105 -63.5 -165t-166.5 -60q-92 0 -153 45.5t-78 119.5l36 1q12 -62 67 -99t127 -37q88 0 142 51t54 142v146q-24 -52 -76 -83.5t-126 -31.5q-105 0 -174.5 70t-69.5 191t69.5 190.5t174.5 69.5zM306 480
q-91 0 -150.5 -60.5t-59.5 -168.5q0 -107 59.5 -167.5t150.5 -60.5q89 0 144.5 53.5t55.5 156.5v37q0 103 -55.5 156.5t-144.5 53.5z" />
    <glyph glyph-name="h" unicode="h" horiz-adv-x="591" 
d="M135 777v-366q18 41 64 71t111 30q84 0 138.5 -55.5t54.5 -144.5v-312h-35v308q0 75 -45.5 123t-116.5 48q-74 0 -122.5 -51t-48.5 -120v-308h-35v777h35z" />
    <glyph glyph-name="i" unicode="i" horiz-adv-x="236" 
d="M118 732q13 0 22 -9t9 -22q0 -12 -9 -21t-22 -9t-21.5 9t-8.5 21q0 13 9 22t21 9zM135 0h-35v503h35v-503z" />
    <glyph glyph-name="j" unicode="j" horiz-adv-x="236" 
d="M118 732q13 0 22 -9t9 -22q0 -12 -9 -21t-22 -9t-21.5 9t-8.5 21q0 13 8.5 22t21.5 9zM136 503v-600q0 -79 -36.5 -120t-103.5 -41q-9 0 -29 2v32q12 -3 26 -3q108 0 108 129v601h35z" />
    <glyph glyph-name="k" unicode="k" horiz-adv-x="499" 
d="M135 246l273 257h47l-234 -222l264 -281h-48l-241 257l-61 -58v-199h-35v777h35v-531z" />
    <glyph glyph-name="l" unicode="l" horiz-adv-x="236" 
d="M135 0h-35v777h35v-777z" />
    <glyph glyph-name="m" unicode="m" horiz-adv-x="939" 
d="M656 512q83 0 135 -56t52 -144v-312h-35v308q0 76 -42.5 123.5t-112.5 47.5q-73 0 -118.5 -50.5t-45.5 -120.5v-308h-36v308q0 76 -42.5 123.5t-111.5 47.5q-73 0 -118.5 -50.5t-45.5 -120.5v-308h-35v503h33v-93q18 41 62 71.5t107 30.5q62 0 107.5 -31t65.5 -86
q21 53 69.5 85t111.5 32z" />
    <glyph glyph-name="n" unicode="n" horiz-adv-x="600" 
d="M310 512q84 0 138.5 -55.5t54.5 -144.5v-312h-35v308q0 75 -45.5 123t-116.5 48q-74 0 -122.5 -51t-48.5 -120v-308h-35v503h35v-92q18 41 64 71t111 30z" />
    <glyph glyph-name="o" unicode="o" horiz-adv-x="624" 
d="M312 512q107 0 179 -71t72 -189t-72 -189.5t-179 -71.5q-108 0 -179.5 71t-71.5 190t71.5 189.5t179.5 70.5zM311 480q-93 0 -154 -61.5t-61 -166.5t61 -167t154 -62t154.5 62t61.5 167t-61.5 166.5t-154.5 61.5z" />
    <glyph glyph-name="p" unicode="p" horiz-adv-x="642" 
d="M337 512q105 0 174.5 -69.5t69.5 -190.5t-69.5 -191t-174.5 -70q-74 0 -126 31.5t-76 83.5v-361h-35v758h34v-107q24 52 76.5 84t126.5 32zM336 480q-89 0 -144.5 -53.5t-55.5 -156.5v-37q0 -103 55.5 -156.5t144.5 -53.5q91 0 150.5 60.5t59.5 167.5q0 108 -59.5 168.5
t-150.5 60.5z" />
    <glyph glyph-name="q" unicode="q" horiz-adv-x="642" 
d="M305 512q74 0 126.5 -32t76.5 -84v107h34v-758h-35v361q-24 -52 -76 -83.5t-126 -31.5q-105 0 -174.5 70t-69.5 191t69.5 190.5t174.5 69.5zM306 480q-91 0 -150.5 -60.5t-59.5 -168.5q0 -107 59.5 -167.5t150.5 -60.5q89 0 144.5 53.5t55.5 156.5v37q0 103 -55.5 156.5
t-144.5 53.5z" />
    <glyph glyph-name="r" unicode="r" horiz-adv-x="307" 
d="M291 511v-34q-70 0 -113 -46t-43 -112v-319h-35v503h34v-86q14 38 55 66t102 28z" />
    <glyph glyph-name="s" unicode="s" horiz-adv-x="493" 
d="M239 511q73 1 116 -35t52 -99l-35 -3q-7 50 -41.5 78.5t-92.5 27.5q-65 1 -98.5 -28t-33.5 -79q0 -14 3 -25t6.5 -18.5t13.5 -14.5t15.5 -11t21.5 -8.5t23 -6.5t28 -6.5t29 -6.5q94 -21 135.5 -49.5t41.5 -90.5q0 -70 -49 -107.5t-129 -37.5q-76 0 -125.5 35.5
t-60.5 101.5l35 3q10 -53 50 -80.5t102 -27.5q65 0 103.5 28t38.5 83q0 50 -33.5 71t-122.5 41t-116 36q-45 29 -46 91q0 63 43.5 101t125.5 37z" />
    <glyph glyph-name="t" unicode="t" horiz-adv-x="317" 
d="M244 28q29 0 55 6v-33q-22 -5 -60 -5q-60 0 -95 36t-35 112l1 328h-96v31h96l1 181h36l-1 -181h151v-31h-151l-2 -323q0 -121 100 -121z" />
    <glyph glyph-name="u" unicode="u" horiz-adv-x="581" 
d="M481 0h-33v93q-17 -40 -60.5 -71t-107.5 -31q-83 0 -133.5 55.5t-50.5 143.5v313h35v-309q0 -76 41 -122.5t112 -46.5q73 0 117.5 50t44.5 121v307h35v-503z" />
    <glyph glyph-name="v" unicode="v" horiz-adv-x="494" 
d="M247 -8l-232 511h39l193 -429l193 429h38z" />
    <glyph glyph-name="w" unicode="w" horiz-adv-x="799" 
d="M574 77l170 426h39l-208 -512l-176 432l-176 -432l-208 512h39l170 -426l175 433z" />
    <glyph glyph-name="x" unicode="x" horiz-adv-x="482" 
d="M266 261l194 -261h-43l-176 237l-177 -237h-42l193 262l-179 241h42l163 -218l162 218h42z" />
    <glyph glyph-name="y" unicode="y" horiz-adv-x="497" 
d="M144 -255h-40l125 283l-205 475h38l186 -434l187 434h39z" />
    <glyph glyph-name="z" unicode="z" horiz-adv-x="445" 
d="M87 32h330v-32h-392l320 472h-307v31h368z" />
    <glyph glyph-name="braceleft" unicode="{" horiz-adv-x="207" 
d="M182 687h-6q-111 0 -71 -189q6 -29 9.5 -49t5 -44t-2 -39.5t-13.5 -28t-27 -17.5q21 -6 31.5 -22t11 -43t-3 -51.5t-11.5 -61.5q-40 -189 71 -189h6v-30h-6q-73 0 -100.5 56.5t-4.5 161.5q9 41 13 65.5t2.5 50t-15.5 37t-40 11.5h-8v30h8q26 0 40 11.5t15 37t-2.5 50
t-12.5 66.5q-23 104 4.5 160.5t100.5 56.5h6v-30z" />
    <glyph glyph-name="bar" unicode="|" horiz-adv-x="224" 
d="M129 -67h-35v815h35v-815z" />
    <glyph glyph-name="braceright" unicode="}" horiz-adv-x="207" 
d="M24 717h6q73 0 100.5 -56.5t4.5 -160.5q-9 -42 -12.5 -66.5t-2.5 -50t15 -37t40 -11.5h8v-30h-8q-26 0 -40 -11.5t-15.5 -37t2.5 -50t13 -65.5q23 -105 -4.5 -161.5t-100.5 -56.5h-6v30h6q111 0 71 189q-6 29 -9.5 49t-5 44t2 39.5t13.5 28t27 17.5q-21 6 -31.5 22
t-11 43t3 51.5t11.5 61.5q40 189 -71 189h-6v30z" />
    <glyph glyph-name="asciitilde" unicode="~" horiz-adv-x="529" 
d="M481 419l18 -23q-33 -39 -63.5 -57.5t-78.5 -18.5q-42 0 -74 16.5t-59 33t-57 16.5q-39 0 -64 -14t-55 -49l-18 23q32 39 61 56.5t73 17.5q37 0 89.5 -33.5t100.5 -33.5q43 0 70 15.5t57 50.5z" />
    <glyph glyph-name="exclamdown" unicode="&#xa1;" horiz-adv-x="241" 
d="M121 441q-15 0 -25 10t-10 24t10 24t25 10q14 0 23.5 -10t9.5 -24t-9.5 -24t-23.5 -10zM103 320h36l2 -568h-40z" />
    <glyph glyph-name="cent" unicode="&#xa2;" horiz-adv-x="565" 
d="M483 165l34 -3q-13 -77 -66.5 -122t-137.5 -49v-109h-30v110q-98 5 -160 74t-62 186q0 116 61.5 185t160.5 75v115h30v-115q83 -5 138.5 -54t64.5 -129l-34 -3q-9 72 -59 113.5t-124 41.5q-90 0 -146 -60.5t-56 -168.5t57 -168.5t146 -60.5q75 0 123.5 37.5t59.5 104.5z
" />
    <glyph glyph-name="sterling" unicode="&#xa3;" horiz-adv-x="530" 
d="M498 33v-33h-456v31q58 36 87 86.5t23 127.5l-7 102h-116v30h113l-10 144q-9 112 34.5 174t142.5 62q86 0 130 -45.5t44 -119.5l-36 -2q0 60 -35 97t-104 37q-154 0 -141 -196l11 -151h191v-30h-189l7 -102q5 -74 -21.5 -123.5t-76.5 -88.5h409z" />
    <glyph glyph-name="currency" unicode="&#xa4;" horiz-adv-x="576" 
d="M459 253q0 -80 -40 -131l126 -126l-23 -22l-125 125q-45 -40 -109 -40q-62 0 -109 39l-124 -124l-23 22l126 126q-41 50 -41 131t41 131l-126 126l23 22l125 -125q45 39 108 39q64 0 109 -39l125 125l23 -22l-126 -126q40 -53 40 -131zM289 86q60 0 100 45t40 122
t-40 122t-100 45q-61 0 -101.5 -45t-40.5 -122t40.5 -122t101.5 -45z" />
    <glyph glyph-name="yen" unicode="&#xa5;" horiz-adv-x="648" 
d="M351 344h138v-24h-147v-112h147v-25h-147v-183h-37v183h-146v25h146v112h-146v24h137l-274 404h43l259 -382l258 382h43z" />
    <glyph glyph-name="brokenbar" unicode="&#xa6;" horiz-adv-x="224" 
d="M129 429h-35v319h35v-319zM129 -67h-35v319h35v-319z" />
    <glyph glyph-name="section" unicode="&#xa7;" horiz-adv-x="505" 
d="M361 244q42 -18 62.5 -46t20.5 -74q0 -73 -52.5 -112.5t-136.5 -39.5q-86 0 -142 40t-57 111l35 1q1 -57 47 -90t117 -33q69 0 111.5 31t42.5 90q0 25 -9 44t-22 30.5t-37 21.5t-44 15t-54 12q-83 18 -126 48.5t-43 91.5q0 42 16.5 68.5t51.5 50.5q-66 32 -66 110
q0 69 47.5 106t121.5 37q79 0 129 -37.5t51 -104.5l-35 -1q-1 52 -41.5 82.5t-103.5 30.5q-59 0 -96.5 -29t-37.5 -84q0 -23 8 -40.5t19 -28t33 -19.5t38.5 -13.5t47.5 -11.5q85 -19 127.5 -49t42.5 -91q0 -42 -16 -67.5t-50 -49.5zM106 386q0 -51 36.5 -73.5t112.5 -39.5
q57 -13 73 -18q35 22 50.5 44.5t15.5 60.5q0 51 -36 73.5t-113 39.5q-48 11 -73 19q-34 -22 -50 -45.5t-16 -60.5z" />
    <glyph glyph-name="dieresis" unicode="&#xa8;" horiz-adv-x="227" 
d="M57 710q12 0 20.5 -8t8.5 -20t-8.5 -19.5t-20.5 -7.5t-20 7.5t-8 19.5t8 20t20 8zM170 710q12 0 20 -8t8 -20t-8 -19.5t-20 -7.5t-20.5 7.5t-8.5 19.5t8.5 20t20.5 8z" />
    <glyph glyph-name="copyright" unicode="&#xa9;" horiz-adv-x="572" 
d="M286 757q107 0 179.5 -72t72.5 -178q0 -105 -73 -177t-179 -72q-107 0 -180 72t-73 177q0 106 73 178t180 72zM286 741q-99 0 -167 -68t-68 -166t68 -165.5t167 -67.5t167 67.5t68 165.5t-68 166t-167 68zM287 663q53 0 90.5 -30t43.5 -80l-23 -1q-5 42 -36 65.5
t-75 23.5q-53 0 -87 -35.5t-34 -98.5t34.5 -98.5t87.5 -35.5q44 0 74 22t37 60l23 -1q-8 -48 -44.5 -75.5t-89.5 -27.5q-62 0 -103.5 43t-41.5 113q0 72 41 114t103 42z" />
    <glyph glyph-name="ordfeminine" unicode="&#xaa;" horiz-adv-x="514" 
d="M245 755q57 0 99 -23.5t60 -64.5v81h31v-403h-31v82q-18 -41 -60 -64.5t-99 -23.5q-84 0 -140.5 56t-56.5 152t56.5 152t140.5 56zM247 727q-72 0 -119 -48t-47 -133q0 -84 47 -131.5t119 -47.5q69 0 112.5 42t43.5 123v29q0 81 -43.5 123.5t-112.5 42.5z" />
    <glyph glyph-name="guillemotleft" unicode="&#xab;" horiz-adv-x="487" 
d="M235 437l-178 -187l178 -187l-27 -19l-193 206l193 206zM464 437l-178 -187l178 -187l-27 -19l-193 206l193 206z" />
    <glyph glyph-name="logicalnot" unicode="&#xac;" horiz-adv-x="516" 
d="M465 181h-29v174h-393v28h422v-202z" />
    <glyph glyph-name="registered" unicode="&#xae;" horiz-adv-x="572" 
d="M286 757q107 0 179.5 -72t72.5 -178q0 -105 -73 -177t-179 -72q-107 0 -180 72t-73 177q0 106 73 178t180 72zM286 274q99 0 167 67.5t68 165.5t-68 166t-167 68t-167 -68t-68 -166t68 -165.5t167 -67.5zM389 572q0 -68 -58 -85l75 -134h-24l-74 130h-9h-88v-130h-22v306
h110q40 0 65 -22t25 -65zM211 504h83q73 0 73 68q0 66 -73 66h-83v-134z" />
    <glyph glyph-name="macron" unicode="&#xaf;" horiz-adv-x="275" 
d="M254 649h-232v28h232v-28z" />
    <glyph glyph-name="degree" unicode="&#xb0;" horiz-adv-x="322" 
d="M160 756q59 0 94 -34.5t35 -95.5v-22q0 -62 -35 -96.5t-94 -34.5q-58 0 -92.5 34.5t-34.5 96.5v22q0 62 34.5 96t92.5 34zM160 732q-47 0 -74 -28t-27 -79v-20q0 -52 27 -80t74 -28t75 28.5t28 79.5v20q0 50 -28 78.5t-75 28.5z" />
    <glyph glyph-name="plusminus" unicode="&#xb1;" horiz-adv-x="545" 
d="M289 476h221v-33h-221v-224h-34v224h-221v33h221v217h34v-217zM510 113h-476v33h476v-33z" />
    <glyph glyph-name="acute" unicode="&#xb4;" horiz-adv-x="209" 
d="M54 592h-30l119 191h40z" />
    <glyph glyph-name="paragraph" unicode="&#xb6;" horiz-adv-x="628" 
d="M605 720h-68v-787h-29v787h-160v-787h-29v455h-68q-89 0 -144 47t-55 134q0 85 55.5 132t143.5 47h354v-28z" />
    <glyph glyph-name="periodcentered" unicode="&#xb7;" horiz-adv-x="171" 
d="M83 305q15 0 25 -10t10 -24t-10 -24t-25 -10q-14 0 -23.5 10t-9.5 24t9.5 24t23.5 10z" />
    <glyph glyph-name="cedilla" unicode="&#xb8;" horiz-adv-x="274" 
d="M138 5l-14 -71q54 -1 85 -23.5t31 -64.5q0 -40 -32 -62.5t-77 -22.5q-57 0 -99 26l8 22q39 -24 88 -24q35 0 59.5 16t24.5 45q0 66 -96 66q-8 0 -20 -2l21 95h21z" />
    <glyph glyph-name="ordmasculine" unicode="&#xba;" horiz-adv-x="500" 
d="M249 755q87 0 144.5 -57t57.5 -152t-57.5 -151t-144.5 -56t-144 56t-57 151t57.5 152t143.5 57zM250 727q-73 0 -121 -49t-48 -132q0 -82 48 -130.5t121 -48.5t121.5 48.5t48.5 130.5q0 83 -48.5 132t-121.5 49z" />
    <glyph glyph-name="guillemotright" unicode="&#xbb;" horiz-adv-x="487" 
d="M243 250l-193 -206l-27 19l177 187l-177 187l27 19zM472 250l-193 -206l-27 19l177 187l-177 187l27 19z" />
    <glyph glyph-name="onequarter" unicode="&#xbc;" horiz-adv-x="643" 
d="M49 0h-37l545 748h37zM152 322h-29v360l-91 -69l-13 21l133 104v-416zM546 134h76v-25h-76v-109h-28v109h-206l234 309v-284zM363 134h155v206z" />
    <glyph glyph-name="onehalf" unicode="&#xbd;" horiz-adv-x="680" 
d="M49 0h-37l545 748h37zM152 322h-29v360l-91 -69l-13 21l133 104v-416zM528 416q55 0 84.5 -31.5t29.5 -83.5q0 -47 -20 -83.5t-63 -84.5l-97 -107h186v-26h-244l132 147q40 44 58.5 77.5t18.5 74.5t-22.5 66t-62.5 25q-43 0 -67.5 -25.5t-25.5 -72.5l-28 2
q2 57 33.5 89.5t87.5 32.5z" />
    <glyph glyph-name="threequarters" unicode="&#xbe;" horiz-adv-x="746" 
d="M152 0h-37l545 748h37zM157 738q52 0 82.5 -28.5t30.5 -78.5q0 -35 -19 -61t-42 -34q30 -7 51.5 -34t21.5 -68q0 -54 -33.5 -85.5t-89.5 -31.5q-57 0 -89 31t-37 86l29 3q5 -45 29.5 -69t67.5 -24q44 0 69.5 24.5t25.5 66.5t-27.5 64t-72.5 22h-38v26h38q37 0 62.5 23
t25.5 60q0 38 -23 60t-62 22t-63 -23t-26 -65l-28 1q3 53 33.5 83t83.5 30zM649 134h76v-25h-76v-109h-28v109h-206l234 309v-284zM466 134h155v206z" />
    <glyph glyph-name="questiondown" unicode="&#xbf;" horiz-adv-x="473" 
d="M246 444q-15 0 -25 10t-10 24t10 24t25 10q14 0 23.5 -10t9.5 -24t-9.5 -24t-23.5 -10zM236 -254q-100 0 -156.5 58t-56.5 147q0 65 26.5 104.5t85.5 80.5q53 39 71.5 73t18.5 89v25h37v-27q0 -56 -20 -94t-76 -81q-55 -38 -80 -74.5t-25 -94.5q0 -75 46 -124t129 -49
q161 0 181 153l37 -2q-8 -86 -65.5 -135t-152.5 -49z" />
    <glyph glyph-name="Agrave" unicode="&#xc0;" horiz-adv-x="691" 
d="M364 795h-38l-180 130h52zM667 0h-41l-95 226h-372l-95 -226h-41l322 760zM175 259h341l-170 407z" />
    <glyph glyph-name="Aacute" unicode="&#xc1;" horiz-adv-x="691" 
d="M363 795h-37l166 130h52zM667 0h-41l-95 226h-372l-95 -226h-41l322 760zM175 259h341l-170 407z" />
    <glyph glyph-name="Acircumflex" unicode="&#xc2;" horiz-adv-x="691" 
d="M483 795h-33l-104 103l-104 -103h-33l122 129h31zM667 0h-41l-95 226h-372l-95 -226h-41l322 760zM175 259h341l-170 407z" />
    <glyph glyph-name="Atilde" unicode="&#xc3;" horiz-adv-x="691" 
d="M275 915q31 0 72.5 -33.5t66.5 -33.5q26 0 40.5 17t15.5 43h22q1 -37 -20 -62.5t-55 -25.5q-31 0 -72.5 33.5t-66.5 33.5q-26 0 -40.5 -17t-15.5 -43h-22q-1 37 20 62.5t55 25.5zM667 0h-41l-95 226h-372l-95 -226h-41l322 760zM175 259h341l-170 407z" />
    <glyph glyph-name="Adieresis" unicode="&#xc4;" horiz-adv-x="691" 
d="M290 888q12 0 20.5 -8.5t8.5 -19.5q0 -12 -8.5 -20t-20.5 -8t-20 8t-8 20q0 11 8 19.5t20 8.5zM403 888q12 0 20 -8.5t8 -19.5q0 -12 -8 -20t-20 -8t-20.5 8t-8.5 20q0 11 8.5 19.5t20.5 8.5zM667 0h-41l-95 226h-372l-95 -226h-41l322 760zM175 259h341l-170 407z" />
    <glyph glyph-name="Aring" unicode="&#xc5;" horiz-adv-x="691" 
d="M345 972q39 0 66 -25.5t27 -64.5t-27 -64t-66 -25t-66 25t-27 64t27 64.5t66 25.5zM345 946q-28 0 -47 -17.5t-19 -46.5q0 -28 19 -45.5t47 -17.5q29 0 47.5 17.5t18.5 45.5q0 29 -18.5 46.5t-47.5 17.5zM667 0h-41l-95 226h-372l-95 -226h-41l322 760zM175 259h341
l-170 407z" />
    <glyph glyph-name="AE" unicode="&#xc6;" horiz-adv-x="987" 
d="M544 715v-310h366v-33h-366v-339h410v-33h-447v226h-300l-149 -226h-45l494 748h447v-33h-410zM507 259v423l-278 -423h278z" />
    <glyph glyph-name="Ccedilla" unicode="&#xc7;" horiz-adv-x="793" 
d="M710 247l38 -3q-19 -114 -104 -181.5t-210 -71.5l-12 -62q54 -1 85 -23.5t31 -64.5q0 -40 -32 -62.5t-77 -22.5q-57 0 -99 26l8 22q39 -24 88 -24q35 0 59.5 16t24.5 45q0 66 -96 66q-8 0 -20 -2l19 86q-153 3 -251.5 105t-98.5 278q0 179 99 281t256 102
q131 0 223 -73.5t106 -196.5l-38 -4q-13 110 -94.5 175t-197.5 65q-141 0 -229 -93t-88 -256q0 -164 90 -256.5t230 -92.5q115 0 193 59t97 163z" />
    <glyph glyph-name="Egrave" unicode="&#xc8;" 
d="M349 795h-38l-180 130h52zM550 715h-410v-310h366v-33h-366v-339h410v-33h-447v748h447v-33z" />
    <glyph glyph-name="Eacute" unicode="&#xc9;" 
d="M348 795h-37l166 130h52zM550 715h-410v-310h366v-33h-366v-339h410v-33h-447v748h447v-33z" />
    <glyph glyph-name="Ecircumflex" unicode="&#xca;" 
d="M468 795h-33l-104 103l-104 -103h-33l122 129h31zM550 715h-410v-310h366v-33h-366v-339h410v-33h-447v748h447v-33z" />
    <glyph glyph-name="Edieresis" unicode="&#xcb;" 
d="M275 888q12 0 20.5 -8.5t8.5 -19.5q0 -12 -8.5 -20t-20.5 -8t-20 8t-8 20q0 11 8 19.5t20 8.5zM388 888q12 0 20 -8.5t8 -19.5q0 -12 -8 -20t-20 -8t-20.5 8t-8.5 20q0 11 8.5 19.5t20.5 8.5zM550 715h-410v-310h366v-33h-366v-339h410v-33h-447v748h447v-33z" />
    <glyph glyph-name="Igrave" unicode="&#xcc;" horiz-adv-x="243" 
d="M141 795h-38l-180 130h52zM140 0h-37v748h37v-748z" />
    <glyph glyph-name="Iacute" unicode="&#xcd;" horiz-adv-x="243" 
d="M140 795h-37l166 130h52zM140 0h-37v748h37v-748z" />
    <glyph glyph-name="Icircumflex" unicode="&#xce;" horiz-adv-x="243" 
d="M260 795h-33l-104 103l-104 -103h-33l122 129h31zM140 0h-37v748h37v-748z" />
    <glyph glyph-name="Idieresis" unicode="&#xcf;" horiz-adv-x="243" 
d="M67 888q12 0 20.5 -8.5t8.5 -19.5q0 -12 -8.5 -20t-20.5 -8t-20 8t-8 20q0 11 8 19.5t20 8.5zM180 888q12 0 20 -8.5t8 -19.5q0 -12 -8 -20t-20 -8t-20.5 8t-8.5 20q0 11 8.5 19.5t20.5 8.5zM140 0h-37v748h37v-748z" />
    <glyph glyph-name="Eth" unicode="&#xd0;" horiz-adv-x="783" 
d="M125 748h278q154 0 252 -100t98 -274t-99.5 -274t-252.5 -100h-276v359h-126v30h126v359zM162 32h239q139 0 227.5 91t88.5 251q0 161 -87 251.5t-226 90.5h-242v-327h185v-30h-185v-327z" />
    <glyph glyph-name="Ntilde" unicode="&#xd1;" horiz-adv-x="734" 
d="M295 915q31 0 72 -33.5t67 -33.5t40.5 17t15.5 43h22q1 -37 -20 -62.5t-55 -25.5q-31 0 -72 33.5t-67 33.5t-40.5 -17t-15.5 -43h-22q-1 37 20 62.5t55 25.5zM594 100v648h37v-757l-491 657v-648h-37v757z" />
    <glyph glyph-name="Ograve" unicode="&#xd2;" horiz-adv-x="858" 
d="M432 795h-38l-180 130h52zM429 757q157 0 261 -103.5t104 -279.5t-104 -279.5t-261 -103.5t-261.5 103.5t-104.5 279.5t104.5 279.5t261.5 103.5zM429 723q-141 0 -234.5 -94t-93.5 -255t93.5 -255t234.5 -94t234.5 94t93.5 255t-93.5 255t-234.5 94z" />
    <glyph glyph-name="Oacute" unicode="&#xd3;" horiz-adv-x="858" 
d="M431 795h-37l166 130h52zM429 757q157 0 261 -103.5t104 -279.5t-104 -279.5t-261 -103.5t-261.5 103.5t-104.5 279.5t104.5 279.5t261.5 103.5zM429 723q-141 0 -234.5 -94t-93.5 -255t93.5 -255t234.5 -94t234.5 94t93.5 255t-93.5 255t-234.5 94z" />
    <glyph glyph-name="Ocircumflex" unicode="&#xd4;" horiz-adv-x="858" 
d="M551 795h-33l-104 103l-104 -103h-33l122 129h31zM429 757q157 0 261 -103.5t104 -279.5t-104 -279.5t-261 -103.5t-261.5 103.5t-104.5 279.5t104.5 279.5t261.5 103.5zM429 723q-141 0 -234.5 -94t-93.5 -255t93.5 -255t234.5 -94t234.5 94t93.5 255t-93.5 255
t-234.5 94z" />
    <glyph glyph-name="Otilde" unicode="&#xd5;" horiz-adv-x="858" 
d="M343 915q32 0 73 -33.5t66 -33.5q26 0 40.5 17t15.5 43h22q1 -37 -20 -62.5t-55 -25.5q-31 0 -72 33.5t-67 33.5t-40.5 -17t-15.5 -43h-22q-1 37 20 62.5t55 25.5zM429 757q157 0 261 -103.5t104 -279.5t-104 -279.5t-261 -103.5t-261.5 103.5t-104.5 279.5t104.5 279.5
t261.5 103.5zM429 723q-141 0 -234.5 -94t-93.5 -255t93.5 -255t234.5 -94t234.5 94t93.5 255t-93.5 255t-234.5 94z" />
    <glyph glyph-name="Odieresis" unicode="&#xd6;" horiz-adv-x="858" 
d="M358 888q12 0 20.5 -8.5t8.5 -19.5q0 -12 -8.5 -20t-20.5 -8t-20 8t-8 20q0 11 8 19.5t20 8.5zM471 888q12 0 20 -8.5t8 -19.5q0 -12 -8 -20t-20 -8t-20.5 8t-8.5 20q0 11 8.5 19.5t20.5 8.5zM429 757q157 0 261 -103.5t104 -279.5t-104 -279.5t-261 -103.5t-261.5 103.5
t-104.5 279.5t104.5 279.5t261.5 103.5zM429 723q-141 0 -234.5 -94t-93.5 -255t93.5 -255t234.5 -94t234.5 94t93.5 255t-93.5 255t-234.5 94z" />
    <glyph glyph-name="multiply" unicode="&#xd7;" horiz-adv-x="502" 
d="M442 534l-166 -165l170 -171l-24 -24l-170 171l-172 -172l-23 24l172 172l-170 170l23 23l170 -171l167 167z" />
    <glyph glyph-name="Oslash" unicode="&#xd8;" horiz-adv-x="828" 
d="M722 755l-59 -77q131 -108 131 -304q0 -176 -104 -279.5t-261 -103.5q-135 0 -232 77l-70 -91l-23 18l71 93q-112 106 -112 286q0 176 104.5 279.5t261.5 103.5q120 0 210 -61l59 77zM101 374q0 -161 96 -257l421 551q-82 55 -189 55q-141 0 -234.5 -94t-93.5 -255z
M429 25q141 0 234.5 94t93.5 255q0 178 -116 276l-422 -553q87 -72 210 -72z" />
    <glyph glyph-name="Ugrave" unicode="&#xd9;" horiz-adv-x="753" 
d="M393 795h-38l-180 130h52zM656 748v-487q0 -131 -75.5 -200.5t-205.5 -69.5q-129 0 -204 69.5t-75 200.5v487h37v-487q0 -116 64.5 -176t177.5 -60t178.5 60t65.5 176v487h37z" />
    <glyph glyph-name="Uacute" unicode="&#xda;" horiz-adv-x="753" 
d="M392 795h-37l166 130h52zM656 748v-487q0 -131 -75.5 -200.5t-205.5 -69.5q-129 0 -204 69.5t-75 200.5v487h37v-487q0 -116 64.5 -176t177.5 -60t178.5 60t65.5 176v487h37z" />
    <glyph glyph-name="Ucircumflex" unicode="&#xdb;" horiz-adv-x="753" 
d="M512 795h-33l-104 103l-104 -103h-33l122 129h31zM656 748v-487q0 -131 -75.5 -200.5t-205.5 -69.5q-129 0 -204 69.5t-75 200.5v487h37v-487q0 -116 64.5 -176t177.5 -60t178.5 60t65.5 176v487h37z" />
    <glyph glyph-name="Udieresis" unicode="&#xdc;" horiz-adv-x="753" 
d="M319 888q12 0 20.5 -8.5t8.5 -19.5q0 -12 -8.5 -20t-20.5 -8t-20 8t-8 20q0 11 8 19.5t20 8.5zM432 888q12 0 20 -8.5t8 -19.5q0 -12 -8 -20t-20 -8t-20.5 8t-8.5 20q0 11 8.5 19.5t20.5 8.5zM656 748v-487q0 -131 -75.5 -200.5t-205.5 -69.5q-129 0 -204 69.5t-75 200.5
v487h37v-487q0 -116 64.5 -176t177.5 -60t178.5 60t65.5 176v487h37z" />
    <glyph glyph-name="Yacute" unicode="&#xdd;" horiz-adv-x="648" 
d="M341 795h-37l166 130h52zM342 330v-330h-37v330l-283 418h43l259 -382l258 382h43z" />
    <glyph glyph-name="Thorn" unicode="&#xde;" horiz-adv-x="616" 
d="M140 635h211q94 0 156 -55t62 -155q0 -101 -62.5 -156t-155.5 -55h-211v-214h-37v748h37v-113zM140 602v-355h207q78 0 131.5 46.5t53.5 131.5t-53.5 131t-131.5 46h-207z" />
    <glyph glyph-name="germandbls" unicode="&#xdf;" horiz-adv-x="612" 
d="M283 785q82 0 130 -40t48 -107q0 -33 -14.5 -59.5t-32.5 -42t-32.5 -39t-14.5 -49.5t19.5 -49t47 -43t55.5 -43.5t47.5 -61.5t19.5 -87q0 -81 -54 -126.5t-143 -45.5q-62 0 -96 15l9 31q44 -16 85 -16q74 0 119 38.5t45 105.5q0 44 -19.5 78.5t-47.5 56.5t-56 42.5
t-47.5 46.5t-19.5 57t14.5 56.5t32.5 40.5t32.5 38.5t14.5 50.5q0 56 -37.5 88.5t-103.5 32.5q-68 0 -110 -38t-42 -98v-618h-35v619q0 73 51.5 119.5t134.5 46.5z" />
    <glyph glyph-name="agrave" unicode="&#xe0;" horiz-adv-x="642" 
d="M324 592h-29l-130 191h41zM305 512q74 0 126.5 -32t76.5 -84v107h34v-503h-34v106q-24 -51 -77 -83t-126 -32q-105 0 -174.5 69.5t-69.5 190.5t69.5 191t174.5 70zM306 480q-91 0 -150.5 -60.5t-59.5 -167.5q0 -108 59.5 -168.5t150.5 -60.5q89 0 144.5 53.5t55.5 156.5
v37q0 103 -55.5 156.5t-144.5 53.5z" />
    <glyph glyph-name="aacute" unicode="&#xe1;" horiz-adv-x="642" 
d="M324 592h-30l119 191h40zM305 512q74 0 126.5 -32t76.5 -84v107h34v-503h-34v106q-24 -51 -77 -83t-126 -32q-105 0 -174.5 69.5t-69.5 190.5t69.5 191t174.5 70zM306 480q-91 0 -150.5 -60.5t-59.5 -167.5q0 -108 59.5 -168.5t150.5 -60.5q89 0 144.5 53.5t55.5 156.5
v37q0 103 -55.5 156.5t-144.5 53.5z" />
    <glyph glyph-name="acircumflex" unicode="&#xe2;" horiz-adv-x="642" 
d="M448 593h-32l-106 135l-106 -135h-32l122 163h31zM305 512q74 0 126.5 -32t76.5 -84v107h34v-503h-34v106q-24 -51 -77 -83t-126 -32q-105 0 -174.5 69.5t-69.5 190.5t69.5 191t174.5 70zM306 480q-91 0 -150.5 -60.5t-59.5 -167.5q0 -108 59.5 -168.5t150.5 -60.5
q89 0 144.5 53.5t55.5 156.5v37q0 103 -55.5 156.5t-144.5 53.5z" />
    <glyph glyph-name="atilde" unicode="&#xe3;" horiz-adv-x="642" 
d="M237 714q31 0 72 -33t67 -33q25 0 40 16.5t16 42.5h22q1 -37 -20 -62t-55 -25q-31 0 -72 33t-67 33q-25 0 -40 -16.5t-16 -42.5h-22q-1 37 20 62t55 25zM305 512q74 0 126.5 -32t76.5 -84v107h34v-503h-34v106q-24 -51 -77 -83t-126 -32q-105 0 -174.5 69.5t-69.5 190.5
t69.5 191t174.5 70zM306 480q-91 0 -150.5 -60.5t-59.5 -167.5q0 -108 59.5 -168.5t150.5 -60.5q89 0 144.5 53.5t55.5 156.5v37q0 103 -55.5 156.5t-144.5 53.5z" />
    <glyph glyph-name="adieresis" unicode="&#xe4;" horiz-adv-x="642" 
d="M249 710q12 0 20.5 -8t8.5 -20t-8.5 -19.5t-20.5 -7.5t-20 7.5t-8 19.5t8 20t20 8zM362 710q12 0 20 -8t8 -20t-8 -19.5t-20 -7.5t-20.5 7.5t-8.5 19.5t8.5 20t20.5 8zM305 512q74 0 126.5 -32t76.5 -84v107h34v-503h-34v106q-24 -51 -77 -83t-126 -32
q-105 0 -174.5 69.5t-69.5 190.5t69.5 191t174.5 70zM306 480q-91 0 -150.5 -60.5t-59.5 -167.5q0 -108 59.5 -168.5t150.5 -60.5q89 0 144.5 53.5t55.5 156.5v37q0 103 -55.5 156.5t-144.5 53.5z" />
    <glyph glyph-name="aring" unicode="&#xe5;" horiz-adv-x="642" 
d="M310 777q41 0 69.5 -26.5t28.5 -67.5q0 -40 -28.5 -66.5t-69.5 -26.5q-42 0 -71 26.5t-29 66.5q0 41 29 67.5t71 26.5zM309 751q-32 0 -52 -19t-20 -49q0 -29 20.5 -48t51.5 -19t51.5 19t20.5 48q0 30 -20 49t-52 19zM305 512q74 0 126.5 -32t76.5 -84v107h34v-503h-34
v106q-24 -51 -77 -83t-126 -32q-105 0 -174.5 69.5t-69.5 190.5t69.5 191t174.5 70zM306 480q-91 0 -150.5 -60.5t-59.5 -167.5q0 -108 59.5 -168.5t150.5 -60.5q89 0 144.5 53.5t55.5 156.5v37q0 103 -55.5 156.5t-144.5 53.5z" />
    <glyph glyph-name="ae" unicode="&#xe6;" horiz-adv-x="921" 
d="M862 239h-427q1 -101 58.5 -158.5t144.5 -57.5q72 0 120 32.5t64 91.5l35 -3q-18 -71 -75.5 -112t-142.5 -41q-75 0 -134 37.5t-86 106.5q-23 -71 -76 -107.5t-124 -36.5q-72 0 -115 35t-43 100q0 133 184 145l153 9v24q0 85 -35 131t-104 46t-108.5 -42.5t-39.5 -100.5
l-35 2q0 69 49.5 120.5t132.5 51.5q132 0 165 -132q29 64 85.5 98t129.5 34q106 0 165 -67t59 -177v-29zM637 480q-86 0 -142.5 -55t-59.5 -154h393v3q0 92 -49.5 149t-141.5 57zM398 248l-150 -9q-152 -10 -152 -112q0 -53 34 -78.5t92 -25.5q75 0 125.5 47.5t50.5 150.5
v27z" />
    <glyph glyph-name="ccedilla" unicode="&#xe7;" horiz-adv-x="565" 
d="M483 165l34 -3q-13 -77 -67 -122.5t-138 -48.5l-12 -61q54 -1 85 -23.5t31 -64.5q0 -40 -32 -62.5t-77 -22.5q-57 0 -99 26l8 22q39 -24 88 -24q35 0 59.5 16t24.5 45q0 66 -96 66q-8 0 -20 -2l19 85q-101 3 -165.5 72.5t-64.5 188.5q0 121 66.5 190.5t171.5 69.5
q88 0 147.5 -49.5t69.5 -133.5l-34 -3q-9 72 -59 113.5t-124 41.5q-90 0 -146 -60.5t-56 -168.5t57 -168.5t146 -60.5q75 0 123.5 37.5t59.5 104.5z" />
    <glyph glyph-name="egrave" unicode="&#xe8;" 
d="M285 592l-130 191h41l118 -191h-29zM525 239h-427q1 -101 58.5 -158.5t144.5 -57.5q72 0 120 32.5t64 91.5l35 -3q-18 -71 -75.5 -112t-142.5 -41q-105 0 -173 70t-68 191t67 190.5t173 69.5t165 -67t59 -177v-29zM300 480q-86 0 -142.5 -55t-59.5 -154h393v3
q0 92 -49.5 149t-141.5 57z" />
    <glyph glyph-name="eacute" unicode="&#xe9;" 
d="M314 592h-30l119 191h40zM525 239h-427q1 -101 58.5 -158.5t144.5 -57.5q72 0 120 32.5t64 91.5l35 -3q-18 -71 -75.5 -112t-142.5 -41q-105 0 -173 70t-68 191t67 190.5t173 69.5t165 -67t59 -177v-29zM300 480q-86 0 -142.5 -55t-59.5 -154h393v3q0 92 -49.5 149
t-141.5 57z" />
    <glyph glyph-name="ecircumflex" unicode="&#xea;" 
d="M194 593h-32l122 163h31l123 -163h-32l-106 135zM525 239h-427q1 -101 58.5 -158.5t144.5 -57.5q72 0 120 32.5t64 91.5l35 -3q-18 -71 -75.5 -112t-142.5 -41q-105 0 -173 70t-68 191t67 190.5t173 69.5t165 -67t59 -177v-29zM300 480q-86 0 -142.5 -55t-59.5 -154h393
v3q0 92 -49.5 149t-141.5 57z" />
    <glyph glyph-name="edieresis" unicode="&#xeb;" 
d="M239 655q-12 0 -20 7.5t-8 19.5t8 20t20 8t20.5 -8t8.5 -20t-8.5 -19.5t-20.5 -7.5zM352 655q-12 0 -20.5 7.5t-8.5 19.5t8.5 20t20.5 8t20 -8t8 -20t-8 -19.5t-20 -7.5zM525 239h-427q1 -101 58.5 -158.5t144.5 -57.5q72 0 120 32.5t64 91.5l35 -3q-18 -71 -75.5 -112
t-142.5 -41q-105 0 -173 70t-68 191t67 190.5t173 69.5t165 -67t59 -177v-29zM300 480q-86 0 -142.5 -55t-59.5 -154h393v3q0 92 -49.5 149t-141.5 57z" />
    <glyph glyph-name="igrave" unicode="&#xec;" horiz-adv-x="236" 
d="M133 592h-29l-130 191h41zM135 0h-35v503h35v-503z" />
    <glyph glyph-name="iacute" unicode="&#xed;" horiz-adv-x="236" 
d="M133 592h-30l119 191h40zM135 0h-35v503h35v-503z" />
    <glyph glyph-name="icircumflex" unicode="&#xee;" horiz-adv-x="236" 
d="M257 593h-32l-106 135l-106 -135h-32l122 163h31zM135 0h-35v503h35v-503z" />
    <glyph glyph-name="idieresis" unicode="&#xef;" horiz-adv-x="236" 
d="M58 710q12 0 20.5 -8t8.5 -20t-8.5 -19.5t-20.5 -7.5t-20 7.5t-8 19.5t8 20t20 8zM171 710q12 0 20 -8t8 -20t-8 -19.5t-20 -7.5t-20.5 7.5t-8.5 19.5t8.5 20t20.5 8zM135 0h-35v503h35v-503z" />
    <glyph glyph-name="eth" unicode="&#xf0;" horiz-adv-x="602" 
d="M487 768l-117 -80q76 -68 115.5 -182.5t39.5 -259.5q0 -122 -66.5 -188.5t-167.5 -66.5q-100 0 -166 66t-66 179q0 111 66 178.5t166 67.5q119 0 188 -92q-31 188 -136 280l-118 -80l-17 19l115 77q-81 60 -196 61v30q130 0 224 -72l120 80zM293 23q85 0 141 56.5
t56 159.5q0 96 -55 154t-142 58q-88 0 -143.5 -58.5t-55.5 -156.5t56 -155.5t143 -57.5z" />
    <glyph glyph-name="ntilde" unicode="&#xf1;" horiz-adv-x="600" 
d="M235 714q31 0 72 -33t67 -33q25 0 40 16.5t16 42.5h22q1 -37 -20 -62t-55 -25q-31 0 -72 33t-67 33q-25 0 -40 -16.5t-16 -42.5h-22q-1 37 20 62t55 25zM310 512q84 0 138.5 -55.5t54.5 -144.5v-312h-35v308q0 75 -45.5 123t-116.5 48q-74 0 -122.5 -51t-48.5 -120v-308
h-35v503h35v-92q18 41 64 71t111 30z" />
    <glyph glyph-name="ograve" unicode="&#xf2;" horiz-adv-x="624" 
d="M326 592h-29l-130 191h41zM312 512q107 0 179 -71t72 -189t-72 -189.5t-179 -71.5q-108 0 -179.5 71t-71.5 190t71.5 189.5t179.5 70.5zM311 480q-93 0 -154 -61.5t-61 -166.5t61 -167t154 -62t154.5 62t61.5 167t-61.5 166.5t-154.5 61.5z" />
    <glyph glyph-name="oacute" unicode="&#xf3;" horiz-adv-x="624" 
d="M326 592h-30l119 191h40zM312 512q107 0 179 -71t72 -189t-72 -189.5t-179 -71.5q-108 0 -179.5 71t-71.5 190t71.5 189.5t179.5 70.5zM311 480q-93 0 -154 -61.5t-61 -166.5t61 -167t154 -62t154.5 62t61.5 167t-61.5 166.5t-154.5 61.5z" />
    <glyph glyph-name="ocircumflex" unicode="&#xf4;" horiz-adv-x="624" 
d="M450 593h-32l-106 135l-106 -135h-32l122 163h31zM312 512q107 0 179 -71t72 -189t-72 -189.5t-179 -71.5q-108 0 -179.5 71t-71.5 190t71.5 189.5t179.5 70.5zM311 480q-93 0 -154 -61.5t-61 -166.5t61 -167t154 -62t154.5 62t61.5 167t-61.5 166.5t-154.5 61.5z" />
    <glyph glyph-name="otilde" unicode="&#xf5;" horiz-adv-x="624" 
d="M239 714q31 0 72 -33t67 -33q25 0 40 16.5t16 42.5h22q1 -37 -20 -62t-55 -25q-31 0 -72 33t-67 33q-25 0 -40 -16.5t-16 -42.5h-22q-1 37 20 62t55 25zM312 512q107 0 179 -71t72 -189t-72 -189.5t-179 -71.5q-108 0 -179.5 71t-71.5 190t71.5 189.5t179.5 70.5z
M311 480q-93 0 -154 -61.5t-61 -166.5t61 -167t154 -62t154.5 62t61.5 167t-61.5 166.5t-154.5 61.5z" />
    <glyph glyph-name="odieresis" unicode="&#xf6;" horiz-adv-x="624" 
d="M251 710q12 0 20.5 -8t8.5 -20t-8.5 -19.5t-20.5 -7.5t-20 7.5t-8 19.5t8 20t20 8zM364 710q12 0 20 -8t8 -20t-8 -19.5t-20 -7.5t-20.5 7.5t-8.5 19.5t8.5 20t20.5 8zM312 512q107 0 179 -71t72 -189t-72 -189.5t-179 -71.5q-108 0 -179.5 71t-71.5 190t71.5 189.5
t179.5 70.5zM311 480q-93 0 -154 -61.5t-61 -166.5t61 -167t154 -62t154.5 62t61.5 167t-61.5 166.5t-154.5 61.5z" />
    <glyph glyph-name="divide" unicode="&#xf7;" horiz-adv-x="545" 
d="M272 591q15 0 25 -10t10 -24t-10 -23.5t-25 -9.5q-14 0 -23.5 9.5t-9.5 23.5t9.5 24t23.5 10zM510 353h-476v33h476v-33zM272 216q15 0 25 -10t10 -25q0 -14 -10 -23.5t-25 -9.5q-14 0 -23.5 10t-9.5 23q0 15 9.5 25t23.5 10z" />
    <glyph glyph-name="oslash" unicode="&#xf8;" horiz-adv-x="624" 
d="M524 507l-43 -56q82 -74 82 -199q0 -118 -72 -189.5t-179 -71.5q-85 0 -147 44l-44 -58l-21 16l44 58q-83 73 -83 201q0 119 71.5 189.5t179.5 70.5q84 0 149 -45l43 56zM96 252q0 -111 69 -174l276 362q-55 40 -130 40q-93 0 -154 -61.5t-61 -166.5zM311 23
q93 0 154.5 62t61.5 167q0 109 -67 171l-275 -362q53 -38 126 -38z" />
    <glyph glyph-name="ugrave" unicode="&#xf9;" horiz-adv-x="581" 
d="M308 592h-29l-130 191h41zM481 0h-33v93q-17 -40 -60.5 -71t-107.5 -31q-83 0 -133.5 55.5t-50.5 143.5v313h35v-309q0 -76 41 -122.5t112 -46.5q73 0 117.5 50t44.5 121v307h35v-503z" />
    <glyph glyph-name="uacute" unicode="&#xfa;" horiz-adv-x="581" 
d="M308 592h-30l119 191h40zM481 0h-33v93q-17 -40 -60.5 -71t-107.5 -31q-83 0 -133.5 55.5t-50.5 143.5v313h35v-309q0 -76 41 -122.5t112 -46.5q73 0 117.5 50t44.5 121v307h35v-503z" />
    <glyph glyph-name="ucircumflex" unicode="&#xfb;" horiz-adv-x="581" 
d="M432 593h-32l-106 135l-106 -135h-32l122 163h31zM481 0h-33v93q-17 -40 -60.5 -71t-107.5 -31q-83 0 -133.5 55.5t-50.5 143.5v313h35v-309q0 -76 41 -122.5t112 -46.5q73 0 117.5 50t44.5 121v307h35v-503z" />
    <glyph glyph-name="udieresis" unicode="&#xfc;" horiz-adv-x="581" 
d="M233 710q12 0 20.5 -8t8.5 -20t-8.5 -19.5t-20.5 -7.5t-20 7.5t-8 19.5t8 20t20 8zM346 710q12 0 20 -8t8 -20t-8 -19.5t-20 -7.5t-20.5 7.5t-8.5 19.5t8.5 20t20.5 8zM481 0h-33v93q-17 -40 -60.5 -71t-107.5 -31q-83 0 -133.5 55.5t-50.5 143.5v313h35v-309
q0 -76 41 -122.5t112 -46.5q73 0 117.5 50t44.5 121v307h35v-503z" />
    <glyph glyph-name="yacute" unicode="&#xfd;" horiz-adv-x="497" 
d="M263 592h-30l119 191h40zM144 -255h-40l125 283l-205 475h38l186 -434l187 434h39z" />
    <glyph glyph-name="thorn" unicode="&#xfe;" horiz-adv-x="640" 
d="M135 777v-384q23 54 75.5 86.5t126.5 32.5q105 0 174.5 -69.5t69.5 -190.5t-69.5 -191t-174.5 -70q-74 0 -126.5 32.5t-75.5 86.5v-365h-35v1032h35zM336 480q-89 0 -144.5 -53.5t-55.5 -156.5v-37q0 -103 55.5 -156.5t144.5 -53.5q91 0 150.5 60.5t59.5 167.5
q0 108 -59.5 168.5t-150.5 60.5z" />
    <glyph glyph-name="ydieresis" unicode="&#xff;" horiz-adv-x="497" 
d="M188 710q12 0 20.5 -8t8.5 -20t-8.5 -19.5t-20.5 -7.5t-20 7.5t-8 19.5t8 20t20 8zM301 710q12 0 20 -8t8 -20t-8 -19.5t-20 -7.5t-20.5 7.5t-8.5 19.5t8.5 20t20.5 8zM144 -255h-40l125 283l-205 475h38l186 -434l187 434h39z" />
    <glyph glyph-name="Amacron" unicode="&#x100;" horiz-adv-x="691" 
d="M462 851h-232v28h232v-28zM667 0h-41l-95 226h-372l-95 -226h-41l322 760zM175 259h341l-170 407z" />
    <glyph glyph-name="amacron" unicode="&#x101;" horiz-adv-x="642" 
d="M426 649h-232v28h232v-28zM305 512q74 0 126.5 -32t76.5 -84v107h34v-503h-34v106q-24 -51 -77 -83t-126 -32q-105 0 -174.5 69.5t-69.5 190.5t69.5 191t174.5 70zM306 480q-91 0 -150.5 -60.5t-59.5 -167.5q0 -108 59.5 -168.5t150.5 -60.5q89 0 144.5 53.5t55.5 156.5
v37q0 103 -55.5 156.5t-144.5 53.5z" />
    <glyph glyph-name="Abreve" unicode="&#x102;" horiz-adv-x="691" 
d="M447 918h30q0 -50 -35.5 -78t-96.5 -28q-60 0 -95.5 28t-35.5 78h30q0 -37 27.5 -58.5t73.5 -21.5q47 0 74.5 21.5t27.5 58.5zM667 0h-41l-95 226h-372l-95 -226h-41l322 760zM175 259h341l-170 407z" />
    <glyph glyph-name="abreve" unicode="&#x103;" horiz-adv-x="642" 
d="M411 709h30q0 -50 -35.5 -78t-96.5 -28q-60 0 -95.5 28t-35.5 78h30q0 -37 27 -58t74 -21t74.5 21t27.5 58zM305 512q74 0 126.5 -32t76.5 -84v107h34v-503h-34v106q-24 -51 -77 -83t-126 -32q-105 0 -174.5 69.5t-69.5 190.5t69.5 191t174.5 70zM306 480
q-91 0 -150.5 -60.5t-59.5 -167.5q0 -108 59.5 -168.5t150.5 -60.5q89 0 144.5 53.5t55.5 156.5v37q0 103 -55.5 156.5t-144.5 53.5z" />
    <glyph glyph-name="Aogonek" unicode="&#x104;" horiz-adv-x="691" 
d="M600 -162q35 0 62 12l5 -21q-34 -13 -69 -13q-42 0 -68 20t-26 55q0 71 116 122l-89 213h-372l-95 -226h-41l322 760l322 -760h-25q-55 -26 -82.5 -50.5t-27.5 -56.5q0 -27 18.5 -41t49.5 -14zM516 259l-170 407l-171 -407h341z" />
    <glyph glyph-name="aogonek" unicode="&#x105;" horiz-adv-x="642" 
d="M553 -149l5 -21q-34 -13 -69 -13q-42 0 -68 20t-26 55q0 70 113 121v93q-24 -51 -77 -83t-126 -32q-105 0 -174.5 69.5t-69.5 190.5t69.5 191t174.5 70q74 0 126.5 -32t76.5 -84v107h34v-503h-11q-55 -26 -81.5 -50t-26.5 -56q0 -27 18.5 -41t49.5 -14q35 0 62 12z
M506 233v37q0 103 -55.5 156.5t-144.5 53.5q-91 0 -150.5 -60.5t-59.5 -167.5q0 -108 59.5 -168.5t150.5 -60.5q89 0 144.5 53.5t55.5 156.5z" />
    <glyph glyph-name="Cacute" unicode="&#x106;" horiz-adv-x="793" 
d="M425 795h-37l166 130h52zM418 757q131 0 223 -73.5t106 -196.5l-38 -4q-13 110 -94.5 175t-197.5 65q-141 0 -229 -93t-88 -256q0 -164 90 -256.5t230 -92.5q115 0 193 59t97 163l38 -3q-20 -118 -109 -185.5t-218 -67.5q-156 0 -257 102.5t-101 280.5q0 179 99 281
t256 102z" />
    <glyph glyph-name="cacute" unicode="&#x107;" horiz-adv-x="565" 
d="M305 592h-30l119 191h40zM299 512q88 0 147.5 -49.5t69.5 -133.5l-34 -3q-9 72 -59 113.5t-124 41.5q-90 0 -146 -60.5t-56 -168.5t57 -168.5t146 -60.5q75 0 123.5 37.5t59.5 104.5l34 -3q-14 -80 -71 -125.5t-146 -45.5q-105 0 -172 69.5t-67 191.5q0 121 66.5 190.5
t171.5 69.5z" />
    <glyph glyph-name="Ccircumflex" unicode="&#x108;" horiz-adv-x="793" 
d="M545 795h-33l-104 103l-104 -103h-33l122 129h31zM418 757q131 0 223 -73.5t106 -196.5l-38 -4q-13 110 -94.5 175t-197.5 65q-141 0 -229 -93t-88 -256q0 -164 90 -256.5t230 -92.5q115 0 193 59t97 163l38 -3q-20 -118 -109 -185.5t-218 -67.5q-156 0 -257 102.5
t-101 280.5q0 179 99 281t256 102z" />
    <glyph glyph-name="ccircumflex" unicode="&#x109;" horiz-adv-x="565" 
d="M429 593h-32l-106 135l-106 -135h-32l122 163h31zM299 512q88 0 147.5 -49.5t69.5 -133.5l-34 -3q-9 72 -59 113.5t-124 41.5q-90 0 -146 -60.5t-56 -168.5t57 -168.5t146 -60.5q75 0 123.5 37.5t59.5 104.5l34 -3q-14 -80 -71 -125.5t-146 -45.5q-105 0 -172 69.5
t-67 191.5q0 121 66.5 190.5t171.5 69.5z" />
    <glyph glyph-name="Cdotaccent" unicode="&#x10a;" horiz-adv-x="793" 
d="M409 883q13 0 22.5 -9.5t9.5 -22.5t-9.5 -23t-22.5 -10t-23 10t-10 23t10 22.5t23 9.5zM418 757q131 0 223 -73.5t106 -196.5l-38 -4q-13 110 -94.5 175t-197.5 65q-141 0 -229 -93t-88 -256q0 -164 90 -256.5t230 -92.5q115 0 193 59t97 163l38 -3q-20 -118 -109 -185.5
t-218 -67.5q-156 0 -257 102.5t-101 280.5q0 179 99 281t256 102z" />
    <glyph glyph-name="cdotaccent" unicode="&#x10b;" horiz-adv-x="565" 
d="M292 712q13 0 22.5 -9.5t9.5 -22.5t-9.5 -23t-22.5 -10q-14 0 -23.5 9.5t-9.5 23.5q0 13 10 22.5t23 9.5zM299 512q88 0 147.5 -49.5t69.5 -133.5l-34 -3q-9 72 -59 113.5t-124 41.5q-90 0 -146 -60.5t-56 -168.5t57 -168.5t146 -60.5q75 0 123.5 37.5t59.5 104.5l34 -3
q-14 -80 -71 -125.5t-146 -45.5q-105 0 -172 69.5t-67 191.5q0 121 66.5 190.5t171.5 69.5z" />
    <glyph glyph-name="Ccaron" unicode="&#x10c;" horiz-adv-x="793" 
d="M424 795h-31l-122 129h33l104 -103l104 103h33zM418 757q131 0 223 -73.5t106 -196.5l-38 -4q-13 110 -94.5 175t-197.5 65q-141 0 -229 -93t-88 -256q0 -164 90 -256.5t230 -92.5q115 0 193 59t97 163l38 -3q-20 -118 -109 -185.5t-218 -67.5q-156 0 -257 102.5
t-101 280.5q0 179 99 281t256 102z" />
    <glyph glyph-name="ccaron" unicode="&#x10d;" horiz-adv-x="565" 
d="M306 591h-31l-122 162h32l106 -135l106 135h32zM299 512q88 0 147.5 -49.5t69.5 -133.5l-34 -3q-9 72 -59 113.5t-124 41.5q-90 0 -146 -60.5t-56 -168.5t57 -168.5t146 -60.5q75 0 123.5 37.5t59.5 104.5l34 -3q-14 -80 -71 -125.5t-146 -45.5q-105 0 -172 69.5
t-67 191.5q0 121 66.5 190.5t171.5 69.5z" />
    <glyph glyph-name="Dcaron" unicode="&#x10e;" horiz-adv-x="795" 
d="M369 795h-31l-122 129h33l104 -103l104 103h33zM103 748h278q154 0 252 -100t98 -274t-99.5 -274t-252.5 -100h-276v748zM140 716v-684h239q139 0 227.5 91t88.5 251q0 161 -87 251.5t-226 90.5h-242z" />
    <glyph glyph-name="dcaron" unicode="&#x10f;" horiz-adv-x="702" 
d="M507 777h35v-777h-34v107q-24 -52 -76.5 -84t-126.5 -32q-105 0 -174.5 69.5t-69.5 190.5t69.5 191t174.5 70q74 0 126 -31.5t76 -83.5v380zM654 727q32 0 32 -41q0 -103 -78 -155v19q50 44 50 112h-3q-13 0 -22.5 9.5t-9.5 22.5q0 14 9 23.5t22 9.5zM506 233v37
q0 103 -55.5 156.5t-144.5 53.5q-91 0 -150.5 -60.5t-59.5 -167.5q0 -108 59.5 -168.5t150.5 -60.5q89 0 144.5 53.5t55.5 156.5z" />
    <glyph glyph-name="Dcroat" unicode="&#x110;" horiz-adv-x="783" 
d="M125 748h278q154 0 252 -100t98 -274t-99.5 -274t-252.5 -100h-276v359h-126v30h126v359zM162 32h239q139 0 227.5 91t88.5 251q0 161 -87 251.5t-226 90.5h-242v-327h185v-30h-185v-327z" />
    <glyph glyph-name="dcroat" unicode="&#x111;" horiz-adv-x="632" 
d="M633 626h-91v-626h-34v107q-24 -52 -76.5 -84t-126.5 -32q-105 0 -174.5 69.5t-69.5 190.5t69.5 191t174.5 70q74 0 126 -31.5t76 -83.5v229h-106v28h106v123h35v-123h91v-28zM506 233v37q0 103 -55.5 156.5t-144.5 53.5q-91 0 -150.5 -60.5t-59.5 -167.5
q0 -108 59.5 -168.5t150.5 -60.5q89 0 144.5 53.5t55.5 156.5z" />
    <glyph glyph-name="Emacron" unicode="&#x112;" 
d="M447 851h-232v28h232v-28zM550 715h-410v-310h366v-33h-366v-339h410v-33h-447v748h447v-33z" />
    <glyph glyph-name="emacron" unicode="&#x113;" 
d="M416 649h-232v28h232v-28zM525 239h-427q1 -101 58.5 -158.5t144.5 -57.5q72 0 120 32.5t64 91.5l35 -3q-18 -71 -75.5 -112t-142.5 -41q-105 0 -173 70t-68 191t67 190.5t173 69.5t165 -67t59 -177v-29zM300 480q-86 0 -142.5 -55t-59.5 -154h393v3q0 92 -49.5 149
t-141.5 57z" />
    <glyph glyph-name="Ebreve" unicode="&#x114;" 
d="M432 918h30q0 -50 -35.5 -78t-96.5 -28q-60 0 -95.5 28t-35.5 78h30q0 -37 27.5 -58.5t73.5 -21.5q47 0 74.5 21.5t27.5 58.5zM550 715h-410v-310h366v-33h-366v-339h410v-33h-447v748h447v-33z" />
    <glyph glyph-name="ebreve" unicode="&#x115;" 
d="M299 603q-60 0 -95.5 28t-35.5 78h30q0 -37 27 -58t74 -21t74.5 21t27.5 58h30q0 -50 -35.5 -78t-96.5 -28zM525 239h-427q1 -101 58.5 -158.5t144.5 -57.5q72 0 120 32.5t64 91.5l35 -3q-18 -71 -75.5 -112t-142.5 -41q-105 0 -173 70t-68 191t67 190.5t173 69.5
t165 -67t59 -177v-29zM300 480q-86 0 -142.5 -55t-59.5 -154h393v3q0 92 -49.5 149t-141.5 57z" />
    <glyph glyph-name="Edotaccent" unicode="&#x116;" 
d="M332 883q13 0 22.5 -9.5t9.5 -22.5t-9.5 -23t-22.5 -10q-14 0 -23.5 10t-9.5 23t10 22.5t23 9.5zM550 715h-410v-310h366v-33h-366v-339h410v-33h-447v748h447v-33z" />
    <glyph glyph-name="edotaccent" unicode="&#x117;" 
d="M301 647q-13 0 -23 9.5t-10 23.5q0 13 10 22.5t23 9.5t22.5 -9.5t9.5 -22.5t-9.5 -23t-22.5 -10zM525 239h-427q1 -101 58.5 -158.5t144.5 -57.5q72 0 120 32.5t64 91.5l35 -3q-18 -71 -75.5 -112t-142.5 -41q-105 0 -173 70t-68 191t67 190.5t173 69.5t165 -67t59 -177
v-29zM300 480q-86 0 -142.5 -55t-59.5 -154h393v3q0 92 -49.5 149t-141.5 57z" />
    <glyph glyph-name="Eogonek" unicode="&#x118;" 
d="M555 -150l5 -21q-34 -13 -69 -13q-42 0 -68 20t-26 55q0 63 89 109h-383v748h447v-33h-410v-310h366v-33h-366v-339h410v-33h-15q-55 -26 -82.5 -50.5t-27.5 -56.5q0 -27 18.5 -41t49.5 -14q35 0 62 12z" />
    <glyph glyph-name="eogonek" unicode="&#x119;" 
d="M525 239h-427q1 -101 58.5 -158.5t144.5 -57.5q72 0 120 32.5t64 91.5l35 -3q-15 -60 -59.5 -99.5t-110.5 -49.5q-52 -25 -78.5 -49t-26.5 -56q0 -27 18.5 -41t49.5 -14q35 0 62 12l5 -21q-34 -13 -69 -13q-42 0 -68 20t-26 55q0 59 78 103q-102 2 -168 72t-66 189
q0 121 67 190.5t173 69.5t165 -67t59 -177v-29zM300 480q-86 0 -142.5 -55t-59.5 -154h393v3q0 92 -49.5 149t-141.5 57z" />
    <glyph glyph-name="Ecaron" unicode="&#x11a;" 
d="M347 795h-31l-122 129h33l104 -103l104 103h33zM550 715h-410v-310h366v-33h-366v-339h410v-33h-447v748h447v-33z" />
    <glyph glyph-name="ecaron" unicode="&#x11b;" 
d="M284 591l-122 162h32l106 -135l106 135h32l-123 -162h-31zM525 239h-427q1 -101 58.5 -158.5t144.5 -57.5q72 0 120 32.5t64 91.5l35 -3q-18 -71 -75.5 -112t-142.5 -41q-105 0 -173 70t-68 191t67 190.5t173 69.5t165 -67t59 -177v-29zM300 480q-86 0 -142.5 -55
t-59.5 -154h393v3q0 92 -49.5 149t-141.5 57z" />
    <glyph glyph-name="Gcircumflex" unicode="&#x11c;" horiz-adv-x="809" 
d="M308 795h-33l122 129h31l121 -129h-33l-104 103zM751 356v-16q0 -166 -90.5 -257.5t-244.5 -91.5t-253.5 102.5t-99.5 280.5q0 179 98.5 281t253.5 102q131 0 223.5 -73t107.5 -198l-38 -6q-12 112 -94 177.5t-199 65.5q-140 0 -227.5 -92.5t-87.5 -256.5t88.5 -256.5
t226.5 -92.5q133 0 213 76t84 222h-293v33h332z" />
    <glyph glyph-name="gcircumflex" unicode="&#x11d;" horiz-adv-x="640" 
d="M453 593h-32l-106 135l-106 -135h-32l122 163h31zM305 512q74 0 126.5 -32t76.5 -84v107h34v-541q0 -105 -63.5 -165t-166.5 -60q-92 0 -153 45.5t-78 119.5l36 1q12 -62 67 -99t127 -37q88 0 142 51t54 142v146q-24 -52 -76 -83.5t-126 -31.5q-105 0 -174.5 70
t-69.5 191t69.5 190.5t174.5 69.5zM306 480q-91 0 -150.5 -60.5t-59.5 -168.5q0 -107 59.5 -167.5t150.5 -60.5q89 0 144.5 53.5t55.5 156.5v37q0 103 -55.5 156.5t-144.5 53.5z" />
    <glyph glyph-name="Gbreve" unicode="&#x11e;" horiz-adv-x="809" 
d="M411 812q-60 0 -95.5 28t-35.5 78h30q0 -37 27.5 -58.5t73.5 -21.5q47 0 74.5 21.5t27.5 58.5h30q0 -50 -35.5 -78t-96.5 -28zM751 356v-16q0 -166 -90.5 -257.5t-244.5 -91.5t-253.5 102.5t-99.5 280.5q0 179 98.5 281t253.5 102q131 0 223.5 -73t107.5 -198l-38 -6
q-12 112 -94 177.5t-199 65.5q-140 0 -227.5 -92.5t-87.5 -256.5t88.5 -256.5t226.5 -92.5q133 0 213 76t84 222h-293v33h332z" />
    <glyph glyph-name="gbreve" unicode="&#x11f;" horiz-adv-x="640" 
d="M416 709h30q0 -50 -35.5 -78t-96.5 -28q-60 0 -95.5 28t-35.5 78h30q0 -37 27 -58t74 -21t74.5 21t27.5 58zM305 512q74 0 126.5 -32t76.5 -84v107h34v-541q0 -105 -63.5 -165t-166.5 -60q-92 0 -153 45.5t-78 119.5l36 1q12 -62 67 -99t127 -37q88 0 142 51t54 142v146
q-24 -52 -76 -83.5t-126 -31.5q-105 0 -174.5 70t-69.5 191t69.5 190.5t174.5 69.5zM306 480q-91 0 -150.5 -60.5t-59.5 -168.5q0 -107 59.5 -167.5t150.5 -60.5q89 0 144.5 53.5t55.5 156.5v37q0 103 -55.5 156.5t-144.5 53.5z" />
    <glyph glyph-name="Gdotaccent" unicode="&#x120;" horiz-adv-x="809" 
d="M413 818q-13 0 -23 10t-10 23t10 22.5t23 9.5t22.5 -9.5t9.5 -22.5t-9.5 -23t-22.5 -10zM751 356v-16q0 -166 -90.5 -257.5t-244.5 -91.5t-253.5 102.5t-99.5 280.5q0 179 98.5 281t253.5 102q131 0 223.5 -73t107.5 -198l-38 -6q-12 112 -94 177.5t-199 65.5
q-140 0 -227.5 -92.5t-87.5 -256.5t88.5 -256.5t226.5 -92.5q133 0 213 76t84 222h-293v33h332z" />
    <glyph glyph-name="gdotaccent" unicode="&#x121;" horiz-adv-x="640" 
d="M316 712q13 0 22.5 -9.5t9.5 -22.5t-9.5 -23t-22.5 -10q-14 0 -23.5 9.5t-9.5 23.5q0 13 10 22.5t23 9.5zM305 512q74 0 126.5 -32t76.5 -84v107h34v-541q0 -105 -63.5 -165t-166.5 -60q-92 0 -153 45.5t-78 119.5l36 1q12 -62 67 -99t127 -37q88 0 142 51t54 142v146
q-24 -52 -76 -83.5t-126 -31.5q-105 0 -174.5 70t-69.5 191t69.5 190.5t174.5 69.5zM306 480q-91 0 -150.5 -60.5t-59.5 -168.5q0 -107 59.5 -167.5t150.5 -60.5q89 0 144.5 53.5t55.5 156.5v37q0 103 -55.5 156.5t-144.5 53.5z" />
    <glyph glyph-name="Gcommaaccent" unicode="&#x122;" horiz-adv-x="809" 
d="M751 356v-16q0 -166 -90.5 -257.5t-244.5 -91.5t-253.5 102.5t-99.5 280.5q0 179 98.5 281t253.5 102q131 0 223.5 -73t107.5 -198l-38 -6q-12 112 -94 177.5t-199 65.5q-140 0 -227.5 -92.5t-87.5 -256.5t88.5 -256.5t226.5 -92.5q133 0 213 76t84 222h-293v33h332z
M412 -44q32 0 32 -41q0 -103 -78 -155v19q50 44 50 112h-3q-13 0 -22.5 9.5t-9.5 22.5q0 14 9 23.5t22 9.5z" />
    <glyph glyph-name="gcommaaccent" unicode="&#x123;" horiz-adv-x="640" 
d="M360 745q0 -103 -78 -155v19q50 44 50 112h-3q-13 0 -22.5 9.5t-9.5 22.5q0 14 9 23.5t22 9.5q32 0 32 -41zM542 503v-541q0 -105 -63.5 -165t-166.5 -60q-92 0 -153 45.5t-78 119.5l36 1q12 -62 67 -99t127 -37q88 0 142 51t54 142v146q-24 -52 -76 -83.5t-126 -31.5
q-105 0 -174.5 70t-69.5 191t69.5 190.5t174.5 69.5q74 0 126.5 -32t76.5 -84v107h34zM506 233v37q0 103 -55.5 156.5t-144.5 53.5q-91 0 -150.5 -60.5t-59.5 -168.5q0 -107 59.5 -167.5t150.5 -60.5q89 0 144.5 53.5t55.5 156.5z" />
    <glyph glyph-name="Hcircumflex" unicode="&#x124;" horiz-adv-x="745" 
d="M509 795h-33l-104 103l-104 -103h-33l122 129h31zM642 0h-37v374h-465v-374h-37v748h37v-340h465v340h37v-748z" />
    <glyph glyph-name="hcircumflex" unicode="&#x125;" horiz-adv-x="591" 
d="M255 795h-33l-104 103l-104 -103h-33l122 129h31zM135 777v-366q18 41 64 71t111 30q84 0 138.5 -55.5t54.5 -144.5v-312h-35v308q0 75 -45.5 123t-116.5 48q-74 0 -122.5 -51t-48.5 -120v-308h-35v777h35z" />
    <glyph glyph-name="Hbar" unicode="&#x126;" horiz-adv-x="749" 
d="M743 560h-99v-560h-37v374h-465v-374h-37v560h-99v29h99v159h37v-159h465v159h37v-159h99v-29zM607 560h-465v-152h465v152z" />
    <glyph glyph-name="hbar" unicode="&#x127;" horiz-adv-x="591" 
d="M310 512q84 0 138.5 -55.5t54.5 -144.5v-312h-35v308q0 75 -45.5 123t-116.5 48q-74 0 -122.5 -51t-48.5 -120v-308h-35v626h-93v28h93v123h35v-123h104v-28h-104v-215q18 41 64 71t111 30z" />
    <glyph glyph-name="Itilde" unicode="&#x128;" horiz-adv-x="243" 
d="M52 915q32 0 73 -33.5t66 -33.5q26 0 40.5 17t15.5 43h22q1 -37 -20 -62.5t-55 -25.5q-32 0 -73 33.5t-66 33.5q-26 0 -40.5 -17t-15.5 -43h-22q-1 37 20 62.5t55 25.5zM140 0h-37v748h37v-748z" />
    <glyph glyph-name="itilde" unicode="&#x129;" horiz-adv-x="236" 
d="M46 714q32 0 73 -33t66 -33t40 16.5t16 42.5h22q1 -37 -20 -62t-55 -25q-32 0 -73 33t-66 33t-40 -16.5t-16 -42.5h-22q-1 37 20 62t55 25zM135 0h-35v503h35v-503z" />
    <glyph glyph-name="Imacron" unicode="&#x12a;" horiz-adv-x="243" 
d="M239 851h-232v28h232v-28zM140 0h-37v748h37v-748z" />
    <glyph glyph-name="imacron" unicode="&#x12b;" horiz-adv-x="236" 
d="M235 649h-232v28h232v-28zM135 0h-35v503h35v-503z" />
    <glyph glyph-name="Ibreve" unicode="&#x12c;" horiz-adv-x="243" 
d="M224 918h30q0 -50 -35.5 -78t-96.5 -28q-60 0 -95.5 28t-35.5 78h30q0 -37 27.5 -58.5t73.5 -21.5q47 0 74.5 21.5t27.5 58.5zM140 0h-37v748h37v-748z" />
    <glyph glyph-name="ibreve" unicode="&#x12d;" horiz-adv-x="236" 
d="M220 709h30q0 -50 -35.5 -78t-96.5 -28q-60 0 -95.5 28t-35.5 78h30q0 -37 27 -58t74 -21t74.5 21t27.5 58zM135 0h-35v503h35v-503z" />
    <glyph glyph-name="Iogonek" unicode="&#x12e;" horiz-adv-x="243" 
d="M145 -149l5 -21q-34 -13 -69 -13q-42 0 -68 20t-26 55q0 71 116 122v734h37v-748h-17q-55 -26 -81.5 -50t-26.5 -56q0 -27 18.5 -41t49.5 -14q35 0 62 12z" />
    <glyph glyph-name="iogonek" unicode="&#x12f;" horiz-adv-x="236" 
d="M120 647q-14 0 -23.5 9.5t-9.5 23.5q0 13 10 22.5t23 9.5t22.5 -9.5t9.5 -22.5t-9.5 -23t-22.5 -10zM84 -161q35 0 62 12l5 -21q-34 -13 -69 -13q-42 0 -68 20t-26 55q0 70 112 120v491h35v-503h-11q-55 -26 -81.5 -50t-26.5 -56q0 -27 18.5 -41t49.5 -14z" />
    <glyph glyph-name="Idotaccent" unicode="&#x130;" horiz-adv-x="243" 
d="M124 883q13 0 22.5 -9.5t9.5 -22.5t-9.5 -23t-22.5 -10q-14 0 -23.5 10t-9.5 23t10 22.5t23 9.5zM140 0h-37v748h37v-748z" />
    <glyph glyph-name="dotlessi" unicode="&#x131;" horiz-adv-x="236" 
d="M135 0h-35v503h35v-503z" />
    <glyph glyph-name="Jcircumflex" unicode="&#x134;" horiz-adv-x="549" 
d="M573 795h-33l-104 103l-104 -103h-33l122 129h31zM453 748v-536q0 -106 -55.5 -163.5t-152.5 -57.5t-154.5 58.5t-62.5 158.5l37 5q4 -90 52.5 -139t127.5 -49q81 0 126 48t45 138v537h37z" />
    <glyph glyph-name="jcircumflex" unicode="&#x135;" horiz-adv-x="236" 
d="M256 593h-32l-106 135l-106 -135h-32l122 163h31zM137 503v-601q0 -81 -35.5 -121t-100.5 -40q-23 0 -45 9l11 30q21 -7 30 -7q105 0 105 128v602h35z" />
    <glyph glyph-name="Kcommaaccent" unicode="&#x136;" horiz-adv-x="637" 
d="M612 0h-47l-336 394l-89 -95v-299h-37v748h37v-395l376 395h48l-310 -326zM329 -39q32 0 32 -41q0 -103 -78 -155v19q50 44 50 112h-3q-13 0 -22.5 9.5t-9.5 22.5q0 14 9 23.5t22 9.5z" />
    <glyph glyph-name="kcommaaccent" unicode="&#x137;" horiz-adv-x="499" 
d="M485 0h-48l-241 257l-61 -58v-199h-35v777h35v-531l273 257h47l-234 -222zM273 -39q32 0 32 -41q0 -103 -78 -155v19q50 44 50 112h-3q-13 0 -22.5 9.5t-9.5 22.5q0 14 9 23.5t22 9.5z" />
    <glyph glyph-name="Lacute" unicode="&#x139;" horiz-adv-x="591" 
d="M141 795h-37l166 130h52zM140 33h417v-33h-454v748h37v-715z" />
    <glyph glyph-name="lacute" unicode="&#x13a;" horiz-adv-x="236" 
d="M136 806h-37l166 130h52zM135 0h-35v777h35v-777z" />
    <glyph glyph-name="Lcommaaccent" unicode="&#x13b;" horiz-adv-x="591" 
d="M557 33v-33h-454v748h37v-715h417zM338 -39q32 0 32 -41q0 -103 -78 -155v19q50 44 50 112h-3q-13 0 -22.5 9.5t-9.5 22.5q0 14 9 23.5t22 9.5z" />
    <glyph glyph-name="lcommaaccent" unicode="&#x13c;" horiz-adv-x="236" 
d="M135 0h-35v777h35v-777zM117 -39q32 0 32 -41q0 -103 -78 -155v19q50 44 50 112h-3q-13 0 -22.5 9.5t-9.5 22.5q0 14 9 23.5t22 9.5z" />
    <glyph glyph-name="Lcaron" unicode="&#x13d;" horiz-adv-x="591" 
d="M557 33v-33h-454v748h37v-715h417zM553 686q0 -103 -78 -155v19q50 44 50 112h-3q-13 0 -22.5 9.5t-9.5 22.5q0 14 9 23.5t22 9.5q32 0 32 -41z" />
    <glyph glyph-name="lcaron" unicode="&#x13e;" horiz-adv-x="305" 
d="M100 777h35v-777h-35v777zM258 727q32 0 32 -41q0 -103 -78 -155v19q50 44 50 112h-3q-13 0 -22.5 9.5t-9.5 22.5q0 14 9 23.5t22 9.5z" />
    <glyph glyph-name="Ldot" unicode="&#x13f;" horiz-adv-x="591" 
d="M140 33h417v-33h-454v748h37v-715zM423 395q15 0 25 -10t10 -24t-10 -24t-25 -10q-14 0 -23.5 10t-9.5 24t9.5 24t23.5 10z" />
    <glyph glyph-name="ldot" unicode="&#x140;" horiz-adv-x="323" 
d="M135 0h-35v777h35v-777zM263 305q15 0 25 -10t10 -24t-10 -24t-25 -10q-14 0 -23.5 10t-9.5 24t9.5 24t23.5 10z" />
    <glyph glyph-name="Lslash" unicode="&#x141;" horiz-adv-x="601" 
d="M570 33v-33h-454v266l-113 -48l-6 29l119 51v450h37v-434l132 56l7 -28l-139 -60v-249h417z" />
    <glyph glyph-name="lslash" unicode="&#x142;" horiz-adv-x="256" 
d="M146 286v-286h-35v270l-114 -52l-8 28l122 56v475h35v-459l114 52l8 -29z" />
    <glyph glyph-name="Nacute" unicode="&#x143;" horiz-adv-x="734" 
d="M383 795h-37l166 130h52zM594 100v648h37v-757l-491 657v-648h-37v757z" />
    <glyph glyph-name="nacute" unicode="&#x144;" horiz-adv-x="600" 
d="M322 592h-30l119 191h40zM310 512q84 0 138.5 -55.5t54.5 -144.5v-312h-35v308q0 75 -45.5 123t-116.5 48q-74 0 -122.5 -51t-48.5 -120v-308h-35v503h35v-92q18 41 64 71t111 30z" />
    <glyph glyph-name="Ncommaaccent" unicode="&#x145;" horiz-adv-x="734" 
d="M631 748v-757l-491 657v-648h-37v757l491 -657v648h37zM370 -39q32 0 32 -41q0 -103 -78 -155v19q50 44 50 112h-3q-13 0 -22.5 9.5t-9.5 22.5q0 14 9 23.5t22 9.5z" />
    <glyph glyph-name="ncommaaccent" unicode="&#x146;" horiz-adv-x="600" 
d="M310 512q84 0 138.5 -55.5t54.5 -144.5v-312h-35v308q0 75 -45.5 123t-116.5 48q-74 0 -122.5 -51t-48.5 -120v-308h-35v503h35v-92q18 41 64 71t111 30zM308 -39q32 0 32 -41q0 -103 -78 -155v19q50 44 50 112h-3q-13 0 -22.5 9.5t-9.5 22.5q0 14 9 23.5t22 9.5z" />
    <glyph glyph-name="Ncaron" unicode="&#x147;" horiz-adv-x="734" 
d="M382 795h-31l-122 129h33l104 -103l104 103h33zM594 100v648h37v-757l-491 657v-648h-37v757z" />
    <glyph glyph-name="ncaron" unicode="&#x148;" horiz-adv-x="600" 
d="M323 591h-31l-122 162h32l106 -135l106 135h32zM310 512q84 0 138.5 -55.5t54.5 -144.5v-312h-35v308q0 75 -45.5 123t-116.5 48q-74 0 -122.5 -51t-48.5 -120v-308h-35v503h35v-92q18 41 64 71t111 30z" />
    <glyph glyph-name="Eng" unicode="&#x14a;" horiz-adv-x="734" 
d="M631 748v-791q0 -100 -55.5 -156t-152.5 -56v33q80 0 125.5 48.5t45.5 138.5v76l-454 607v-648h-37v757l491 -657v648h37z" />
    <glyph glyph-name="eng" unicode="&#x14b;" horiz-adv-x="600" 
d="M504 155v-252q0 -79 -37 -120t-105 -41v31q51 0 78.5 32.5t27.5 96.5v406q0 75 -45.5 123t-116.5 48q-74 0 -122.5 -51t-48.5 -120v-308h-35v503h35v-92q18 41 64 71t111 30q84 0 138.5 -55.5t54.5 -144.5v-157h1z" />
    <glyph glyph-name="Omacron" unicode="&#x14c;" horiz-adv-x="858" 
d="M530 851h-232v28h232v-28zM429 757q157 0 261 -103.5t104 -279.5t-104 -279.5t-261 -103.5t-261.5 103.5t-104.5 279.5t104.5 279.5t261.5 103.5zM429 723q-141 0 -234.5 -94t-93.5 -255t93.5 -255t234.5 -94t234.5 94t93.5 255t-93.5 255t-234.5 94z" />
    <glyph glyph-name="omacron" unicode="&#x14d;" horiz-adv-x="624" 
d="M428 649h-232v28h232v-28zM312 512q107 0 179 -71t72 -189t-72 -189.5t-179 -71.5q-108 0 -179.5 71t-71.5 190t71.5 189.5t179.5 70.5zM311 480q-93 0 -154 -61.5t-61 -166.5t61 -167t154 -62t154.5 62t61.5 167t-61.5 166.5t-154.5 61.5z" />
    <glyph glyph-name="Obreve" unicode="&#x14e;" horiz-adv-x="858" 
d="M515 918h30q0 -50 -35.5 -78t-96.5 -28q-60 0 -95.5 28t-35.5 78h30q0 -37 27.5 -58.5t73.5 -21.5q47 0 74.5 21.5t27.5 58.5zM429 757q157 0 261 -103.5t104 -279.5t-104 -279.5t-261 -103.5t-261.5 103.5t-104.5 279.5t104.5 279.5t261.5 103.5zM429 723
q-141 0 -234.5 -94t-93.5 -255t93.5 -255t234.5 -94t234.5 94t93.5 255t-93.5 255t-234.5 94z" />
    <glyph glyph-name="obreve" unicode="&#x14f;" horiz-adv-x="624" 
d="M413 709h30q0 -50 -35.5 -78t-96.5 -28q-60 0 -95.5 28t-35.5 78h30q0 -37 27 -58t74 -21t74.5 21t27.5 58zM312 512q107 0 179 -71t72 -189t-72 -189.5t-179 -71.5q-108 0 -179.5 71t-71.5 190t71.5 189.5t179.5 70.5zM311 480q-93 0 -154 -61.5t-61 -166.5t61 -167
t154 -62t154.5 62t61.5 167t-61.5 166.5t-154.5 61.5z" />
    <glyph glyph-name="Ohungarumlaut" unicode="&#x150;" horiz-adv-x="858" 
d="M352 798h-30l59 130h35zM495 798h-30l59 130h35zM429 757q157 0 261 -103.5t104 -279.5t-104 -279.5t-261 -103.5t-261.5 103.5t-104.5 279.5t104.5 279.5t261.5 103.5zM429 723q-141 0 -234.5 -94t-93.5 -255t93.5 -255t234.5 -94t234.5 94t93.5 255t-93.5 255
t-234.5 94z" />
    <glyph glyph-name="ohungarumlaut" unicode="&#x151;" horiz-adv-x="624" 
d="M250 608h-30l63 139h34zM393 608h-30l63 139h34zM312 512q107 0 179 -71t72 -189t-72 -189.5t-179 -71.5q-108 0 -179.5 71t-71.5 190t71.5 189.5t179.5 70.5zM311 480q-93 0 -154 -61.5t-61 -166.5t61 -167t154 -62t154.5 62t61.5 167t-61.5 166.5t-154.5 61.5z" />
    <glyph glyph-name="OE" unicode="&#x152;" horiz-adv-x="1238" 
d="M794 715v-310h366v-33h-366v-339h410v-33h-447v193q-44 -96 -131.5 -149t-196.5 -53q-157 0 -261.5 103.5t-104.5 279.5t104.5 279.5t261.5 103.5q109 0 196.5 -53t131.5 -149v193h447v-33h-410zM429 25q141 0 234.5 94t93.5 255t-93.5 255t-234.5 94t-234.5 -94
t-93.5 -255t93.5 -255t234.5 -94z" />
    <glyph glyph-name="oe" unicode="&#x153;" horiz-adv-x="1051" 
d="M991 239h-427q1 -101 58.5 -158.5t144.5 -57.5q72 0 120 32.5t64 91.5l35 -3q-18 -71 -75.5 -112t-142.5 -41q-78 0 -137.5 40.5t-86.5 113.5q-27 -72 -89.5 -113t-142.5 -41q-108 0 -179.5 71t-71.5 190t71.5 189.5t179.5 70.5q79 0 141.5 -40.5t90.5 -112.5
q26 73 85 113t138 40q106 0 165 -67t59 -177v-29zM311 23q93 0 154.5 62t61.5 167t-61.5 166.5t-154.5 61.5t-154 -61.5t-61 -166.5t61 -167t154 -62zM766 480q-86 0 -142.5 -55t-59.5 -154h393v3q0 92 -49.5 149t-141.5 57z" />
    <glyph glyph-name="Racute" unicode="&#x154;" horiz-adv-x="668" 
d="M328 795h-37l166 130h52zM583 0l-188 328q-10 -2 -30 -2h-225v-326h-37v748h262q95 0 157 -54t62 -157q0 -83 -41 -134.5t-109 -68.5l191 -334h-42zM140 359h222q79 0 132 45t53 133t-53 133t-132 45h-222v-356z" />
    <glyph glyph-name="racute" unicode="&#x155;" horiz-adv-x="307" 
d="M186 592h-30l119 191h40zM291 511v-34q-70 0 -113 -46t-43 -112v-319h-35v503h34v-86q14 38 55 66t102 28z" />
    <glyph glyph-name="Rcommaaccent" unicode="&#x156;" horiz-adv-x="668" 
d="M583 0l-188 328q-10 -2 -30 -2h-225v-326h-37v748h262q95 0 157 -54t62 -157q0 -83 -41 -134.5t-109 -68.5l191 -334h-42zM140 359h222q79 0 132 45t53 133t-53 133t-132 45h-222v-356zM347 -39q32 0 32 -41q0 -103 -78 -155v19q50 44 50 112h-3q-13 0 -22.5 9.5
t-9.5 22.5q0 14 9 23.5t22 9.5z" />
    <glyph glyph-name="rcommaaccent" unicode="&#x157;" horiz-adv-x="307" 
d="M134 503v-86q14 38 55 66t102 28v-34q-70 0 -113 -46t-43 -112v-319h-35v503h34zM120 -39q32 0 32 -41q0 -103 -78 -155v19q50 44 50 112h-3q-13 0 -22.5 9.5t-9.5 22.5q0 14 9 23.5t22 9.5z" />
    <glyph glyph-name="Rcaron" unicode="&#x158;" horiz-adv-x="668" 
d="M296 795l-122 129h33l104 -103l104 103h33l-121 -129h-31zM583 0l-188 328q-10 -2 -30 -2h-225v-326h-37v748h262q95 0 157 -54t62 -157q0 -83 -41 -134.5t-109 -68.5l191 -334h-42zM140 359h222q79 0 132 45t53 133t-53 133t-132 45h-222v-356z" />
    <glyph glyph-name="rcaron" unicode="&#x159;" horiz-adv-x="307" 
d="M187 591h-31l-122 162h32l106 -135l106 135h32zM291 511v-34q-70 0 -113 -46t-43 -112v-319h-35v503h34v-86q14 38 55 66t102 28z" />
    <glyph glyph-name="Sacute" unicode="&#x15a;" horiz-adv-x="649" 
d="M342 795h-37l166 130h52zM325 757q102 0 168 -50t73 -139l-37 -3q-7 75 -61.5 117t-141.5 42q-100 0 -153 -46.5t-53 -117.5q0 -29 6.5 -51t22.5 -38.5t31.5 -27t44.5 -20.5t49.5 -15t58.5 -14q142 -31 201 -70t59 -129q0 -101 -71.5 -152.5t-184.5 -51.5q-112 0 -188 53
t-84 146l37 2q8 -77 73.5 -122.5t161.5 -45.5q97 0 158 43t61 126q0 25 -6.5 45t-14.5 34t-27.5 27t-33 20t-45.5 16.5t-50 14t-59 13.5q-50 12 -76.5 19.5t-62.5 23t-54 34t-31 49t-13 70.5q0 85 62.5 141.5t179.5 56.5z" />
    <glyph glyph-name="sacute" unicode="&#x15b;" horiz-adv-x="493" 
d="M253 592h-30l119 191h40zM239 511q73 1 116 -35t52 -99l-35 -3q-7 50 -41.5 78.5t-92.5 27.5q-65 1 -98.5 -28t-33.5 -79q0 -14 3 -25t6.5 -18.5t13.5 -14.5t15.5 -11t21.5 -8.5t23 -6.5t28 -6.5t29 -6.5q94 -21 135.5 -49.5t41.5 -90.5q0 -70 -49 -107.5t-129 -37.5
q-76 0 -125.5 35.5t-60.5 101.5l35 3q10 -53 50 -80.5t102 -27.5q65 0 103.5 28t38.5 83q0 50 -33.5 71t-122.5 41t-116 36q-45 29 -46 91q0 63 43.5 101t125.5 37z" />
    <glyph glyph-name="Scircumflex" unicode="&#x15c;" horiz-adv-x="649" 
d="M462 795h-33l-104 103l-104 -103h-33l122 129h31zM325 757q102 0 168 -50t73 -139l-37 -3q-7 75 -61.5 117t-141.5 42q-100 0 -153 -46.5t-53 -117.5q0 -29 6.5 -51t22.5 -38.5t31.5 -27t44.5 -20.5t49.5 -15t58.5 -14q142 -31 201 -70t59 -129q0 -101 -71.5 -152.5
t-184.5 -51.5q-112 0 -188 53t-84 146l37 2q8 -77 73.5 -122.5t161.5 -45.5q97 0 158 43t61 126q0 25 -6.5 45t-14.5 34t-27.5 27t-33 20t-45.5 16.5t-50 14t-59 13.5q-50 12 -76.5 19.5t-62.5 23t-54 34t-31 49t-13 70.5q0 85 62.5 141.5t179.5 56.5z" />
    <glyph glyph-name="scircumflex" unicode="&#x15d;" horiz-adv-x="493" 
d="M377 593h-32l-106 135l-106 -135h-32l122 163h31zM239 511q73 1 116 -35t52 -99l-35 -3q-7 50 -41.5 78.5t-92.5 27.5q-65 1 -98.5 -28t-33.5 -79q0 -14 3 -25t6.5 -18.5t13.5 -14.5t15.5 -11t21.5 -8.5t23 -6.5t28 -6.5t29 -6.5q94 -21 135.5 -49.5t41.5 -90.5
q0 -70 -49 -107.5t-129 -37.5q-76 0 -125.5 35.5t-60.5 101.5l35 3q10 -53 50 -80.5t102 -27.5q65 0 103.5 28t38.5 83q0 50 -33.5 71t-122.5 41t-116 36q-45 29 -46 91q0 63 43.5 101t125.5 37z" />
    <glyph glyph-name="Scedilla" unicode="&#x15e;" horiz-adv-x="649" 
d="M593 195q0 -98 -68.5 -150t-176.5 -54l-12 -62q54 -1 85 -23.5t31 -64.5q0 -40 -32 -62.5t-77 -22.5q-57 0 -99 26l8 22q39 -24 88 -24q35 0 59.5 16t24.5 45q0 66 -96 66q-8 0 -20 -2l19 86q-108 2 -181 55t-81 144l37 2q8 -77 73.5 -122.5t161.5 -45.5q97 0 158 43
t61 126q0 25 -6.5 45t-14.5 34t-27.5 27t-33 20t-45.5 16.5t-50 14t-59 13.5q-50 12 -76.5 19.5t-62.5 23t-54 34t-31 49t-13 70.5q0 85 62.5 141.5t179.5 56.5q102 0 168 -50t73 -139l-37 -3q-7 75 -61.5 117t-141.5 42q-100 0 -153 -46.5t-53 -117.5q0 -29 6.5 -51
t22.5 -38.5t31.5 -27t44.5 -20.5t49.5 -15t58.5 -14q142 -31 201 -70t59 -129z" />
    <glyph glyph-name="scedilla" unicode="&#x15f;" horiz-adv-x="493" 
d="M423 136q0 -68 -45 -105t-121 -40l-12 -62q54 -1 85 -23.5t31 -64.5q0 -40 -32 -62.5t-77 -22.5q-57 0 -99 26l8 22q39 -24 88 -24q35 0 59.5 16t24.5 45q0 66 -96 66q-8 0 -20 -2l19 86q-72 2 -119 37.5t-58 99.5l35 3q10 -53 50 -80.5t102 -27.5q65 0 103.5 28t38.5 83
q0 50 -33.5 71t-122.5 41t-116 36q-45 29 -46 91q0 63 43.5 101t125.5 37q73 1 116 -35t52 -99l-35 -3q-7 50 -41.5 78.5t-92.5 27.5q-65 1 -98.5 -28t-33.5 -79q0 -14 3 -25t6.5 -18.5t13.5 -14.5t15.5 -11t21.5 -8.5t23 -6.5t28 -6.5t29 -6.5q94 -21 135.5 -49.5
t41.5 -90.5z" />
    <glyph glyph-name="Scaron" unicode="&#x160;" horiz-adv-x="649" 
d="M341 795h-31l-122 129h33l104 -103l104 103h33zM325 757q102 0 168 -50t73 -139l-37 -3q-7 75 -61.5 117t-141.5 42q-100 0 -153 -46.5t-53 -117.5q0 -29 6.5 -51t22.5 -38.5t31.5 -27t44.5 -20.5t49.5 -15t58.5 -14q142 -31 201 -70t59 -129q0 -101 -71.5 -152.5
t-184.5 -51.5q-112 0 -188 53t-84 146l37 2q8 -77 73.5 -122.5t161.5 -45.5q97 0 158 43t61 126q0 25 -6.5 45t-14.5 34t-27.5 27t-33 20t-45.5 16.5t-50 14t-59 13.5q-50 12 -76.5 19.5t-62.5 23t-54 34t-31 49t-13 70.5q0 85 62.5 141.5t179.5 56.5z" />
    <glyph glyph-name="scaron" unicode="&#x161;" horiz-adv-x="493" 
d="M254 591h-31l-122 162h32l106 -135l106 135h32zM239 511q73 1 116 -35t52 -99l-35 -3q-7 50 -41.5 78.5t-92.5 27.5q-65 1 -98.5 -28t-33.5 -79q0 -14 3 -25t6.5 -18.5t13.5 -14.5t15.5 -11t21.5 -8.5t23 -6.5t28 -6.5t29 -6.5q94 -21 135.5 -49.5t41.5 -90.5
q0 -70 -49 -107.5t-129 -37.5q-76 0 -125.5 35.5t-60.5 101.5l35 3q10 -53 50 -80.5t102 -27.5q65 0 103.5 28t38.5 83q0 50 -33.5 71t-122.5 41t-116 36q-45 29 -46 91q0 63 43.5 101t125.5 37z" />
    <glyph glyph-name="Tcaron" unicode="&#x164;" horiz-adv-x="673" 
d="M353 795h-31l-122 129h33l104 -103l104 103h33zM657 715h-302v-715h-37v715h-302v33h641v-33z" />
    <glyph glyph-name="tcaron" unicode="&#x165;" horiz-adv-x="449" 
d="M402 727q32 0 32 -41q0 -103 -78 -155v19q50 44 50 112h-3q-13 0 -22.5 9.5t-9.5 22.5q0 14 9 23.5t22 9.5zM146 472l-2 -323q0 -121 100 -121q29 0 55 6v-33q-22 -5 -60 -5q-60 0 -95 36t-35 112l1 328h-96v31h96l1 181h36l-1 -181h151v-31h-151z" />
    <glyph glyph-name="Tbar" unicode="&#x166;" horiz-adv-x="673" 
d="M355 715v-320h156v-30h-156v-365h-37v365h-156v30h156v320h-302v33h641v-33h-302z" />
    <glyph glyph-name="tbar" unicode="&#x167;" horiz-adv-x="317" 
d="M244 28q29 0 55 6v-33q-22 -5 -60 -5q-60 0 -95 36t-35 112v117h-95v27h96v184h-96v31h96l1 181h36l-1 -181h151v-31h-151l-1 -184h152v-27h-152l-1 -112q0 -121 100 -121z" />
    <glyph glyph-name="Utilde" unicode="&#x168;" horiz-adv-x="753" 
d="M304 915q32 0 73 -33.5t66 -33.5q26 0 40.5 17t15.5 43h22q1 -37 -20 -62.5t-55 -25.5q-32 0 -73 33.5t-66 33.5q-26 0 -40.5 -17t-15.5 -43h-22q-1 37 20 62.5t55 25.5zM656 748v-487q0 -131 -75.5 -200.5t-205.5 -69.5q-129 0 -204 69.5t-75 200.5v487h37v-487
q0 -116 64.5 -176t177.5 -60t178.5 60t65.5 176v487h37z" />
    <glyph glyph-name="utilde" unicode="&#x169;" horiz-adv-x="581" 
d="M221 714q31 0 72 -33t67 -33q25 0 40 16.5t16 42.5h22q1 -37 -20 -62t-55 -25q-31 0 -72 33t-67 33q-25 0 -40 -16.5t-16 -42.5h-22q-1 37 20 62t55 25zM481 0h-33v93q-17 -40 -60.5 -71t-107.5 -31q-83 0 -133.5 55.5t-50.5 143.5v313h35v-309q0 -76 41 -122.5
t112 -46.5q73 0 117.5 50t44.5 121v307h35v-503z" />
    <glyph glyph-name="Umacron" unicode="&#x16a;" horiz-adv-x="753" 
d="M491 851h-232v28h232v-28zM656 748v-487q0 -131 -75.5 -200.5t-205.5 -69.5q-129 0 -204 69.5t-75 200.5v487h37v-487q0 -116 64.5 -176t177.5 -60t178.5 60t65.5 176v487h37z" />
    <glyph glyph-name="umacron" unicode="&#x16b;" horiz-adv-x="581" 
d="M410 649h-232v28h232v-28zM481 0h-33v93q-17 -40 -60.5 -71t-107.5 -31q-83 0 -133.5 55.5t-50.5 143.5v313h35v-309q0 -76 41 -122.5t112 -46.5q73 0 117.5 50t44.5 121v307h35v-503z" />
    <glyph glyph-name="Ubreve" unicode="&#x16c;" horiz-adv-x="753" 
d="M476 918h30q0 -50 -35.5 -78t-96.5 -28q-60 0 -95.5 28t-35.5 78h30q0 -37 27.5 -58.5t73.5 -21.5q47 0 74.5 21.5t27.5 58.5zM656 748v-487q0 -131 -75.5 -200.5t-205.5 -69.5q-129 0 -204 69.5t-75 200.5v487h37v-487q0 -116 64.5 -176t177.5 -60t178.5 60t65.5 176
v487h37z" />
    <glyph glyph-name="ubreve" unicode="&#x16d;" horiz-adv-x="581" 
d="M395 709h30q0 -50 -35.5 -78t-96.5 -28q-60 0 -95.5 28t-35.5 78h30q0 -37 27 -58t74 -21t74.5 21t27.5 58zM481 0h-33v93q-17 -40 -60.5 -71t-107.5 -31q-83 0 -133.5 55.5t-50.5 143.5v313h35v-309q0 -76 41 -122.5t112 -46.5q73 0 117.5 50t44.5 121v307h35v-503z" />
    <glyph glyph-name="Uring" unicode="&#x16e;" horiz-adv-x="753" 
d="M374 972q39 0 66 -25.5t27 -64.5t-27 -64t-66 -25t-66 25t-27 64t27 64.5t66 25.5zM374 946q-28 0 -47 -17.5t-19 -46.5q0 -28 19 -45.5t47 -17.5q29 0 47.5 17.5t18.5 45.5q0 29 -18.5 46.5t-47.5 17.5zM656 748v-487q0 -131 -75.5 -200.5t-205.5 -69.5
q-129 0 -204 69.5t-75 200.5v487h37v-487q0 -116 64.5 -176t177.5 -60t178.5 60t65.5 176v487h37z" />
    <glyph glyph-name="uring" unicode="&#x16f;" horiz-adv-x="581" 
d="M294 777q41 0 69.5 -26.5t28.5 -67.5q0 -40 -28.5 -66.5t-69.5 -26.5q-42 0 -71 26.5t-29 66.5q0 41 29 67.5t71 26.5zM293 751q-32 0 -52 -19t-20 -49q0 -29 20.5 -48t51.5 -19t51.5 19t20.5 48q0 30 -20 49t-52 19zM481 0h-33v93q-17 -40 -60.5 -71t-107.5 -31
q-83 0 -133.5 55.5t-50.5 143.5v313h35v-309q0 -76 41 -122.5t112 -46.5q73 0 117.5 50t44.5 121v307h35v-503z" />
    <glyph glyph-name="Uhungarumlaut" unicode="&#x170;" horiz-adv-x="753" 
d="M313 798h-30l59 130h35zM456 798h-30l59 130h35zM656 748v-487q0 -131 -75.5 -200.5t-205.5 -69.5q-129 0 -204 69.5t-75 200.5v487h37v-487q0 -116 64.5 -176t177.5 -60t178.5 60t65.5 176v487h37z" />
    <glyph glyph-name="uhungarumlaut" unicode="&#x171;" horiz-adv-x="581" 
d="M232 608h-30l63 139h34zM375 608h-30l63 139h34zM481 0h-33v93q-17 -40 -60.5 -71t-107.5 -31q-83 0 -133.5 55.5t-50.5 143.5v313h35v-309q0 -76 41 -122.5t112 -46.5q73 0 117.5 50t44.5 121v307h35v-503z" />
    <glyph glyph-name="Uogonek" unicode="&#x172;" horiz-adv-x="753" 
d="M656 748v-487q0 -108 -52 -174.5t-145 -87.5q-53 -25 -80 -49t-27 -56q0 -27 18.5 -41t49.5 -14q35 0 62 12l5 -21q-34 -13 -69 -13q-42 0 -68 20t-26 55q0 56 71 99h-20q-129 0 -204 69.5t-75 200.5v487h37v-487q0 -116 64.5 -176t177.5 -60t178.5 60t65.5 176v487h37z
" />
    <glyph glyph-name="uogonek" unicode="&#x173;" horiz-adv-x="581" 
d="M493 -150l5 -21q-34 -13 -69 -13q-42 0 -68 20t-26 55q0 70 113 121v81q-17 -40 -60.5 -71t-107.5 -31q-83 0 -133.5 55.5t-50.5 143.5v313h35v-309q0 -76 41 -122.5t112 -46.5q73 0 117.5 50t44.5 121v307h35v-503h-8q-55 -26 -82.5 -50.5t-27.5 -56.5q0 -27 18.5 -41
t49.5 -14q35 0 62 12z" />
    <glyph glyph-name="Wcircumflex" unicode="&#x174;" horiz-adv-x="1104" 
d="M689 795h-33l-104 103l-104 -103h-33l122 129h31zM794 85l240 663h40l-279 -759l-243 671l-242 -671l-280 759h40l240 -663l242 672z" />
    <glyph glyph-name="wcircumflex" unicode="&#x175;" horiz-adv-x="799" 
d="M537 593h-32l-106 135l-106 -135h-32l122 163h31zM574 77l170 426h39l-208 -512l-176 432l-176 -432l-208 512h39l170 -426l175 433z" />
    <glyph glyph-name="Ycircumflex" unicode="&#x176;" horiz-adv-x="648" 
d="M461 795h-33l-104 103l-104 -103h-33l122 129h31zM342 330v-330h-37v330l-283 418h43l259 -382l258 382h43z" />
    <glyph glyph-name="ycircumflex" unicode="&#x177;" horiz-adv-x="497" 
d="M387 593h-32l-106 135l-106 -135h-32l122 163h31zM144 -255h-40l125 283l-205 475h38l186 -434l187 434h39z" />
    <glyph glyph-name="Ydieresis" unicode="&#x178;" horiz-adv-x="648" 
d="M268 888q12 0 20.5 -8.5t8.5 -19.5q0 -12 -8.5 -20t-20.5 -8t-20 8t-8 20q0 11 8 19.5t20 8.5zM381 888q12 0 20 -8.5t8 -19.5q0 -12 -8 -20t-20 -8t-20.5 8t-8.5 20q0 11 8.5 19.5t20.5 8.5zM342 330v-330h-37v330l-283 418h43l259 -382l258 382h43z" />
    <glyph glyph-name="Zacute" unicode="&#x179;" horiz-adv-x="611" 
d="M322 795h-37l166 130h52zM94 33h483v-33h-545l482 715h-456v33h518z" />
    <glyph glyph-name="zacute" unicode="&#x17a;" horiz-adv-x="445" 
d="M237 592h-30l119 191h40zM87 32h330v-32h-392l320 472h-307v31h368z" />
    <glyph glyph-name="Zdotaccent" unicode="&#x17b;" horiz-adv-x="611" 
d="M306 883q13 0 22.5 -9.5t9.5 -22.5t-9.5 -23t-22.5 -10q-14 0 -23.5 10t-9.5 23t10 22.5t23 9.5zM94 33h483v-33h-545l482 715h-456v33h518z" />
    <glyph glyph-name="zdotaccent" unicode="&#x17c;" horiz-adv-x="445" 
d="M224 712q13 0 22.5 -9.5t9.5 -22.5t-9.5 -23t-22.5 -10q-14 0 -23.5 9.5t-9.5 23.5q0 13 10 22.5t23 9.5zM87 32h330v-32h-392l320 472h-307v31h368z" />
    <glyph glyph-name="Zcaron" unicode="&#x17d;" horiz-adv-x="611" 
d="M321 795h-31l-122 129h33l104 -103l104 103h33zM94 33h483v-33h-545l482 715h-456v33h518z" />
    <glyph glyph-name="zcaron" unicode="&#x17e;" horiz-adv-x="445" 
d="M238 591h-31l-122 162h32l106 -135l106 135h32zM87 32h330v-32h-392l320 472h-307v31h368z" />
    <glyph glyph-name="florin" unicode="&#x192;" horiz-adv-x="421" 
d="M319 753q-44 0 -70.5 -26t-35.5 -85l-24 -139h173v-30h-179l-108 -615h-36l108 615h-121v30h126l26 145q12 72 46.5 104.5t91.5 32.5q71 0 122 -46l-17 -29q-43 43 -102 43z" />
    <glyph glyph-name="Aringacute" unicode="&#x1fa;" horiz-adv-x="691" 
d="M346 772q-39 0 -66 25t-27 64q0 55 47 79l145 109h49l-142 -98q37 -2 62 -27t25 -63q0 -39 -27 -64t-66 -25zM346 925q-28 0 -47 -17.5t-19 -46.5q0 -28 19 -45.5t47 -17.5q29 0 47.5 17.5t18.5 45.5q0 29 -18.5 46.5t-47.5 17.5zM667 0h-41l-95 226h-372l-95 -226h-41
l322 760zM516 259l-170 407l-171 -407h341z" />
    <glyph glyph-name="aringacute" unicode="&#x1fb;" horiz-adv-x="617" 
d="M305 589q-39 0 -66 25t-27 64q0 56 48 79l144 108h49l-142 -97q37 -2 62 -27t25 -63q0 -39 -27 -64t-66 -25zM305 742q-28 0 -47 -17.5t-19 -46.5q0 -28 19 -45.5t47 -17.5q29 0 47.5 17.5t18.5 45.5q0 29 -18.5 46.5t-47.5 17.5zM542 503v-503h-34v106q-24 -51 -77 -83
t-126 -32q-105 0 -174.5 69.5t-69.5 190.5t69.5 191t174.5 70q74 0 126.5 -32t76.5 -84v107h34zM506 233v37q0 103 -55.5 156.5t-144.5 53.5q-91 0 -150.5 -60.5t-59.5 -167.5q0 -108 59.5 -168.5t150.5 -60.5q89 0 144.5 53.5t55.5 156.5z" />
    <glyph glyph-name="AEacute" unicode="&#x1fc;" horiz-adv-x="987" 
d="M658 795h-37l166 130h52zM544 715v-310h366v-33h-366v-339h410v-33h-447v226h-300l-149 -226h-45l494 748h447v-33h-410zM507 259v423l-278 -423h278z" />
    <glyph glyph-name="aeacute" unicode="&#x1fd;" horiz-adv-x="921" 
d="M458 592h-30l119 191h40zM862 239h-427q1 -101 58.5 -158.5t144.5 -57.5q72 0 120 32.5t64 91.5l35 -3q-18 -71 -75.5 -112t-142.5 -41q-75 0 -134 37.5t-86 106.5q-23 -71 -76 -107.5t-124 -36.5q-72 0 -115 35t-43 100q0 133 184 145l153 9v24q0 85 -35 131t-104 46
t-108.5 -42.5t-39.5 -100.5l-35 2q0 69 49.5 120.5t132.5 51.5q132 0 165 -132q29 64 85.5 98t129.5 34q106 0 165 -67t59 -177v-29zM637 480q-86 0 -142.5 -55t-59.5 -154h393v3q0 92 -49.5 149t-141.5 57zM398 248l-150 -9q-152 -10 -152 -112q0 -53 34 -78.5t92 -25.5
q75 0 125.5 47.5t50.5 150.5v27z" />
    <glyph glyph-name="Oslashacute" unicode="&#x1fe;" horiz-adv-x="828" 
d="M431 795h-37l166 130h52zM722 755l-59 -77q131 -108 131 -304q0 -176 -104 -279.5t-261 -103.5q-135 0 -232 77l-70 -91l-23 18l71 93q-112 106 -112 286q0 176 104.5 279.5t261.5 103.5q120 0 210 -61l59 77zM101 374q0 -161 96 -257l421 551q-82 55 -189 55
q-141 0 -234.5 -94t-93.5 -255zM429 25q141 0 234.5 94t93.5 255q0 178 -116 276l-422 -553q87 -72 210 -72z" />
    <glyph glyph-name="oslashacute" unicode="&#x1ff;" horiz-adv-x="624" 
d="M326 592h-30l119 191h40zM524 507l-43 -56q82 -74 82 -199q0 -118 -72 -189.5t-179 -71.5q-85 0 -147 44l-44 -58l-21 16l44 58q-83 73 -83 201q0 119 71.5 189.5t179.5 70.5q84 0 149 -45l43 56zM96 252q0 -111 69 -174l276 362q-55 40 -130 40q-93 0 -154 -61.5
t-61 -166.5zM311 23q93 0 154.5 62t61.5 167q0 109 -67 171l-275 -362q53 -38 126 -38z" />
    <glyph glyph-name="Scommaaccent" unicode="&#x218;" horiz-adv-x="649" 
d="M333 394q142 -31 201 -70t59 -129q0 -101 -71.5 -152.5t-184.5 -51.5q-112 0 -188 53t-84 146l37 2q8 -77 73.5 -122.5t161.5 -45.5q97 0 158 43t61 126q0 25 -6.5 45t-14.5 34t-27.5 27t-33 20t-45.5 16.5t-50 14t-59 13.5q-50 12 -76.5 19.5t-62.5 23t-54 34t-31 49
t-13 70.5q0 85 62.5 141.5t179.5 56.5q102 0 168 -50t73 -139l-37 -3q-7 75 -61.5 117t-141.5 42q-100 0 -153 -46.5t-53 -117.5q0 -29 6.5 -51t22.5 -38.5t31.5 -27t44.5 -20.5t49.5 -15t58.5 -14zM336 -44q32 0 32 -41q0 -103 -78 -155v19q50 44 50 112h-3
q-13 0 -22.5 9.5t-9.5 22.5q0 14 9 23.5t22 9.5z" />
    <glyph glyph-name="scommaaccent" unicode="&#x219;" horiz-adv-x="493" 
d="M246 276q94 -21 135.5 -49.5t41.5 -90.5q0 -70 -49 -107.5t-129 -37.5q-76 0 -125.5 35.5t-60.5 101.5l35 3q10 -53 50 -80.5t102 -27.5q65 0 103.5 28t38.5 83q0 50 -33.5 71t-122.5 41t-116 36q-45 29 -46 91q0 63 43.5 101t125.5 37q73 1 116 -35t52 -99l-35 -3
q-7 50 -41.5 78.5t-92.5 27.5q-65 1 -98.5 -28t-33.5 -79q0 -14 3 -25t6.5 -18.5t13.5 -14.5t15.5 -11t21.5 -8.5t23 -6.5t28 -6.5t29 -6.5zM245 -44q32 0 32 -41q0 -103 -78 -155v19q50 44 50 112h-3q-13 0 -22.5 9.5t-9.5 22.5q0 14 9 23.5t22 9.5z" />
    <glyph glyph-name="uni021A" unicode="&#x21a;" horiz-adv-x="673" 
d="M657 748v-33h-302v-715h-37v715h-302v33h641zM336 -39q32 0 32 -41q0 -103 -78 -155v19q50 44 50 112h-3q-13 0 -22.5 9.5t-9.5 22.5q0 14 9 23.5t22 9.5z" />
    <glyph glyph-name="uni021B" unicode="&#x21b;" horiz-adv-x="317" 
d="M244 28q29 0 55 6v-33q-22 -5 -60 -5q-60 0 -95 36t-35 112l1 328h-96v31h96l1 181h36l-1 -181h151v-31h-151l-2 -323q0 -121 100 -121zM193 -47q32 0 32 -41q0 -103 -78 -155v19q50 44 50 112h-3q-13 0 -22.5 9.5t-9.5 22.5q0 14 9 23.5t22 9.5z" />
    <glyph glyph-name="dotlessj" unicode="&#x237;" horiz-adv-x="236" 
d="M137 503v-601q0 -81 -35.5 -121t-100.5 -40q-23 0 -45 9l11 30q21 -7 30 -7q105 0 105 128v602h35z" />
    <glyph glyph-name="circumflex" unicode="&#x2c6;" horiz-adv-x="321" 
d="M299 593h-32l-106 135l-106 -135h-32l122 163h31z" />
    <glyph glyph-name="caron" unicode="&#x2c7;" horiz-adv-x="321" 
d="M176 591h-31l-122 162h32l106 -135l106 135h32z" />
    <glyph glyph-name="breve" unicode="&#x2d8;" horiz-adv-x="320" 
d="M261 709h30q0 -50 -35.5 -78t-96.5 -28q-60 0 -95.5 28t-35.5 78h30q0 -37 27 -58t74 -21t74.5 21t27.5 58z" />
    <glyph glyph-name="dotaccent" unicode="&#x2d9;" horiz-adv-x="120" 
d="M61 712q13 0 22.5 -9.5t9.5 -22.5t-9.5 -23t-22.5 -10t-23 9.5t-10 23.5q0 13 10 22.5t23 9.5z" />
    <glyph glyph-name="ring" unicode="&#x2da;" horiz-adv-x="251" 
d="M127 777q41 0 69.5 -26.5t28.5 -67.5q0 -40 -28.5 -66.5t-69.5 -26.5q-42 0 -71 26.5t-29 66.5q0 41 29 67.5t71 26.5zM126 751q-32 0 -52 -19t-20 -49q0 -29 20.5 -48t51.5 -19t51.5 19t20.5 48q0 30 -20 49t-52 19z" />
    <glyph glyph-name="ogonek" unicode="&#x2db;" horiz-adv-x="229" 
d="M173 23l5 -20q-55 -26 -82.5 -50.5t-27.5 -56.5q0 -27 18.5 -41t49.5 -14q35 0 62 12l5 -21q-34 -13 -69 -13q-42 0 -68 20t-26 55q0 76 133 129z" />
    <glyph glyph-name="tilde" unicode="&#x2dc;" horiz-adv-x="341" 
d="M100 714q32 0 73 -33t66 -33t40 16.5t16 42.5h22q1 -37 -20 -62t-55 -25q-32 0 -73 33t-66 33t-40 -16.5t-16 -42.5h-22q-1 37 20 62t55 25z" />
    <glyph glyph-name="hungarumlaut" unicode="&#x2dd;" horiz-adv-x="287" 
d="M55 608h-30l63 139h34zM198 608h-30l63 139h34z" />
    <glyph glyph-name="commaaccentcomb" unicode="&#x326;" horiz-adv-x="0" 
d="M83 -39q32 0 32 -41q0 -103 -78 -155v19q50 44 50 112h-3q-13 0 -22.5 9.5t-9.5 22.5q0 14 9 23.5t22 9.5z" />
    <glyph glyph-name="Omega" unicode="&#x3a9;" horiz-adv-x="771" 
d="M385 712q150 0 234 -95.5t84 -246.5q0 -106 -52.5 -196t-115.5 -145h211v-29h-254v25q66 50 123 144t57 200q0 139 -76 227t-211 88t-211 -88t-76 -227q0 -106 57 -200t123 -144v-25h-254v29h211q-63 55 -115 145t-52 196q0 151 84 246.5t233 95.5z" />
    <glyph glyph-name="mu" unicode="&#x3bc;" horiz-adv-x="585" 
d="M485 503v-503h-33v93q-17 -40 -60.5 -71t-107.5 -31q-98 0 -149 75v-321h-35v758h35v-309q0 -76 41 -122.5t112 -46.5q73 0 117.5 50t44.5 121v307h35z" />
    <glyph glyph-name="pi" unicode="&#x3c0;" horiz-adv-x="607" 
d="M546 519l28 -17q-44 -79 -122 -79h-32l-40 -330q-9 -69 50 -69q32 0 65 27l17 -23q-43 -35 -87 -35q-87 0 -75 100l41 330h-151l-30 -241q-14 -105 -51 -182h-35q41 79 56 190l29 233h-54q-53 0 -102 -39l-17 24q58 47 124 47h278q71 0 108 64z" />
    <glyph glyph-name="Wgrave" unicode="&#x1e80;" horiz-adv-x="1104" 
d="M570 795h-38l-180 130h52zM794 85l240 663h40l-279 -759l-243 671l-242 -671l-280 759h40l240 -663l242 672z" />
    <glyph glyph-name="wgrave" unicode="&#x1e81;" horiz-adv-x="799" 
d="M413 592h-29l-130 191h41zM574 77l170 426h39l-208 -512l-176 432l-176 -432l-208 512h39l170 -426l175 433z" />
    <glyph glyph-name="Wacute" unicode="&#x1e82;" horiz-adv-x="1104" 
d="M569 795h-37l166 130h52zM794 85l240 663h40l-279 -759l-243 671l-242 -671l-280 759h40l240 -663l242 672z" />
    <glyph glyph-name="wacute" unicode="&#x1e83;" horiz-adv-x="799" 
d="M413 592h-30l119 191h40zM574 77l170 426h39l-208 -512l-176 432l-176 -432l-208 512h39l170 -426l175 433z" />
    <glyph glyph-name="Wdieresis" unicode="&#x1e84;" horiz-adv-x="1104" 
d="M496 888q12 0 20.5 -8.5t8.5 -19.5q0 -12 -8.5 -20t-20.5 -8t-20 8t-8 20q0 11 8 19.5t20 8.5zM609 888q12 0 20 -8.5t8 -19.5q0 -12 -8 -20t-20 -8t-20.5 8t-8.5 20q0 11 8.5 19.5t20.5 8.5zM794 85l240 663h40l-279 -759l-243 671l-242 -671l-280 759h40l240 -663
l242 672z" />
    <glyph glyph-name="wdieresis" unicode="&#x1e85;" horiz-adv-x="799" 
d="M338 710q12 0 20.5 -8t8.5 -20t-8.5 -19.5t-20.5 -7.5t-20 7.5t-8 19.5t8 20t20 8zM451 710q12 0 20 -8t8 -20t-8 -19.5t-20 -7.5t-20.5 7.5t-8.5 19.5t8.5 20t20.5 8zM574 77l170 426h39l-208 -512l-176 432l-176 -432l-208 512h39l170 -426l175 433z" />
    <glyph glyph-name="Ygrave" unicode="&#x1ef2;" horiz-adv-x="648" 
d="M342 795h-38l-180 130h52zM342 330v-330h-37v330l-283 418h43l259 -382l258 382h43z" />
    <glyph glyph-name="ygrave" unicode="&#x1ef3;" horiz-adv-x="497" 
d="M263 592h-29l-130 191h41zM144 -255h-40l125 283l-205 475h38l186 -434l187 434h39z" />
    <glyph glyph-name="endash" unicode="&#x2013;" horiz-adv-x="560" 
d="M515 245h-470v33h470v-33z" />
    <glyph glyph-name="emdash" unicode="&#x2014;" horiz-adv-x="792" 
d="M747 245h-702v33h702v-33z" />
    <glyph glyph-name="quoteleft" unicode="&#x2018;" horiz-adv-x="146" 
d="M43 572q0 103 78 155v-19q-50 -44 -50 -112h3q13 0 22.5 -9.5t9.5 -22.5q0 -14 -9 -23.5t-22 -9.5q-32 0 -32 41z" />
    <glyph glyph-name="quoteright" unicode="&#x2019;" horiz-adv-x="146" 
d="M71 727q32 0 32 -41q0 -103 -78 -155v19q50 44 50 112h-3q-13 0 -22.5 9.5t-9.5 22.5q0 14 9 23.5t22 9.5z" />
    <glyph glyph-name="quotesinglbase" unicode="&#x201a;" horiz-adv-x="146" 
d="M71 58q32 0 32 -41q0 -103 -78 -155v19q50 44 50 112h-3q-13 0 -22.5 9.5t-9.5 22.5q0 14 9 23.5t22 9.5z" />
    <glyph glyph-name="quotedblleft" unicode="&#x201c;" horiz-adv-x="276" 
d="M35 572q0 103 78 155v-19q-50 -44 -50 -112h3q13 0 22.5 -9.5t9.5 -22.5q0 -14 -9 -23.5t-22 -9.5q-32 0 -32 41zM165 572q0 103 78 155v-19q-50 -44 -50 -112h3q13 0 22.5 -9.5t9.5 -22.5q0 -14 -9 -23.5t-22 -9.5q-32 0 -32 41z" />
    <glyph glyph-name="quotedblright" unicode="&#x201d;" horiz-adv-x="276" 
d="M63 727q32 0 32 -41q0 -103 -78 -155v19q50 44 50 112h-3q-13 0 -22.5 9.5t-9.5 22.5q0 14 9 23.5t22 9.5zM193 727q32 0 32 -41q0 -103 -78 -155v19q50 44 50 112h-3q-13 0 -22.5 9.5t-9.5 22.5q0 14 9 23.5t22 9.5z" />
    <glyph glyph-name="quotedblbase" unicode="&#x201e;" horiz-adv-x="276" 
d="M71 58q32 0 32 -41q0 -103 -78 -155v19q50 44 50 112h-3q-13 0 -22.5 9.5t-9.5 22.5q0 14 9 23.5t22 9.5zM202 58q32 0 32 -41q0 -103 -78 -155v19q50 44 50 112h-3q-13 0 -22.5 9.5t-9.5 22.5q0 14 9 23.5t22 9.5z" />
    <glyph glyph-name="dagger" unicode="&#x2020;" horiz-adv-x="457" 
d="M246 529h187v-32h-187v-564h-35v564h-188v32h188v219h35v-219z" />
    <glyph glyph-name="daggerdbl" unicode="&#x2021;" horiz-adv-x="457" 
d="M246 529h187v-32h-187v-312h187v-33h-187v-219h-35v219h-188v33h188v312h-188v32h188v219h35v-219z" />
    <glyph glyph-name="bullet" unicode="&#x2022;" horiz-adv-x="349" 
d="M175 370q47 0 80.5 -33.5t33.5 -81.5q0 -49 -33.5 -82.5t-80.5 -33.5q-49 0 -82.5 33.5t-33.5 82.5q0 48 33.5 81.5t82.5 33.5z" />
    <glyph glyph-name="ellipsis" unicode="&#x2026;" horiz-adv-x="491" 
d="M83 59q15 0 25 -10t10 -24t-10 -24t-25 -10q-14 0 -23.5 10t-9.5 24t9.5 24t23.5 10zM243 59q15 0 25 -10t10 -24t-10 -24t-25 -10q-14 0 -23.5 10t-9.5 24t9.5 24t23.5 10zM404 59q15 0 25 -10t10 -24t-10 -24t-25 -10q-14 0 -23.5 10t-9.5 24t9.5 24t23.5 10z" />
    <glyph glyph-name="perthousand" unicode="&#x2030;" horiz-adv-x="1172" 
d="M197 757q67 0 109.5 -46t42.5 -124t-42.5 -124t-109.5 -46q-66 0 -109 46t-43 124t43 124t109 46zM136 0h-36l558 748h36zM196 730q-53 0 -88.5 -38.5t-35.5 -104.5t35.5 -105t88.5 -39q55 0 90 39t35 105t-35 104.5t-90 38.5zM597 331q67 0 109.5 -45.5t42.5 -123.5
t-42.5 -124.5t-109.5 -46.5q-66 0 -109 46.5t-43 124.5t43 123.5t109 45.5zM975 331q67 0 109.5 -45.5t42.5 -123.5t-42.5 -124.5t-109.5 -46.5q-66 0 -109 46.5t-43 124.5t43 123.5t109 45.5zM596 305q-54 0 -89 -38.5t-35 -104.5t35.5 -105t88.5 -39q55 0 90 38.5
t35 105.5q0 66 -35 104.5t-90 38.5zM974 305q-54 0 -89 -38.5t-35 -104.5t35.5 -105t88.5 -39q55 0 90 38.5t35 105.5q0 66 -35 104.5t-90 38.5z" />
    <glyph glyph-name="guilsinglleft" unicode="&#x2039;" horiz-adv-x="280" 
d="M257 433l-197 -183l197 -183l-26 -22l-216 205l216 206z" />
    <glyph glyph-name="guilsinglright" unicode="&#x203a;" horiz-adv-x="280" 
d="M265 250l-217 -205l-25 22l197 183l-197 183l25 23z" />
    <glyph glyph-name="fraction" unicode="&#x2044;" horiz-adv-x="175" 
d="M-166 0h-37l545 748h37z" />
    <glyph glyph-name="Euro" unicode="&#x20ac;" horiz-adv-x="706" 
d="M631 94l16 -30q-84 -73 -217 -73q-120 0 -207 75.5t-113 206.5h-104l9 24h91q-5 40 -5 76t5 78h-100l9 24h95q25 132 111.5 207t208.5 75q124 0 207 -66l-13 -31q-75 63 -192 63q-109 0 -184.5 -66t-99.5 -182h397l-9 -24h-392q-6 -37 -6 -78q0 -40 6 -76h326l-9 -24
h-313q24 -116 101 -182t183 -66q119 0 199 69z" />
    <glyph glyph-name="trademark" unicode="&#x2122;" horiz-adv-x="870" 
d="M796 389h-28v270l-165 -271l-164 271v-270h-28v367l192 -318l193 318v-367zM354 721h-143v-332h-27v332h-143v27h313v-27z" />
    <glyph glyph-name="estimated" unicode="&#x212e;" horiz-adv-x="623" 
d="M326 535q104 0 176 -68t72 -182h-435v-172q0 -33 19 -45q71 -64 168 -64q75 0 135 36t98 93l10 -7q-42 -64 -104.5 -99.5t-138.5 -35.5q-116 0 -195 76t-79 193q0 120 79 197.5t195 77.5zM325 522q-94 0 -167 -61q-20 -12 -20 -42v-122h351v127q0 22 -4.5 32t-18.5 20
q-61 46 -141 46z" />
    <glyph glyph-name="partialdiff" unicode="&#x2202;" horiz-adv-x="612" 
d="M295 757q47 0 85.5 -16.5t65 -43.5t46 -67.5t31 -82.5t18.5 -95.5t9 -99.5t2 -101q0 -119 -70 -190t-181 -71q-106 0 -176.5 68t-70.5 178t70 177.5t177 67.5q71 0 126.5 -33t85.5 -91q-3 77 -14 137.5t-34 115t-66 84t-104 29.5q-105 0 -187 -82l-21 29q45 44 93.5 65.5
t114.5 21.5zM303 23q91 0 151.5 58.5t60.5 154.5v6q-2 92 -62.5 150.5t-149.5 58.5q-91 0 -151.5 -60t-60.5 -155t60 -154t152 -59z" />
    <glyph glyph-name="product" unicode="&#x220f;" horiz-adv-x="628" 
d="M597 715h-109v-879h-32v879h-283v-879h-32v879h-109v33h565v-33z" />
    <glyph glyph-name="summation" unicode="&#x2211;" horiz-adv-x="600" 
d="M548 715h-453l257 -341l-257 -341h453v-33h-498v27l262 347l-262 347v27h498v-33z" />
    <glyph glyph-name="minus" unicode="&#x2212;" horiz-adv-x="545" 
d="M510 353h-476v33h476v-33z" />
    <glyph glyph-name="radical" unicode="&#x221a;" horiz-adv-x="597" 
d="M558 683l-246 -760l-136 359l-120 -79l-18 28l152 100l121 -328l217 692z" />
    <glyph glyph-name="infinity" unicode="&#x221e;" horiz-adv-x="796" 
d="M595 485q74 0 121 -51.5t47 -126.5q0 -76 -47 -127.5t-121 -51.5q-102 0 -190 116l-28 37l-29 -37q-82 -99 -166 -99q-67 0 -108.5 46t-41.5 115t41.5 115.5t108.5 46.5q90 0 166 -101l28 -38l24 31q46 61 91 93t104 32zM595 455q-51 0 -90.5 -29.5t-84.5 -87.5l-25 -33
l29 -38q83 -108 171 -108q60 0 99 43t39 105t-39 105t-99 43zM183 438q-54 0 -87.5 -38t-33.5 -94q0 -55 33.5 -93t87.5 -38q75 0 148 92l30 38l-29 39q-71 94 -149 94z" />
    <glyph glyph-name="integral" unicode="&#x222b;" horiz-adv-x="342" 
d="M269 757q29 0 67 -10l-7 -28q-26 8 -54 8q-49 0 -66.5 -27t-17.5 -96v-618q0 -86 -26 -121.5t-90 -35.5q-32 0 -68 9l6 28q30 -7 55 -7q52 0 71.5 28t19.5 100v618q0 83 24 117.5t86 34.5z" />
    <glyph glyph-name="approxequal" unicode="&#x2248;" horiz-adv-x="529" 
d="M481 532l18 -23q-33 -40 -64 -58.5t-78 -18.5q-42 0 -74 17t-59 33.5t-57 16.5q-39 0 -64 -14t-55 -49l-18 23q32 38 61.5 55.5t72.5 17.5q37 0 89.5 -33t100.5 -33q43 0 70.5 15.5t56.5 50.5zM481 307l18 -24q-33 -39 -64 -57.5t-78 -18.5q-33 0 -60.5 10.5t-43.5 23
t-39 23t-47 10.5q-39 0 -64 -14t-55 -49l-18 23q32 38 61.5 55.5t72.5 17.5q37 0 89.5 -33.5t100.5 -33.5q43 0 70 16t57 51z" />
    <glyph glyph-name="notequal" unicode="&#x2260;" horiz-adv-x="545" 
d="M323 467l-84 -202h271v-33h-285l-59 -141l-31 9l55 132h-156v33h170l85 202h-255v34h269l59 141l31 -9l-55 -132h172v-34h-187z" />
    <glyph glyph-name="lessequal" unicode="&#x2264;" horiz-adv-x="501" 
d="M467 594l-367 -161l367 -160l-2 -35l-439 195l439 196zM467 135h-441v33h441v-33z" />
    <glyph glyph-name="greaterequal" unicode="&#x2265;" horiz-adv-x="501" 
d="M475 433l-439 -195l-2 35l368 160l-368 161l2 35zM475 135h-441v33h441v-33z" />
    <glyph glyph-name="lozenge" unicode="&#x25ca;" horiz-adv-x="517" 
d="M476 346l-206 -401h-22l-206 401l206 402h22zM79 346l180 -348l179 348l-179 349z" />
    <glyph glyph-name="fl" unicode="&#xfb02;" horiz-adv-x="547" 
d="M272 780q14 0 28 -2v-32q-14 2 -25 2q-55 0 -86.5 -34t-31.5 -97v-114h140v-31h-140v-472h-35v472h-105v31h105v114q0 78 40.5 120.5t109.5 42.5zM446 0h-35v777h35v-777z" />
    <glyph glyph-name="n.001" horiz-adv-x="600" 
d="M313 512q84 0 137 -55t53 -142v-315h-35v308q0 75 -45.5 123t-116.5 48q-74 0 -122.5 -51t-48.5 -120v-308h-35v503h33v-117q14 51 63 88.5t117 37.5z" />
    <glyph glyph-name="germandbls.cap" horiz-adv-x="677" 
d="M320 756q142 0 241 -116l-142 -197q211 -41 211 -226q0 -104 -71.5 -164.5t-189.5 -60.5q-49 0 -77 7l8 33q25 -7 68 -7q101 0 162.5 51.5t61.5 140.5q0 91 -57.5 140.5t-169.5 67.5l147 208q-78 90 -193 90q-79 0 -132.5 -46.5t-53.5 -119.5v-557h-37v557q0 87 64.5 143
t159.5 56z" />
    <glyph glyph-name="a.sups" horiz-adv-x="514" 
d="M245 755q57 0 99 -23.5t60 -64.5v81h31v-403h-31v82q-18 -41 -60 -64.5t-99 -23.5q-84 0 -140.5 56t-56.5 152t56.5 152t140.5 56zM247 727q-72 0 -119 -48t-47 -133q0 -84 47 -131.5t119 -47.5q69 0 112.5 42t43.5 123v29q0 81 -43.5 123.5t-112.5 42.5z" />
    <glyph glyph-name="b.sups" horiz-adv-x="514" 
d="M111 967v-300q18 41 59.5 64.5t98.5 23.5q84 0 140.5 -56t56.5 -152t-56.5 -152t-140.5 -56q-57 0 -99 23.5t-60 64.5v-82h-31v622h32zM267 727q-69 0 -112.5 -42.5t-43.5 -123.5v-29q0 -81 43.5 -123t112.5 -42q72 0 119 47.5t47 131.5q0 85 -47 133t-119 48z" />
    <glyph glyph-name="c.sups" horiz-adv-x="453" 
d="M239 755q71 0 119.5 -39.5t55.5 -107.5l-31 -2q-7 56 -46.5 88.5t-97.5 32.5q-70 0 -114.5 -48t-44.5 -133q0 -84 45.5 -131.5t114.5 -47.5q59 0 97 29.5t46 81.5l32 -3q-11 -64 -57 -100t-118 -36q-84 0 -138 55t-54 152q0 98 53 153.5t138 55.5z" />
    <glyph glyph-name="d.sups" horiz-adv-x="514" 
d="M435 345h-31v82q-18 -41 -60 -64.5t-99 -23.5q-84 0 -140.5 56t-56.5 152t56.5 152t140.5 56q57 0 98.5 -23.5t59.5 -64.5v300h32v-622zM247 727q-72 0 -119 -48t-47 -133q0 -84 47 -131.5t119 -47.5q69 0 112.5 42t43.5 123v29q0 81 -43.5 123.5t-112.5 42.5z" />
    <glyph glyph-name="e.sups" horiz-adv-x="468" 
d="M421 537h-339q1 -80 45.5 -125t113.5 -45q57 0 94.5 26t49.5 72l32 -2q-14 -58 -60.5 -91t-115.5 -33q-84 0 -138.5 55t-54.5 152q0 98 54 153.5t139 55.5t132.5 -53.5t47.5 -142.5v-22zM241 727q-68 0 -112.5 -43.5t-46.5 -121.5h307v3q0 72 -38.5 117t-109.5 45z" />
    <glyph glyph-name="f.sups" horiz-adv-x="250" 
d="M220 969q11 0 23 -2v-28q-5 1 -19 1q-44 0 -69 -26t-25 -76v-90h110v-29h-110v-374h-33v374h-83v29h83v89q0 64 33 98t90 34z" />
    <glyph glyph-name="g.sups" horiz-adv-x="514" 
d="M245 755q57 0 99 -23.5t60 -64.5v81h31v-432q0 -85 -51 -133t-134 -48q-75 0 -124 36.5t-63 96.5l33 1q10 -49 53 -78t100 -29q70 0 112 40t42 112v113q-18 -41 -59.5 -64.5t-98.5 -23.5q-84 0 -140.5 56t-56.5 152t56.5 152t140.5 56zM247 727q-72 0 -119 -47.5
t-47 -131.5q0 -85 47 -133t119 -48q69 0 112.5 42.5t43.5 123.5v29q0 81 -43.5 123t-112.5 42z" />
    <glyph glyph-name="h.sups" horiz-adv-x="473" 
d="M111 967v-287q17 31 52 53t86 22q67 0 111 -44t44 -114v-252h-32v246q0 60 -35.5 97t-91.5 37q-58 0 -96 -40t-38 -95v-245h-32v622h32z" />
    <glyph glyph-name="i.sups" horiz-adv-x="192" 
d="M95 932q11 0 19 -8t8 -18q0 -11 -8 -18.5t-19 -7.5t-18.5 7.5t-7.5 18.5q0 10 7.5 18t18.5 8zM112 345h-32v403h32v-403z" />
    <glyph glyph-name="j.sups" horiz-adv-x="192" 
d="M94 932q11 0 19.5 -8t8.5 -18q0 -11 -8.5 -18.5t-19.5 -7.5t-18 7.5t-7 18.5t7.5 18.5t17.5 7.5zM113 748v-479q0 -64 -30 -97.5t-84 -33.5q-11 0 -25 2v29q12 -2 21 -2q86 0 86 101v480h32z" />
    <glyph glyph-name="k.sups" horiz-adv-x="401" 
d="M111 545l213 203h48l-189 -178l207 -225h-41l-189 203l-49 -46v-157h-32v622h32v-422z" />
    <glyph glyph-name="l.sups" horiz-adv-x="190" 
d="M111 345h-32v622h32v-622z" />
    <glyph glyph-name="m.sups" horiz-adv-x="751" 
d="M523 755q68 0 110 -43.5t42 -114.5v-252h-32v246q0 60 -33 97t-88 37q-58 0 -94 -40t-36 -95v-245h-32v246q0 60 -33 97t-88 37q-57 0 -92.5 -40t-35.5 -95v-245h-32v403h32v-68q13 27 47 51t83 24q50 0 86 -24t53 -67q18 42 55.5 66.5t87.5 24.5z" />
    <glyph glyph-name="n.sups" horiz-adv-x="480" 
d="M249 755q67 0 111 -44t44 -114v-252h-32v246q0 60 -35.5 97t-91.5 37q-58 0 -96 -40t-38 -95v-245h-32v403h32v-68q17 31 52 53t86 22z" />
    <glyph glyph-name="o.sups" horiz-adv-x="500" 
d="M249 755q87 0 144.5 -57t57.5 -152t-57.5 -151t-144.5 -56t-144 56t-57 151t57.5 152t143.5 57zM250 727q-73 0 -121 -49t-48 -132q0 -82 48 -130.5t121 -48.5t121.5 48.5t48.5 130.5q0 83 -48.5 132t-121.5 49z" />
    <glyph glyph-name="p.sups" horiz-adv-x="514" 
d="M269 755q84 0 140.5 -56t56.5 -152t-56.5 -152t-140.5 -56q-57 0 -98.5 23.5t-59.5 64.5v-286h-32v607h31v-81q18 41 60 64.5t99 23.5zM267 727q-69 0 -112.5 -42t-43.5 -123v-29q0 -81 43.5 -123.5t112.5 -42.5q72 0 119 48t47 133q0 84 -47 131.5t-119 47.5z" />
    <glyph glyph-name="q.sups" horiz-adv-x="514" 
d="M245 755q57 0 99 -23.5t60 -64.5v81h31v-607h-32v286q-18 -41 -59.5 -64.5t-98.5 -23.5q-84 0 -140.5 56t-56.5 152t56.5 152t140.5 56zM247 727q-72 0 -119 -47.5t-47 -131.5q0 -85 47 -133t119 -48q69 0 112.5 42.5t43.5 123.5v29q0 81 -43.5 123t-112.5 42z" />
    <glyph glyph-name="r.sups" horiz-adv-x="247" 
d="M235 754v-31q-56 0 -90 -36.5t-34 -87.5v-254h-32v403h31v-65q14 30 46 50.5t79 20.5z" />
    <glyph glyph-name="s.sups" horiz-adv-x="395" 
d="M191 755q59 0 93.5 -29t42.5 -81l-32 -2q-5 40 -32 62t-72 22q-51 0 -77.5 -22.5t-26.5 -61.5q0 -9 1.5 -16t3.5 -12.5t7 -10.5t8 -8.5t11 -7t12.5 -5.5t15 -4.5t15.5 -3.5t18.5 -4t18.5 -4q76 -17 109 -39.5t33 -72.5q0 -57 -39.5 -86.5t-104.5 -29.5q-62 0 -101.5 28.5
t-48.5 81.5l32 3q15 -86 118 -86q51 0 81.5 22t30.5 66q0 38 -26.5 54.5t-96.5 32.5q-38 8 -53 12.5t-37.5 15.5t-31 29t-8.5 45q0 52 34.5 82t101.5 30z" />
    <glyph glyph-name="t.sups" horiz-adv-x="248" 
d="M189 370q21 0 46 5v-29q-15 -4 -49 -4q-106 0 -106 120l1 257h-76v29h76l1 144h32l-1 -144h121v-29h-121l-1 -254q0 -95 77 -95z" />
    <glyph glyph-name="u.sups" horiz-adv-x="466" 
d="M387 345h-31v67q-41 -73 -131 -73q-68 0 -108.5 42.5t-40.5 113.5v253h32v-247q0 -60 32 -96t88 -36q57 0 92 38.5t35 93.5v247h32v-403z" />
    <glyph glyph-name="v.sups" horiz-adv-x="398" 
d="M200 338l-188 410h36l152 -337l151 337h36z" />
    <glyph glyph-name="w.sups" horiz-adv-x="640" 
d="M460 421l134 327h35l-169 -410l-139 337l-140 -337l-169 410h35l134 -327l140 333z" />
    <glyph glyph-name="x.sups" horiz-adv-x="388" 
d="M217 554l154 -209h-38l-139 185l-137 -185h-40l155 209l-145 194h40l127 -171l127 171h39z" />
    <glyph glyph-name="y.sups" horiz-adv-x="401" 
d="M116 141h-36l102 230l-164 377h36l146 -338l146 338h36z" />
    <glyph glyph-name="z.sups" horiz-adv-x="356" 
d="M70 372h263v-27h-315l256 376h-245v27h296z" />
    <glyph glyph-name="zero.onum" horiz-adv-x="639" 
d="M320 601q119 0 187.5 -81.5t68.5 -223.5q0 -141 -68.5 -223t-187.5 -82q-120 0 -188 82t-68 223q0 142 68 223.5t188 81.5zM319 568q-102 0 -160 -72.5t-58 -199.5q0 -126 58 -198.5t160 -72.5q103 0 161 72.5t58 198.5q0 127 -58 199.5t-161 72.5z" />
    <glyph glyph-name="one.onum" horiz-adv-x="353" 
d="M249 0h-36v527l-172 -140l-18 28l226 184v-599z" />
    <glyph glyph-name="two.onum" horiz-adv-x="531" 
d="M273 599q99 0 150.5 -49.5t51.5 -140.5q0 -72 -39.5 -124.5t-112.5 -110.5l-177 -141h342v-33h-435l239 194q37 30 55 45.5t43.5 44t36.5 59t11 66.5q0 76 -42 116t-123 40q-84 0 -131 -49.5t-49 -139.5l-37 2q2 104 59 162.5t158 58.5z" />
    <glyph glyph-name="three.onum" horiz-adv-x="547" 
d="M271 599q92 0 146.5 -52t54.5 -141q0 -68 -35.5 -115.5t-87.5 -60.5q66 -12 106 -59.5t40 -126.5q0 -96 -60 -153.5t-160 -57.5t-158 56t-68 156l37 2q10 -86 58 -133t131 -47q85 0 134 48t49 129q0 82 -52 125t-138 43h-70v34h69q75 0 121.5 44t46.5 116q0 75 -44.5 117
t-119.5 42q-76 0 -121.5 -45t-51.5 -126l-37 2q6 95 61.5 149t148.5 54z" />
    <glyph glyph-name="four.onum" horiz-adv-x="589" 
d="M418 88h147v-33h-147v-213h-37v213h-367l404 544v-511zM82 88h300v406z" />
    <glyph glyph-name="five.onum" horiz-adv-x="550" 
d="M279 287q97 0 157.5 -61.5t60.5 -162.5t-59 -165.5t-163 -64.5q-100 0 -157 55.5t-67 154.5l37 2q10 -85 57 -131.5t130 -46.5q88 0 137 55t49 140q0 86 -51 139t-134 53q-88 0 -164 -60h-34v396h391v-33h-355v-326q70 56 165 56z" />
    <glyph glyph-name="six.onum" horiz-adv-x="578" 
d="M291 464q103 0 170.5 -65t67.5 -172t-67.5 -171.5t-170.5 -64.5q-104 0 -171.5 64.5t-67.5 171.5q0 90 48 150l290 371h43l-233 -300q43 16 91 16zM291 25q87 0 144 55.5t57 147.5q0 93 -56.5 147.5t-144.5 54.5q-103 0 -159 -69q-43 -53 -43 -133q0 -92 57 -147.5
t145 -55.5z" />
    <glyph glyph-name="seven.onum" horiz-adv-x="542" 
d="M114 -158h-40l400 715h-449v33h504z" />
    <glyph glyph-name="eight.onum" horiz-adv-x="585" 
d="M292 757q92 0 151.5 -51.5t59.5 -140.5q0 -66 -34.5 -112t-84.5 -63q58 -17 97 -68t39 -124q0 -95 -64.5 -151t-163.5 -56t-163 56t-64 151q0 73 38.5 123.5t96.5 68.5q-51 17 -85 63t-34 112q0 89 59.5 140.5t151.5 51.5zM293 723q-76 0 -125.5 -43t-49.5 -117
q0 -72 49.5 -114.5t125.5 -42.5q75 0 124.5 42.5t49.5 114.5q0 74 -49.5 117t-124.5 43zM292 372q-83 0 -136.5 -46.5t-53.5 -126.5q0 -79 54 -126.5t136 -47.5q83 0 137 47.5t54 126.5q0 80 -54 126.5t-137 46.5z" />
    <glyph glyph-name="nine.onum" horiz-adv-x="578" 
d="M287 599q104 0 171.5 -64.5t67.5 -171.5q0 -90 -48 -150l-290 -371h-43l233 300q-43 -16 -91 -16q-103 0 -170.5 65t-67.5 172t67.5 171.5t170.5 64.5zM287 160q103 0 159 69q43 53 43 133q0 92 -57 147.5t-145 55.5q-87 0 -144 -55.5t-57 -147.5q0 -93 56.5 -147.5
t144.5 -54.5z" />
    <glyph glyph-name="zero.slash" horiz-adv-x="639" 
d="M320 757q120 0 188 -100t68 -283t-68 -283t-188 -100q-121 0 -189 100t-68 283t68 283t189 100zM319 723q-104 0 -161.5 -89.5t-57.5 -259.5q0 -179 64 -269l296 557q-55 61 -141 61zM319 25q105 0 162.5 90t57.5 259q0 175 -62 266l-296 -557q55 -58 138 -58z" />
    <glyph glyph-name="zero.subs" horiz-adv-x="368" 
d="M184 336q67 0 105 -55t38 -155q0 -101 -38 -156t-105 -55t-105 55t-38 156q0 100 38 155t105 55zM184 310q-55 0 -84.5 -47t-29.5 -137t29.5 -137t84.5 -47t85 47t30 137t-30 137t-85 47z" />
    <glyph glyph-name="one.subs" horiz-adv-x="212" 
d="M152 -80h-29v360l-91 -69l-13 21l133 104v-416z" />
    <glyph glyph-name="two.subs" horiz-adv-x="309" 
d="M157 336q55 0 84.5 -31.5t29.5 -83.5q0 -47 -20 -83.5t-63 -84.5l-97 -107h186v-26h-244l132 147q40 44 58.5 77.5t18.5 74.5t-22.5 66t-62.5 25q-43 0 -67.5 -25.5t-25.5 -72.5l-28 2q2 57 33.5 89.5t87.5 32.5z" />
    <glyph glyph-name="three.subs" horiz-adv-x="318" 
d="M157 336q52 0 82.5 -28.5t30.5 -78.5q0 -35 -19 -61t-42 -34q30 -7 51.5 -34t21.5 -68q0 -54 -33.5 -85.5t-89.5 -31.5q-57 0 -89 31t-37 86l29 3q5 -45 29.5 -69t67.5 -24q44 0 69.5 24.5t25.5 66.5t-27.5 64t-72.5 22h-38v26h38q37 0 62.5 23t25.5 60q0 38 -23 60
t-62 22t-63 -23t-26 -65l-28 1q3 53 33.5 83t83.5 30z" />
    <glyph glyph-name="four.subs" horiz-adv-x="341" 
d="M244 54h76v-25h-76v-109h-28v109h-206l234 309v-284zM61 54h155v206z" />
    <glyph glyph-name="five.subs" horiz-adv-x="318" 
d="M163 167q54 0 87.5 -33.5t33.5 -90.5t-33 -92.5t-92 -35.5q-55 0 -87 31t-37 85l28 1q11 -90 97 -90q45 0 70.5 28t25.5 72q0 45 -26.5 72t-69.5 27q-45 0 -84 -31h-26v221h218v-26h-190v-164q37 26 85 26z" />
    <glyph glyph-name="six.subs" horiz-adv-x="336" 
d="M169 178q57 0 95 -36t38 -96t-37.5 -95.5t-95.5 -35.5t-96 35.5t-38 95.5q0 48 27 83l156 202h35l-123 -158q20 5 39 5zM168 -58q46 0 75.5 28.5t29.5 76.5t-29 76t-76 28q-53 0 -82 -35q-22 -30 -22 -69q0 -48 29.5 -76.5t74.5 -28.5z" />
    <glyph glyph-name="seven.subs" horiz-adv-x="317" 
d="M77 -80h-31l210 385h-235v26h280z" />
    <glyph glyph-name="eight.subs" horiz-adv-x="339" 
d="M170 336q51 0 84 -29t33 -78q0 -33 -16 -57.5t-38 -36.5q26 -12 45 -39.5t19 -65.5q0 -53 -36 -84t-91 -31q-56 0 -92 31t-36 84q0 72 63 105q-54 34 -54 94q0 49 33.5 78t85.5 29zM170 310q-40 0 -66 -22t-26 -61t25.5 -60t66.5 -21q39 0 64.5 21.5t25.5 59.5
q0 39 -25.5 61t-64.5 22zM169 120q-43 0 -71 -23.5t-28 -65.5q0 -41 28 -65t71 -24t71 23.5t28 65.5t-28 65.5t-71 23.5z" />
    <glyph glyph-name="nine.subs" horiz-adv-x="336" 
d="M168 336q58 0 96 -35.5t38 -95.5q0 -48 -27 -83l-156 -202h-35l123 158q-20 -5 -39 -5q-57 0 -95 36t-38 96t37.5 95.5t95.5 35.5zM168 99q53 0 83 36q22 30 22 69q0 48 -29.5 77t-75.5 29q-45 0 -74.5 -29t-29.5 -77q0 -47 29 -76t75 -29z" />
    <glyph glyph-name="zero.sups" horiz-adv-x="368" 
d="M184 818q67 0 105 -55t38 -155q0 -101 -38 -156t-105 -55t-105 55t-38 156q0 100 38 155t105 55zM184 792q-55 0 -84.5 -47t-29.5 -137t29.5 -137t84.5 -47t85 47t30 137t-30 137t-85 47z" />
    <glyph glyph-name="one.sups" horiz-adv-x="212" 
d="M152 402h-29v360l-91 -69l-13 21l133 104v-416z" />
    <glyph glyph-name="two.sups" horiz-adv-x="309" 
d="M157 818q55 0 84.5 -31.5t29.5 -83.5q0 -47 -20 -83.5t-63 -84.5l-97 -107h186v-26h-244l132 147q40 44 58.5 77.5t18.5 74.5t-22.5 66t-62.5 25q-43 0 -67.5 -25.5t-25.5 -72.5l-28 2q2 57 33.5 89.5t87.5 32.5z" />
    <glyph glyph-name="three.sups" horiz-adv-x="318" 
d="M157 818q52 0 82.5 -28.5t30.5 -78.5q0 -35 -19 -61t-42 -34q30 -7 51.5 -34t21.5 -68q0 -54 -33.5 -85.5t-89.5 -31.5q-57 0 -89 31t-37 86l29 3q5 -45 29.5 -69t67.5 -24q44 0 69.5 24.5t25.5 66.5t-27.5 64t-72.5 22h-38v26h38q37 0 62.5 23t25.5 60q0 38 -23 60
t-62 22t-63 -23t-26 -65l-28 1q3 53 33.5 83t83.5 30z" />
    <glyph glyph-name="four.sups" horiz-adv-x="341" 
d="M244 536h76v-25h-76v-109h-28v109h-206l234 309v-284zM61 536h155v206z" />
    <glyph glyph-name="five.sups" horiz-adv-x="318" 
d="M163 649q54 0 87.5 -33.5t33.5 -90.5t-33 -92.5t-92 -35.5q-55 0 -87 31t-37 85l28 1q11 -90 97 -90q45 0 70.5 28t25.5 72q0 45 -26.5 72t-69.5 27q-45 0 -84 -31h-26v221h218v-26h-190v-164q37 26 85 26z" />
    <glyph glyph-name="six.sups" horiz-adv-x="336" 
d="M169 660q57 0 95 -36t38 -96t-37.5 -95.5t-95.5 -35.5t-96 35.5t-38 95.5q0 48 27 83l156 202h35l-123 -158q20 5 39 5zM168 424q46 0 75.5 28.5t29.5 76.5t-29 76t-76 28q-53 0 -82 -35q-22 -30 -22 -69q0 -48 29.5 -76.5t74.5 -28.5z" />
    <glyph glyph-name="seven.sups" horiz-adv-x="317" 
d="M77 402h-31l210 385h-235v26h280z" />
    <glyph glyph-name="eight.sups" horiz-adv-x="339" 
d="M170 818q51 0 84 -29t33 -78q0 -33 -16 -57.5t-38 -36.5q26 -12 45 -39.5t19 -65.5q0 -53 -36 -84t-91 -31q-56 0 -92 31t-36 84q0 72 63 105q-54 34 -54 94q0 49 33.5 78t85.5 29zM170 792q-40 0 -66 -22t-26 -61t25.5 -60t66.5 -21q39 0 64.5 21.5t25.5 59.5
q0 39 -25.5 61t-64.5 22zM169 602q-43 0 -71 -23.5t-28 -65.5q0 -41 28 -65t71 -24t71 23.5t28 65.5t-28 65.5t-71 23.5z" />
    <glyph glyph-name="nine.sups" horiz-adv-x="336" 
d="M168 818q58 0 96 -35.5t38 -95.5q0 -48 -27 -83l-156 -202h-35l123 158q-20 -5 -39 -5q-57 0 -95 36t-38 96t37.5 95.5t95.5 35.5zM168 581q53 0 83 36q22 30 22 69q0 48 -29.5 77t-75.5 29q-45 0 -74.5 -29t-29.5 -77q0 -47 29 -76t75 -29z" />
    <glyph glyph-name="zero.tnum" horiz-adv-x="650" 
d="M325 757q120 0 188 -100t68 -283t-68 -283t-188 -100q-121 0 -189 100t-68 283t68 283t189 100zM324 723q-104 0 -161.5 -89.5t-57.5 -259.5t57.5 -259.5t161.5 -89.5q105 0 162.5 90t57.5 259t-57.5 259t-162.5 90z" />
    <glyph glyph-name="one.tnum" horiz-adv-x="650" 
d="M379 33h178v-33h-405v33h190v651l-188 -153l-18 28l243 198v-724z" />
    <glyph glyph-name="two.tnum" horiz-adv-x="650" 
d="M326 757q97 0 149.5 -57.5t52.5 -151.5q0 -88 -38 -157.5t-117 -154.5l-188 -203h356v-33h-436l237 254q79 85 114 148.5t35 144.5q0 80 -43 128t-122 48q-85 0 -131.5 -50t-48.5 -139l-37 2q2 104 59 162.5t158 58.5z" />
    <glyph glyph-name="three.tnum" horiz-adv-x="650" 
d="M322 757q92 0 146.5 -52t54.5 -141q0 -68 -35.5 -115.5t-87.5 -60.5q66 -12 106 -59.5t40 -126.5q0 -96 -60 -153.5t-160 -57.5t-158 56t-68 156l37 2q10 -86 58 -133t131 -47q85 0 134 48t49 129q0 82 -52 125t-138 43h-70v34h69q75 0 121.5 44t46.5 116q0 75 -44.5 117
t-119.5 42q-76 0 -121.5 -45t-51.5 -126l-37 2q6 95 61.5 149t148.5 54z" />
    <glyph glyph-name="four.tnum" horiz-adv-x="650" 
d="M446 246h147v-33h-147v-213h-37v213h-367l404 544v-511zM110 246h300v406z" />
    <glyph glyph-name="five.tnum" horiz-adv-x="650" 
d="M325 445q97 0 157.5 -61.5t60.5 -162.5t-59 -165.5t-163 -64.5q-100 0 -157 55.5t-67 154.5l37 2q10 -85 57 -131.5t130 -46.5q88 0 137 55t49 140q0 86 -51 139t-134 53q-88 0 -164 -60h-34v396h391v-33h-355v-326q70 56 165 56z" />
    <glyph glyph-name="six.tnum" horiz-adv-x="650" 
d="M320 464q103 0 170.5 -65t67.5 -172t-67.5 -171.5t-170.5 -64.5q-104 0 -171.5 64.5t-67.5 171.5q0 90 48 150l290 371h43l-233 -300q43 16 91 16zM320 25q87 0 144 55.5t57 147.5q0 93 -56.5 147.5t-144.5 54.5q-103 0 -159 -69q-43 -53 -43 -133q0 -92 57 -147.5
t145 -55.5z" />
    <glyph glyph-name="seven.tnum" horiz-adv-x="650" 
d="M169 -1h-40l400 715h-449v33h504z" />
    <glyph glyph-name="eight.tnum" horiz-adv-x="650" 
d="M324 757q92 0 151.5 -51.5t59.5 -140.5q0 -66 -34.5 -112t-84.5 -63q58 -17 97 -68t39 -124q0 -95 -64.5 -151t-163.5 -56t-163 56t-64 151q0 73 38.5 123.5t96.5 68.5q-51 17 -85 63t-34 112q0 89 59.5 140.5t151.5 51.5zM325 723q-76 0 -125.5 -43t-49.5 -117
q0 -72 49.5 -114.5t125.5 -42.5q75 0 124.5 42.5t49.5 114.5q0 74 -49.5 117t-124.5 43zM324 372q-83 0 -136.5 -46.5t-53.5 -126.5q0 -79 54 -126.5t136 -47.5q83 0 137 47.5t54 126.5q0 80 -54 126.5t-137 46.5z" />
    <glyph glyph-name="nine.tnum" horiz-adv-x="650" 
d="M330 757q104 0 171.5 -64.5t67.5 -171.5q0 -90 -48 -150l-290 -371h-43l233 300q-43 -16 -91 -16q-103 0 -170.5 65t-67.5 172t67.5 171.5t170.5 64.5zM330 318q104 0 159 69q43 53 43 133q0 92 -57 147.5t-145 55.5q-87 0 -144 -55.5t-57 -147.5q0 -93 56.5 -147.5
t144.5 -54.5z" />
    <glyph glyph-name="zero.dnom" horiz-adv-x="368" 
d="M184 416q67 0 105 -55t38 -155q0 -101 -38 -156t-105 -55t-105 55t-38 156q0 100 38 155t105 55zM184 390q-55 0 -84.5 -47t-29.5 -137t29.5 -137t84.5 -47t85 47t30 137t-30 137t-85 47z" />
    <glyph glyph-name="one.dnom" horiz-adv-x="212" 
d="M152 0h-29v360l-91 -69l-13 21l133 104v-416z" />
    <glyph glyph-name="two.dnom" horiz-adv-x="309" 
d="M157 416q55 0 84.5 -31.5t29.5 -83.5q0 -47 -20 -83.5t-63 -84.5l-97 -107h186v-26h-244l132 147q40 44 58.5 77.5t18.5 74.5t-22.5 66t-62.5 25q-43 0 -67.5 -25.5t-25.5 -72.5l-28 2q2 57 33.5 89.5t87.5 32.5z" />
    <glyph glyph-name="three.dnom" horiz-adv-x="318" 
d="M157 416q52 0 82.5 -28.5t30.5 -78.5q0 -35 -19 -61t-42 -34q30 -7 51.5 -34t21.5 -68q0 -54 -33.5 -85.5t-89.5 -31.5q-57 0 -89 31t-37 86l29 3q5 -45 29.5 -69t67.5 -24q44 0 69.5 24.5t25.5 66.5t-27.5 64t-72.5 22h-38v26h38q37 0 62.5 23t25.5 60q0 38 -23 60
t-62 22t-63 -23t-26 -65l-28 1q3 53 33.5 83t83.5 30z" />
    <glyph glyph-name="four.dnom" horiz-adv-x="341" 
d="M244 134h76v-25h-76v-109h-28v109h-206l234 309v-284zM61 134h155v206z" />
    <glyph glyph-name="five.dnom" horiz-adv-x="318" 
d="M163 247q54 0 87.5 -33.5t33.5 -90.5t-33 -92.5t-92 -35.5q-55 0 -87 31t-37 85l28 1q11 -90 97 -90q45 0 70.5 28t25.5 72q0 45 -26.5 72t-69.5 27q-45 0 -84 -31h-26v221h218v-26h-190v-164q37 26 85 26z" />
    <glyph glyph-name="six.dnom" horiz-adv-x="336" 
d="M169 258q57 0 95 -36t38 -96t-37.5 -95.5t-95.5 -35.5t-96 35.5t-38 95.5q0 48 27 83l156 202h35l-123 -158q20 5 39 5zM168 22q46 0 75.5 28.5t29.5 76.5t-29 76t-76 28q-53 0 -82 -35q-22 -30 -22 -69q0 -48 29.5 -76.5t74.5 -28.5z" />
    <glyph glyph-name="seven.dnom" horiz-adv-x="317" 
d="M77 0h-31l210 385h-235v26h280z" />
    <glyph glyph-name="eight.dnom" horiz-adv-x="339" 
d="M170 416q51 0 84 -29t33 -78q0 -33 -16 -57.5t-38 -36.5q26 -12 45 -39.5t19 -65.5q0 -53 -36 -84t-91 -31q-56 0 -92 31t-36 84q0 72 63 105q-54 34 -54 94q0 49 33.5 78t85.5 29zM170 390q-40 0 -66 -22t-26 -61t25.5 -60t66.5 -21q39 0 64.5 21.5t25.5 59.5
q0 39 -25.5 61t-64.5 22zM169 200q-43 0 -71 -23.5t-28 -65.5q0 -41 28 -65t71 -24t71 23.5t28 65.5t-28 65.5t-71 23.5z" />
    <glyph glyph-name="nine.dnom" horiz-adv-x="336" 
d="M168 416q58 0 96 -35.5t38 -95.5q0 -48 -27 -83l-156 -202h-35l123 158q-20 -5 -39 -5q-57 0 -95 36t-38 96t37.5 95.5t95.5 35.5zM168 179q53 0 83 36q22 30 22 69q0 48 -29.5 77t-75.5 29q-45 0 -74.5 -29t-29.5 -77q0 -47 29 -76t75 -29z" />
    <glyph glyph-name="zero.numr" horiz-adv-x="368" 
d="M184 737q67 0 105 -55t38 -155q0 -101 -38 -156t-105 -55t-105 55t-38 156q0 100 38 155t105 55zM184 711q-55 0 -84.5 -47t-29.5 -137t29.5 -137t84.5 -47t85 47t30 137t-30 137t-85 47z" />
    <glyph glyph-name="one.numr" horiz-adv-x="212" 
d="M152 322h-29v360l-91 -69l-13 21l133 104v-416z" />
    <glyph glyph-name="two.numr" horiz-adv-x="309" 
d="M157 738q55 0 84.5 -31.5t29.5 -83.5q0 -47 -20 -83.5t-63 -84.5l-97 -107h186v-26h-244l132 147q40 44 58.5 77.5t18.5 74.5t-22.5 66t-62.5 25q-43 0 -67.5 -25.5t-25.5 -72.5l-28 2q2 57 33.5 89.5t87.5 32.5z" />
    <glyph glyph-name="three.numr" horiz-adv-x="318" 
d="M157 738q52 0 82.5 -28.5t30.5 -78.5q0 -35 -19 -61t-42 -34q30 -7 51.5 -34t21.5 -68q0 -54 -33.5 -85.5t-89.5 -31.5q-57 0 -89 31t-37 86l29 3q5 -45 29.5 -69t67.5 -24q44 0 69.5 24.5t25.5 66.5t-27.5 64t-72.5 22h-38v26h38q37 0 62.5 23t25.5 60q0 38 -23 60
t-62 22t-63 -23t-26 -65l-28 1q3 53 33.5 83t83.5 30z" />
    <glyph glyph-name="four.numr" horiz-adv-x="341" 
d="M244 456h76v-25h-76v-109h-28v109h-206l234 309v-284zM61 456h155v206z" />
    <glyph glyph-name="five.numr" horiz-adv-x="318" 
d="M163 569q54 0 87.5 -33.5t33.5 -90.5t-33 -92.5t-92 -35.5q-55 0 -87 31t-37 85l28 1q11 -90 97 -90q45 0 70.5 28t25.5 72q0 45 -26.5 72t-69.5 27q-45 0 -84 -31h-26v221h218v-26h-190v-164q37 26 85 26z" />
    <glyph glyph-name="six.numr" horiz-adv-x="336" 
d="M169 580q57 0 95 -36t38 -96t-37.5 -95.5t-95.5 -35.5t-96 35.5t-38 95.5q0 48 27 83l156 202h35l-123 -158q20 5 39 5zM168 344q46 0 75.5 28.5t29.5 76.5t-29 76t-76 28q-53 0 -82 -35q-22 -30 -22 -69q0 -48 29.5 -76.5t74.5 -28.5z" />
    <glyph glyph-name="seven.numr" horiz-adv-x="317" 
d="M77 322h-31l210 385h-235v26h280z" />
    <glyph glyph-name="eight.numr" horiz-adv-x="339" 
d="M170 738q51 0 84 -29t33 -78q0 -33 -16 -57.5t-38 -36.5q26 -12 45 -39.5t19 -65.5q0 -53 -36 -84t-91 -31q-56 0 -92 31t-36 84q0 72 63 105q-54 34 -54 94q0 49 33.5 78t85.5 29zM170 712q-40 0 -66 -22t-26 -61t25.5 -60t66.5 -21q39 0 64.5 21.5t25.5 59.5
q0 39 -25.5 61t-64.5 22zM169 522q-43 0 -71 -23.5t-28 -65.5q0 -41 28 -65t71 -24t71 23.5t28 65.5t-28 65.5t-71 23.5z" />
    <glyph glyph-name="nine.numr" horiz-adv-x="336" 
d="M168 738q58 0 96 -35.5t38 -95.5q0 -48 -27 -83l-156 -202h-35l123 158q-20 -5 -39 -5q-57 0 -95 36t-38 96t37.5 95.5t95.5 35.5zM168 501q53 0 83 36q22 30 22 69q0 48 -29.5 77t-75.5 29q-45 0 -74.5 -29t-29.5 -77q0 -47 29 -76t75 -29z" />
    <glyph glyph-name="exclamdown.cap" horiz-adv-x="241" 
d="M121 689q-15 0 -25 10t-10 24t10 24t25 10q14 0 23.5 -10t9.5 -24t-9.5 -24t-23.5 -10zM103 568h36l2 -568h-40z" />
    <glyph glyph-name="periodcentered.cap" horiz-adv-x="171" 
d="M83 422q15 0 25 -10t10 -24t-10 -24t-25 -10q-14 0 -23.5 10t-9.5 24t9.5 24t23.5 10z" />
    <glyph glyph-name="questiondown.cap" horiz-adv-x="473" 
d="M246 689q-15 0 -25 10t-10 24t10 24t25 10q14 0 23.5 -10t9.5 -24t-9.5 -24t-23.5 -10zM236 -9q-100 0 -156.5 58t-56.5 147q0 65 26.5 104.5t85.5 80.5q53 39 71.5 73t18.5 89v25h37v-27q0 -56 -20 -94t-76 -81q-55 -38 -80 -74.5t-25 -94.5q0 -75 46 -124t129 -49
q161 0 181 153l37 -2q-8 -86 -65.5 -135t-152.5 -49z" />
    <glyph glyph-name="braceleft.cap" horiz-adv-x="207" 
d="M182 739h-6q-111 0 -71 -189q6 -29 9.5 -49t5 -44t-2 -39.5t-13.5 -28t-27 -17.5q21 -6 31.5 -22t11 -43t-3 -51.5t-11.5 -61.5q-40 -189 71 -189h6v-30h-6q-73 0 -100.5 56.5t-4.5 161.5q9 41 13 65.5t2.5 50t-15.5 37t-40 11.5h-8v30h8q26 0 40 11.5t15 37t-2.5 50
t-12.5 66.5q-23 104 4.5 160.5t100.5 56.5h6v-30z" />
    <glyph glyph-name="braceright.cap" horiz-adv-x="207" 
d="M24 769h6q73 0 100.5 -56.5t4.5 -160.5q-9 -42 -12.5 -66.5t-2.5 -50t15 -37t40 -11.5h8v-30h-8q-26 0 -40 -11.5t-15.5 -37t2.5 -50t13 -65.5q23 -105 -4.5 -161.5t-100.5 -56.5h-6v30h6q111 0 71 189q-6 29 -9.5 49t-5 44t2 39.5t13.5 28t27 17.5q-21 6 -31.5 22
t-11 43t3 51.5t11.5 61.5q40 189 -71 189h-6v30z" />
    <glyph glyph-name="bracketleft.cap" horiz-adv-x="228" 
d="M205 740h-107v-735h107v-30h-142v795h142v-30z" />
    <glyph glyph-name="bracketright.cap" horiz-adv-x="231" 
d="M166 -25h-142v30h107v735h-107v30h142v-795z" />
    <glyph glyph-name="parenleft.cap" horiz-adv-x="219" 
d="M165 763l31 -11q-52 -76 -85 -177t-33 -213q0 -218 118 -389l-31 -12q-122 178 -122 401q0 115 34.5 219.5t87.5 181.5z" />
    <glyph glyph-name="parenright.cap" horiz-adv-x="218" 
d="M23 752l30 11q54 -77 88.5 -181t34.5 -220q0 -224 -123 -401l-30 12q118 174 118 389q0 216 -118 390z" />
    <glyph glyph-name="emdash.cap" horiz-adv-x="792" 
d="M747 360h-702v33h702v-33z" />
    <glyph glyph-name="endash.cap" horiz-adv-x="560" 
d="M515 360h-470v33h470v-33z" />
    <glyph glyph-name="hyphen.cap" horiz-adv-x="400" 
d="M355 360h-310v33h310v-33z" />
    <glyph glyph-name="guillemotleft.cap" horiz-adv-x="487" 
d="M235 566l-178 -187l178 -187l-27 -19l-193 206l193 206zM464 566l-178 -187l178 -187l-27 -19l-193 206l193 206z" />
    <glyph glyph-name="guillemotright.cap" horiz-adv-x="487" 
d="M243 379l-193 -206l-27 19l177 187l-177 187l27 19zM472 379l-193 -206l-27 19l177 187l-177 187l27 19z" />
    <glyph glyph-name="guilsinglleft.cap" horiz-adv-x="280" 
d="M257 562l-197 -183l197 -183l-26 -22l-216 205l216 206z" />
    <glyph glyph-name="guilsinglright.cap" horiz-adv-x="280" 
d="M265 379l-217 -205l-25 22l197 183l-197 183l25 23z" />
    <glyph glyph-name="emdash_guilsinglright" horiz-adv-x="824" 
d="M789 257l-224 -212l-25 23l188 174h-683v30h682l-187 173l25 23z" />
    <glyph glyph-name="endash_guilsinglright" horiz-adv-x="570" 
d="M535 257l-223 -212l-25 23l187 174h-429v30h428l-186 173l25 23z" />
    <glyph glyph-name="guilsinglleft_emdash" horiz-adv-x="824" 
d="M284 445l-187 -173h682v-30h-683l188 -174l-25 -23l-224 212l224 211z" />
    <glyph glyph-name="guilsinglleft_endash" horiz-adv-x="570" 
d="M284 445l-187 -173h428v-30h-429l188 -174l-25 -23l-224 212l224 211z" />
    <glyph glyph-name="at.cap" horiz-adv-x="794" 
d="M396 724q151 0 252 -100.5t101 -251.5q0 -92 -33.5 -144.5t-90.5 -52.5q-77 0 -82 80q-41 -83 -155 -83q-83 0 -134.5 54.5t-51.5 150.5t51.5 151t134.5 55q117 0 156 -88v79h27v-304q0 -70 59 -70q42 0 66.5 45.5t24.5 126.5q0 140 -92.5 233t-232.5 93
q-141 0 -232.5 -92.5t-91.5 -233.5t92 -232.5t231 -91.5q107 0 190 55l8 -25q-87 -57 -198 -57q-150 0 -250.5 100t-100.5 251t100 251.5t252 100.5zM391 197q69 0 110.5 42t41.5 124v29q0 82 -41 123.5t-111 41.5q-72 0 -116 -47t-44 -133t44 -133t116 -47z" />
    <glyph glyph-name="acute.case" horiz-adv-x="271" 
d="M61 797h-37l166 130h52z" />
    <glyph glyph-name="breve.case" horiz-adv-x="320" 
d="M261 920h30q0 -50 -35.5 -78t-96.5 -28q-60 0 -95.5 28t-35.5 78h30q0 -37 27.5 -58.5t73.5 -21.5q47 0 74.5 21.5t27.5 58.5z" />
    <glyph glyph-name="caron.case" horiz-adv-x="325" 
d="M178 797h-31l-122 129h33l104 -103l104 103h33z" />
    <glyph glyph-name="circumflex.case" horiz-adv-x="325" 
d="M299 797h-33l-104 103l-104 -103h-33l122 129h31z" />
    <glyph glyph-name="dieresis.case" horiz-adv-x="227" 
d="M57 890q12 0 20.5 -8.5t8.5 -19.5q0 -12 -8.5 -20t-20.5 -8t-20 8t-8 20q0 11 8 19.5t20 8.5zM170 890q12 0 20 -8.5t8 -19.5q0 -12 -8 -20t-20 -8t-20.5 8t-8.5 20q0 11 8.5 19.5t20.5 8.5z" />
    <glyph glyph-name="dotaccent.case" horiz-adv-x="120" 
d="M61 885q13 0 22.5 -9.5t9.5 -22.5t-9.5 -23t-22.5 -10t-23 10t-10 23t10 22.5t23 9.5z" />
    <glyph glyph-name="grave.case" horiz-adv-x="271" 
d="M246 797h-38l-180 130h52z" />
    <glyph glyph-name="hungarumlaut.case" horiz-adv-x="283" 
d="M53 800h-30l59 130h35zM196 800h-30l59 130h35z" />
    <glyph glyph-name="macron.case" horiz-adv-x="275" 
d="M254 853h-232v28h232v-28z" />
    <glyph glyph-name="ring.case" horiz-adv-x="245" 
d="M123 974q39 0 66 -25.5t27 -64.5t-27 -64t-66 -25t-66 25t-27 64t27 64.5t66 25.5zM123 948q-28 0 -47 -17.5t-19 -46.5q0 -28 19 -45.5t47 -17.5q29 0 47.5 17.5t18.5 45.5q0 29 -18.5 46.5t-47.5 17.5z" />
    <glyph glyph-name="tilde.case" horiz-adv-x="341" 
d="M100 917q32 0 73 -33.5t66 -33.5q26 0 40.5 17t15.5 43h22q1 -37 -20 -62.5t-55 -25.5q-32 0 -73 33.5t-66 33.5q-26 0 -40.5 -17t-15.5 -43h-22q-1 37 20 62.5t55 25.5z" />
    <glyph glyph-name="anneau" horiz-adv-x="572" 
d="M286 757q107 0 179.5 -72t72.5 -178q0 -105 -73 -177t-179 -72q-107 0 -180 72t-73 177q0 106 73 178t180 72zM286 741q-99 0 -167 -68t-68 -166t68 -165.5t167 -67.5t167 67.5t68 165.5t-68 166t-167 68z" />
    <glyph glyph-name="null" horiz-adv-x="600" 
 />
    </font>
</defs>
</svg>
