<?xml version="1.0" standalone="no"?>
<!DOCTYPE svg PUBLIC "-//W3C//DTD SVG 1.1//EN" "http://www.w3.org/Graphics/SVG/1.1/DTD/svg11.dtd" >
<svg xmlns="http://www.w3.org/2000/svg" xmlns:xlink="http://www.w3.org/1999/xlink" version="1.1">
<metadata>
Created by FontForge 20161013 at Sun Jan 26 01:20:08 2014
 By ,,,
Copyright (c) 2013 by Type Dynamic. All rights reserved.
</metadata>
<defs>
<font id="Celias-HairlineItalic" horiz-adv-x="638" >
  <font-face 
    font-family="Celias Hairline"
    font-weight="250"
    font-style="italic"
    font-stretch="normal"
    units-per-em="1000"
    panose-1="0 0 3 0 0 0 0 0 0 0"
    ascent="750"
    descent="-250"
    x-height="500"
    cap-height="748"
    bbox="-244 -263 1306 1041"
    underline-thickness="50"
    underline-position="-200"
    slope="-10"
    unicode-range="U+000D-FB02"
  />
<missing-glyph horiz-adv-x="661" 
d="M517 0h-461l132 748h461zM200 740l154 -358l280 358h-434zM67 15l281 360l-154 361zM358 374l154 -357l126 715zM71 8h436l-155 359z" />
    <glyph glyph-name="fi" unicode="fi" horiz-adv-x="517" 
d="M354 779q13 0 23 -2l-1 -8q-12 2 -21 2q-60 0 -100 -36.5t-52 -106.5l-23 -128h144l-1 -8h-144l-87 -492h-8l87 492h-108l1 8h108l23 128q12 74 54.5 112.5t104.5 38.5zM487 722q16 0 14 -17q-2 -16 -18 -16t-14 17q2 16 18 16zM365 0h-8l88 500h8z" />
    <glyph glyph-name="f_j" unicode="fj" horiz-adv-x="517" 
d="M354 779q13 0 23 -2l-1 -8q-12 2 -21 2q-60 0 -100 -36.5t-52 -106.5l-23 -128h144l-1 -8h-144l-87 -492h-8l87 492h-108l1 8h108l23 128q12 74 54.5 112.5t104.5 38.5zM487 722q16 0 14 -17q-2 -16 -18 -16t-14 17q2 16 18 16zM454 500l-107 -609q-26 -148 -147 -148
q-9 0 -25 2l1 8q16 -2 23 -2q115 0 140 140l107 609h8z" />
    <glyph glyph-name=".notdef" horiz-adv-x="661" 
d="M517 0h-461l132 748h461zM200 740l154 -358l280 358h-434zM67 15l281 360l-154 361zM358 374l154 -357l126 715zM71 8h436l-155 359z" />
    <glyph glyph-name=".null" horiz-adv-x="0" 
 />
    <glyph glyph-name="nonmarkingreturn" horiz-adv-x="333" 
 />
    <glyph glyph-name="CR" unicode="&#xd;" horiz-adv-x="600" 
 />
    <glyph glyph-name="space" unicode=" " horiz-adv-x="255" 
 />
    <glyph glyph-name="exclam" unicode="!" horiz-adv-x="221" 
d="M100 168h-8l102 580h8zM71 33q21 0 18 -22q-4 -19 -23 -19q-9 0 -14 6t-4 15q1 8 8 14t15 6z" />
    <glyph glyph-name="quotedbl" unicode="&#x22;" horiz-adv-x="217" 
d="M122 564h-15l24 161h25zM212 564h-15l24 161h25z" />
    <glyph glyph-name="numbersign" unicode="#" horiz-adv-x="592" 
d="M485 513h142l-3 -8h-142l-108 -260h153l-3 -8h-153l-99 -237h-8l99 237h-204l-99 -237h-8l99 237h-142l3 8h142l108 260h-153l3 8h153l98 235h8l-98 -235h204l98 235h8zM270 505l-108 -260h204l108 260h-204z" />
    <glyph glyph-name="dollar" unicode="$" horiz-adv-x="645" 
d="M441 865l-19 -110q88 -5 139 -51.5t47 -126.5l-9 -1q4 82 -50 127t-148 45q-112 0 -178.5 -52t-77.5 -131q-5 -38 3 -66.5t24 -46t46.5 -31t57.5 -21t70 -17.5h1q58 -12 91 -21.5t67.5 -25t50.5 -34t24 -47t2 -67.5q-14 -97 -91 -146.5t-187 -49.5h-17l-19 -110h-8
l19 111q-98 5 -158 55t-56 132l8 1q-4 -83 61 -132t169 -49q109 0 183.5 48t87.5 142q7 46 -4 76.5t-45 50t-68 30t-97 25.5q-9 2 -14 3q-49 11 -74.5 18.5t-59 22.5t-48.5 33t-24 48t-3 70q12 82 80.5 135.5t182.5 53.5h14l19 109h8z" />
    <glyph glyph-name="percent" unicode="%" horiz-adv-x="770" 
d="M282 756q65 0 98 -44.5t20 -121.5q-13 -76 -62 -120.5t-112 -44.5q-64 0 -97.5 45t-20.5 122q13 75 62 119.5t112 44.5zM59 0h-10l706 748h10zM283 748q-60 0 -107.5 -43t-59.5 -115t19 -114.5t90 -42.5q60 0 107.5 43.5t59.5 115.5q13 72 -18.5 114t-90.5 42zM587 323
q65 0 98 -44.5t20 -121.5q-14 -76 -62.5 -120.5t-111.5 -44.5q-64 0 -98 45t-20 122q13 75 62 119.5t112 44.5zM587 315q-60 0 -107 -42.5t-59 -115.5q-13 -72 18.5 -114.5t90.5 -42.5q61 0 107.5 43t59.5 116q12 72 -19.5 114t-90.5 42z" />
    <glyph glyph-name="ampersand" unicode="&#x26;" horiz-adv-x="667" 
d="M623 370l7 -3q-67 -143 -145 -232l114 -136l-6 -6l-114 135q-121 -134 -260 -134q-101 0 -149.5 55t-32.5 146q26 142 192 234q-59 82 -44 165q14 78 66 120t126 42q67 0 104 -37t33 -101h-8q3 61 -32 95.5t-96 34.5q-72 0 -122 -40t-64 -116q-3 -17 -3.5 -32t3 -30.5
t6 -26t12.5 -27.5t14 -24.5t19 -26.5t20 -25t24 -29l193 -230q78 89 143 229zM218 2q137 0 256 133l-193 230q-6 7 -16 19t-17.5 21.5t-13.5 17.5q-80 -44 -128 -98.5t-61 -131.5q-15 -86 31 -138.5t142 -52.5z" />
    <glyph glyph-name="quotesingle" unicode="'" horiz-adv-x="127" 
d="M126 564h-15l24 161h25z" />
    <glyph glyph-name="parenleft" unicode="(" horiz-adv-x="200" 
d="M251 718l6 -4q-67 -76 -119.5 -178.5t-72.5 -216.5q-18 -126 -2.5 -221.5t55.5 -170.5l-8 -4q-91 177 -52 398q20 113 73 217t120 180z" />
    <glyph glyph-name="parenright" unicode=")" horiz-adv-x="200" 
d="M107 714l8 4q91 -177 52 -399q-20 -113 -72.5 -216t-120.5 -180l-6 4q152 173 192 394q18 126 2.5 222t-55.5 171z" />
    <glyph glyph-name="asterisk" unicode="*" horiz-adv-x="286" 
d="M212 621l128 39l2 -8l-128 -39l57 -103l-8 -6l-57 103l-93 -103l-6 6l93 103l-114 39l4 8l114 -39l23 127h8z" />
    <glyph glyph-name="plus" unicode="+" horiz-adv-x="544" 
d="M298 373h233l-2 -8h-233l-41 -236h-8l41 236h-233l2 8h233l40 227h8z" />
    <glyph glyph-name="comma" unicode="," horiz-adv-x="147" 
d="M33 31q22 0 17 -27q-16 -89 -84 -136l1 9q57 46 66 117h-4q-8 0 -12.5 5.5t-3.5 13.5q2 7 7.5 12.5t12.5 5.5z" />
    <glyph glyph-name="hyphen" unicode="-" horiz-adv-x="398" 
d="M354 257h-308l2 8h308z" />
    <glyph glyph-name="period" unicode="." horiz-adv-x="147" 
d="M34 33q21 0 18 -22q-4 -19 -23 -19q-9 0 -14 6t-4 15q1 8 8 14t15 6z" />
    <glyph glyph-name="slash" unicode="/" horiz-adv-x="293" 
d="M-32 -67h-9l400 815h7z" />
    <glyph glyph-name="zero" unicode="0" horiz-adv-x="636" 
d="M399 756q119 0 169.5 -100t21.5 -283q-29 -182 -110 -281.5t-199 -99.5q-120 0 -170 99.5t-21 283.5q29 182 110 281.5t199 99.5zM400 748q-115 0 -194 -96.5t-108 -278.5q-29 -180 19.5 -276.5t162.5 -96.5q115 0 194 96.5t108 278.5q29 180 -20 276.5t-162 96.5z" />
    <glyph glyph-name="one" unicode="1" horiz-adv-x="343" 
d="M189 0h-8l130 738l-219 -164l-4 6l234 176z" />
    <glyph glyph-name="two" unicode="2" horiz-adv-x="528" 
d="M361 756q93 0 134 -56.5t25 -149.5q-16 -90 -67.5 -160.5t-151.5 -154.5l-265 -227h403l-1 -8h-422l281 241q99 84 149.5 153t65.5 158q16 88 -22.5 142t-127.5 54q-96 0 -158.5 -55.5t-82.5 -154.5h-8q20 103 85 160.5t163 57.5z" />
    <glyph glyph-name="three" unicode="3" horiz-adv-x="542" 
d="M349 756q89 0 134 -50.5t31 -136.5q-12 -71 -63 -120.5t-117 -59.5q78 -8 119 -58.5t27 -134.5q-14 -92 -80.5 -148t-163.5 -56q-98 0 -146.5 54.5t-43.5 153.5h8q-4 -96 41.5 -148t139.5 -52q95 0 159.5 54t78.5 144q15 90 -36 138t-147 48h-68l1 8h68q78 0 140.5 50
t75.5 129q13 82 -30.5 129.5t-126.5 47.5q-86 0 -145.5 -50t-80.5 -140h-8q22 93 83 145.5t150 52.5z" />
    <glyph glyph-name="four" unicode="4" horiz-adv-x="586" 
d="M397 246h161l-1 -8h-161l-42 -238h-8l42 238h-368l467 518zM37 246h352l86 485z" />
    <glyph glyph-name="five" unicode="5" horiz-adv-x="545" 
d="M176 740l-64 -368q93 66 190 66q98 0 148.5 -61.5t33.5 -160.5q-16 -98 -82.5 -161t-167.5 -63q-97 0 -144.5 54.5t-43.5 153.5h8q-4 -95 41.5 -147.5t137.5 -52.5q99 0 163.5 61.5t79.5 156.5q17 94 -31.5 153t-141.5 59q-97 0 -193 -68h-8l68 386h380l-2 -8h-372z" />
    <glyph glyph-name="six" unicode="6" horiz-adv-x="571" 
d="M319 457q100 0 156.5 -63.5t39.5 -170.5q-16 -105 -92 -168t-175 -63q-101 0 -157.5 63.5t-39.5 169.5q14 89 68 146l11 11l360 366h11l-326 -331q66 40 144 40zM508 225q16 101 -38 162.5t-150 61.5q-112 0 -191 -79q-56 -56 -71 -147q-16 -101 38 -162t151 -61
t170.5 61.5t90.5 163.5z" />
    <glyph glyph-name="seven" unicode="7" horiz-adv-x="538" 
d="M48 0h-10l557 740h-482l2 8h496z" />
    <glyph glyph-name="eight" unicode="8" horiz-adv-x="578" 
d="M370 756q89 0 139 -50.5t36 -137.5q-12 -73 -62.5 -120t-122.5 -60q74 -12 113.5 -64.5t27.5 -132.5q-15 -91 -85 -145t-164 -54q-95 0 -149 54.5t-40 146.5q12 80 67 131t135 64q-67 13 -103 61t-24 121q14 86 79 136t153 50zM371 748q-86 0 -149.5 -48.5t-75.5 -131.5
q-12 -81 35 -128.5t132 -47.5t148.5 48.5t75.5 129.5q13 81 -34 129.5t-132 48.5zM314 384q-92 0 -160.5 -52t-82.5 -141q-14 -87 37.5 -139t142.5 -52q92 0 160 52.5t82 140.5t-37 139.5t-142 51.5z" />
    <glyph glyph-name="nine" unicode="9" horiz-adv-x="571" 
d="M369 756q101 0 157.5 -63.5t39.5 -169.5q-14 -89 -68 -146l-11 -11l-360 -366h-11l326 331q-66 -40 -144 -40q-100 0 -156.5 63.5t-39.5 170.5q16 105 92 168t175 63zM559 525q16 101 -38 162t-151 61t-170.5 -61.5t-90.5 -163.5q-16 -101 38 -162.5t150 -61.5
q112 0 191 79q56 56 71 147z" />
    <glyph glyph-name="colon" unicode=":" horiz-adv-x="147" 
d="M118 508q21 0 18 -22q-4 -19 -23 -19q-9 0 -14 6t-4 15q1 8 8 14t15 6zM34 33q21 0 18 -22q-4 -19 -23 -19q-9 0 -14 6t-4 15q1 8 8 14t15 6z" />
    <glyph glyph-name="semicolon" unicode=";" horiz-adv-x="147" 
d="M118 508q21 0 18 -22q-4 -19 -23 -19q-9 0 -14 6t-4 15q1 8 8 14t15 6zM33 31q22 0 17 -27q-16 -89 -84 -136l1 9q57 46 66 117h-4q-8 0 -12.5 5.5t-3.5 13.5q2 7 7.5 12.5t12.5 5.5z" />
    <glyph glyph-name="less" unicode="&#x3c;" horiz-adv-x="492" 
d="M510 548l-444 -179l380 -179l-4 -7l-396 186l462 186z" />
    <glyph glyph-name="equal" unicode="=" horiz-adv-x="544" 
d="M549 478h-474l2 8h474zM508 245h-474l2 8h474z" />
    <glyph glyph-name="greater" unicode="&#x3e;" horiz-adv-x="492" 
d="M488 369l-462 -186l-2 7l444 179l-380 179l4 7z" />
    <glyph glyph-name="question" unicode="?" horiz-adv-x="458" 
d="M317 756q97 0 141 -57t29 -144q-11 -65 -44.5 -105t-103.5 -83q-64 -42 -89 -78.5t-36 -96.5l-4 -24h-8l4 24q11 60 36 98.5t92 82.5q66 41 100 80t45 104q15 82 -27 136.5t-134 54.5q-179 0 -231 -166l-8 1q24 82 85.5 127.5t152.5 45.5zM179 33q21 0 18 -22
q-4 -19 -23 -19q-9 0 -14 6t-4 15q1 8 8 14t15 6z" />
    <glyph glyph-name="at" unicode="@" horiz-adv-x="787" 
d="M440 588q149 0 232.5 -97.5t62.5 -246.5q-13 -89 -51 -141t-90 -52q-37 0 -52 22t-7 63l5 26q-52 -115 -179 -115q-84 0 -127 54t-29 151q13 96 71.5 149.5t140.5 53.5q65 0 104.5 -31.5t47.5 -88.5l20 113h8l-54 -312q-13 -77 51 -77q49 0 85 50t48 137
q20 145 -60.5 239.5t-226.5 94.5t-254 -95t-128 -241q-20 -145 60 -239t226 -94q110 0 202 58l3 -8q-94 -58 -204 -58q-149 0 -232.5 97t-62.5 246q21 148 131.5 245t258.5 97zM361 55q76 0 126 45t65 135l5 30q15 90 -24 136t-115 46q-80 0 -136 -51.5t-69 -145.5
q-13 -93 28 -144t120 -51z" />
    <glyph glyph-name="A" unicode="A" horiz-adv-x="663" 
d="M594 0h-8l-58 256h-389l-148 -256h-10l440 759zM143 264h383l-108 473z" />
    <glyph glyph-name="B" unicode="B" horiz-adv-x="660" 
d="M198 748h235q94 0 143.5 -49.5t33.5 -138.5q-28 -152 -152 -175q69 -14 102.5 -63t19.5 -130q-17 -96 -86 -144t-161 -48h-267zM204 740l-61 -351h273q72 0 121 41.5t65 131.5q15 85 -32 131.5t-139 46.5h-227zM141 381l-66 -373h259q88 0 154.5 46t83.5 140
q9 49 -1.5 86.5t-35 58.5t-55 31.5t-66.5 10.5h-273z" />
    <glyph glyph-name="C" unicode="C" horiz-adv-x="785" 
d="M484 756q129 0 210.5 -72.5t79.5 -193.5l-8 -1q3 118 -76.5 188.5t-204.5 70.5q-152 0 -259.5 -99.5t-128.5 -275.5q-21 -174 63 -273.5t234 -99.5q125 0 217.5 63t125.5 175l8 -1q-34 -115 -128.5 -180t-221.5 -65q-154 0 -241 102t-65 281q22 178 131.5 279.5
t263.5 101.5z" />
    <glyph glyph-name="D" unicode="D" horiz-adv-x="793" 
d="M198 748h251q151 0 235.5 -100t63.5 -275q-21 -173 -132 -273t-262 -100h-288zM204 740l-129 -732h279q148 0 256.5 98t129.5 269q21 170 -61.5 267.5t-230.5 97.5h-244z" />
    <glyph glyph-name="E" unicode="E" horiz-adv-x="579" 
d="M635 740h-431l-61 -346h387l-1 -8h-387l-67 -378h431l-1 -8h-439l132 748h439z" />
    <glyph glyph-name="F" unicode="F" horiz-adv-x="575" 
d="M636 740h-432l-62 -356h368l-2 -8h-368l-66 -376h-8l132 748h440z" />
    <glyph glyph-name="G" unicode="G" horiz-adv-x="803" 
d="M480 756q131 0 214.5 -74t79.5 -200l-8 -1q4 124 -77 195.5t-208 71.5q-149 0 -256 -99.5t-128 -275.5q-21 -174 61.5 -273.5t229.5 -99.5q149 0 246 86t118 249h-317l1 8h325l-1 -8q-21 -165 -119.5 -254t-251.5 -89q-151 0 -236.5 102t-63.5 281q22 178 131 279.5
t260 101.5z" />
    <glyph glyph-name="H" unicode="H" horiz-adv-x="741" 
d="M587 0h-8l69 389h-505l-69 -389h-8l132 748h8l-62 -351h505l62 351h8z" />
    <glyph glyph-name="I" unicode="I" horiz-adv-x="228" 
d="M74 0h-8l132 748h8z" />
    <glyph glyph-name="J" unicode="J" horiz-adv-x="533" 
d="M518 748l-97 -549q-18 -100 -78.5 -153.5t-150.5 -53.5q-94 0 -139 56t-32 152h8q-13 -95 31.5 -147.5t130.5 -52.5q88 0 146.5 51.5t75.5 147.5l97 549h8z" />
    <glyph glyph-name="K" unicode="K" horiz-adv-x="616" 
d="M242 418l300 -418h-10l-295 412l-106 -90l-57 -322h-8l132 748h8l-74 -416l480 416h11z" />
    <glyph glyph-name="L" unicode="L" horiz-adv-x="591" 
d="M75 8h439l-1 -8h-447l132 748h8z" />
    <glyph glyph-name="M" unicode="M" horiz-adv-x="991" 
d="M837 0h-8l127 722l-505 -730l-250 732l-127 -724h-8l133 756l254 -746l517 746z" />
    <glyph glyph-name="N" unicode="N" horiz-adv-x="731" 
d="M572 18l129 730h8l-133 -756l-373 738l-129 -730h-8l133 756z" />
    <glyph glyph-name="O" unicode="O" horiz-adv-x="854" 
d="M495 756q154 0 245 -103t69 -280q-22 -175 -137.5 -278t-268.5 -103q-154 0 -245 103t-69 280q22 176 137.5 278.5t268.5 102.5zM496 748q-150 0 -263.5 -100.5t-135.5 -274.5q-22 -171 67 -272t238 -101q150 0 263.5 101t135.5 274q22 172 -67 272.5t-238 100.5z" />
    <glyph glyph-name="P" unicode="P" horiz-adv-x="626" 
d="M198 748h239q91 0 146 -52.5t44 -155.5q-11 -101 -77.5 -154t-157.5 -53h-259l-59 -333h-8zM204 740l-70 -399h259q87 0 151.5 51t74.5 150q11 98 -43 148t-141 50h-231z" />
    <glyph glyph-name="Q" unicode="Q" horiz-adv-x="854" 
d="M809 373q-23 -186 -156 -293l122 -148l-6 -6l-122 148q-108 -82 -244 -82q-154 0 -245 103t-69 280q22 176 137.5 278.5t268.5 102.5q154 0 245 -103t69 -280zM484 285l164 -199q130 104 153 289q22 172 -67 272.5t-238 100.5q-150 0 -263.5 -100.5t-135.5 -274.5
q-22 -171 67 -272t238 -101q135 0 239 81l-163 198z" />
    <glyph glyph-name="R" unicode="R" horiz-adv-x="659" 
d="M623 543q-16 -89 -67.5 -139t-126.5 -61l140 -343h-9l-139 342q-20 -2 -33 -2h-254l-60 -340h-8l132 748h234q91 0 146.5 -51.5t44.5 -153.5zM135 348h254q85 0 146.5 48.5t79.5 148.5q10 97 -44 146t-141 49h-226z" />
    <glyph glyph-name="S" unicode="S" horiz-adv-x="645" 
d="M400 756q97 0 154.5 -47t53.5 -132l-9 -1q4 82 -50 127t-148 45q-112 0 -178.5 -52t-77.5 -131q-5 -38 3 -66.5t24 -46t46.5 -31t57.5 -21t70 -17.5h1q58 -12 91 -21.5t67.5 -25t50.5 -34t24 -47t2 -67.5q-14 -97 -91 -146.5t-187 -49.5q-108 0 -175.5 50t-63.5 138l8 1
q-4 -83 61 -132t169 -49q109 0 183.5 48t87.5 142q7 46 -4 76.5t-45 50t-68 30t-97 25.5q-9 2 -14 3q-49 11 -74.5 18.5t-59 22.5t-48.5 33t-24 48t-3 70q12 82 80.5 135.5t182.5 53.5z" />
    <glyph glyph-name="T" unicode="T" horiz-adv-x="668" 
d="M739 740h-315l-130 -740h-8l130 740h-315l2 8h638z" />
    <glyph glyph-name="U" unicode="U" horiz-adv-x="747" 
d="M732 748l-88 -498q-23 -127 -106.5 -192.5t-209.5 -65.5q-124 0 -186 66t-39 192l88 498h8l-88 -498q-22 -123 37 -186.5t179 -63.5q122 0 204.5 63.5t104.5 186.5l88 498h8z" />
    <glyph glyph-name="V" unicode="V" horiz-adv-x="695" 
d="M301 -10l-182 758h8l177 -737l439 737h9z" />
    <glyph glyph-name="W" unicode="W" horiz-adv-x="1110" 
d="M770 14l388 734h9l-400 -758l-127 740l-389 -740l-132 758h8l127 -734l390 742z" />
    <glyph glyph-name="X" unicode="X" horiz-adv-x="644" 
d="M350 379l216 -379h-9l-213 373l-343 -373h-11l350 381l-208 367h9l205 -361l331 361h11z" />
    <glyph glyph-name="Y" unicode="Y" horiz-adv-x="624" 
d="M332 340l-60 -340h-8l60 340l-211 408h9l207 -400l348 400h10z" />
    <glyph glyph-name="Z" unicode="Z" horiz-adv-x="607" 
d="M7 8h523l-1 -8h-540l652 740h-493l2 8h509z" />
    <glyph glyph-name="bracketleft" unicode="[" horiz-adv-x="209" 
d="M265 710h-111l-137 -779h111l-2 -8h-119l141 795h119z" />
    <glyph glyph-name="backslash" unicode="\" horiz-adv-x="293" 
d="M222 -67h-9l-110 815h7z" />
    <glyph glyph-name="bracketright" unicode="]" horiz-adv-x="209" 
d="M86 -77h-119l2 8h111l137 779h-111l2 8h119z" />
    <glyph glyph-name="asciicircum" unicode="^" horiz-adv-x="500" 
d="M487 376h-7l-143 364l-271 -364h-9l282 380z" />
    <glyph glyph-name="underscore" unicode="_" horiz-adv-x="680" 
d="M590 -8h-590l1 8h590z" />
    <glyph glyph-name="grave" unicode="`" horiz-adv-x="195" 
d="M227 590h-9l-94 191h10z" />
    <glyph glyph-name="a" unicode="a" 
d="M339 508q83 0 138 -40.5t63 -119.5l27 152h8l-88 -500h-8l27 152q-32 -80 -94 -120t-143 -40q-104 0 -162.5 68.5t-41.5 190.5q17 120 94.5 188.5t179.5 68.5zM340 500q-101 0 -175.5 -66.5t-91.5 -184.5q-17 -117 39.5 -183t155.5 -66q97 0 164 58t87 172l9 51
q19 105 -36 162t-152 57z" />
    <glyph glyph-name="b" unicode="b" 
d="M208 777l-76 -429q32 80 94 120t143 40q104 0 162.5 -68.5t41.5 -190.5q-17 -120 -94.5 -188.5t-179.5 -68.5q-83 0 -138 40.5t-63 119.5l-27 -152h-8l137 777h8zM370 500q-97 0 -164 -58t-87 -172l-9 -51q-19 -105 36 -162t152 -57q101 0 175.5 66.5t91.5 184.5
q17 117 -39.5 183t-155.5 66z" />
    <glyph glyph-name="c" unicode="c" horiz-adv-x="558" 
d="M331 508q87 0 138.5 -48.5t48.5 -130.5h-8q1 80 -47 125.5t-131 45.5q-99 0 -171 -66.5t-88 -184.5q-16 -117 37.5 -183t151.5 -66q83 0 142 41.5t82 115.5l9 -1q-24 -77 -85 -120.5t-147 -43.5q-102 0 -158.5 68.5t-39.5 190.5q17 120 91 188.5t175 68.5z" />
    <glyph glyph-name="d" unicode="d" 
d="M487 0h-8l27 152q-32 -80 -94 -120t-143 -40q-104 0 -162.5 68.5t-41.5 190.5q17 120 94.5 188.5t179.5 68.5q83 0 138 -40.5t63 -119.5l76 429h8zM340 500q-101 0 -175.5 -66.5t-91.5 -184.5q-17 -117 39.5 -183t155.5 -66q97 0 164 58t87 172l9 51q19 105 -36 162
t-152 57z" />
    <glyph glyph-name="e" unicode="e" horiz-adv-x="581" 
d="M334 508q104 0 153 -67t33 -174l-2 -17h-445q-16 -117 39 -183.5t152 -66.5q81 0 140 38t86 105l8 -1q-29 -71 -89.5 -110.5t-143.5 -39.5q-101 0 -159 69t-41 190q17 120 92 188.5t177 68.5zM512 258l1 9q15 103 -31.5 168t-146.5 65q-98 0 -170.5 -64t-90.5 -178h438z
" />
    <glyph glyph-name="f" unicode="f" horiz-adv-x="294" 
d="M354 779q13 0 23 -2l-1 -8q-12 2 -21 2q-60 0 -100 -36.5t-52 -106.5l-23 -128h144l-1 -8h-144l-87 -492h-8l87 492h-108l1 8h108l23 128q12 74 54.5 112.5t104.5 38.5z" />
    <glyph glyph-name="g" unicode="g" 
d="M339 508q83 0 138 -40.5t63 -119.5l27 152h8l-95 -542q-18 -103 -89.5 -162t-170.5 -59q-87 0 -139 44t-57 113h9q3 -67 56 -108t130 -41q97 0 166.5 56.5t86.5 156.5l34 194q-32 -80 -94 -120t-143 -40q-104 0 -162.5 68.5t-41.5 190.5q17 120 94.5 188.5t179.5 68.5z
M340 500q-101 0 -175.5 -66.5t-91.5 -184.5q-17 -117 39.5 -183t155.5 -66q97 0 164 58t87 172l9 51q19 105 -36 162t-152 57z" />
    <glyph glyph-name="h" unicode="h" horiz-adv-x="585" 
d="M208 777l-72 -409q22 56 81.5 98t130.5 42q83 0 126.5 -55t28.5 -140l-55 -313h-8l55 313q15 82 -26.5 134.5t-119.5 52.5q-82 0 -146 -56t-77 -131l-55 -313h-8l137 777h8z" />
    <glyph glyph-name="i" unicode="i" horiz-adv-x="223" 
d="M193 722q16 0 14 -17q-2 -16 -18 -16t-14 17q2 16 18 16zM71 0h-8l88 500h8z" />
    <glyph glyph-name="j" unicode="j" horiz-adv-x="223" 
d="M193 722q16 0 14 -17q-2 -16 -18 -16t-14 17q2 16 18 16zM160 500l-107 -609q-26 -148 -147 -148q-9 0 -25 2l1 8q16 -2 23 -2q115 0 140 140l107 609h8z" />
    <glyph glyph-name="k" unicode="k" horiz-adv-x="478" 
d="M111 225l347 275h13l-281 -222l226 -278h-10l-222 273l-75 -60l-38 -213h-8l137 777h8z" />
    <glyph glyph-name="l" unicode="l" horiz-adv-x="222" 
d="M71 0h-8l137 777h8z" />
    <glyph glyph-name="m" unicode="m" horiz-adv-x="941" 
d="M702 508q82 0 122 -54.5t25 -140.5l-55 -313h-8l55 313q15 83 -23 135t-115 52q-82 0 -142.5 -55.5t-73.5 -131.5l-55 -313h-8l55 313q15 83 -23 135t-115 52q-82 0 -142 -55.5t-73 -131.5l-55 -313h-8l88 500h8l-23 -132q23 57 78 98.5t126 41.5q70 0 110.5 -41.5
t40.5 -110.5q28 68 84 110t127 42z" />
    <glyph glyph-name="n" unicode="n" horiz-adv-x="595" 
d="M345 508q83 0 128 -55t30 -140l-55 -313h-8l55 313q14 82 -28.5 134.5t-120.5 52.5q-82 0 -144 -56t-75 -131l-56 -313h-8l88 500h8l-22 -132q23 57 80 98.5t128 41.5z" />
    <glyph glyph-name="o" unicode="o" horiz-adv-x="620" 
d="M345 508q105 0 166 -70t44 -189q-17 -117 -96.5 -187t-183.5 -70q-105 0 -166 70t-44 189q17 117 96.5 187t183.5 70zM346 500q-102 0 -179 -68t-94 -183q-17 -114 41.5 -181.5t159.5 -67.5q102 0 179 68t94 183q17 114 -41.5 181.5t-159.5 67.5z" />
    <glyph glyph-name="p" unicode="p" 
d="M369 508q104 0 162.5 -68.5t41.5 -190.5q-17 -120 -94.5 -188.5t-179.5 -68.5q-83 0 -138 40.5t-63 119.5l-72 -407h-8l133 755h8l-27 -152q32 80 94 120t143 40zM370 500q-97 0 -164 -58t-87 -172l-9 -51q-19 -105 36 -162t152 -57q101 0 175.5 66.5t91.5 184.5
q17 117 -39.5 183t-155.5 66z" />
    <glyph glyph-name="q" unicode="q" 
d="M339 508q83 0 138 -40.5t63 -119.5l27 152h8l-133 -755h-8l72 407q-32 -80 -94 -120t-143 -40q-104 0 -162.5 68.5t-41.5 190.5q17 120 94.5 188.5t179.5 68.5zM340 500q-101 0 -175.5 -66.5t-91.5 -184.5q-17 -117 39.5 -183t155.5 -66q97 0 164 58t87 172l9 51
q19 105 -36 162t-152 57z" />
    <glyph glyph-name="r" unicode="r" horiz-adv-x="290" 
d="M320 508l-1 -8q-72 0 -124.5 -49.5t-64.5 -117.5l-59 -333h-8l88 500h8l-20 -112q20 49 69 84.5t112 35.5z" />
    <glyph glyph-name="s" unicode="s" horiz-adv-x="490" 
d="M277 507q68 1 103 -31.5t36 -92.5l-8 -1q0 56 -33.5 87t-96.5 30q-75 1 -119 -33t-53 -92q-10 -61 39 -84q17 -8 93 -25q94 -21 130 -47.5t26 -88.5q-11 -67 -63 -102t-127 -35q-72 0 -114.5 32t-44.5 95l8 1q2 -60 42 -90t108 -30q74 0 123.5 32.5t59.5 98.5
q9 57 -24.5 81t-125.5 45q-80 18 -98 28q-51 25 -40 91q9 60 55 96t124 35z" />
    <glyph glyph-name="t" unicode="t" horiz-adv-x="295" 
d="M162 492l-64 -353q-23 -134 83 -134q29 0 57 6l-2 -9q-18 -5 -55 -5q-116 0 -91 142l64 353h-96l1 8h96l33 183h8l-33 -183h159l-1 -8h-159z" />
    <glyph glyph-name="u" unicode="u" horiz-adv-x="576" 
d="M425 0h-8l23 132q-23 -57 -77.5 -98.5t-125.5 -41.5q-82 0 -121 54t-24 141l55 313h8l-55 -313q-15 -83 22 -135t114 -52q82 0 141.5 55.5t72.5 131.5l55 313h8z" />
    <glyph glyph-name="v" unicode="v" horiz-adv-x="475" 
d="M193 -7l-131 507h8l126 -486l296 486h9z" />
    <glyph glyph-name="w" unicode="w" horiz-adv-x="786" 
d="M535 16l268 484h9l-280 -508l-98 493l-270 -493l-102 508h8l98 -484l269 492z" />
    <glyph glyph-name="x" unicode="x" horiz-adv-x="465" 
d="M240 260l156 -260h-10l-152 255l-241 -255h-12l249 262l-143 238h10l139 -233l220 233h11z" />
    <glyph glyph-name="y" unicode="y" horiz-adv-x="475" 
d="M47 -255h-9l152 259l-118 496h8l116 -486l286 486h9z" />
    <glyph glyph-name="z" unicode="z" horiz-adv-x="438" 
d="M2 8h365l-1 -8h-382l439 492h-340l1 8h357z" />
    <glyph glyph-name="braceleft" unicode="{" horiz-adv-x="183" 
d="M239 709h-6q-58 0 -86 -52.5t-23 -151.5q1 -44 1 -81t-13 -66t-40 -38q18 -7 24.5 -24t0.5 -45.5t-14.5 -53.5t-24.5 -64q-39 -97 -29.5 -149.5t67.5 -52.5h6l-2 -8h-6q-64 0 -74 56.5t31 157.5q12 29 18.5 47t13.5 41.5t7.5 37.5t-2.5 27.5t-14 19.5t-29 6h-8l1 8h8
q35 0 52.5 25t18.5 65.5t-1 90.5q-5 101 24.5 156.5t93.5 55.5h6z" />
    <glyph glyph-name="bar" unicode="|" horiz-adv-x="208" 
d="M52 -67h-8l144 815h8z" />
    <glyph glyph-name="braceright" unicode="}" horiz-adv-x="183" 
d="M107 717h6q42 0 61 -25.5t14.5 -73t-31.5 -115.5q-12 -29 -18.5 -47t-13.5 -41.5t-7.5 -37.5t2.5 -27.5t14 -19.5t29 -6h8l-1 -8h-8q-35 0 -52.5 -25t-18.5 -65.5t1 -90.5q5 -101 -25 -156.5t-94 -55.5h-6l2 8h6q58 0 86 52.5t23 151.5q-1 44 -1 81t12.5 66t39.5 38
q-18 7 -24 24t0 46t14 53t24 64q39 97 30 149.5t-67 52.5h-6z" />
    <glyph glyph-name="asciitilde" unicode="~" horiz-adv-x="525" 
d="M512 408l5 -5q-38 -38 -70.5 -55t-78.5 -17q-34 0 -60.5 11t-39.5 23.5t-33.5 23.5t-44.5 11q-41 0 -68.5 -15t-65.5 -51l-5 5q38 37 67.5 53t71.5 16q26 0 47.5 -11t35 -23.5t38.5 -23.5t57 -11q46 0 75.5 16t68.5 53z" />
    <glyph glyph-name="exclamdown" unicode="&#xa1;" horiz-adv-x="221" 
d="M148 467q-21 0 -18 22q4 19 23 19q9 0 14 -6t4 -15q-1 -8 -8 -14t-15 -6zM119 332h8l-102 -580h-8z" />
    <glyph glyph-name="cent" unicode="&#xa2;" horiz-adv-x="558" 
d="M367 627l-20 -119q80 -5 127 -52.5t44 -126.5h-8q1 80 -47 125.5t-131 45.5q-99 0 -171 -66.5t-88 -184.5q-16 -117 37.5 -183t151.5 -66q83 0 142 41.5t82 115.5l9 -1q-24 -77 -85 -120.5t-147 -43.5h-7l-20 -110h-8l20 110q-96 5 -147.5 73.5t-35.5 185.5
q17 120 91 188.5t175 68.5h8l20 119h8z" />
    <glyph glyph-name="sterling" unicode="&#xa3;" horiz-adv-x="521" 
d="M394 757q81 1 115.5 -43t22.5 -113h-8q11 66 -20 107t-109 41q-175 0 -199 -219l-18 -165h202l-1 -8h-202l-13 -126q-8 -78 -47 -130t-100 -93h426l-1 -8h-441l1 8q66 43 105.5 94.5t47.5 127.5l14 127h-121l1 8h120l18 164q24 227 207 228z" />
    <glyph glyph-name="currency" unicode="&#xa4;" horiz-adv-x="570" 
d="M451 252q-15 -86 -71 -139l108 -130l-7 -5l-107 129q-54 -46 -121 -46q-70 0 -108 47l-152 -130l-5 5l153 131q-38 53 -22 140q15 87 71 139l-107 130l7 5l107 -129q54 46 121 46q71 0 107 -47l153 130l5 -5l-153 -131q37 -52 21 -140zM252 69q68 0 122.5 50t69.5 135
t-21.5 134t-103.5 49q-69 0 -123.5 -49.5t-69.5 -135.5q-15 -84 22 -133.5t104 -49.5z" />
    <glyph glyph-name="yen" unicode="&#xa5;" horiz-adv-x="624" 
d="M334 342h148l-1 -8h-150l-22 -124h150l-1 -8h-150l-36 -202h-8l36 202h-150l1 8h150l22 124h-150l1 8h149l-210 406h9l207 -400l348 400h10z" />
    <glyph glyph-name="brokenbar" unicode="&#xa6;" horiz-adv-x="208" 
d="M140 429h-8l56 319h8zM52 -67h-8l56 319h8z" />
    <glyph glyph-name="section" unicode="&#xa7;" horiz-adv-x="499" 
d="M323 756q74 0 117 -36t34 -101h-8q9 61 -31 95t-111 34q-66 0 -114 -33.5t-57 -96.5q-4 -26 2 -46t16 -32t32.5 -22t39 -15t47.5 -12q38 -9 61 -17t45.5 -23t30 -38t2.5 -55q-7 -44 -28 -69.5t-63 -48.5q46 -18 65 -46t11 -76q-12 -72 -68 -109t-135 -37
q-81 0 -129.5 38.5t-39.5 108.5h8q-9 -66 36.5 -102.5t123.5 -36.5q77 0 131 36t65 104q5 28 -2 49.5t-19 34.5t-38 24t-45.5 16t-54.5 13q-77 18 -112.5 45t-25.5 88q6 43 28 69.5t63 50.5q-35 17 -48.5 42t-6.5 68q11 66 60.5 101t117.5 35zM421 360q5 30 -2.5 51
t-29 34.5t-43 21.5t-57.5 16q-48 11 -81 24q-41 -25 -63 -51t-29 -68q-5 -30 3 -51t29 -34.5t43 -21.5t58 -16q51 -12 80 -22q43 25 64.5 49.5t27.5 67.5z" />
    <glyph glyph-name="dieresis" unicode="&#xa8;" horiz-adv-x="192" 
d="M128 699q17 0 14 -17q-2 -14 -17 -14q-17 0 -14 16q2 15 17 15zM221 699q16 0 13 -17q-2 -14 -16 -14q-18 0 -15 16q1 6 6.5 10.5t11.5 4.5z" />
    <glyph glyph-name="copyright" unicode="&#xa9;" horiz-adv-x="566" 
d="M362 756q105 0 167 -72t47 -177q-14 -104 -96 -175.5t-185 -71.5q-105 0 -167 72t-47 177q14 104 96 175.5t185 71.5zM364 748q-101 0 -181.5 -70.5t-94.5 -170.5t45.5 -169.5t159.5 -69.5q101 0 181.5 70.5t94.5 170.5t-45.5 169.5t-159.5 69.5zM357 663q53 0 85 -29.5
t28 -78.5h-8q3 46 -27 73t-78 27q-59 0 -104 -40t-57 -109q-12 -67 19.5 -107t88.5 -40q48 0 86.5 25t53.5 67h8q-16 -46 -56 -73t-91 -27q-62 0 -95.5 43t-21.5 114q13 71 61 113t108 42z" />
    <glyph glyph-name="ordfeminine" unicode="&#xaa;" horiz-adv-x="511" 
d="M324 755q67 0 110 -34t49 -104l23 131h8l-71 -400h-8l18 104q-25 -52 -73.5 -81t-112.5 -29q-83 0 -129.5 55t-32.5 152q13 96 75 151t144 55zM326 747q-80 0 -140 -53t-74 -147q-12 -93 32.5 -145t123.5 -52q78 0 132 45t67 135l6 33q13 90 -29 137t-118 47z" />
    <glyph glyph-name="guillemotleft" unicode="&#xab;" horiz-adv-x="464" 
d="M254 441l-226 -193l158 -193l-6 -6l-165 199l235 199zM473 441l-226 -193l158 -193l-6 -6l-165 199l235 199z" />
    <glyph glyph-name="logicalnot" unicode="&#xac;" horiz-adv-x="495" 
d="M429 189h-8l30 170h-387l2 8h395z" />
    <glyph glyph-name="registered" unicode="&#xae;" horiz-adv-x="566" 
d="M362 756q105 0 167 -72t47 -177q-14 -104 -96 -175.5t-185 -71.5q-105 0 -167 72t-47 177q14 104 96 175.5t185 71.5zM569 509q14 100 -45.5 169.5t-159.5 69.5q-101 0 -181.5 -70.5t-94.5 -170.5t45.5 -169.5t159.5 -69.5q101 0 181.5 70.5t94.5 170.5zM263 659h102
q39 0 60.5 -21t13.5 -64q-6 -34 -27 -54.5t-51 -26.5l57 -140h-9l-56 138q-6 -1 -18 -1h-94l-24 -137h-8zM431 576q7 39 -12.5 57t-54.5 18h-94l-27 -153h94q35 0 61 19t33 59z" />
    <glyph glyph-name="macron" unicode="&#xaf;" horiz-adv-x="265" 
d="M312 656h-215l1 8h215z" />
    <glyph glyph-name="degree" unicode="&#xb0;" horiz-adv-x="309" 
d="M242 756q56 0 82.5 -33t16.5 -93l-4 -22q-10 -60 -48.5 -93t-92.5 -33q-55 0 -81.5 33t-16.5 93l4 22q10 60 47.5 93t92.5 33zM243 748q-52 0 -87.5 -31t-45.5 -87l-4 -22q-10 -56 14.5 -87t74.5 -31q52 0 88 31.5t46 86.5l4 22q10 55 -15 86.5t-75 31.5z" />
    <glyph glyph-name="plusminus" unicode="&#xb1;" horiz-adv-x="544" 
d="M313 458h233l-2 -8h-233l-41 -236h-8l41 236h-233l2 8h233l40 227h8zM487 128h-474l2 8h474z" />
    <glyph glyph-name="acute" unicode="&#xb4;" horiz-adv-x="195" 
d="M97 590h-9l161 191h10z" />
    <glyph glyph-name="paragraph" unicode="&#xb6;" horiz-adv-x="608" 
d="M669 740h-68l-142 -807h-8l142 807h-176l-142 -807h-8l81 460h-65q-87 0 -134.5 46.5t-35.5 132.5q12 84 73 130t148 46h337z" />
    <glyph glyph-name="periodcentered" unicode="&#xb7;" horiz-adv-x="147" 
d="M78 279q21 0 18 -22q-4 -19 -23 -19q-9 0 -14 6t-4 15q1 8 8 14t15 6z" />
    <glyph glyph-name="cedilla" unicode="&#xb8;" horiz-adv-x="274" 
d="M87 3l-28 -79q56 1 83.5 -20.5t20.5 -63.5q-6 -35 -39 -55.5t-74 -20.5q-56 0 -96 28l5 7q39 -27 91 -27q39 0 69 18.5t36 51.5q6 35 -17.5 54.5t-74.5 19.5q-12 0 -16 -1l32 88h8z" />
    <glyph glyph-name="ordmasculine" unicode="&#xba;" horiz-adv-x="497" 
d="M329 755q85 0 133 -56t35 -152q-12 -94 -76.5 -149.5t-148.5 -55.5t-132 55.5t-35 151.5q12 94 76.5 150t147.5 56zM330 747q-81 0 -142.5 -54t-75.5 -146q-12 -90 34 -143.5t126 -53.5q81 0 143 53.5t75 145.5q13 90 -33.5 144t-126.5 54z" />
    <glyph glyph-name="guillemotright" unicode="&#xbb;" horiz-adv-x="464" 
d="M230 248l-235 -199l-4 6l226 193l-158 193l6 6zM449 248l-235 -199l-4 6l226 193l-158 193l6 6z" />
    <glyph glyph-name="onequarter" unicode="&#xbc;" horiz-adv-x="630" 
d="M-27 0h-10l686 748h10zM148 322h-8l70 398l-117 -86l-4 6l132 98zM500 135h87l-2 -8h-87l-22 -127h-8l22 127h-202l261 289zM306 135h186l45 256z" />
    <glyph glyph-name="onehalf" unicode="&#xbd;" horiz-adv-x="658" 
d="M-27 0h-10l686 748h10zM148 322h-8l70 398l-117 -86l-4 6l132 98zM537 416q53 0 75.5 -31t13.5 -83q-8 -49 -36 -87.5t-82 -84.5l-142 -122h216l-1 -8h-235l156 135q53 46 80.5 83t35.5 85q8 47 -12.5 76t-67.5 29q-52 0 -86 -30t-44 -83l-8 1q11 57 47 88.5t90 31.5z
" />
    <glyph glyph-name="threequarters" unicode="&#xbe;" horiz-adv-x="738" 
d="M81 0h-10l686 748h10zM237 738q50 0 74 -28t16 -76q-6 -37 -34.5 -64.5t-60.5 -33.5q39 -5 60 -32.5t13 -73.5q-9 -51 -47 -81.5t-91 -30.5q-109 0 -103 114l8 1q-2 -52 22 -79.5t73 -27.5q52 0 87 28.5t43 77.5q9 48 -18 73.5t-79 25.5h-37l1 8h37q42 0 76.5 27t41.5 70
q8 44 -14.5 69t-66.5 25q-47 0 -80 -27t-44 -75h-8q13 51 47.5 80.5t83.5 29.5zM608 135h87l-2 -8h-87l-22 -127h-8l22 127h-202l261 289zM414 135h186l45 256z" />
    <glyph glyph-name="questiondown" unicode="&#xbf;" horiz-adv-x="458" 
d="M278 467q-21 0 -18 22q4 19 23 19q9 0 14 -6t4 -15q-1 -8 -8 -14t-15 -6zM140 -256q-97 0 -141 57t-29 144q11 65 44.5 105t103.5 83q64 42 89 78.5t36 96.5l4 24h8l-4 -24q-11 -60 -36 -98.5t-92 -82.5q-66 -41 -100 -80t-45 -104q-15 -82 27 -136.5t134 -54.5
q179 0 231 166l8 -1q-24 -82 -85.5 -127.5t-152.5 -45.5z" />
    <glyph glyph-name="Agrave" unicode="&#xc0;" horiz-adv-x="663" 
d="M435 795h-14l-155 124h16zM594 0h-8l-58 256h-389l-148 -256h-10l440 759zM143 264h383l-108 473z" />
    <glyph glyph-name="Aacute" unicode="&#xc1;" horiz-adv-x="663" 
d="M434 795h-14l197 124h16zM594 0h-8l-58 256h-389l-148 -256h-10l440 759zM143 264h383l-108 473z" />
    <glyph glyph-name="Acircumflex" unicode="&#xc2;" horiz-adv-x="663" 
d="M553 795h-11l-94 110l-134 -110h-11l145 121h4zM594 0h-8l-58 256h-389l-148 -256h-10l440 759zM143 264h383l-108 473z" />
    <glyph glyph-name="Atilde" unicode="&#xc3;" horiz-adv-x="663" 
d="M376 904q32 0 66.5 -35t61.5 -35t46.5 18t24.5 45h8q-6 -31 -27.5 -51t-50.5 -20q-32 0 -67 35t-62 35t-46.5 -18t-24.5 -45h-8q6 30 28 50.5t51 20.5zM594 0h-8l-58 256h-389l-148 -256h-10l440 759zM143 264h383l-108 473z" />
    <glyph glyph-name="Adieresis" unicode="&#xc4;" horiz-adv-x="663" 
d="M396 871q17 0 14 -17q-4 -14 -18 -14q-17 0 -14 16q4 15 18 15zM489 871q16 0 13 -17q-4 -14 -17 -14q-18 0 -15 16q4 15 19 15zM594 0h-8l-58 256h-389l-148 -256h-10l440 759zM143 264h383l-108 473z" />
    <glyph glyph-name="Aring" unicode="&#xc5;" horiz-adv-x="663" 
d="M457 963q38 0 59.5 -24t14.5 -62q-7 -36 -36.5 -60t-65.5 -24q-38 0 -59.5 24t-14.5 62q7 36 36.5 60t65.5 24zM458 955q-34 0 -61.5 -22t-33.5 -56q-6 -32 13.5 -54t52.5 -22q34 0 61 22t33 56q6 33 -13 54.5t-52 21.5zM594 0h-8l-58 256h-389l-148 -256h-10l440 759z
M143 264h383l-108 473z" />
    <glyph glyph-name="AE" unicode="&#xc6;" horiz-adv-x="975" 
d="M600 740l-61 -346h387l-1 -8h-387l-67 -378h431l-1 -8h-439l45 256h-313l-213 -256h-10l623 748h439l-2 -8h-431zM591 733l-391 -469h309z" />
    <glyph glyph-name="Ccedilla" unicode="&#xc7;" horiz-adv-x="785" 
d="M484 756q129 0 210.5 -72.5t79.5 -193.5l-8 -1q3 118 -76.5 188.5t-204.5 70.5q-152 0 -259.5 -99.5t-128.5 -275.5q-21 -174 63 -273.5t234 -99.5q125 0 217.5 63t125.5 175l8 -1q-33 -113 -125.5 -178t-217.5 -67l-26 -73q56 1 83.5 -20.5t20.5 -63.5q-6 -35 -39 -55.5
t-74 -20.5q-56 0 -96 28l5 7q39 -27 91 -27q39 0 69 18.5t36 51.5q6 35 -17.5 54.5t-74.5 19.5q-12 0 -16 -1l30 82q-154 1 -240.5 102.5t-64.5 280.5q22 178 131.5 279.5t263.5 101.5z" />
    <glyph glyph-name="Egrave" unicode="&#xc8;" horiz-adv-x="579" 
d="M437 795h-14l-155 124h16zM635 740h-431l-61 -346h387l-1 -8h-387l-67 -378h431l-1 -8h-439l132 748h439z" />
    <glyph glyph-name="Eacute" unicode="&#xc9;" horiz-adv-x="579" 
d="M436 795h-14l197 124h16zM635 740h-431l-61 -346h387l-1 -8h-387l-67 -378h431l-1 -8h-439l132 748h439z" />
    <glyph glyph-name="Ecircumflex" unicode="&#xca;" horiz-adv-x="579" 
d="M555 795h-11l-94 110l-134 -110h-11l145 121h4zM635 740h-431l-61 -346h387l-1 -8h-387l-67 -378h431l-1 -8h-439l132 748h439z" />
    <glyph glyph-name="Edieresis" unicode="&#xcb;" horiz-adv-x="579" 
d="M398 871q17 0 14 -17q-4 -14 -18 -14q-17 0 -14 16q4 15 18 15zM491 871q16 0 13 -17q-4 -14 -17 -14q-18 0 -15 16q4 15 19 15zM635 740h-431l-61 -346h387l-1 -8h-387l-67 -378h431l-1 -8h-439l132 748h439z" />
    <glyph glyph-name="Igrave" unicode="&#xcc;" horiz-adv-x="228" 
d="M217 795h-14l-155 124h16zM74 0h-8l132 748h8z" />
    <glyph glyph-name="Iacute" unicode="&#xcd;" horiz-adv-x="228" 
d="M216 795h-14l197 124h16zM74 0h-8l132 748h8z" />
    <glyph glyph-name="Icircumflex" unicode="&#xce;" horiz-adv-x="228" 
d="M335 795h-11l-94 110l-134 -110h-11l145 121h4zM74 0h-8l132 748h8z" />
    <glyph glyph-name="Idieresis" unicode="&#xcf;" horiz-adv-x="228" 
d="M178 871q17 0 14 -17q-4 -14 -18 -14q-17 0 -14 16q4 15 18 15zM271 871q16 0 13 -17q-4 -14 -17 -14q-18 0 -15 16q4 15 19 15zM74 0h-8l132 748h8z" />
    <glyph glyph-name="Eth" unicode="&#xd0;" horiz-adv-x="778" 
d="M198 748h251q151 0 235.5 -100t63.5 -275q-21 -173 -132 -273t-262 -100h-288l65 370h-114l2 8h114zM740 375q21 170 -61.5 267.5t-230.5 97.5h-244l-64 -362h227l-2 -8h-226l-64 -362h279q148 0 256.5 98t129.5 269z" />
    <glyph glyph-name="Ntilde" unicode="&#xd1;" horiz-adv-x="731" 
d="M410 904q32 0 66.5 -35t61.5 -35t46.5 18t24.5 45h8q-6 -31 -27.5 -51t-50.5 -20q-32 0 -67 35t-62 35t-46.5 -18t-24.5 -45h-8q6 30 28 50.5t51 20.5zM572 18l129 730h8l-133 -756l-373 738l-129 -730h-8l133 756z" />
    <glyph glyph-name="Ograve" unicode="&#xd2;" horiz-adv-x="854" 
d="M505 795h-14l-155 124h16zM495 756q154 0 245 -103t69 -280q-22 -175 -137.5 -278t-268.5 -103q-154 0 -245 103t-69 280q22 176 137.5 278.5t268.5 102.5zM496 748q-150 0 -263.5 -100.5t-135.5 -274.5q-22 -171 67 -272t238 -101q150 0 263.5 101t135.5 274
q22 172 -67 272.5t-238 100.5z" />
    <glyph glyph-name="Oacute" unicode="&#xd3;" horiz-adv-x="854" 
d="M504 795h-14l197 124h16zM495 756q154 0 245 -103t69 -280q-22 -175 -137.5 -278t-268.5 -103q-154 0 -245 103t-69 280q22 176 137.5 278.5t268.5 102.5zM496 748q-150 0 -263.5 -100.5t-135.5 -274.5q-22 -171 67 -272t238 -101q150 0 263.5 101t135.5 274
q22 172 -67 272.5t-238 100.5z" />
    <glyph glyph-name="Ocircumflex" unicode="&#xd4;" horiz-adv-x="854" 
d="M623 795h-11l-94 110l-134 -110h-11l145 121h4zM495 756q154 0 245 -103t69 -280q-22 -175 -137.5 -278t-268.5 -103q-154 0 -245 103t-69 280q22 176 137.5 278.5t268.5 102.5zM496 748q-150 0 -263.5 -100.5t-135.5 -274.5q-22 -171 67 -272t238 -101q150 0 263.5 101
t135.5 274q22 172 -67 272.5t-238 100.5z" />
    <glyph glyph-name="Otilde" unicode="&#xd5;" horiz-adv-x="854" 
d="M446 904q32 0 66.5 -35t61.5 -35t46.5 18t24.5 45h8q-6 -31 -27.5 -51t-50.5 -20q-32 0 -67 35t-62 35t-46.5 -18t-24.5 -45h-8q6 30 28 50.5t51 20.5zM495 756q154 0 245 -103t69 -280q-22 -175 -137.5 -278t-268.5 -103q-154 0 -245 103t-69 280q22 176 137.5 278.5
t268.5 102.5zM496 748q-150 0 -263.5 -100.5t-135.5 -274.5q-22 -171 67 -272t238 -101q150 0 263.5 101t135.5 274q22 172 -67 272.5t-238 100.5z" />
    <glyph glyph-name="Odieresis" unicode="&#xd6;" horiz-adv-x="854" 
d="M466 871q17 0 14 -17q-4 -14 -18 -14q-17 0 -14 16q4 15 18 15zM559 871q16 0 13 -17q-4 -14 -17 -14q-18 0 -15 16q4 15 19 15zM495 756q154 0 245 -103t69 -280q-22 -175 -137.5 -278t-268.5 -103q-154 0 -245 103t-69 280q22 176 137.5 278.5t268.5 102.5zM496 748
q-150 0 -263.5 -100.5t-135.5 -274.5q-22 -171 67 -272t238 -101q150 0 263.5 101t135.5 274q22 172 -67 272.5t-238 100.5z" />
    <glyph glyph-name="multiply" unicode="&#xd7;" horiz-adv-x="491" 
d="M478 541l-205 -174l147 -178l-6 -5l-147 179l-214 -182l-5 7l214 181l-148 178l6 5l148 -179l206 175z" />
    <glyph glyph-name="Oslash" unicode="&#xd8;" horiz-adv-x="854" 
d="M798 762l-80 -86q116 -107 91 -303q-22 -175 -137.5 -278t-268.5 -103q-151 0 -238 95l-98 -104l-5 5l98 105q-93 106 -71 282t137.5 278.5t268.5 102.5q131 0 217 -75l81 86zM97 373q-22 -170 69 -274l541 576q-84 73 -211 73q-150 0 -263.5 -100.5t-135.5 -274.5z
M801 375q25 191 -89 295l-541 -577q87 -93 231 -93q150 0 263.5 101t135.5 274z" />
    <glyph glyph-name="Ugrave" unicode="&#xd9;" horiz-adv-x="747" 
d="M475 795h-14l-155 124h16zM732 748l-88 -498q-23 -127 -106.5 -192.5t-209.5 -65.5q-124 0 -186 66t-39 192l88 498h8l-88 -498q-22 -123 37 -186.5t179 -63.5q122 0 204.5 63.5t104.5 186.5l88 498h8z" />
    <glyph glyph-name="Uacute" unicode="&#xda;" horiz-adv-x="747" 
d="M474 795h-14l197 124h16zM732 748l-88 -498q-23 -127 -106.5 -192.5t-209.5 -65.5q-124 0 -186 66t-39 192l88 498h8l-88 -498q-22 -123 37 -186.5t179 -63.5q122 0 204.5 63.5t104.5 186.5l88 498h8z" />
    <glyph glyph-name="Ucircumflex" unicode="&#xdb;" horiz-adv-x="747" 
d="M593 795h-11l-94 110l-134 -110h-11l145 121h4zM732 748l-88 -498q-23 -127 -106.5 -192.5t-209.5 -65.5q-124 0 -186 66t-39 192l88 498h8l-88 -498q-22 -123 37 -186.5t179 -63.5q122 0 204.5 63.5t104.5 186.5l88 498h8z" />
    <glyph glyph-name="Udieresis" unicode="&#xdc;" horiz-adv-x="747" 
d="M436 871q17 0 14 -17q-4 -14 -18 -14q-17 0 -14 16q4 15 18 15zM529 871q16 0 13 -17q-4 -14 -17 -14q-18 0 -15 16q4 15 19 15zM732 748l-88 -498q-23 -127 -106.5 -192.5t-209.5 -65.5q-124 0 -186 66t-39 192l88 498h8l-88 -498q-22 -123 37 -186.5t179 -63.5
q122 0 204.5 63.5t104.5 186.5l88 498h8z" />
    <glyph glyph-name="Yacute" unicode="&#xdd;" horiz-adv-x="624" 
d="M414 795h-14l197 124h16zM332 340l-60 -340h-8l60 340l-211 408h9l207 -400l348 400h10z" />
    <glyph glyph-name="Thorn" unicode="&#xde;" horiz-adv-x="606" 
d="M185 631h224q90 0 142.5 -53t34.5 -151q-17 -97 -88 -150t-161 -53h-224l-39 -224h-8l132 748h8zM184 623l-69 -391h224q86 0 154.5 51t85.5 146q16 94 -34.5 144t-136.5 50h-224z" />
    <glyph glyph-name="germandbls" unicode="&#xdf;" horiz-adv-x="601" 
d="M370 785q76 0 112.5 -38t25.5 -103q-5 -31 -24.5 -57t-40.5 -42t-40.5 -41t-24.5 -54q-4 -24 7 -45.5t30 -37t41 -36.5t40 -43t26.5 -56.5t1.5 -75.5q-13 -76 -71.5 -120t-143.5 -44q-56 0 -93 16l6 7q39 -15 86 -15q83 0 139.5 42t69.5 116q7 40 -2 73t-27 54t-40 42
t-41 37.5t-30 39t-6 48.5q5 30 24.5 55.5t40 41t40.5 41.5t25 56q11 60 -24 95.5t-106 35.5q-74 0 -128 -41t-65 -104l-111 -632h-8l111 632q12 67 67.5 110t132.5 43z" />
    <glyph glyph-name="agrave" unicode="&#xe0;" 
d="M371 590h-9l-94 191h10zM339 508q83 0 138 -40.5t63 -119.5l27 152h8l-88 -500h-8l27 152q-32 -80 -94 -120t-143 -40q-104 0 -162.5 68.5t-41.5 190.5q17 120 94.5 188.5t179.5 68.5zM340 500q-101 0 -175.5 -66.5t-91.5 -184.5q-17 -117 39.5 -183t155.5 -66
q97 0 164 58t87 172l9 51q19 105 -36 162t-152 57z" />
    <glyph glyph-name="aacute" unicode="&#xe1;" 
d="M370 590h-9l161 191h10zM339 508q83 0 138 -40.5t63 -119.5l27 152h8l-88 -500h-8l27 152q-32 -80 -94 -120t-143 -40q-104 0 -162.5 68.5t-41.5 190.5q17 120 94.5 188.5t179.5 68.5zM340 500q-101 0 -175.5 -66.5t-91.5 -184.5q-17 -117 39.5 -183t155.5 -66
q97 0 164 58t87 172l9 51q19 105 -36 162t-152 57z" />
    <glyph glyph-name="acircumflex" unicode="&#xe2;" 
d="M492 592h-10l-90 148l-142 -148h-10l152 159h4zM339 508q83 0 138 -40.5t63 -119.5l27 152h8l-88 -500h-8l27 152q-32 -80 -94 -120t-143 -40q-104 0 -162.5 68.5t-41.5 190.5q17 120 94.5 188.5t179.5 68.5zM340 500q-101 0 -175.5 -66.5t-91.5 -184.5
q-17 -117 39.5 -183t155.5 -66q97 0 164 58t87 172l9 51q19 105 -36 162t-152 57z" />
    <glyph glyph-name="atilde" unicode="&#xe3;" 
d="M312 703q32 0 67 -35t62 -35t46 18t25 45h8q-6 -30 -28 -50.5t-51 -20.5q-32 0 -67 35t-62 35t-46 -18t-25 -45h-8q6 30 28 50.5t51 20.5zM339 508q83 0 138 -40.5t63 -119.5l27 152h8l-88 -500h-8l27 152q-32 -80 -94 -120t-143 -40q-104 0 -162.5 68.5t-41.5 190.5
q17 120 94.5 188.5t179.5 68.5zM340 500q-101 0 -175.5 -66.5t-91.5 -184.5q-17 -117 39.5 -183t155.5 -66q97 0 164 58t87 172l9 51q19 105 -36 162t-152 57z" />
    <glyph glyph-name="adieresis" unicode="&#xe4;" 
d="M333 699q17 0 14 -17q-2 -14 -17 -14q-17 0 -14 16q2 15 17 15zM426 699q16 0 13 -17q-2 -14 -16 -14q-18 0 -15 16q1 6 6.5 10.5t11.5 4.5zM339 508q83 0 138 -40.5t63 -119.5l27 152h8l-88 -500h-8l27 152q-32 -80 -94 -120t-143 -40q-104 0 -162.5 68.5t-41.5 190.5
q17 120 94.5 188.5t179.5 68.5zM340 500q-101 0 -175.5 -66.5t-91.5 -184.5q-17 -117 39.5 -183t155.5 -66q97 0 164 58t87 172l9 51q19 105 -36 162t-152 57z" />
    <glyph glyph-name="aring" unicode="&#xe5;" 
d="M396 766q39 0 60.5 -25t14.5 -63q-6 -36 -36.5 -60.5t-67.5 -24.5q-40 0 -62 24.5t-15 62.5q7 37 37.5 61.5t68.5 24.5zM397 758q-37 0 -65 -22.5t-35 -57.5q-5 -33 15 -55t55 -22q36 0 63.5 22.5t33.5 56.5q6 33 -13.5 55.5t-53.5 22.5zM339 508q83 0 138 -40.5
t63 -119.5l27 152h8l-88 -500h-8l27 152q-32 -80 -94 -120t-143 -40q-104 0 -162.5 68.5t-41.5 190.5q17 120 94.5 188.5t179.5 68.5zM340 500q-101 0 -175.5 -66.5t-91.5 -184.5q-17 -117 39.5 -183t155.5 -66q97 0 164 58t87 172l9 51q19 105 -36 162t-152 57z" />
    <glyph glyph-name="ae" unicode="&#xe6;" horiz-adv-x="927" 
d="M681 508q104 0 153 -67t33 -174l-2 -17h-445q-16 -117 39 -183.5t152 -66.5q81 0 140 38t86 105l8 -1q-29 -71 -89.5 -110.5t-143.5 -39.5q-88 0 -145 54t-58 151q-27 -105 -92 -155t-145 -50q-68 0 -103 34.5t-26 97.5q18 124 203 136l169 10l5 29q17 97 -13.5 149
t-106.5 52q-78 0 -131.5 -48.5t-64.5 -112.5h-8q12 68 67.5 118.5t135.5 50.5q75 0 108 -46t25 -130q32 84 99 130t150 46zM859 258l1 9q15 103 -31.5 168t-146.5 65q-98 0 -170.5 -64t-90.5 -178h438zM171 0q84 0 149.5 55.5t86.5 174.5l6 32l-166 -10q-178 -11 -196 -130
q-9 -58 24 -90t96 -32z" />
    <glyph glyph-name="ccedilla" unicode="&#xe7;" horiz-adv-x="558" 
d="M331 508q87 0 138.5 -48.5t48.5 -130.5h-8q1 80 -47 125.5t-131 45.5q-99 0 -171 -66.5t-88 -184.5q-16 -117 37.5 -183t151.5 -66q83 0 142 41.5t82 115.5l9 -1q-23 -75 -82.5 -119t-143.5 -45l-26 -72q56 1 83.5 -20.5t20.5 -63.5q-6 -35 -39 -55.5t-74 -20.5
q-56 0 -96 28l5 7q39 -27 91 -27q39 0 69 18.5t36 51.5q6 35 -17.5 54.5t-74.5 19.5q-12 0 -16 -1l29 81q-101 1 -156.5 69.5t-38.5 189.5q17 120 91 188.5t175 68.5z" />
    <glyph glyph-name="egrave" unicode="&#xe8;" horiz-adv-x="581" 
d="M346 590l-94 191h10l93 -191h-9zM334 508q104 0 153 -67t33 -174l-2 -17h-445q-16 -117 39 -183.5t152 -66.5q81 0 140 38t86 105l8 -1q-29 -71 -89.5 -110.5t-143.5 -39.5q-101 0 -159 69t-41 190q17 120 92 188.5t177 68.5zM512 258l1 9q15 103 -31.5 168t-146.5 65
q-98 0 -170.5 -64t-90.5 -178h438z" />
    <glyph glyph-name="eacute" unicode="&#xe9;" horiz-adv-x="581" 
d="M354 590h-9l161 191h10zM334 508q104 0 153 -67t33 -174l-2 -17h-445q-16 -117 39 -183.5t152 -66.5q81 0 140 38t86 105l8 -1q-29 -71 -89.5 -110.5t-143.5 -39.5q-101 0 -159 69t-41 190q17 120 92 188.5t177 68.5zM512 258l1 9q15 103 -31.5 168t-146.5 65
q-98 0 -170.5 -64t-90.5 -178h438z" />
    <glyph glyph-name="ecircumflex" unicode="&#xea;" horiz-adv-x="581" 
d="M234 592h-10l152 159h4l96 -159h-10l-90 148zM334 508q104 0 153 -67t33 -174l-2 -17h-445q-16 -117 39 -183.5t152 -66.5q81 0 140 38t86 105l8 -1q-29 -71 -89.5 -110.5t-143.5 -39.5q-101 0 -159 69t-41 190q17 120 92 188.5t177 68.5zM512 258l1 9q15 103 -31.5 168
t-146.5 65q-98 0 -170.5 -64t-90.5 -178h438z" />
    <glyph glyph-name="edieresis" unicode="&#xeb;" horiz-adv-x="581" 
d="M314 668q-17 0 -14 16q2 15 17 15q17 0 14 -17q-2 -14 -17 -14zM407 668q-18 0 -15 16q1 6 6.5 10.5t11.5 4.5q16 0 13 -17q-2 -14 -16 -14zM334 508q104 0 153 -67t33 -174l-2 -17h-445q-16 -117 39 -183.5t152 -66.5q81 0 140 38t86 105l8 -1q-29 -71 -89.5 -110.5
t-143.5 -39.5q-101 0 -159 69t-41 190q17 120 92 188.5t177 68.5zM512 258l1 9q15 103 -31.5 168t-146.5 65q-98 0 -170.5 -64t-90.5 -178h438z" />
    <glyph glyph-name="igrave" unicode="&#xec;" horiz-adv-x="223" 
d="M177 590h-9l-94 191h10zM71 0h-8l88 500h8z" />
    <glyph glyph-name="iacute" unicode="&#xed;" horiz-adv-x="223" 
d="M176 590h-9l161 191h10zM71 0h-8l88 500h8z" />
    <glyph glyph-name="icircumflex" unicode="&#xee;" horiz-adv-x="223" 
d="M298 592h-10l-90 148l-142 -148h-10l152 159h4zM71 0h-8l88 500h8z" />
    <glyph glyph-name="idieresis" unicode="&#xef;" horiz-adv-x="223" 
d="M139 699q17 0 14 -17q-2 -14 -17 -14q-17 0 -14 16q2 15 17 15zM232 699q16 0 13 -17q-2 -14 -16 -14q-18 0 -15 16q1 6 6.5 10.5t11.5 4.5zM71 0h-8l88 500h8z" />
    <glyph glyph-name="eth" unicode="&#xf0;" horiz-adv-x="600" 
d="M580 775l-146 -82q67 -69 87 -189t-7 -268q-21 -119 -92.5 -181.5t-165.5 -62.5q-101 0 -158 68t-37 180q19 111 90 176t169 65q81 0 134 -45.5t63 -121.5q25 254 -91 375l-146 -82l-4 7l145 80q-77 75 -202 75l1 8q131 0 209 -78l148 82zM255 0q93 0 162 60.5t89 177.5
l2 11q13 99 -41 161.5t-147 62.5q-96 0 -164.5 -63t-87.5 -172q-19 -107 36 -172.5t151 -65.5z" />
    <glyph glyph-name="ntilde" unicode="&#xf1;" horiz-adv-x="595" 
d="M311 703q32 0 67 -35t62 -35t46 18t25 45h8q-6 -30 -28 -50.5t-51 -20.5q-32 0 -67 35t-62 35t-46 -18t-25 -45h-8q6 30 28 50.5t51 20.5zM345 508q83 0 128 -55t30 -140l-55 -313h-8l55 313q14 82 -28.5 134.5t-120.5 52.5q-82 0 -144 -56t-75 -131l-56 -313h-8l88 500
h8l-22 -132q23 57 80 98.5t128 41.5z" />
    <glyph glyph-name="ograve" unicode="&#xf2;" horiz-adv-x="620" 
d="M366 590h-9l-94 191h10zM345 508q105 0 166 -70t44 -189q-17 -117 -96.5 -187t-183.5 -70q-105 0 -166 70t-44 189q17 117 96.5 187t183.5 70zM346 500q-102 0 -179 -68t-94 -183q-17 -114 41.5 -181.5t159.5 -67.5q102 0 179 68t94 183q17 114 -41.5 181.5t-159.5 67.5z
" />
    <glyph glyph-name="oacute" unicode="&#xf3;" horiz-adv-x="620" 
d="M365 590h-9l161 191h10zM345 508q105 0 166 -70t44 -189q-17 -117 -96.5 -187t-183.5 -70q-105 0 -166 70t-44 189q17 117 96.5 187t183.5 70zM346 500q-102 0 -179 -68t-94 -183q-17 -114 41.5 -181.5t159.5 -67.5q102 0 179 68t94 183q17 114 -41.5 181.5t-159.5 67.5z
" />
    <glyph glyph-name="ocircumflex" unicode="&#xf4;" horiz-adv-x="620" 
d="M487 592h-10l-90 148l-142 -148h-10l152 159h4zM345 508q105 0 166 -70t44 -189q-17 -117 -96.5 -187t-183.5 -70q-105 0 -166 70t-44 189q17 117 96.5 187t183.5 70zM346 500q-102 0 -179 -68t-94 -183q-17 -114 41.5 -181.5t159.5 -67.5q102 0 179 68t94 183
q17 114 -41.5 181.5t-159.5 67.5z" />
    <glyph glyph-name="otilde" unicode="&#xf5;" horiz-adv-x="620" 
d="M307 703q32 0 67 -35t62 -35t46 18t25 45h8q-6 -30 -28 -50.5t-51 -20.5q-32 0 -67 35t-62 35t-46 -18t-25 -45h-8q6 30 28 50.5t51 20.5zM345 508q105 0 166 -70t44 -189q-17 -117 -96.5 -187t-183.5 -70q-105 0 -166 70t-44 189q17 117 96.5 187t183.5 70zM346 500
q-102 0 -179 -68t-94 -183q-17 -114 41.5 -181.5t159.5 -67.5q102 0 179 68t94 183q17 114 -41.5 181.5t-159.5 67.5z" />
    <glyph glyph-name="odieresis" unicode="&#xf6;" horiz-adv-x="620" 
d="M328 699q17 0 14 -17q-2 -14 -17 -14q-17 0 -14 16q2 15 17 15zM421 699q16 0 13 -17q-2 -14 -16 -14q-18 0 -15 16q1 6 6.5 10.5t11.5 4.5zM345 508q105 0 166 -70t44 -189q-17 -117 -96.5 -187t-183.5 -70q-105 0 -166 70t-44 189q17 117 96.5 187t183.5 70zM346 500
q-102 0 -179 -68t-94 -183q-17 -114 41.5 -181.5t159.5 -67.5q102 0 179 68t94 183q17 114 -41.5 181.5t-159.5 67.5z" />
    <glyph glyph-name="divide" unicode="&#xf7;" horiz-adv-x="544" 
d="M326 564q10 0 15 -6t3 -16q-1 -7 -8 -13t-15 -6q-9 0 -14 6t-3 15q4 20 22 20zM529 365h-474l2 8h474zM265 215q21 0 18 -22q-4 -19 -23 -19q-9 0 -14 6t-4 15q1 8 8 14t15 6z" />
    <glyph glyph-name="oslash" unicode="&#xf8;" horiz-adv-x="620" 
d="M562 511l-60 -63q71 -72 53 -199q-17 -117 -96.5 -187t-183.5 -70q-91 0 -150 54l-59 -63l-5 5l59 62q-73 73 -55 201q17 117 96.5 187t183.5 70q94 0 152 -56l60 64zM73 249q-18 -123 52 -193l367 391q-58 53 -146 53q-102 0 -179 -68t-94 -183zM547 251q17 120 -50 191
l-367 -391q57 -51 144 -51q102 0 179 68t94 183z" />
    <glyph glyph-name="ugrave" unicode="&#xf9;" horiz-adv-x="576" 
d="M357 590h-9l-94 191h10zM425 0h-8l23 132q-23 -57 -77.5 -98.5t-125.5 -41.5q-82 0 -121 54t-24 141l55 313h8l-55 -313q-15 -83 22 -135t114 -52q82 0 141.5 55.5t72.5 131.5l55 313h8z" />
    <glyph glyph-name="uacute" unicode="&#xfa;" horiz-adv-x="576" 
d="M356 590h-9l161 191h10zM425 0h-8l23 132q-23 -57 -77.5 -98.5t-125.5 -41.5q-82 0 -121 54t-24 141l55 313h8l-55 -313q-15 -83 22 -135t114 -52q82 0 141.5 55.5t72.5 131.5l55 313h8z" />
    <glyph glyph-name="ucircumflex" unicode="&#xfb;" horiz-adv-x="576" 
d="M478 592h-10l-90 148l-142 -148h-10l152 159h4zM425 0h-8l23 132q-23 -57 -77.5 -98.5t-125.5 -41.5q-82 0 -121 54t-24 141l55 313h8l-55 -313q-15 -83 22 -135t114 -52q82 0 141.5 55.5t72.5 131.5l55 313h8z" />
    <glyph glyph-name="udieresis" unicode="&#xfc;" horiz-adv-x="576" 
d="M319 699q17 0 14 -17q-2 -14 -17 -14q-17 0 -14 16q2 15 17 15zM412 699q16 0 13 -17q-2 -14 -16 -14q-18 0 -15 16q1 6 6.5 10.5t11.5 4.5zM425 0h-8l23 132q-23 -57 -77.5 -98.5t-125.5 -41.5q-82 0 -121 54t-24 141l55 313h8l-55 -313q-15 -83 22 -135t114 -52
q82 0 141.5 55.5t72.5 131.5l55 313h8z" />
    <glyph glyph-name="yacute" unicode="&#xfd;" horiz-adv-x="475" 
d="M300 590h-9l161 191h10zM47 -255h-9l152 259l-118 496h8l116 -486l286 486h9z" />
    <glyph glyph-name="thorn" unicode="&#xfe;" horiz-adv-x="636" 
d="M208 777l-76 -429q32 80 94 120t143 40q104 0 162.5 -68.5t41.5 -190.5q-17 -120 -94.5 -188.5t-179.5 -68.5q-83 0 -138 40.5t-63 119.5l-72 -407h-8l182 1032h8zM370 500q-97 0 -164 -58t-87 -172l-9 -51q-19 -105 36 -162t152 -57q101 0 175.5 66.5t91.5 184.5
q17 117 -39.5 183t-155.5 66z" />
    <glyph glyph-name="ydieresis" unicode="&#xff;" horiz-adv-x="475" 
d="M263 699q17 0 14 -17q-2 -14 -17 -14q-17 0 -14 16q2 15 17 15zM356 699q16 0 13 -17q-2 -14 -16 -14q-18 0 -15 16q1 6 6.5 10.5t11.5 4.5zM47 -255h-9l152 259l-118 496h8l116 -486l286 486h9z" />
    <glyph glyph-name="Amacron" unicode="&#x100;" horiz-adv-x="663" 
d="M547 860h-215l1 8h215zM594 0h-8l-58 256h-389l-148 -256h-10l440 759zM143 264h383l-108 473z" />
    <glyph glyph-name="amacron" unicode="&#x101;" 
d="M485 656h-215l1 8h215zM339 508q83 0 138 -40.5t63 -119.5l27 152h8l-88 -500h-8l27 152q-32 -80 -94 -120t-143 -40q-104 0 -162.5 68.5t-41.5 190.5q17 120 94.5 188.5t179.5 68.5zM340 500q-101 0 -175.5 -66.5t-91.5 -184.5q-17 -117 39.5 -183t155.5 -66
q97 0 164 58t87 172l9 51q19 105 -36 162t-152 57z" />
    <glyph glyph-name="Abreve" unicode="&#x102;" horiz-adv-x="663" 
d="M558 907h8q-7 -42 -43.5 -66.5t-89.5 -24.5q-55 0 -82.5 24.5t-20.5 66.5h8q-7 -38 19 -60.5t76 -22.5q51 0 84.5 22.5t40.5 60.5zM594 0h-8l-58 256h-389l-148 -256h-10l440 759zM143 264h383l-108 473z" />
    <glyph glyph-name="abreve" unicode="&#x103;" 
d="M495 697h8q-7 -42 -43.5 -66.5t-89.5 -24.5q-55 0 -82.5 24.5t-20.5 66.5h8q-7 -38 18.5 -60.5t75.5 -22.5q51 0 85 22.5t41 60.5zM339 508q83 0 138 -40.5t63 -119.5l27 152h8l-88 -500h-8l27 152q-32 -80 -94 -120t-143 -40q-104 0 -162.5 68.5t-41.5 190.5
q17 120 94.5 188.5t179.5 68.5zM340 500q-101 0 -175.5 -66.5t-91.5 -184.5q-17 -117 39.5 -183t155.5 -66q97 0 164 58t87 172l9 51q19 105 -36 162t-152 57z" />
    <glyph glyph-name="Aogonek" unicode="&#x104;" horiz-adv-x="663" 
d="M586 0l-1 3v-3q-64 -27 -98.5 -53.5t-40.5 -61.5q-5 -28 13 -43.5t51 -15.5q36 0 68 13l2 -8q-36 -13 -70 -13q-38 0 -57.5 18t-13.5 51q7 37 42.5 65t102.5 55l-56 249h-389l-148 -256h-10l440 759l173 -759h-8zM526 264l-108 473l-275 -473h383z" />
    <glyph glyph-name="aogonek" unicode="&#x105;" 
d="M487 0h-6q-63 -27 -97 -53.5t-40 -60.5q-5 -28 13 -43.5t51 -15.5q36 0 68 13l2 -8q-36 -13 -70 -13q-38 0 -57.5 18t-13.5 51q6 36 41.5 64t101.5 56l26 144q-32 -80 -94 -120t-143 -40q-104 0 -162.5 68.5t-41.5 190.5q17 120 94.5 188.5t179.5 68.5q83 0 138 -40.5
t63 -119.5l27 152h8zM268 0q97 0 164 58t87 172l9 51q19 105 -36 162t-152 57q-101 0 -175.5 -66.5t-91.5 -184.5q-17 -117 39.5 -183t155.5 -66z" />
    <glyph glyph-name="Cacute" unicode="&#x106;" horiz-adv-x="785" 
d="M487 795h-14l197 124h16zM484 756q129 0 210.5 -72.5t79.5 -193.5l-8 -1q3 118 -76.5 188.5t-204.5 70.5q-152 0 -259.5 -99.5t-128.5 -275.5q-21 -174 63 -273.5t234 -99.5q125 0 217.5 63t125.5 175l8 -1q-34 -115 -128.5 -180t-221.5 -65q-154 0 -241 102t-65 281
q22 178 131.5 279.5t263.5 101.5z" />
    <glyph glyph-name="cacute" unicode="&#x107;" horiz-adv-x="558" 
d="M343 590h-9l161 191h10zM331 508q87 0 138.5 -48.5t48.5 -130.5h-8q1 80 -47 125.5t-131 45.5q-99 0 -171 -66.5t-88 -184.5q-16 -117 37.5 -183t151.5 -66q83 0 142 41.5t82 115.5l9 -1q-24 -77 -85 -120.5t-147 -43.5q-102 0 -158.5 68.5t-39.5 190.5q17 120 91 188.5
t175 68.5z" />
    <glyph glyph-name="Ccircumflex" unicode="&#x108;" horiz-adv-x="785" 
d="M606 795h-11l-94 110l-134 -110h-11l145 121h4zM484 756q129 0 210.5 -72.5t79.5 -193.5l-8 -1q3 118 -76.5 188.5t-204.5 70.5q-152 0 -259.5 -99.5t-128.5 -275.5q-21 -174 63 -273.5t234 -99.5q125 0 217.5 63t125.5 175l8 -1q-34 -115 -128.5 -180t-221.5 -65
q-154 0 -241 102t-65 281q22 178 131.5 279.5t263.5 101.5z" />
    <glyph glyph-name="ccircumflex" unicode="&#x109;" horiz-adv-x="558" 
d="M465 592h-10l-90 148l-142 -148h-10l152 159h4zM331 508q87 0 138.5 -48.5t48.5 -130.5h-8q1 80 -47 125.5t-131 45.5q-99 0 -171 -66.5t-88 -184.5q-16 -117 37.5 -183t151.5 -66q83 0 142 41.5t82 115.5l9 -1q-24 -77 -85 -120.5t-147 -43.5q-102 0 -158.5 68.5
t-39.5 190.5q17 120 91 188.5t175 68.5z" />
    <glyph glyph-name="Cdotaccent" unicode="&#x10a;" horiz-adv-x="785" 
d="M492 861q8 0 13 -6t4 -14q-1 -7 -8 -12.5t-14 -5.5q-8 0 -13 6t-3 14q2 7 8 12.5t13 5.5zM484 756q129 0 210.5 -72.5t79.5 -193.5l-8 -1q3 118 -76.5 188.5t-204.5 70.5q-152 0 -259.5 -99.5t-128.5 -275.5q-21 -174 63 -273.5t234 -99.5q125 0 217.5 63t125.5 175l8 -1
q-34 -115 -128.5 -180t-221.5 -65q-154 0 -241 102t-65 281q22 178 131.5 279.5t263.5 101.5z" />
    <glyph glyph-name="cdotaccent" unicode="&#x10b;" horiz-adv-x="558" 
d="M357 698q8 0 13 -6t3 -14q-1 -7 -7.5 -12.5t-13.5 -5.5q-8 0 -13 6t-3 14q1 7 7.5 12.5t13.5 5.5zM331 508q87 0 138.5 -48.5t48.5 -130.5h-8q1 80 -47 125.5t-131 45.5q-99 0 -171 -66.5t-88 -184.5q-16 -117 37.5 -183t151.5 -66q83 0 142 41.5t82 115.5l9 -1
q-24 -77 -85 -120.5t-147 -43.5q-102 0 -158.5 68.5t-39.5 190.5q17 120 91 188.5t175 68.5z" />
    <glyph glyph-name="Ccaron" unicode="&#x10c;" horiz-adv-x="785" 
d="M483 795h-4l-101 121h11l94 -110l134 110h11zM484 756q129 0 210.5 -72.5t79.5 -193.5l-8 -1q3 118 -76.5 188.5t-204.5 70.5q-152 0 -259.5 -99.5t-128.5 -275.5q-21 -174 63 -273.5t234 -99.5q125 0 217.5 63t125.5 175l8 -1q-34 -115 -128.5 -180t-221.5 -65
q-154 0 -241 102t-65 281q22 178 131.5 279.5t263.5 101.5z" />
    <glyph glyph-name="ccaron" unicode="&#x10d;" horiz-adv-x="558" 
d="M341 589h-4l-96 159h10l90 -148l142 148h10zM331 508q87 0 138.5 -48.5t48.5 -130.5h-8q1 80 -47 125.5t-131 45.5q-99 0 -171 -66.5t-88 -184.5q-16 -117 37.5 -183t151.5 -66q83 0 142 41.5t82 115.5l9 -1q-24 -77 -85 -120.5t-147 -43.5q-102 0 -158.5 68.5
t-39.5 190.5q17 120 91 188.5t175 68.5z" />
    <glyph glyph-name="Dcaron" unicode="&#x10e;" horiz-adv-x="793" 
d="M452 795h-4l-101 121h11l94 -110l134 110h11zM198 748h251q151 0 235.5 -100t63.5 -275q-21 -173 -132 -273t-262 -100h-288zM204 740l-129 -732h279q148 0 256.5 98t129.5 269q21 170 -61.5 267.5t-230.5 97.5h-244z" />
    <glyph glyph-name="dcaron" unicode="&#x10f;" horiz-adv-x="674" 
d="M616 777h8l-137 -777h-8l27 152q-32 -80 -94 -120t-143 -40q-104 0 -162.5 68.5t-41.5 190.5q17 120 94.5 188.5t179.5 68.5q83 0 138 -40.5t63 -119.5zM723 715q22 0 17 -27q-16 -89 -84 -136l1 9q57 46 66 117h-4q-8 0 -12.5 5.5t-3.5 13.5q2 7 7.5 12.5t12.5 5.5z
M519 230l9 51q19 105 -36 162t-152 57q-101 0 -175.5 -66.5t-91.5 -184.5q-17 -117 39.5 -183t155.5 -66q97 0 164 58t87 172z" />
    <glyph glyph-name="Dcroat" unicode="&#x110;" horiz-adv-x="778" 
d="M198 748h251q151 0 235.5 -100t63.5 -275q-21 -173 -132 -273t-262 -100h-288l65 370h-114l2 8h114zM740 375q21 170 -61.5 267.5t-230.5 97.5h-244l-64 -362h227l-2 -8h-226l-64 -362h279q148 0 256.5 98t129.5 269z" />
    <glyph glyph-name="dcroat" unicode="&#x111;" horiz-adv-x="626" 
d="M695 633h-96l-112 -633h-8l27 152q-32 -80 -94 -120t-143 -40q-104 0 -162.5 68.5t-41.5 190.5q17 120 94.5 188.5t179.5 68.5q83 0 138 -40.5t63 -119.5l50 285h-110l1 8h111l24 136h8l-24 -136h96zM519 230l9 51q19 105 -36 162t-152 57q-101 0 -175.5 -66.5
t-91.5 -184.5q-17 -117 39.5 -183t155.5 -66q97 0 164 58t87 172z" />
    <glyph glyph-name="Emacron" unicode="&#x112;" horiz-adv-x="579" 
d="M549 860h-215l1 8h215zM635 740h-431l-61 -346h387l-1 -8h-387l-67 -378h431l-1 -8h-439l132 748h439z" />
    <glyph glyph-name="emacron" unicode="&#x113;" horiz-adv-x="581" 
d="M469 656h-215l1 8h215zM334 508q104 0 153 -67t33 -174l-2 -17h-445q-16 -117 39 -183.5t152 -66.5q81 0 140 38t86 105l8 -1q-29 -71 -89.5 -110.5t-143.5 -39.5q-101 0 -159 69t-41 190q17 120 92 188.5t177 68.5zM512 258l1 9q15 103 -31.5 168t-146.5 65
q-98 0 -170.5 -64t-90.5 -178h438z" />
    <glyph glyph-name="Ebreve" unicode="&#x114;" horiz-adv-x="579" 
d="M560 907h8q-7 -42 -43.5 -66.5t-89.5 -24.5q-55 0 -82.5 24.5t-20.5 66.5h8q-7 -38 19 -60.5t76 -22.5q51 0 84.5 22.5t40.5 60.5zM635 740h-431l-61 -346h387l-1 -8h-387l-67 -378h431l-1 -8h-439l132 748h439z" />
    <glyph glyph-name="ebreve" unicode="&#x115;" horiz-adv-x="581" 
d="M354 606q-55 0 -82.5 24.5t-20.5 66.5h8q-7 -38 18.5 -60.5t75.5 -22.5q51 0 85 22.5t41 60.5h8q-7 -42 -43.5 -66.5t-89.5 -24.5zM334 508q104 0 153 -67t33 -174l-2 -17h-445q-16 -117 39 -183.5t152 -66.5q81 0 140 38t86 105l8 -1q-29 -71 -89.5 -110.5t-143.5 -39.5
q-101 0 -159 69t-41 190q17 120 92 188.5t177 68.5zM512 258l1 9q15 103 -31.5 168t-146.5 65q-98 0 -170.5 -64t-90.5 -178h438z" />
    <glyph glyph-name="Edotaccent" unicode="&#x116;" horiz-adv-x="579" 
d="M441 861q8 0 13 -6t4 -14q-2 -7 -8.5 -12.5t-13.5 -5.5q-8 0 -13 6t-3 14q2 7 8 12.5t13 5.5zM635 740h-431l-61 -346h387l-1 -8h-387l-67 -378h431l-1 -8h-439l132 748h439z" />
    <glyph glyph-name="edotaccent" unicode="&#x117;" horiz-adv-x="581" 
d="M363 660q-8 0 -13 6t-3 14q1 7 7.5 12.5t13.5 5.5q8 0 13 -6t3 -14q-1 -7 -7.5 -12.5t-13.5 -5.5zM334 508q104 0 153 -67t33 -174l-2 -17h-445q-16 -117 39 -183.5t152 -66.5q81 0 140 38t86 105l8 -1q-29 -71 -89.5 -110.5t-143.5 -39.5q-101 0 -159 69t-41 190
q17 120 92 188.5t177 68.5zM512 258l1 9q15 103 -31.5 168t-146.5 65q-98 0 -170.5 -64t-90.5 -178h438z" />
    <glyph glyph-name="Eogonek" unicode="&#x118;" horiz-adv-x="579" 
d="M204 740l-61 -346h387l-1 -8h-387l-67 -378h431l-1 -8h-19q-64 -27 -98.5 -53.5t-40.5 -61.5q-5 -28 13 -43.5t51 -15.5q36 0 68 13l2 -8q-36 -13 -70 -13q-38 0 -57.5 18t-13.5 51q11 64 128 113h-402l132 748h439l-2 -8h-431z" />
    <glyph glyph-name="eogonek" unicode="&#x119;" horiz-adv-x="581" 
d="M334 508q104 0 153 -67t33 -174l-2 -17h-445q-16 -117 39 -183.5t152 -66.5q27 0 47 4h1q131 22 178 139l8 -1q-53 -127 -189 -147q-64 -28 -97.5 -53.5t-39.5 -60.5q-5 -28 13 -43.5t51 -15.5q36 0 68 13l2 -8q-36 -13 -70 -13q-38 0 -57.5 18t-13.5 51q11 61 120 110
l-20 -1q-101 0 -159 69t-41 190q17 120 92 188.5t177 68.5zM512 258l1 9q15 103 -31.5 168t-146.5 65q-98 0 -170.5 -64t-90.5 -178h438z" />
    <glyph glyph-name="Ecaron" unicode="&#x11a;" horiz-adv-x="579" 
d="M432 795h-4l-101 121h11l94 -110l134 110h11zM635 740h-431l-61 -346h387l-1 -8h-387l-67 -378h431l-1 -8h-439l132 748h439z" />
    <glyph glyph-name="ecaron" unicode="&#x11b;" horiz-adv-x="581" 
d="M348 589l-96 159h10l90 -148l142 148h10l-152 -159h-4zM334 508q104 0 153 -67t33 -174l-2 -17h-445q-16 -117 39 -183.5t152 -66.5q81 0 140 38t86 105l8 -1q-29 -71 -89.5 -110.5t-143.5 -39.5q-101 0 -159 69t-41 190q17 120 92 188.5t177 68.5zM512 258l1 9
q15 103 -31.5 168t-146.5 65q-98 0 -170.5 -64t-90.5 -178h438z" />
    <glyph glyph-name="Gcircumflex" unicode="&#x11c;" horiz-adv-x="803" 
d="M371 795h-11l145 121h4l101 -121h-11l-94 110zM480 756q131 0 214.5 -74t79.5 -200l-8 -1q4 124 -77 195.5t-208 71.5q-149 0 -256 -99.5t-128 -275.5q-21 -174 61.5 -273.5t229.5 -99.5q149 0 246 86t118 249h-317l1 8h325l-1 -8q-21 -165 -119.5 -254t-251.5 -89
q-151 0 -236.5 102t-63.5 281q22 178 131 279.5t260 101.5z" />
    <glyph glyph-name="gcircumflex" unicode="&#x11d;" 
d="M500 592h-10l-90 148l-142 -148h-10l152 159h4zM339 508q83 0 138 -40.5t63 -119.5l27 152h8l-95 -542q-18 -103 -89.5 -162t-170.5 -59q-87 0 -139 44t-57 113h9q3 -67 56 -108t130 -41q97 0 166.5 56.5t86.5 156.5l34 194q-32 -80 -94 -120t-143 -40
q-104 0 -162.5 68.5t-41.5 190.5q17 120 94.5 188.5t179.5 68.5zM340 500q-101 0 -175.5 -66.5t-91.5 -184.5q-17 -117 39.5 -183t155.5 -66q97 0 164 58t87 172l9 51q19 105 -36 162t-152 57z" />
    <glyph glyph-name="Gbreve" unicode="&#x11e;" horiz-adv-x="803" 
d="M490 816q-55 0 -82.5 24.5t-20.5 66.5h8q-7 -38 19 -60.5t76 -22.5q51 0 84.5 22.5t40.5 60.5h8q-7 -42 -43.5 -66.5t-89.5 -24.5zM480 756q131 0 214.5 -74t79.5 -200l-8 -1q4 124 -77 195.5t-208 71.5q-149 0 -256 -99.5t-128 -275.5q-21 -174 61.5 -273.5t229.5 -99.5
q149 0 246 86t118 249h-317l1 8h325l-1 -8q-21 -165 -119.5 -254t-251.5 -89q-151 0 -236.5 102t-63.5 281q22 178 131 279.5t260 101.5z" />
    <glyph glyph-name="gbreve" unicode="&#x11f;" 
d="M503 697h8q-7 -42 -43.5 -66.5t-89.5 -24.5q-55 0 -82.5 24.5t-20.5 66.5h8q-7 -38 18.5 -60.5t75.5 -22.5q51 0 85 22.5t41 60.5zM339 508q83 0 138 -40.5t63 -119.5l27 152h8l-95 -542q-18 -103 -89.5 -162t-170.5 -59q-87 0 -139 44t-57 113h9q3 -67 56 -108t130 -41
q97 0 166.5 56.5t86.5 156.5l34 194q-32 -80 -94 -120t-143 -40q-104 0 -162.5 68.5t-41.5 190.5q17 120 94.5 188.5t179.5 68.5zM340 500q-101 0 -175.5 -66.5t-91.5 -184.5q-17 -117 39.5 -183t155.5 -66q97 0 164 58t87 172l9 51q19 105 -36 162t-152 57z" />
    <glyph glyph-name="Gdotaccent" unicode="&#x120;" horiz-adv-x="803" 
d="M491 823q-8 0 -13 6t-3 14q2 7 8 12.5t13 5.5q8 0 13 -6t4 -14q-1 -7 -8 -12.5t-14 -5.5zM480 756q131 0 214.5 -74t79.5 -200l-8 -1q4 124 -77 195.5t-208 71.5q-149 0 -256 -99.5t-128 -275.5q-21 -174 61.5 -273.5t229.5 -99.5q149 0 246 86t118 249h-317l1 8h325
l-1 -8q-21 -165 -119.5 -254t-251.5 -89q-151 0 -236.5 102t-63.5 281q22 178 131 279.5t260 101.5z" />
    <glyph glyph-name="gdotaccent" unicode="&#x121;" 
d="M392 698q8 0 13 -6t3 -14q-1 -7 -7.5 -12.5t-13.5 -5.5q-8 0 -13 6t-3 14q1 7 7.5 12.5t13.5 5.5zM339 508q83 0 138 -40.5t63 -119.5l27 152h8l-95 -542q-18 -103 -89.5 -162t-170.5 -59q-87 0 -139 44t-57 113h9q3 -67 56 -108t130 -41q97 0 166.5 56.5t86.5 156.5
l34 194q-32 -80 -94 -120t-143 -40q-104 0 -162.5 68.5t-41.5 190.5q17 120 94.5 188.5t179.5 68.5zM340 500q-101 0 -175.5 -66.5t-91.5 -184.5q-17 -117 39.5 -183t155.5 -66q97 0 164 58t87 172l9 51q19 105 -36 162t-152 57z" />
    <glyph glyph-name="Gcommaaccent" unicode="&#x122;" horiz-adv-x="803" 
d="M480 756q131 0 214.5 -74t79.5 -200l-8 -1q4 124 -77 195.5t-208 71.5q-149 0 -256 -99.5t-128 -275.5q-21 -174 61.5 -273.5t229.5 -99.5q149 0 246 86t118 249h-317l1 8h325l-1 -8q-21 -165 -119.5 -254t-251.5 -89q-151 0 -236.5 102t-63.5 281q22 178 131 279.5
t260 101.5zM373 -44q22 0 17 -27q-16 -89 -84 -136l1 9q57 46 66 117h-4q-8 0 -12.5 5.5t-3.5 13.5q2 7 7.5 12.5t12.5 5.5z" />
    <glyph glyph-name="gcommaaccent" unicode="&#x123;" 
d="M435 730q-16 -89 -84 -136l1 9q57 46 66 117h-4q-8 0 -12.5 5.5t-3.5 13.5q2 7 7.5 12.5t12.5 5.5q22 0 17 -27zM575 500l-95 -542q-18 -103 -89.5 -162t-170.5 -59q-87 0 -139 44t-57 113h9q3 -67 56 -108t130 -41q97 0 166.5 56.5t86.5 156.5l34 194q-32 -80 -94 -120
t-143 -40q-104 0 -162.5 68.5t-41.5 190.5q17 120 94.5 188.5t179.5 68.5q83 0 138 -40.5t63 -119.5l27 152h8zM519 230l9 51q19 105 -36 162t-152 57q-101 0 -175.5 -66.5t-91.5 -184.5q-17 -117 39.5 -183t155.5 -66q97 0 164 58t87 172z" />
    <glyph glyph-name="Hcircumflex" unicode="&#x124;" horiz-adv-x="741" 
d="M591 795h-11l-94 110l-134 -110h-11l145 121h4zM587 0h-8l69 389h-505l-69 -389h-8l132 748h8l-62 -351h505l62 351h8z" />
    <glyph glyph-name="hcircumflex" unicode="&#x125;" horiz-adv-x="585" 
d="M331 793h-11l-94 110l-134 -110h-11l145 121h4zM208 777l-72 -409q22 56 81.5 98t130.5 42q83 0 126.5 -55t28.5 -140l-55 -313h-8l55 313q15 82 -26.5 134.5t-119.5 52.5q-82 0 -146 -56t-77 -131l-55 -313h-8l137 777h8z" />
    <glyph glyph-name="Hbar" unicode="&#x126;" horiz-adv-x="741" 
d="M792 565h-103l-100 -565h-8l69 389h-505l-69 -389h-8l100 565h-107l1 8h107l31 175h8l-31 -175h505l31 175h8l-31 -175h103zM681 565h-505l-30 -168h505z" />
    <glyph glyph-name="hbar" unicode="&#x127;" horiz-adv-x="585" 
d="M348 508q83 0 126.5 -55t28.5 -140l-55 -313h-8l55 313q15 82 -26.5 134.5t-119.5 52.5q-82 0 -146 -56t-77 -131l-55 -313h-8l112 633h-99l1 8h99l24 136h8l-24 -136h108l-1 -8h-108l-47 -265q22 56 81.5 98t130.5 42z" />
    <glyph glyph-name="Itilde" unicode="&#x128;" horiz-adv-x="228" 
d="M158 904q32 0 66.5 -35t61.5 -35t46.5 18t24.5 45h8q-6 -31 -27.5 -51t-50.5 -20q-32 0 -67 35t-62 35t-46.5 -18t-24.5 -45h-8q6 30 28 50.5t51 20.5zM74 0h-8l132 748h8z" />
    <glyph glyph-name="itilde" unicode="&#x129;" horiz-adv-x="223" 
d="M118 703q32 0 67 -35t62 -35t46 18t25 45h8q-6 -30 -28 -50.5t-51 -20.5q-32 0 -67 35t-62 35t-46 -18t-25 -45h-8q6 30 28 50.5t51 20.5zM71 0h-8l88 500h8z" />
    <glyph glyph-name="Imacron" unicode="&#x12a;" horiz-adv-x="228" 
d="M329 860h-215l1 8h215zM74 0h-8l132 748h8z" />
    <glyph glyph-name="imacron" unicode="&#x12b;" horiz-adv-x="223" 
d="M291 656h-215l1 8h215zM71 0h-8l88 500h8z" />
    <glyph glyph-name="Ibreve" unicode="&#x12c;" horiz-adv-x="228" 
d="M340 907h8q-7 -42 -43.5 -66.5t-89.5 -24.5q-55 0 -82.5 24.5t-20.5 66.5h8q-7 -38 19 -60.5t76 -22.5q51 0 84.5 22.5t40.5 60.5zM74 0h-8l132 748h8z" />
    <glyph glyph-name="ibreve" unicode="&#x12d;" horiz-adv-x="223" 
d="M301 697h8q-7 -42 -43.5 -66.5t-89.5 -24.5q-55 0 -82.5 24.5t-20.5 66.5h8q-7 -38 18.5 -60.5t75.5 -22.5q51 0 85 22.5t41 60.5zM71 0h-8l88 500h8z" />
    <glyph glyph-name="Iogonek" unicode="&#x12e;" horiz-adv-x="228" 
d="M74 0h-6q-63 -27 -97 -53.5t-40 -60.5q-5 -28 13 -43.5t51 -15.5q36 0 68 13l2 -8q-36 -13 -70 -13q-38 0 -57.5 18t-13.5 51q6 36 41.5 64t101.5 56l131 740h8z" />
    <glyph glyph-name="iogonek" unicode="&#x12f;" horiz-adv-x="223" 
d="M190 698q8 0 13 -6t3 -14q-1 -7 -7.5 -12.5t-13.5 -5.5q-8 0 -13 6t-3 14q1 7 7.5 12.5t13.5 5.5zM151 500h8l-88 -500h-5q-63 -27 -97 -53.5t-40 -60.5q-5 -28 13 -43.5t51 -15.5q36 0 68 13l2 -8q-36 -13 -70 -13q-38 0 -57.5 18t-13.5 51q7 36 41.5 64t100.5 55z" />
    <glyph glyph-name="Idotaccent" unicode="&#x130;" horiz-adv-x="228" 
d="M221 861q8 0 13 -6t4 -14q-2 -7 -8.5 -12.5t-13.5 -5.5q-8 0 -13 6t-3 14q2 7 8 12.5t13 5.5zM74 0h-8l132 748h8z" />
    <glyph glyph-name="dotlessi" unicode="&#x131;" horiz-adv-x="223" 
d="M71 0h-8l88 500h8z" />
    <glyph glyph-name="Jcircumflex" unicode="&#x134;" horiz-adv-x="533" 
d="M647 795h-11l-94 110l-134 -110h-11l145 121h4zM518 748l-97 -549q-18 -100 -78.5 -153.5t-150.5 -53.5q-94 0 -139 56t-32 152h8q-13 -95 31.5 -147.5t130.5 -52.5q88 0 146.5 51.5t75.5 147.5l97 549h8z" />
    <glyph glyph-name="jcircumflex" unicode="&#x135;" horiz-adv-x="223" 
d="M298 592h-10l-90 148l-142 -148h-10l152 159h4zM160 500l-107 -609q-26 -148 -147 -148q-9 0 -25 2l1 8q16 -2 23 -2q115 0 140 140l107 609h8z" />
    <glyph glyph-name="Kcommaaccent" unicode="&#x136;" horiz-adv-x="616" 
d="M242 418l300 -418h-10l-295 412l-106 -90l-57 -322h-8l132 748h8l-74 -416l480 416h11zM264 -39q22 0 17 -27q-16 -89 -84 -136l1 9q57 46 66 117h-4q-8 0 -12.5 5.5t-3.5 13.5q2 7 7.5 12.5t12.5 5.5z" />
    <glyph glyph-name="kcommaaccent" unicode="&#x137;" horiz-adv-x="478" 
d="M190 278l226 -278h-10l-222 273l-75 -60l-38 -213h-8l137 777h8l-97 -552l347 275h13zM211 -39q22 0 17 -27q-16 -89 -84 -136l1 9q57 46 66 117h-4q-8 0 -12.5 5.5t-3.5 13.5q2 7 7.5 12.5t12.5 5.5z" />
    <glyph glyph-name="Lacute" unicode="&#x139;" horiz-adv-x="591" 
d="M217 795h-14l197 124h16zM75 8h439l-1 -8h-447l132 748h8z" />
    <glyph glyph-name="lacute" unicode="&#x13a;" horiz-adv-x="222" 
d="M214 804h-14l197 124h16zM71 0h-8l137 777h8z" />
    <glyph glyph-name="Lcommaaccent" unicode="&#x13b;" horiz-adv-x="591" 
d="M514 8l-1 -8h-447l132 748h8l-131 -740h439zM286 -39q22 0 17 -27q-16 -89 -84 -136l1 9q57 46 66 117h-4q-8 0 -12.5 5.5t-3.5 13.5q2 7 7.5 12.5t12.5 5.5z" />
    <glyph glyph-name="lcommaaccent" unicode="&#x13c;" horiz-adv-x="222" 
d="M71 0h-8l137 777h8zM55 -39q22 0 17 -27q-16 -89 -84 -136l1 9q57 46 66 117h-4q-8 0 -12.5 5.5t-3.5 13.5q2 7 7.5 12.5t12.5 5.5z" />
    <glyph glyph-name="Lcaron" unicode="&#x13d;" horiz-adv-x="591" 
d="M75 8h439l-1 -8h-447l132 748h8zM564 715q22 0 17 -27q-16 -89 -84 -136l1 9q57 46 66 117h-4q-8 0 -12.5 5.5t-3.5 13.5q2 7 7.5 12.5t12.5 5.5z" />
    <glyph glyph-name="lcaron" unicode="&#x13e;" horiz-adv-x="269" 
d="M200 777h8l-137 -777h-8zM315 715q22 0 17 -27q-16 -89 -84 -136l1 9q57 46 66 117h-4q-8 0 -12.5 5.5t-3.5 13.5q2 7 7.5 12.5t12.5 5.5z" />
    <glyph glyph-name="Ldot" unicode="&#x13f;" horiz-adv-x="591" 
d="M75 8h439l-1 -8h-447l132 748h8zM488 369q21 0 18 -22q-4 -19 -23 -19q-9 0 -14 6t-4 15q1 8 8 14t15 6z" />
    <glyph glyph-name="ldot" unicode="&#x140;" horiz-adv-x="287" 
d="M72 0h-8l137 777h8zM246 279q21 0 18 -22q-4 -19 -23 -19q-9 0 -14 6t-4 15q1 8 8 14t15 6z" />
    <glyph glyph-name="Lslash" unicode="&#x141;" horiz-adv-x="601" 
d="M514 8l-1 -8h-447l46 263l-119 -55l-2 7l123 56l84 477h8l-84 -473l170 78l3 -7l-174 -80l-46 -258h439z" />
    <glyph glyph-name="lslash" unicode="&#x142;" horiz-adv-x="241" 
d="M131 289l-51 -289h-8l50 285l-134 -63l-2 7l138 65l85 483h8l-84 -479l134 63l2 -7z" />
    <glyph glyph-name="Nacute" unicode="&#x143;" horiz-adv-x="731" 
d="M468 795h-14l197 124h16zM572 18l129 730h8l-133 -756l-373 738l-129 -730h-8l133 756z" />
    <glyph glyph-name="nacute" unicode="&#x144;" horiz-adv-x="595" 
d="M369 590h-9l161 191h10zM345 508q83 0 128 -55t30 -140l-55 -313h-8l55 313q14 82 -28.5 134.5t-120.5 52.5q-82 0 -144 -56t-75 -131l-56 -313h-8l88 500h8l-22 -132q23 57 80 98.5t128 41.5z" />
    <glyph glyph-name="Ncommaaccent" unicode="&#x145;" horiz-adv-x="731" 
d="M709 748l-133 -756l-373 738l-129 -730h-8l133 756l373 -738l129 730h8zM310 -39q22 0 17 -27q-16 -89 -84 -136l1 9q57 46 66 117h-4q-8 0 -12.5 5.5t-3.5 13.5q2 7 7.5 12.5t12.5 5.5z" />
    <glyph glyph-name="ncommaaccent" unicode="&#x146;" horiz-adv-x="595" 
d="M345 508q83 0 128 -55t30 -140l-55 -313h-8l55 313q14 82 -28.5 134.5t-120.5 52.5q-82 0 -144 -56t-75 -131l-56 -313h-8l88 500h8l-22 -132q23 57 80 98.5t128 41.5zM251 -39q22 0 17 -27q-16 -89 -84 -136l1 9q57 46 66 117h-4q-8 0 -12.5 5.5t-3.5 13.5q2 7 7.5 12.5
t12.5 5.5z" />
    <glyph glyph-name="Ncaron" unicode="&#x147;" horiz-adv-x="731" 
d="M464 795h-4l-101 121h11l94 -110l134 110h11zM572 18l129 730h8l-133 -756l-373 738l-129 -730h-8l133 756z" />
    <glyph glyph-name="ncaron" unicode="&#x148;" horiz-adv-x="595" 
d="M367 589h-4l-96 159h10l90 -148l142 148h10zM345 508q83 0 128 -55t30 -140l-55 -313h-8l55 313q14 82 -28.5 134.5t-120.5 52.5q-82 0 -144 -56t-75 -131l-56 -313h-8l88 500h8l-22 -132q23 57 80 98.5t128 41.5z" />
    <glyph glyph-name="Eng" unicode="&#x14a;" horiz-adv-x="731" 
d="M576 -8l-7 -40q-18 -100 -79 -153.5t-152 -53.5l1 8q87 0 146 51.5t76 147.5l9 52l-367 726l-129 -730h-8l133 756l373 -738l52 293l33 190l44 247h8z" />
    <glyph glyph-name="eng" unicode="&#x14b;" horiz-adv-x="595" 
d="M345 508q83 0 128 -55t30 -140l-31 -175l-43 -247q-26 -148 -148 -148l1 8q114 0 139 140l19 109l24 138l2 10l29 165q14 82 -28.5 134.5t-120.5 52.5q-82 0 -144 -56t-75 -131l-56 -313h-8l88 500h8l-22 -132q23 57 80 98.5t128 41.5z" />
    <glyph glyph-name="Omacron" unicode="&#x14c;" horiz-adv-x="854" 
d="M617 860h-215l1 8h215zM495 756q154 0 245 -103t69 -280q-22 -175 -137.5 -278t-268.5 -103q-154 0 -245 103t-69 280q22 176 137.5 278.5t268.5 102.5zM496 748q-150 0 -263.5 -100.5t-135.5 -274.5q-22 -171 67 -272t238 -101q150 0 263.5 101t135.5 274
q22 172 -67 272.5t-238 100.5z" />
    <glyph glyph-name="omacron" unicode="&#x14d;" horiz-adv-x="620" 
d="M480 656h-215l1 8h215zM345 508q105 0 166 -70t44 -189q-17 -117 -96.5 -187t-183.5 -70q-105 0 -166 70t-44 189q17 117 96.5 187t183.5 70zM346 500q-102 0 -179 -68t-94 -183q-17 -114 41.5 -181.5t159.5 -67.5q102 0 179 68t94 183q17 114 -41.5 181.5t-159.5 67.5z
" />
    <glyph glyph-name="Obreve" unicode="&#x14e;" horiz-adv-x="854" 
d="M628 907h8q-7 -42 -43.5 -66.5t-89.5 -24.5q-55 0 -82.5 24.5t-20.5 66.5h8q-7 -38 19 -60.5t76 -22.5q51 0 84.5 22.5t40.5 60.5zM495 756q154 0 245 -103t69 -280q-22 -175 -137.5 -278t-268.5 -103q-154 0 -245 103t-69 280q22 176 137.5 278.5t268.5 102.5zM496 748
q-150 0 -263.5 -100.5t-135.5 -274.5q-22 -171 67 -272t238 -101q150 0 263.5 101t135.5 274q22 172 -67 272.5t-238 100.5z" />
    <glyph glyph-name="obreve" unicode="&#x14f;" horiz-adv-x="620" 
d="M490 697h8q-7 -42 -43.5 -66.5t-89.5 -24.5q-55 0 -82.5 24.5t-20.5 66.5h8q-7 -38 18.5 -60.5t75.5 -22.5q51 0 85 22.5t41 60.5zM345 508q105 0 166 -70t44 -189q-17 -117 -96.5 -187t-183.5 -70q-105 0 -166 70t-44 189q17 117 96.5 187t183.5 70zM346 500
q-102 0 -179 -68t-94 -183q-17 -114 41.5 -181.5t159.5 -67.5q102 0 179 68t94 183q17 114 -41.5 181.5t-159.5 67.5z" />
    <glyph glyph-name="Ohungarumlaut" unicode="&#x150;" horiz-adv-x="854" 
d="M435 798h-9l79 120h10zM563 798h-9l79 120h10zM495 756q154 0 245 -103t69 -280q-22 -175 -137.5 -278t-268.5 -103q-154 0 -245 103t-69 280q22 176 137.5 278.5t268.5 102.5zM496 748q-150 0 -263.5 -100.5t-135.5 -274.5q-22 -171 67 -272t238 -101q150 0 263.5 101
t135.5 274q22 172 -67 272.5t-238 100.5z" />
    <glyph glyph-name="ohungarumlaut" unicode="&#x151;" horiz-adv-x="620" 
d="M298 610h-9l86 128h9zM426 610h-9l86 128h9zM345 508q105 0 166 -70t44 -189q-17 -117 -96.5 -187t-183.5 -70q-105 0 -166 70t-44 189q17 117 96.5 187t183.5 70zM346 500q-102 0 -179 -68t-94 -183q-17 -114 41.5 -181.5t159.5 -67.5q102 0 179 68t94 183
q17 114 -41.5 181.5t-159.5 67.5z" />
    <glyph glyph-name="OE" unicode="&#x152;" horiz-adv-x="1248" 
d="M873 740l-61 -346h387l-1 -8h-387l-1 -8l-1 -5q-6 -40 -11 -59l-54 -306h431l-1 -8h-439l45 256q-48 -124 -150.5 -194t-226.5 -70q-154 0 -245 103t-69 280q22 176 137.5 278.5t268.5 102.5q138 0 227 -83.5t91 -231.5l54 307h439l-2 -8h-431zM402 0q139 0 248 87.5
t143 239.5l8 44v4q22 172 -67 272.5t-238 100.5q-150 0 -263.5 -100.5t-135.5 -274.5q-22 -171 67 -272t238 -101z" />
    <glyph glyph-name="oe" unicode="&#x153;" horiz-adv-x="1063" 
d="M816 508q104 0 153 -67t33 -174l-2 -17h-445v-1q0 -1 -0.5 -3t-0.5 -3q-14 -113 41.5 -178t150.5 -65q81 0 140 38t86 105l8 -1q-29 -71 -89.5 -110.5t-143.5 -39.5q-88 0 -145 54t-58 151q-29 -95 -103.5 -150t-165.5 -55q-105 0 -166 70t-44 189q17 117 96.5 187
t183.5 70q92 0 151 -54.5t62 -149.5q28 97 98.5 150.5t159.5 53.5zM274 0q102 0 179 68t94 183v3q16 112 -42.5 179t-158.5 67q-102 0 -179 -68t-94 -183q-17 -114 41.5 -181.5t159.5 -67.5zM994 258l1 9q15 103 -31.5 168t-146.5 65q-97 0 -169 -63t-91 -175l-1 -4h438z
" />
    <glyph glyph-name="Racute" unicode="&#x154;" horiz-adv-x="659" 
d="M411 795h-14l197 124h16zM623 543q-16 -89 -67.5 -139t-126.5 -61l140 -343h-9l-139 342q-20 -2 -33 -2h-254l-60 -340h-8l132 748h234q91 0 146.5 -51.5t44.5 -153.5zM135 348h254q85 0 146.5 48.5t79.5 148.5q10 97 -44 146t-141 49h-226z" />
    <glyph glyph-name="racute" unicode="&#x155;" horiz-adv-x="290" 
d="M223 590h-9l161 191h10zM320 508l-1 -8q-72 0 -124.5 -49.5t-64.5 -117.5l-59 -333h-8l88 500h8l-20 -112q20 49 69 84.5t112 35.5z" />
    <glyph glyph-name="Rcommaaccent" unicode="&#x156;" horiz-adv-x="659" 
d="M623 543q-16 -89 -67.5 -139t-126.5 -61l140 -343h-9l-139 342q-20 -2 -33 -2h-254l-60 -340h-8l132 748h234q91 0 146.5 -51.5t44.5 -153.5zM135 348h254q85 0 146.5 48.5t79.5 148.5q10 97 -44 146t-141 49h-226zM289 -39q22 0 17 -27q-16 -89 -84 -136l1 9
q57 46 66 117h-4q-8 0 -12.5 5.5t-3.5 13.5q2 7 7.5 12.5t12.5 5.5z" />
    <glyph glyph-name="rcommaaccent" unicode="&#x157;" horiz-adv-x="290" 
d="M159 500l-20 -112q20 49 69 84.5t112 35.5l-1 -8q-72 0 -124.5 -49.5t-64.5 -117.5l-59 -333h-8l88 500h8zM58 -39q22 0 17 -27q-16 -89 -84 -136l1 9q57 46 66 117h-4q-8 0 -12.5 5.5t-3.5 13.5q2 7 7.5 12.5t12.5 5.5z" />
    <glyph glyph-name="Rcaron" unicode="&#x158;" horiz-adv-x="659" 
d="M403 795l-101 121h11l94 -110l134 110h11l-145 -121h-4zM623 543q-16 -89 -67.5 -139t-126.5 -61l140 -343h-9l-139 342q-20 -2 -33 -2h-254l-60 -340h-8l132 748h234q91 0 146.5 -51.5t44.5 -153.5zM135 348h254q85 0 146.5 48.5t79.5 148.5q10 97 -44 146t-141 49h-226
z" />
    <glyph glyph-name="rcaron" unicode="&#x159;" horiz-adv-x="290" 
d="M221 589h-4l-96 159h10l90 -148l142 148h10zM320 508l-1 -8q-72 0 -124.5 -49.5t-64.5 -117.5l-59 -333h-8l88 500h8l-20 -112q20 49 69 84.5t112 35.5z" />
    <glyph glyph-name="Sacute" unicode="&#x15a;" horiz-adv-x="645" 
d="M412 795h-14l197 124h16zM400 756q97 0 154.5 -47t53.5 -132l-9 -1q4 82 -50 127t-148 45q-112 0 -178.5 -52t-77.5 -131q-5 -38 3 -66.5t24 -46t46.5 -31t57.5 -21t70 -17.5h1q58 -12 91 -21.5t67.5 -25t50.5 -34t24 -47t2 -67.5q-14 -97 -91 -146.5t-187 -49.5
q-108 0 -175.5 50t-63.5 138l8 1q-4 -83 61 -132t169 -49q109 0 183.5 48t87.5 142q7 46 -4 76.5t-45 50t-68 30t-97 25.5q-9 2 -14 3q-49 11 -74.5 18.5t-59 22.5t-48.5 33t-24 48t-3 70q12 82 80.5 135.5t182.5 53.5z" />
    <glyph glyph-name="sacute" unicode="&#x15b;" horiz-adv-x="490" 
d="M297 590h-9l161 191h10zM277 507q68 1 103 -31.5t36 -92.5l-8 -1q0 56 -33.5 87t-96.5 30q-75 1 -119 -33t-53 -92q-10 -61 39 -84q17 -8 93 -25q94 -21 130 -47.5t26 -88.5q-11 -67 -63 -102t-127 -35q-72 0 -114.5 32t-44.5 95l8 1q2 -60 42 -90t108 -30
q74 0 123.5 32.5t59.5 98.5q9 57 -24.5 81t-125.5 45q-80 18 -98 28q-51 25 -40 91q9 60 55 96t124 35z" />
    <glyph glyph-name="Scircumflex" unicode="&#x15c;" horiz-adv-x="645" 
d="M531 795h-11l-94 110l-134 -110h-11l145 121h4zM400 756q97 0 154.5 -47t53.5 -132l-9 -1q4 82 -50 127t-148 45q-112 0 -178.5 -52t-77.5 -131q-5 -38 3 -66.5t24 -46t46.5 -31t57.5 -21t70 -17.5h1q58 -12 91 -21.5t67.5 -25t50.5 -34t24 -47t2 -67.5
q-14 -97 -91 -146.5t-187 -49.5q-108 0 -175.5 50t-63.5 138l8 1q-4 -83 61 -132t169 -49q109 0 183.5 48t87.5 142q7 46 -4 76.5t-45 50t-68 30t-97 25.5q-9 2 -14 3q-49 11 -74.5 18.5t-59 22.5t-48.5 33t-24 48t-3 70q12 82 80.5 135.5t182.5 53.5z" />
    <glyph glyph-name="scircumflex" unicode="&#x15d;" horiz-adv-x="490" 
d="M419 592h-10l-90 148l-142 -148h-10l152 159h4zM277 507q68 1 103 -31.5t36 -92.5l-8 -1q0 56 -33.5 87t-96.5 30q-75 1 -119 -33t-53 -92q-10 -61 39 -84q17 -8 93 -25q94 -21 130 -47.5t26 -88.5q-11 -67 -63 -102t-127 -35q-72 0 -114.5 32t-44.5 95l8 1q2 -60 42 -90
t108 -30q74 0 123.5 32.5t59.5 98.5q9 57 -24.5 81t-125.5 45q-80 18 -98 28q-51 25 -40 91q9 60 55 96t124 35z" />
    <glyph glyph-name="Scedilla" unicode="&#x15e;" horiz-adv-x="645" 
d="M400 756q97 0 154.5 -47t53.5 -132l-9 -1q4 82 -50 127t-148 45q-112 0 -178.5 -52t-77.5 -131q-5 -38 3 -66.5t24 -46t46.5 -31t57.5 -21t70 -17.5h1q58 -12 91 -21.5t67.5 -25t50.5 -34t24 -47t2 -67.5q-14 -96 -89.5 -145.5t-184.5 -50.5l-26 -73q56 1 83.5 -20.5
t20.5 -63.5q-6 -35 -39 -55.5t-74 -20.5q-56 0 -96 28l5 7q39 -27 91 -27q39 0 69 18.5t36 51.5q6 35 -17.5 54.5t-74.5 19.5q-12 0 -16 -1l30 82q-106 1 -172.5 51t-62.5 137l8 1q-4 -83 61 -132t169 -49q109 0 183.5 48t87.5 142q7 46 -4 76.5t-45 50t-68 30t-97 25.5
q-9 2 -14 3q-49 11 -74.5 18.5t-59 22.5t-48.5 33t-24 48t-3 70q12 82 80.5 135.5t182.5 53.5z" />
    <glyph glyph-name="scedilla" unicode="&#x15f;" horiz-adv-x="490" 
d="M278 499q-75 1 -119 -33t-53 -92q-10 -61 39 -84q17 -8 93 -25q94 -21 130 -47.5t26 -88.5q-11 -67 -62 -101.5t-125 -35.5l-26 -73q56 1 83.5 -20.5t20.5 -63.5q-6 -35 -39 -55.5t-74 -20.5q-56 0 -96 28l5 7q39 -27 91 -27q39 0 69 18.5t36 51.5q6 35 -17.5 54.5
t-74.5 19.5q-12 0 -16 -1l30 82q-70 2 -111 34t-43 93l8 1q2 -60 42 -90t108 -30q74 0 123.5 32.5t59.5 98.5q9 57 -24.5 81t-125.5 45q-80 18 -98 28q-51 25 -40 91q9 60 55 96t124 35q68 1 103 -31.5t36 -92.5l-8 -1q0 56 -33.5 87t-96.5 30z" />
    <glyph glyph-name="Scaron" unicode="&#x160;" horiz-adv-x="645" 
d="M408 795h-4l-101 121h11l94 -110l134 110h11zM400 756q97 0 154.5 -47t53.5 -132l-9 -1q4 82 -50 127t-148 45q-112 0 -178.5 -52t-77.5 -131q-5 -38 3 -66.5t24 -46t46.5 -31t57.5 -21t70 -17.5h1q58 -12 91 -21.5t67.5 -25t50.5 -34t24 -47t2 -67.5q-14 -97 -91 -146.5
t-187 -49.5q-108 0 -175.5 50t-63.5 138l8 1q-4 -83 61 -132t169 -49q109 0 183.5 48t87.5 142q7 46 -4 76.5t-45 50t-68 30t-97 25.5q-9 2 -14 3q-49 11 -74.5 18.5t-59 22.5t-48.5 33t-24 48t-3 70q12 82 80.5 135.5t182.5 53.5z" />
    <glyph glyph-name="scaron" unicode="&#x161;" horiz-adv-x="490" 
d="M295 589h-4l-96 159h10l90 -148l142 148h10zM277 507q68 1 103 -31.5t36 -92.5l-8 -1q0 56 -33.5 87t-96.5 30q-75 1 -119 -33t-53 -92q-10 -61 39 -84q17 -8 93 -25q94 -21 130 -47.5t26 -88.5q-11 -67 -63 -102t-127 -35q-72 0 -114.5 32t-44.5 95l8 1q2 -60 42 -90
t108 -30q74 0 123.5 32.5t59.5 98.5q9 57 -24.5 81t-125.5 45q-80 18 -98 28q-51 25 -40 91q9 60 55 96t124 35z" />
    <glyph glyph-name="Tcaron" unicode="&#x164;" horiz-adv-x="668" 
d="M432 795h-4l-101 121h11l94 -110l134 110h11zM739 740h-315l-130 -740h-8l130 740h-315l2 8h638z" />
    <glyph glyph-name="tcaron" unicode="&#x165;" horiz-adv-x="416" 
d="M459 715q22 0 17 -27q-16 -89 -84 -136l1 9q57 46 66 117h-4q-8 0 -12.5 5.5t-3.5 13.5q2 7 7.5 12.5t12.5 5.5zM163 500h159l-1 -8h-159l-64 -353q-23 -134 83 -134q29 0 57 6l-2 -9q-18 -5 -55 -5q-116 0 -91 142l64 353h-96l1 8h96l33 183h8z" />
    <glyph glyph-name="Tbar" unicode="&#x166;" horiz-adv-x="668" 
d="M424 740l-61 -350h164l-2 -8h-164l-67 -382h-8l67 382h-164l2 8h164l61 350h-315l2 8h638l-2 -8h-315z" />
    <glyph glyph-name="tbar" unicode="&#x167;" horiz-adv-x="295" 
d="M163 492l-38 -211h158l-1 -8h-159l-24 -134q-23 -134 83 -134q29 0 57 6l-2 -9q-18 -5 -55 -5q-116 0 -91 142l24 134h-96l1 8h97l38 211h-96l1 8h96l33 183h8l-33 -183h159l-1 -8h-159z" />
    <glyph glyph-name="Utilde" unicode="&#x168;" horiz-adv-x="747" 
d="M416 904q32 0 66.5 -35t61.5 -35t46.5 18t24.5 45h8q-6 -31 -27.5 -51t-50.5 -20q-32 0 -67 35t-62 35t-46.5 -18t-24.5 -45h-8q6 30 28 50.5t51 20.5zM732 748l-88 -498q-23 -127 -106.5 -192.5t-209.5 -65.5q-124 0 -186 66t-39 192l88 498h8l-88 -498
q-22 -123 37 -186.5t179 -63.5q122 0 204.5 63.5t104.5 186.5l88 498h8z" />
    <glyph glyph-name="utilde" unicode="&#x169;" horiz-adv-x="576" 
d="M298 703q32 0 67 -35t62 -35t46 18t25 45h8q-6 -30 -28 -50.5t-51 -20.5q-32 0 -67 35t-62 35t-46 -18t-25 -45h-8q6 30 28 50.5t51 20.5zM425 0h-8l23 132q-23 -57 -77.5 -98.5t-125.5 -41.5q-82 0 -121 54t-24 141l55 313h8l-55 -313q-15 -83 22 -135t114 -52
q82 0 141.5 55.5t72.5 131.5l55 313h8z" />
    <glyph glyph-name="Umacron" unicode="&#x16a;" horiz-adv-x="747" 
d="M587 860h-215l1 8h215zM732 748l-88 -498q-23 -127 -106.5 -192.5t-209.5 -65.5q-124 0 -186 66t-39 192l88 498h8l-88 -498q-22 -123 37 -186.5t179 -63.5q122 0 204.5 63.5t104.5 186.5l88 498h8z" />
    <glyph glyph-name="umacron" unicode="&#x16b;" horiz-adv-x="576" 
d="M471 656h-215l1 8h215zM425 0h-8l23 132q-23 -57 -77.5 -98.5t-125.5 -41.5q-82 0 -121 54t-24 141l55 313h8l-55 -313q-15 -83 22 -135t114 -52q82 0 141.5 55.5t72.5 131.5l55 313h8z" />
    <glyph glyph-name="Ubreve" unicode="&#x16c;" horiz-adv-x="747" 
d="M598 907h8q-7 -42 -43.5 -66.5t-89.5 -24.5q-55 0 -82.5 24.5t-20.5 66.5h8q-7 -38 19 -60.5t76 -22.5q51 0 84.5 22.5t40.5 60.5zM732 748l-88 -498q-23 -127 -106.5 -192.5t-209.5 -65.5q-124 0 -186 66t-39 192l88 498h8l-88 -498q-22 -123 37 -186.5t179 -63.5
q122 0 204.5 63.5t104.5 186.5l88 498h8z" />
    <glyph glyph-name="ubreve" unicode="&#x16d;" horiz-adv-x="576" 
d="M481 697h8q-7 -42 -43.5 -66.5t-89.5 -24.5q-55 0 -82.5 24.5t-20.5 66.5h8q-7 -38 18.5 -60.5t75.5 -22.5q51 0 85 22.5t41 60.5zM425 0h-8l23 132q-23 -57 -77.5 -98.5t-125.5 -41.5q-82 0 -121 54t-24 141l55 313h8l-55 -313q-15 -83 22 -135t114 -52q82 0 141.5 55.5
t72.5 131.5l55 313h8z" />
    <glyph glyph-name="Uring" unicode="&#x16e;" horiz-adv-x="747" 
d="M497 963q38 0 59.5 -24t14.5 -62q-7 -36 -36.5 -60t-65.5 -24q-38 0 -59.5 24t-14.5 62q7 36 36.5 60t65.5 24zM498 955q-34 0 -61.5 -22t-33.5 -56q-6 -32 13.5 -54t52.5 -22q34 0 61 22t33 56q6 33 -13 54.5t-52 21.5zM732 748l-88 -498q-23 -127 -106.5 -192.5
t-209.5 -65.5q-124 0 -186 66t-39 192l88 498h8l-88 -498q-22 -123 37 -186.5t179 -63.5q122 0 204.5 63.5t104.5 186.5l88 498h8z" />
    <glyph glyph-name="uring" unicode="&#x16f;" horiz-adv-x="576" 
d="M382 766q39 0 60.5 -25t14.5 -63q-6 -36 -36.5 -60.5t-67.5 -24.5q-40 0 -62 24.5t-15 62.5q7 37 37.5 61.5t68.5 24.5zM383 758q-37 0 -65 -22.5t-35 -57.5q-5 -33 15 -55t55 -22q36 0 63.5 22.5t33.5 56.5q6 33 -13.5 55.5t-53.5 22.5zM425 0h-8l23 132
q-23 -57 -77.5 -98.5t-125.5 -41.5q-82 0 -121 54t-24 141l55 313h8l-55 -313q-15 -83 22 -135t114 -52q82 0 141.5 55.5t72.5 131.5l55 313h8z" />
    <glyph glyph-name="Uhungarumlaut" unicode="&#x170;" horiz-adv-x="747" 
d="M405 798h-9l79 120h10zM533 798h-9l79 120h10zM732 748l-88 -498q-23 -127 -106.5 -192.5t-209.5 -65.5q-124 0 -186 66t-39 192l88 498h8l-88 -498q-22 -123 37 -186.5t179 -63.5q122 0 204.5 63.5t104.5 186.5l88 498h8z" />
    <glyph glyph-name="uhungarumlaut" unicode="&#x171;" horiz-adv-x="576" 
d="M289 610h-9l86 128h9zM417 610h-9l86 128h9zM425 0h-8l23 132q-23 -57 -77.5 -98.5t-125.5 -41.5q-82 0 -121 54t-24 141l55 313h8l-55 -313q-15 -83 22 -135t114 -52q82 0 141.5 55.5t72.5 131.5l55 313h8z" />
    <glyph glyph-name="Uogonek" unicode="&#x172;" horiz-adv-x="747" 
d="M732 748l-88 -498q-19 -105 -80 -168.5t-155 -81.5q-62 -27 -96 -53.5t-40 -60.5q-5 -28 13 -43.5t51 -15.5q35 0 68 13l2 -8q-36 -13 -70 -13q-38 0 -57.5 18t-13.5 51q11 59 114 107q-24 -3 -52 -3q-124 0 -186 66t-39 192l88 498h8l-88 -498q-22 -123 37 -186.5
t179 -63.5q45 0 86 9q89 19 147 80t76 161l88 498h8z" />
    <glyph glyph-name="uogonek" unicode="&#x173;" horiz-adv-x="576" 
d="M513 500l-88 -500h-3q-64 -27 -98.5 -53.5t-40.5 -61.5q-5 -28 13 -43.5t51 -15.5q35 0 68 13l2 -8q-36 -13 -70 -13q-38 0 -57.5 18t-13.5 51q7 36 41.5 64t100.5 55l22 126q-23 -57 -77.5 -98.5t-125.5 -41.5q-82 0 -121 54t-24 141l55 313h8l-55 -313q-15 -83 22 -135
t114 -52q82 0 141.5 55.5t72.5 131.5l55 313h8z" />
    <glyph glyph-name="Wcircumflex" unicode="&#x174;" horiz-adv-x="1110" 
d="M776 795h-11l-94 110l-134 -110h-11l145 121h4zM770 14l388 734h9l-400 -758l-127 740l-389 -740l-132 758h8l127 -734l390 742z" />
    <glyph glyph-name="wcircumflex" unicode="&#x175;" horiz-adv-x="786" 
d="M579 592h-10l-90 148l-142 -148h-10l152 159h4zM535 16l268 484h9l-280 -508l-98 493l-270 -493l-102 508h8l98 -484l269 492z" />
    <glyph glyph-name="Ycircumflex" unicode="&#x176;" horiz-adv-x="624" 
d="M533 795h-11l-94 110l-134 -110h-11l145 121h4zM332 340l-60 -340h-8l60 340l-211 408h9l207 -400l348 400h10z" />
    <glyph glyph-name="ycircumflex" unicode="&#x177;" horiz-adv-x="475" 
d="M422 592h-10l-90 148l-142 -148h-10l152 159h4zM47 -255h-9l152 259l-118 496h8l116 -486l286 486h9z" />
    <glyph glyph-name="Ydieresis" unicode="&#x178;" horiz-adv-x="624" 
d="M376 871q17 0 14 -17q-4 -14 -18 -14q-17 0 -14 16q4 15 18 15zM469 871q16 0 13 -17q-4 -14 -17 -14q-18 0 -15 16q4 15 19 15zM332 340l-60 -340h-8l60 340l-211 408h9l207 -400l348 400h10z" />
    <glyph glyph-name="Zacute" unicode="&#x179;" horiz-adv-x="607" 
d="M406 795h-14l197 124h16zM7 8h523l-1 -8h-540l652 740h-493l2 8h509z" />
    <glyph glyph-name="zacute" unicode="&#x17a;" horiz-adv-x="438" 
d="M283 590h-9l161 191h10zM2 8h365l-1 -8h-382l439 492h-340l1 8h357z" />
    <glyph glyph-name="Zdotaccent" unicode="&#x17b;" horiz-adv-x="607" 
d="M411 861q8 0 13 -6t4 -14q-2 -7 -8.5 -12.5t-13.5 -5.5q-8 0 -13 6t-3 14q2 7 8 12.5t13 5.5zM7 8h523l-1 -8h-540l652 740h-493l2 8h509z" />
    <glyph glyph-name="zdotaccent" unicode="&#x17c;" horiz-adv-x="438" 
d="M297 698q8 0 13 -6t3 -14q-1 -7 -7.5 -12.5t-13.5 -5.5q-8 0 -13 6t-3 14q1 7 7.5 12.5t13.5 5.5zM2 8h365l-1 -8h-382l439 492h-340l1 8h357z" />
    <glyph glyph-name="Zcaron" unicode="&#x17d;" horiz-adv-x="607" 
d="M402 795h-4l-101 121h11l94 -110l134 110h11zM7 8h523l-1 -8h-540l652 740h-493l2 8h509z" />
    <glyph glyph-name="zcaron" unicode="&#x17e;" horiz-adv-x="438" 
d="M281 589h-4l-96 159h10l90 -148l142 148h10zM2 8h365l-1 -8h-382l439 492h-340l1 8h357z" />
    <glyph glyph-name="florin" unicode="&#x192;" horiz-adv-x="415" 
d="M396 785q67 0 109 -47l-7 -7q-41 46 -101 46q-95 0 -137 -122l-54 -155h186l-1 -8h-188l-223 -634h-8l223 634h-127l1 8h129l55 156q44 129 143 129z" />
    <glyph glyph-name="Aringacute" unicode="&#x1fa;" horiz-adv-x="663" 
d="M428 772q-38 0 -59.5 24t-14.5 62q9 50 58 74l173 109h16l-160 -100q5 1 15 1q38 0 59.5 -24t14.5 -62q-7 -36 -36.5 -60t-65.5 -24zM362 856q-6 -32 13.5 -54t52.5 -22q34 0 61 22t33 56q6 33 -13 54.5t-52 21.5q-34 0 -61.5 -22t-33.5 -56zM421 759l173 -759h-8
l-58 256h-389l-148 -256h-10zM526 264l-108 473l-275 -473h383z" />
    <glyph glyph-name="aringacute" unicode="&#x1fb;" 
d="M381 592q-38 0 -59.5 24t-14.5 62q9 52 58 74l174 109h16l-161 -100q5 1 15 1q38 0 59.5 -24t14.5 -62q-7 -36 -36.5 -60t-65.5 -24zM315 676q-6 -32 13.5 -54t52.5 -22q34 0 61 22t33 56q6 33 -13 54.5t-52 21.5q-34 0 -61.5 -22t-33.5 -56zM575 500l-88 -500h-8l27 152
q-32 -80 -94 -120t-143 -40q-104 0 -162.5 68.5t-41.5 190.5q17 120 94.5 188.5t179.5 68.5q83 0 138 -40.5t63 -119.5l27 152h8zM519 230l9 51q19 105 -36 162t-152 57q-101 0 -175.5 -66.5t-91.5 -184.5q-17 -117 39.5 -183t155.5 -66q97 0 164 58t87 172z" />
    <glyph glyph-name="AEacute" unicode="&#x1fc;" horiz-adv-x="975" 
d="M737 795h-14l197 124h16zM600 740l-61 -346h387l-1 -8h-387l-67 -378h431l-1 -8h-439l45 256h-313l-213 -256h-10l623 748h439l-2 -8h-431zM591 733l-391 -469h309z" />
    <glyph glyph-name="aeacute" unicode="&#x1fd;" horiz-adv-x="927" 
d="M510 590h-9l161 191h10zM681 508q104 0 153 -67t33 -174l-2 -17h-445q-16 -117 39 -183.5t152 -66.5q81 0 140 38t86 105l8 -1q-29 -71 -89.5 -110.5t-143.5 -39.5q-88 0 -145 54t-58 151q-27 -105 -92 -155t-145 -50q-68 0 -103 34.5t-26 97.5q18 124 203 136l169 10
l5 29q17 97 -13.5 149t-106.5 52q-78 0 -131.5 -48.5t-64.5 -112.5h-8q12 68 67.5 118.5t135.5 50.5q75 0 108 -46t25 -130q32 84 99 130t150 46zM859 258l1 9q15 103 -31.5 168t-146.5 65q-98 0 -170.5 -64t-90.5 -178h438zM171 0q84 0 149.5 55.5t86.5 174.5l6 32
l-166 -10q-178 -11 -196 -130q-9 -58 24 -90t96 -32z" />
    <glyph glyph-name="Oslashacute" unicode="&#x1fe;" horiz-adv-x="854" 
d="M504 795h-14l197 124h16zM798 762l-80 -86q116 -107 91 -303q-22 -175 -137.5 -278t-268.5 -103q-151 0 -238 95l-98 -104l-5 5l98 105q-93 106 -71 282t137.5 278.5t268.5 102.5q131 0 217 -75l81 86zM97 373q-22 -170 69 -274l541 576q-84 73 -211 73
q-150 0 -263.5 -100.5t-135.5 -274.5zM801 375q25 191 -89 295l-541 -577q87 -93 231 -93q150 0 263.5 101t135.5 274z" />
    <glyph glyph-name="oslashacute" unicode="&#x1ff;" horiz-adv-x="620" 
d="M365 590h-9l161 191h10zM562 511l-60 -63q71 -72 53 -199q-17 -117 -96.5 -187t-183.5 -70q-91 0 -150 54l-59 -63l-5 5l59 62q-73 73 -55 201q17 117 96.5 187t183.5 70q94 0 152 -56l60 64zM73 249q-18 -123 52 -193l367 391q-58 53 -146 53q-102 0 -179 -68t-94 -183z
M547 251q17 120 -50 191l-367 -391q57 -51 144 -51q102 0 179 68t94 183z" />
    <glyph glyph-name="Scommaaccent" unicode="&#x218;" horiz-adv-x="645" 
d="M400 756q97 0 154.5 -47t53.5 -132l-9 -1q4 82 -50 127t-148 45q-112 0 -178.5 -52t-77.5 -131q-5 -38 3 -66.5t24 -46t46.5 -31t57.5 -21t70 -17.5h1q58 -12 91 -21.5t67.5 -25t50.5 -34t24 -47t2 -67.5q-14 -97 -91 -146.5t-187 -49.5q-108 0 -175.5 50t-63.5 138l8 1
q-4 -83 61 -132t169 -49q109 0 183.5 48t87.5 142q7 46 -4 76.5t-45 50t-68 30t-97 25.5q-9 2 -14 3q-49 11 -74.5 18.5t-59 22.5t-48.5 33t-24 48t-3 70q12 82 80.5 135.5t182.5 53.5zM292 -44q22 0 17 -27q-16 -89 -84 -136l1 9q57 46 66 117h-4q-8 0 -12.5 5.5t-3.5 13.5
q2 7 7.5 12.5t12.5 5.5z" />
    <glyph glyph-name="scommaaccent" unicode="&#x219;" horiz-adv-x="490" 
d="M278 499q-75 1 -119 -33t-53 -92q-10 -61 39 -84q17 -8 93 -25q94 -21 130 -47.5t26 -88.5q-11 -67 -63 -102t-127 -35q-72 0 -114.5 32t-44.5 95l8 1q2 -60 42 -90t108 -30q74 0 123.5 32.5t59.5 98.5q9 57 -24.5 81t-125.5 45q-80 18 -98 28q-51 25 -40 91q9 60 55 96
t124 35q68 1 103 -31.5t36 -92.5l-8 -1q0 56 -33.5 87t-96.5 30zM191 -44q22 0 17 -27q-16 -89 -84 -136l1 9q57 46 66 117h-4q-8 0 -12.5 5.5t-3.5 13.5q2 7 7.5 12.5t12.5 5.5z" />
    <glyph glyph-name="uni021A" unicode="&#x21a;" horiz-adv-x="668" 
d="M741 748l-2 -8h-315l-130 -740h-8l130 740h-315l2 8h638zM278 -39q22 0 17 -27q-16 -89 -84 -136l1 9q57 46 66 117h-4q-8 0 -12.5 5.5t-3.5 13.5q2 7 7.5 12.5t12.5 5.5z" />
    <glyph glyph-name="uni021B" unicode="&#x21b;" horiz-adv-x="295" 
d="M162 492l-64 -353q-23 -134 83 -134q29 0 57 6l-2 -9q-18 -5 -55 -5q-116 0 -91 142l64 353h-96l1 8h96l33 183h8l-33 -183h159l-1 -8h-159zM127 -47q22 0 17 -27q-16 -89 -84 -136l1 9q57 46 66 117h-4q-8 0 -12.5 5.5t-3.5 13.5q2 7 7.5 12.5t12.5 5.5z" />
    <glyph glyph-name="dotlessj" unicode="&#x237;" horiz-adv-x="223" 
d="M160 500l-107 -609q-26 -148 -147 -148q-9 0 -25 2l1 8q16 -2 23 -2q115 0 140 140l107 609h8z" />
    <glyph glyph-name="circumflex" unicode="&#x2c6;" horiz-adv-x="304" 
d="M338 592h-10l-90 148l-142 -148h-10l152 159h4z" />
    <glyph glyph-name="caron" unicode="&#x2c7;" horiz-adv-x="304" 
d="M214 589h-4l-96 159h10l90 -148l142 148h10z" />
    <glyph glyph-name="breve" unicode="&#x2d8;" horiz-adv-x="302" 
d="M340 697h8q-7 -42 -43.5 -66.5t-89.5 -24.5q-55 0 -82.5 24.5t-20.5 66.5h8q-7 -38 18.5 -60.5t75.5 -22.5q51 0 85 22.5t41 60.5z" />
    <glyph glyph-name="dotaccent" unicode="&#x2d9;" horiz-adv-x="102" 
d="M129 698q8 0 13 -6t3 -14q-1 -7 -7.5 -12.5t-13.5 -5.5q-8 0 -13 6t-3 14q1 7 7.5 12.5t13.5 5.5z" />
    <glyph glyph-name="ring" unicode="&#x2da;" horiz-adv-x="244" 
d="M213 766q39 0 60.5 -25t14.5 -63q-6 -36 -36.5 -60.5t-67.5 -24.5q-40 0 -62 24.5t-15 62.5q7 37 37.5 61.5t68.5 24.5zM214 758q-37 0 -65 -22.5t-35 -57.5q-5 -33 15 -55t55 -22q36 0 63.5 22.5t33.5 56.5q6 33 -13.5 55.5t-53.5 22.5z" />
    <glyph glyph-name="ogonek" unicode="&#x2db;" horiz-adv-x="227" 
d="M131 11l-1 -8q-64 -27 -98.5 -53.5t-40.5 -61.5q-5 -28 13 -43.5t51 -15.5q35 0 68 13l2 -8q-36 -13 -70 -13q-38 0 -57.5 18t-13.5 51q6 37 42 65t105 56z" />
    <glyph glyph-name="tilde" unicode="&#x2dc;" horiz-adv-x="331" 
d="M174 703q32 0 67 -35t62 -35t46 18t25 45h8q-6 -30 -28 -50.5t-51 -20.5q-32 0 -67 35t-62 35t-46 -18t-25 -45h-8q6 30 28 50.5t51 20.5z" />
    <glyph glyph-name="hungarumlaut" unicode="&#x2dd;" horiz-adv-x="254" 
d="M101 610h-9l86 128h9zM229 610h-9l86 128h9z" />
    <glyph glyph-name="commaaccentcomb" unicode="&#x326;" horiz-adv-x="0" 
d="M18 -39q22 0 17 -27q-16 -89 -84 -136l1 9q57 46 66 117h-4q-8 0 -12.5 5.5t-3.5 13.5q2 7 7.5 12.5t12.5 5.5z" />
    <glyph glyph-name="Omega" unicode="&#x3a9;" horiz-adv-x="764" 
d="M462 709q150 0 215.5 -95t39.5 -247q-11 -59 -40 -117.5t-67.5 -105t-72 -79t-66.5 -57.5h225l-1 -8h-241l1 6q46 32 94.5 80t97 126.5t62.5 156.5q26 147 -38 239.5t-208 92.5q-145 0 -242.5 -93t-123.5 -241q-20 -112 23.5 -210t102.5 -151l-1 -6h-241l1 8h225
q-34 35 -63 81t-49 124t-6 156q26 150 125.5 245t247.5 95z" />
    <glyph glyph-name="mu" unicode="&#x3bc;" horiz-adv-x="580" 
d="M517 500l-88 -500h-8l23 132q-23 -57 -77.5 -98.5t-125.5 -41.5q-65 0 -104 35.5t-44 96.5l-67 -379h-8l133 755h8l-55 -313q-15 -83 22 -135t114 -52q82 0 141.5 55.5t72.5 131.5l55 313h8z" />
    <glyph glyph-name="pi" unicode="&#x3c0;" horiz-adv-x="579" 
d="M584 516l6 -5q-56 -66 -125 -66h-37l-109 -366q-24 -77 41 -77q37 0 78 29l4 -7q-44 -30 -81 -30q-76 0 -50 87l109 364h-165l-76 -252q-35 -115 -87 -193h-10q52 73 90 197l75 248h-64q-53 0 -111 -37l-4 6q61 39 116 39h284q66 0 116 63z" />
    <glyph glyph-name="Wgrave" unicode="&#x1e80;" horiz-adv-x="1110" 
d="M658 795h-14l-155 124h16zM770 14l388 734h9l-400 -758l-127 740l-389 -740l-132 758h8l127 -734l390 742z" />
    <glyph glyph-name="wgrave" unicode="&#x1e81;" horiz-adv-x="786" 
d="M458 590h-9l-94 191h10zM535 16l268 484h9l-280 -508l-98 493l-270 -493l-102 508h8l98 -484l269 492z" />
    <glyph glyph-name="Wacute" unicode="&#x1e82;" horiz-adv-x="1110" 
d="M657 795h-14l197 124h16zM770 14l388 734h9l-400 -758l-127 740l-389 -740l-132 758h8l127 -734l390 742z" />
    <glyph glyph-name="wacute" unicode="&#x1e83;" horiz-adv-x="786" 
d="M457 590h-9l161 191h10zM535 16l268 484h9l-280 -508l-98 493l-270 -493l-102 508h8l98 -484l269 492z" />
    <glyph glyph-name="Wdieresis" unicode="&#x1e84;" horiz-adv-x="1110" 
d="M619 871q17 0 14 -17q-3 -14 -18 -14q-17 0 -14 16q4 15 18 15zM712 871q16 0 13 -17q-3 -14 -17 -14q-18 0 -15 16q4 15 19 15zM770 14l388 734h9l-400 -758l-127 740l-389 -740l-132 758h8l127 -734l390 742z" />
    <glyph glyph-name="wdieresis" unicode="&#x1e85;" horiz-adv-x="786" 
d="M420 699q17 0 14 -17q-2 -14 -17 -14q-17 0 -14 16q2 15 17 15zM513 699q16 0 13 -17q-2 -14 -16 -14q-18 0 -15 16q1 6 6.5 10.5t11.5 4.5zM535 16l268 484h9l-280 -508l-98 493l-270 -493l-102 508h8l98 -484l269 492z" />
    <glyph glyph-name="Ygrave" unicode="&#x1ef2;" horiz-adv-x="624" 
d="M415 795h-14l-155 124h16zM332 340l-60 -340h-8l60 340l-211 408h9l207 -400l348 400h10z" />
    <glyph glyph-name="ygrave" unicode="&#x1ef3;" horiz-adv-x="475" 
d="M301 590h-9l-94 191h10zM47 -255h-9l152 259l-118 496h8l116 -486l286 486h9z" />
    <glyph glyph-name="endash" unicode="&#x2013;" horiz-adv-x="558" 
d="M514 257h-468l2 8h468z" />
    <glyph glyph-name="emdash" unicode="&#x2014;" horiz-adv-x="790" 
d="M746 257h-700l2 8h700z" />
    <glyph glyph-name="quoteleft" unicode="&#x2018;" horiz-adv-x="127" 
d="M97 579q16 89 84 136l-1 -9q-57 -46 -66 -117h4q8 0 12.5 -5.5t3.5 -13.5q-2 -7 -7.5 -12.5t-12.5 -5.5q-22 0 -17 27z" />
    <glyph glyph-name="quoteright" unicode="&#x2019;" horiz-adv-x="127" 
d="M148 715q22 0 17 -27q-16 -89 -84 -136l1 9q57 46 66 117h-4q-8 0 -12.5 5.5t-3.5 13.5q2 7 7.5 12.5t12.5 5.5z" />
    <glyph glyph-name="quotesinglbase" unicode="&#x201a;" horiz-adv-x="127" 
d="M27 31q22 0 17 -27q-16 -89 -84 -136l1 9q57 46 66 117h-4q-8 0 -12.5 5.5t-3.5 13.5q2 7 7.5 12.5t12.5 5.5z" />
    <glyph glyph-name="quotedblleft" unicode="&#x201c;" horiz-adv-x="238" 
d="M99 579q16 89 84 136l-1 -9q-57 -46 -66 -117h4q8 0 12.5 -5.5t3.5 -13.5q-2 -7 -7.5 -12.5t-12.5 -5.5q-22 0 -17 27zM210 579q16 89 84 136l-1 -9q-57 -46 -66 -117h4q8 0 12.5 -5.5t3.5 -13.5q-2 -7 -7.5 -12.5t-12.5 -5.5q-22 0 -17 27z" />
    <glyph glyph-name="quotedblright" unicode="&#x201d;" horiz-adv-x="238" 
d="M143 715q22 0 17 -27q-16 -89 -84 -136l1 9q57 46 66 117h-4q-8 0 -12.5 5.5t-3.5 13.5q2 7 7.5 12.5t12.5 5.5zM254 715q22 0 17 -27q-16 -89 -84 -136l1 9q57 46 66 117h-4q-8 0 -12.5 5.5t-3.5 13.5q2 7 7.5 12.5t12.5 5.5z" />
    <glyph glyph-name="quotedblbase" unicode="&#x201e;" horiz-adv-x="238" 
d="M21 31q22 0 17 -27q-16 -89 -84 -136l1 9q57 46 66 117h-4q-8 0 -12.5 5.5t-3.5 13.5q2 7 7.5 12.5t12.5 5.5zM132 31q22 0 17 -27q-16 -89 -84 -136l1 9q57 46 66 117h-4q-8 0 -12.5 5.5t-3.5 13.5q2 7 7.5 12.5t12.5 5.5z" />
    <glyph glyph-name="dagger" unicode="&#x2020;" horiz-adv-x="438" 
d="M271 522h190l-1 -8h-190l-103 -581h-8l103 581h-190l1 8h190l40 226h8z" />
    <glyph glyph-name="daggerdbl" unicode="&#x2021;" horiz-adv-x="438" 
d="M271 522h190l-1 -8h-190l-62 -347h190l-1 -8h-190l-40 -226h-8l40 226h-190l1 8h190l62 347h-190l1 8h190l40 226h8z" />
    <glyph glyph-name="bullet" unicode="&#x2022;" horiz-adv-x="349" 
d="M195 367q47 0 74 -33t19 -80q-8 -46 -46.5 -79t-84.5 -33q-48 0 -75 33t-19 81q8 46 47 78.5t85 32.5z" />
    <glyph glyph-name="ellipsis" unicode="&#x2026;" horiz-adv-x="421" 
d="M34 33q21 0 18 -22q-4 -19 -23 -19q-9 0 -14 6t-4 15q1 8 8 14t15 6zM171 33q21 0 18 -22q-4 -19 -23 -19q-9 0 -14 6t-4 15q1 8 8 14t15 6zM308 33q21 0 18 -22q-4 -19 -23 -19q-9 0 -14 6t-4 15q1 8 8 14t15 6z" />
    <glyph glyph-name="perthousand" unicode="&#x2030;" horiz-adv-x="1143" 
d="M282 756q65 0 98 -44.5t20 -121.5q-13 -76 -62 -120.5t-112 -44.5q-64 0 -97.5 45t-20.5 122q13 75 62 119.5t112 44.5zM59 0h-10l706 748h10zM283 748q-60 0 -107.5 -43t-59.5 -115t19 -114.5t90 -42.5q60 0 107.5 43.5t59.5 115.5q13 72 -18.5 114t-90.5 42zM587 323
q65 0 98 -44.5t20 -121.5q-14 -76 -62.5 -120.5t-111.5 -44.5q-64 0 -98 45t-20 122q13 75 62 119.5t112 44.5zM960 323q65 0 98 -44.5t20 -121.5q-14 -76 -62.5 -120.5t-111.5 -44.5q-64 0 -98 45t-20 122q13 75 62 119.5t112 44.5zM587 315q-60 0 -107 -42.5t-59 -115.5
q-13 -72 18.5 -114.5t90.5 -42.5q61 0 107.5 43t59.5 116q12 72 -19.5 114t-90.5 42zM960 315q-60 0 -107 -42.5t-59 -115.5q-13 -72 18.5 -114.5t90.5 -42.5q61 0 107.5 43t59.5 116q12 72 -19.5 114t-90.5 42z" />
    <glyph glyph-name="guilsinglleft" unicode="&#x2039;" horiz-adv-x="266" 
d="M275 441l-247 -193l179 -193l-7 -6l-185 199l255 199z" />
    <glyph glyph-name="guilsinglright" unicode="&#x203a;" horiz-adv-x="266" 
d="M251 248l-255 -199l-5 6l247 193l-179 193l7 6z" />
    <glyph glyph-name="fraction" unicode="&#x2044;" horiz-adv-x="164" 
d="M-234 0h-10l686 748h10z" />
    <glyph glyph-name="Euro" unicode="&#x20ac;" horiz-adv-x="706" 
d="M513 748q-121 0 -217 -74.5t-143 -204.5h421l-5 -8h-418q-16 -44 -23 -89q-8 -48 -8 -84h345l-5 -8h-340q0 -130 70.5 -205t188.5 -75q130 0 226 73l4 -6q-96 -75 -229 -75q-123 0 -196 77t-73 211h-101l5 8h96q2 41 9 86q7 41 22 87h-100l5 8h98q46 133 145 210t222 77
q126 0 197 -66l-6 -8q-68 66 -190 66z" />
    <glyph glyph-name="trademark" unicode="&#x2122;" horiz-adv-x="864" 
d="M811 389h-8l59 335l-238 -335l-121 335l-59 -335h-8l64 367l126 -350l249 350zM439 740h-150l-61 -351h-8l61 351h-149l2 8h307z" />
    <glyph glyph-name="estimated" unicode="&#x212e;" horiz-adv-x="627" 
d="M328 533q104 0 176 -67.5t72 -179.5h-448v-170q0 -28 16 -42q80 -74 184 -74q76 0 137.5 36.5t98.5 93.5l7 -5q-42 -62 -105 -97.5t-138 -35.5q-114 0 -193.5 76t-79.5 191q0 119 79.5 196.5t193.5 77.5zM328 525q-103 0 -183 -70q-17 -14 -17 -38v-123h375v129
q0 21 -4 30t-17 20q-67 52 -154 52z" />
    <glyph glyph-name="partialdiff" unicode="&#x2202;" horiz-adv-x="611" 
d="M385 756q48 0 84 -18t56.5 -46t32 -71.5t14 -86.5t-1.5 -99.5t-10.5 -101t-16.5 -100.5q-19 -109 -100 -176t-186 -67q-107 0 -164.5 67.5t-38.5 177.5q19 109 101 177t187 68q88 0 143.5 -47.5t61.5 -128.5q9 59 13 107.5t4 102t-10.5 93.5t-30 73t-54.5 50.5t-83 17.5
q-111 0 -216 -87l-5 5q104 90 220 90zM257 -2q102 0 180.5 64.5t97.5 171.5l1 3q17 103 -39.5 169t-154.5 66q-102 0 -181.5 -67t-98.5 -172q-18 -105 37.5 -170t157.5 -65z" />
    <glyph glyph-name="product" unicode="&#x220f;" horiz-adv-x="620" 
d="M671 740h-112l-159 -904h-8l159 904h-310l-159 -904h-8l159 904h-112l2 8h550z" />
    <glyph glyph-name="summation" unicode="&#x2211;" horiz-adv-x="600" 
d="M632 740h-483l213 -366l-342 -366h483l-1 -8h-495l1 6l344 368l-214 368l1 6h495z" />
    <glyph glyph-name="minus" unicode="&#x2212;" horiz-adv-x="544" 
d="M529 365h-474l2 8h474z" />
    <glyph glyph-name="radical" unicode="&#x221a;" horiz-adv-x="578" 
d="M611 693l-367 -770l-67 369l-137 -83l-4 7l148 90l65 -356l354 745z" />
    <glyph glyph-name="infinity" unicode="&#x221e;" horiz-adv-x="801" 
d="M645 480q73 0 109.5 -49.5t23.5 -123.5q-13 -73 -67 -122.5t-125 -49.5q-107 0 -175 123l-23 42l-41 -42q-100 -105 -186 -105q-66 0 -98 44t-20 111q12 65 59 109.5t111 44.5q94 0 153 -106l24 -44l32 35q59 64 111.5 98.5t111.5 34.5zM645 472q-58 0 -107.5 -33
t-110.5 -97l-33 -36l24 -43q69 -120 167 -120q69 0 121 48t64 118q12 68 -23 115.5t-102 47.5zM214 454q-61 0 -106.5 -43t-56.5 -105t19 -103.5t90 -41.5q84 0 182 102l42 43l-25 45q-58 103 -145 103z" />
    <glyph glyph-name="integral" unicode="&#x222b;" horiz-adv-x="344" 
d="M364 756q26 0 57 -7l-4 -8q-28 7 -52 7q-57 0 -82.5 -30.5t-39.5 -110.5l-110 -622q-15 -88 -44.5 -122t-92.5 -34q-28 0 -58 7l3 8q30 -7 54 -7q60 0 88 32t42 116l110 622q15 84 42 116.5t87 32.5z" />
    <glyph glyph-name="approxequal" unicode="&#x2248;" horiz-adv-x="525" 
d="M531 518l5 -5q-37 -37 -69 -54.5t-79 -17.5q-34 0 -60.5 11t-39.5 23.5t-33.5 23.5t-44.5 11q-41 0 -68.5 -15t-66.5 -51l-5 5q39 37 68 53t71 16q32 0 56.5 -17t52.5 -34.5t69 -17.5q46 0 76.5 16t67.5 53zM492 298l6 -5q-38 -38 -70.5 -55t-78.5 -17q-34 0 -60.5 11
t-39.5 23.5t-33.5 23.5t-44.5 11q-41 0 -68.5 -15t-66.5 -51l-5 5q39 37 68 53t71 16q26 0 47.5 -11t35 -23.5t38.5 -23.5t57 -11q46 0 76.5 16t67.5 53z" />
    <glyph glyph-name="notequal" unicode="&#x2260;" horiz-adv-x="544" 
d="M359 478l-143 -225h294l-2 -8h-298l-93 -146l-7 3l91 143h-167l2 8h170l144 225h-275l2 8h278l94 147l7 -4l-91 -143h186l-2 -8h-190z" />
    <glyph glyph-name="lessequal" unicode="&#x2264;" horiz-adv-x="492" 
d="M519 603l-443 -179l380 -179l-4 -7l-396 186l461 186zM440 154h-432l1 8h432z" />
    <glyph glyph-name="greaterequal" unicode="&#x2265;" horiz-adv-x="492" 
d="M498 424l-462 -186l-2 7l444 179l-381 179l4 7zM450 154h-432l1 8h432z" />
    <glyph glyph-name="lozenge" unicode="&#x25ca;" horiz-adv-x="507" 
d="M479 346l-277 -401h-4l-136 401l278 402h4zM71 346l132 -386l267 386l-131 387z" />
    <glyph glyph-name="fl" unicode="&#xfb02;" horiz-adv-x="516" 
d="M354 779q13 0 23 -2l-1 -8q-12 2 -21 2q-60 0 -100 -36.5t-52 -106.5l-23 -128h144l-1 -8h-144l-87 -492h-8l87 492h-108l1 8h108l23 128q12 74 54.5 112.5t104.5 38.5zM365 0h-8l137 777h8z" />
    <glyph glyph-name="n.001" horiz-adv-x="595" 
d="M304 508q82 0 135 -55t53 -140v-313h-8v313q0 82 -51 134.5t-129 52.5q-82 0 -135.5 -56t-53.5 -131v-313h-8v500h8v-132q13 56 65 98t124 42z" />
    <glyph glyph-name="germandbls.cap" horiz-adv-x="671" 
d="M404 756q78 0 126.5 -31t84.5 -83l-191 -206q224 -37 191 -227q-18 -101 -98.5 -159t-195.5 -58q-46 0 -71 6l3 8q25 -6 67 -6q113 0 191 56t96 155q32 184 -198 220l195 211q-35 48 -80.5 77t-118.5 29q-87 0 -155.5 -51t-82.5 -129l-100 -568h-8l100 568
q14 82 84.5 135t160.5 53z" />
    <glyph glyph-name="a.sups" horiz-adv-x="511" 
d="M324 755q67 0 110 -34t49 -104l23 131h8l-71 -400h-8l18 104q-25 -52 -73.5 -81t-112.5 -29q-83 0 -129.5 55t-32.5 152q13 96 75 151t144 55zM326 747q-80 0 -140 -53t-74 -147q-12 -93 32.5 -145t123.5 -52q78 0 132 45t67 135l6 33q13 90 -29 137t-118 47z" />
    <glyph glyph-name="b.sups" horiz-adv-x="511" 
d="M220 970l-57 -325q25 52 73.5 81t112.5 29q83 0 129.5 -55t32.5 -152q-13 -96 -75 -151t-144 -55q-67 0 -110 34t-49 104l-23 -131h-8l110 621h8zM348 747q-78 0 -132 -45t-67 -135l-6 -33q-13 -90 29 -137t118 -47q80 0 140 53t74 147q12 93 -32.5 145t-123.5 52z" />
    <glyph glyph-name="c.sups" horiz-adv-x="447" 
d="M318 755q70 0 111 -39t39 -105h-8q1 63 -37.5 99.5t-103.5 36.5q-79 0 -136 -53t-71 -147q-13 -92 30.5 -144.5t120.5 -52.5q66 0 113 32.5t65 91.5l8 -1q-19 -62 -68 -96.5t-118 -34.5q-82 0 -127 54.5t-31 152.5q13 96 72.5 151t140.5 55z" />
    <glyph glyph-name="d.sups" horiz-adv-x="511" 
d="M443 348h-8l18 104q-25 -52 -73.5 -81t-112.5 -29q-83 0 -129.5 55t-32.5 152q13 96 75 151t144 55q67 0 110 -34t49 -104l62 353h8zM326 747q-80 0 -140 -53t-74 -147q-12 -93 32.5 -145t123.5 -52q78 0 132 45t67 135l6 33q13 90 -29 137t-118 47z" />
    <glyph glyph-name="e.sups" horiz-adv-x="465" 
d="M321 755q84 0 122.5 -53.5t26.5 -139.5l-2 -14h-355q-14 -93 29 -145.5t122 -52.5q64 0 111 30t69 83l7 -1q-23 -57 -71.5 -88.5t-115.5 -31.5q-82 0 -127.5 55t-31.5 152q13 96 73.5 151t142.5 55zM462 555l1 7q12 82 -24.5 133.5t-116.5 51.5q-78 0 -136 -51t-72 -141
h348z" />
    <glyph glyph-name="f.sups" horiz-adv-x="236" 
d="M336 971q6 0 12 -0.5t7 -0.5l-1 -8q-4 1 -16 1q-48 0 -80 -29t-42 -84l-18 -102h115l-2 -8h-115l-69 -392h-8l69 392h-86l2 8h86l18 102q10 59 44 90t84 31z" />
    <glyph glyph-name="g.sups" horiz-adv-x="511" 
d="M324 755q67 0 110 -34t49 -104l23 131h8l-77 -433q-15 -84 -71 -130.5t-137 -46.5q-70 0 -111.5 35t-46.5 91h9q3 -54 45 -86.5t103 -32.5q77 0 132 45t69 125l24 137q-25 -52 -73.5 -81t-112.5 -29q-83 0 -129.5 55t-32.5 152q13 96 75 151t144 55zM326 747
q-80 0 -140 -53t-74 -147q-12 -93 32.5 -145t123.5 -52q78 0 132 45t67 135l6 33q13 90 -29 137t-118 47z" />
    <glyph glyph-name="h.sups" horiz-adv-x="468" 
d="M220 970l-58 -326q19 45 65.5 78t104.5 33q65 0 100.5 -44t23.5 -112l-45 -251h-8l44 250q12 66 -20.5 107.5t-94.5 41.5q-65 0 -116 -44.5t-62 -104.5l-44 -250h-8l110 622h8z" />
    <glyph glyph-name="i.sups" horiz-adv-x="180" 
d="M208 926q6 0 10 -4.5t3 -10.5q-4 -13 -16 -13q-15 0 -12 15q1 5 5.5 9t9.5 4zM111 348h-8l71 400h8z" />
    <glyph glyph-name="j.sups" horiz-adv-x="180" 
d="M207 926q7 0 11 -4.5t3 -10.5q-4 -13 -17 -13q-14 0 -11 15q1 5 5.5 9t8.5 4zM182 748l-86 -486q-20 -120 -118 -120q-9 0 -21 2l2 8q12 -2 17 -2q93 0 112 111l86 487h8z" />
    <glyph glyph-name="k.sups" horiz-adv-x="383" 
d="M142 529l277 219h11l-222 -177l178 -223h-11l-174 218l-61 -48l-30 -170h-8l110 622h8z" />
    <glyph glyph-name="l.sups" horiz-adv-x="178" 
d="M110 348h-8l110 622h8z" />
    <glyph glyph-name="m.sups" horiz-adv-x="753" 
d="M614 755q65 0 98 -43.5t21 -112.5l-45 -251h-9l44 250q12 66 -17.5 107.5t-90.5 41.5t-108.5 -40t-61.5 -97l-2 -11l-45 -251h-8l44 250q12 66 -17.5 107.5t-90.5 41.5q-65 0 -113 -44t-59 -105l-44 -250h-8l71 400h8l-19 -104q19 45 62.5 78t100.5 33q55 0 87 -32
t34 -86q21 53 66 85.5t102 32.5z" />
    <glyph glyph-name="n.sups" horiz-adv-x="476" 
d="M332 755q65 0 100.5 -44t23.5 -112l-45 -251h-8l44 250q12 66 -20.5 107.5t-94.5 41.5q-65 0 -116 -44.5t-62 -104.5l-44 -250h-8l71 400h8l-19 -104q19 45 65.5 78t104.5 33z" />
    <glyph glyph-name="o.sups" horiz-adv-x="497" 
d="M329 755q85 0 133 -56t35 -152q-12 -94 -76.5 -149.5t-148.5 -55.5t-132 55.5t-35 151.5q12 94 76.5 150t147.5 56zM330 747q-81 0 -142.5 -54t-75.5 -146q-12 -90 34 -143.5t126 -53.5q81 0 143 53.5t75 145.5q13 90 -33.5 144t-126.5 54z" />
    <glyph glyph-name="p.sups" horiz-adv-x="511" 
d="M349 755q83 0 129.5 -55t32.5 -152q-13 -96 -75 -151t-144 -55q-67 0 -110 34t-49 104l-59 -336h-8l107 605h8l-18 -104q25 52 73.5 81t112.5 29zM348 747q-78 0 -132 -45t-67 -135l-6 -33q-13 -90 29 -137t118 -47q80 0 140 53t74 147q12 93 -32.5 145t-123.5 52z" />
    <glyph glyph-name="q.sups" horiz-adv-x="511" 
d="M324 755q67 0 110 -34t49 -104l23 131h8l-107 -604h-8l54 308q-25 -52 -73.5 -81t-112.5 -29q-83 0 -129.5 55t-32.5 152q13 96 75 151t144 55zM326 747q-80 0 -140 -53t-74 -147q-12 -93 32.5 -145t123.5 -52q78 0 132 45t67 135l6 33q13 90 -29 137t-118 47z" />
    <glyph glyph-name="r.sups" horiz-adv-x="233" 
d="M310 755l-1 -8q-58 0 -100.5 -39.5t-51.5 -93.5l-47 -266h-8l71 400h8l-16 -89q16 39 55.5 67.5t89.5 28.5z" />
    <glyph glyph-name="s.sups" horiz-adv-x="392" 
d="M277 754q55 0 83 -26.5t27 -73.5l-8 -1q2 44 -24.5 69t-76.5 25q-60 0 -95 -27t-43 -73q-4 -22 0.5 -36.5t18 -23t29.5 -13.5t40 -10l15 -3q75 -17 103 -38.5t20 -71.5q-9 -55 -51 -82t-103 -27q-58 0 -91.5 26t-34.5 76l8 1q0 -47 32 -71.5t85 -24.5q59 0 99 26t49 78
q8 45 -18.5 64t-99.5 36q-68 16 -85 26q-33 21 -24 70q9 48 46 76.5t99 28.5z" />
    <glyph glyph-name="t.sups" horiz-adv-x="229" 
d="M176 740l-51 -280q-19 -107 65 -107q21 0 46 5l-1 -8q-13 -4 -44 -4q-95 0 -74 114l51 280h-78l2 8h77l27 146h8l-27 -146h127l-2 -8h-126z" />
    <glyph glyph-name="u.sups" horiz-adv-x="461" 
d="M393 348h-8l18 101q-19 -45 -61 -76t-100 -31q-64 0 -96 43.5t-20 112.5l44 250h8l-44 -250q-12 -66 17.5 -107t90.5 -41q65 0 112 43.5t58 104.5l44 250h8z" />
    <glyph glyph-name="v.sups" horiz-adv-x="381" 
d="M207 342l-105 406h9l99 -386l235 386h10z" />
    <glyph glyph-name="w.sups" horiz-adv-x="629" 
d="M480 364l214 384h9l-226 -406l-76 391l-217 -391l-82 406h9l76 -384l217 391z" />
    <glyph glyph-name="x.sups" horiz-adv-x="373" 
d="M246 556l124 -208h-9l-121 203l-192 -203h-11l198 210l-114 190h10l110 -185l176 185h11z" />
    <glyph glyph-name="y.sups" horiz-adv-x="381" 
d="M90 144h-9l123 209l-94 395h8l92 -386l228 386h9z" />
    <glyph glyph-name="z.sups" horiz-adv-x="351" 
d="M55 356h290l-2 -8h-306l349 392h-270l2 8h286z" />
    <glyph glyph-name="zero.onum" horiz-adv-x="636" 
d="M379 601q116 0 168.5 -81.5t27.5 -224.5q-25 -141 -105 -222t-196 -81q-117 0 -169.5 81.5t-27.5 223.5t105 223t197 81zM379 593q-114 0 -191.5 -79t-102.5 -219q-24 -137 25.5 -216t162.5 -79q114 0 192 79.5t102 217.5q25 137 -25.5 216.5t-162.5 79.5z" />
    <glyph glyph-name="one.onum" horiz-adv-x="343" 
d="M189 0h-8l102 580l-219 -164l-4 6l234 176z" />
    <glyph glyph-name="two.onum" horiz-adv-x="528" 
d="M333 598q95 0 137 -48t26 -138q-7 -38 -25 -71t-52 -64t-56.5 -48t-68.5 -49l-252 -172h397l-1 -8h-422l274 187q36 25 53 37t47.5 37t46 44.5t31 48.5t20.5 60q15 86 -24 131t-130 45q-96 0 -158.5 -55t-82.5 -155h-8q20 103 84.5 160.5t163.5 57.5z" />
    <glyph glyph-name="three.onum" horiz-adv-x="542" 
d="M317 598q89 0 134 -50.5t31 -136.5q-12 -71 -63 -120.5t-117 -59.5q78 -8 119 -58.5t27 -134.5q-14 -92 -80.5 -148t-163.5 -56q-98 0 -146.5 54.5t-43.5 153.5h8q-4 -96 41.5 -148t139.5 -52q95 0 159.5 54t78.5 144q15 90 -36 138t-147 48h-68l1 8h68q78 0 140.5 50
t75.5 129q13 82 -30.5 129.5t-126.5 47.5q-86 0 -145.5 -50t-80.5 -140h-8q22 93 83 145.5t150 52.5z" />
    <glyph glyph-name="four.onum" horiz-adv-x="586" 
d="M367 88h161l-1 -8h-161l-42 -238h-8l42 238h-368l467 518zM7 88h352l86 485z" />
    <glyph glyph-name="five.onum" horiz-adv-x="545" 
d="M145 582l-64 -368q93 66 190 66q98 0 148.5 -61.5t33.5 -160.5q-16 -98 -82.5 -161t-167.5 -63q-97 0 -144.5 54.5t-43.5 153.5h8q-4 -95 41.5 -147.5t137.5 -52.5q99 0 163.5 61.5t79.5 156.5q17 94 -31.5 153t-141.5 59q-97 0 -193 -68h-8l68 386h380l-2 -8h-372z" />
    <glyph glyph-name="six.onum" horiz-adv-x="571" 
d="M314 457q100 0 156.5 -63.5t39.5 -170.5q-16 -105 -92 -168t-175 -63q-101 0 -157.5 63.5t-39.5 169.5q14 89 68 146l11 11l360 366h11l-326 -331q66 40 144 40zM503 225q16 101 -38 162.5t-150 61.5q-112 0 -191 -79q-56 -56 -71 -147q-16 -101 38 -162t151 -61
t170.5 61.5t90.5 163.5z" />
    <glyph glyph-name="seven.onum" horiz-adv-x="538" 
d="M17 -158h-10l557 740h-482l2 8h496z" />
    <glyph glyph-name="eight.onum" horiz-adv-x="578" 
d="M366 756q89 0 139 -50.5t36 -137.5q-12 -73 -62.5 -120t-122.5 -60q74 -12 113.5 -64.5t27.5 -132.5q-15 -91 -85 -145t-164 -54q-95 0 -149 54.5t-40 146.5q12 80 67 131t135 64q-67 13 -103 61t-24 121q14 86 79 136t153 50zM367 748q-86 0 -149.5 -48.5t-75.5 -131.5
q-12 -81 35 -128.5t132 -47.5t148.5 48.5t75.5 129.5q13 81 -34 129.5t-132 48.5zM310 384q-92 0 -160.5 -52t-82.5 -141q-14 -87 37.5 -139t142.5 -52q92 0 160 52.5t82 140.5t-37 139.5t-142 51.5z" />
    <glyph glyph-name="nine.onum" horiz-adv-x="571" 
d="M340 598q101 0 157.5 -63.5t39.5 -169.5q-14 -89 -68 -146l-11 -11l-360 -366h-11l326 331q-66 -40 -144 -40q-100 0 -156.5 63.5t-39.5 170.5q16 105 92 168t175 63zM530 367q16 101 -38 162t-151 61t-170.5 -61.5t-90.5 -163.5q-16 -101 38 -162.5t150 -61.5
q112 0 191 79q56 56 71 147z" />
    <glyph glyph-name="zero.slash" horiz-adv-x="636" 
d="M561 676l-2 -3q62 -99 31 -300q-29 -182 -110 -281.5t-199 -99.5q-104 0 -155 74l-1 -2l-6 4l3 4q-64 98 -32 303q29 182 110 281.5t199 99.5q105 0 156 -77l2 3zM98 373q-31 -197 29 -294l423 593q-50 76 -150 76q-115 0 -194 -96.5t-108 -278.5zM582 375
q31 194 -28 291l-423 -593q50 -73 149 -73q115 0 194 96.5t108 278.5z" />
    <glyph glyph-name="zero.subs" horiz-adv-x="367" 
d="M193 336q66 0 93.5 -55t9.5 -156q-18 -100 -64 -154.5t-111 -54.5q-66 0 -93 54.5t-9 156.5q18 100 63.5 154.5t110.5 54.5zM194 328q-62 0 -105.5 -52t-61.5 -151q-17 -97 8 -149t86 -52q62 0 106 52t61 151q18 97 -7.5 149t-86.5 52z" />
    <glyph glyph-name="one.subs" horiz-adv-x="207" 
d="M76 -80h-8l70 398l-117 -86l-4 6l132 98z" />
    <glyph glyph-name="two.subs" horiz-adv-x="307" 
d="M167 336q53 0 75.5 -31t13.5 -83q-8 -49 -36 -87.5t-82 -84.5l-142 -122h216l-1 -8h-235l156 135q53 46 80.5 83t35.5 85q8 47 -12.5 76t-67.5 29q-52 0 -86 -30t-44 -83l-8 1q11 57 47 88.5t90 31.5z" />
    <glyph glyph-name="three.subs" horiz-adv-x="315" 
d="M169 336q50 0 74 -28t16 -76q-6 -37 -34.5 -64.5t-60.5 -33.5q39 -5 60 -32.5t13 -73.5q-9 -51 -47 -81.5t-91 -30.5q-109 0 -103 114l8 1q-2 -52 22 -79.5t73 -27.5q52 0 87 28.5t43 77.5q9 48 -18 73.5t-79 25.5h-37l1 8h37q42 0 76.5 27t41.5 70q8 44 -14.5 69
t-66.5 25q-47 0 -80 -27t-44 -75h-8q13 51 47.5 80.5t83.5 29.5z" />
    <glyph glyph-name="four.subs" horiz-adv-x="339" 
d="M201 55h87l-2 -8h-87l-22 -127h-8l22 127h-202l261 289zM7 55h186l45 256z" />
    <glyph glyph-name="five.subs" horiz-adv-x="317" 
d="M75 323l-34 -196q49 35 104 35q54 0 81 -33.5t17 -89.5q-9 -54 -47 -88.5t-94 -34.5q-54 0 -79.5 30t-22.5 84h8q-2 -50 21.5 -78t72.5 -28q54 0 89 33t44 84q9 50 -16.5 81.5t-74.5 31.5q-53 0 -105 -36h-8l37 213h210l-1 -8h-202z" />
    <glyph glyph-name="six.subs" horiz-adv-x="332" 
d="M149 173q57 0 87 -35t20 -95q-10 -58 -53 -92.5t-98 -34.5q-57 0 -87 35t-20 94q7 46 39 79l8 8l193 199h10l-170 -175q32 17 71 17zM248 45q10 54 -18 87t-81 33q-61 0 -102 -41l-1 -1q-33 -33 -40 -80q-10 -54 19 -86.5t80 -32.5q53 0 93 33t50 88z" />
    <glyph glyph-name="seven.subs" horiz-adv-x="313" 
d="M4 -80h-10l301 403h-259l1 8h274z" />
    <glyph glyph-name="eight.subs" horiz-adv-x="335" 
d="M179 336q49 0 76 -28.5t19 -76.5q-6 -37 -31.5 -62t-58.5 -35q34 -10 52 -38t10 -71q-9 -50 -48 -79.5t-91 -29.5q-54 0 -83.5 30t-19.5 81q8 43 36 70t65 37q-69 25 -57 99q8 47 45 75t86 28zM180 328q-47 0 -81.5 -26t-42.5 -71q-8 -44 17 -68.5t71 -24.5t80 25.5
t42 69.5t-17 69.5t-69 25.5zM145 130q-51 0 -88 -27.5t-45 -76.5q-9 -47 18.5 -74.5t76.5 -27.5q50 0 86.5 27.5t45.5 76.5q8 47 -19 74.5t-75 27.5z" />
    <glyph glyph-name="nine.subs" horiz-adv-x="332" 
d="M179 335q57 0 87.5 -35t19.5 -94q-8 -47 -39 -80l-9 -9l-192 -197h-10l170 174q-34 -16 -70 -16q-57 0 -87.5 35.5t-19.5 94.5q10 58 52.5 92.5t97.5 34.5zM279 208q10 54 -19 86.5t-80 32.5q-53 0 -93.5 -33t-50.5 -88q-10 -54 18 -87t81 -33q62 0 104 42q31 33 40 80z
" />
    <glyph glyph-name="zero.sups" horiz-adv-x="367" 
d="M281 818q66 0 93.5 -55t9.5 -156q-18 -100 -64 -154.5t-111 -54.5q-66 0 -93 54.5t-9 156.5q18 100 63.5 154.5t110.5 54.5zM282 810q-62 0 -105.5 -52t-61.5 -151q-17 -97 8 -149t86 -52q62 0 106 52t61 151q18 97 -7.5 149t-86.5 52z" />
    <glyph glyph-name="one.sups" horiz-adv-x="207" 
d="M164 402h-8l70 398l-117 -86l-4 6l132 98z" />
    <glyph glyph-name="two.sups" horiz-adv-x="307" 
d="M253 818q53 0 75.5 -31t13.5 -83q-8 -49 -36 -87.5t-82 -84.5l-142 -122h216l-1 -8h-235l156 135q53 46 80.5 83t35.5 85q8 47 -12.5 76t-67.5 29q-52 0 -86 -30t-44 -83l-8 1q11 57 47 88.5t90 31.5z" />
    <glyph glyph-name="three.sups" horiz-adv-x="315" 
d="M250 818q50 0 74 -28t16 -76q-6 -37 -34.5 -64.5t-60.5 -33.5q39 -5 60 -32.5t13 -73.5q-9 -51 -47 -81.5t-91 -30.5q-109 0 -103 114l8 1q-2 -52 22 -79.5t73 -27.5q52 0 87 28.5t43 77.5q9 48 -18 73.5t-79 25.5h-37l1 8h37q42 0 76.5 27t41.5 70q8 44 -14.5 69
t-66.5 25q-47 0 -80 -27t-44 -75h-8q13 51 47.5 80.5t83.5 29.5z" />
    <glyph glyph-name="four.sups" horiz-adv-x="339" 
d="M279 537h87l-2 -8h-87l-22 -127h-8l22 127h-202l261 289zM85 537h186l45 256z" />
    <glyph glyph-name="five.sups" horiz-adv-x="317" 
d="M153 805l-34 -196q49 35 104 35q54 0 81 -33.5t17 -89.5q-9 -54 -47 -88.5t-94 -34.5q-54 0 -79.5 30t-22.5 84h8q-2 -50 21.5 -78t72.5 -28q54 0 89 33t44 84q9 50 -16.5 81.5t-74.5 31.5q-53 0 -105 -36h-8l37 213h210l-1 -8h-202z" />
    <glyph glyph-name="six.sups" horiz-adv-x="332" 
d="M234 655q57 0 87 -35t20 -95q-10 -58 -53 -92.5t-98 -34.5q-57 0 -87 35t-20 94q7 46 39 79l8 8l193 199h10l-170 -175q32 17 71 17zM333 527q10 54 -18 87t-81 33q-61 0 -102 -41l-1 -1q-33 -33 -40 -80q-10 -54 19 -86.5t80 -32.5q53 0 93 33t50 88z" />
    <glyph glyph-name="seven.sups" horiz-adv-x="313" 
d="M85 402h-10l301 403h-259l1 8h274z" />
    <glyph glyph-name="eight.sups" horiz-adv-x="335" 
d="M263 818q49 0 76 -28.5t19 -76.5q-6 -37 -31.5 -62t-58.5 -35q34 -10 52 -38t10 -71q-9 -50 -48 -79.5t-91 -29.5q-54 0 -83.5 30t-19.5 81q8 43 36 70t65 37q-69 25 -57 99q8 47 45 75t86 28zM264 810q-47 0 -81.5 -26t-42.5 -71q-8 -44 17 -68.5t71 -24.5t80 25.5
t42 69.5t-17 69.5t-69 25.5zM229 612q-51 0 -88 -27.5t-45 -76.5q-9 -47 18.5 -74.5t76.5 -27.5q50 0 86.5 27.5t45.5 76.5q8 47 -19 74.5t-75 27.5z" />
    <glyph glyph-name="nine.sups" horiz-adv-x="332" 
d="M262 817q57 0 87.5 -35t19.5 -94q-8 -47 -39 -80l-9 -9l-192 -197h-10l170 174q-34 -16 -70 -16q-57 0 -87.5 35.5t-19.5 94.5q10 58 52.5 92.5t97.5 34.5zM362 690q10 54 -19 86.5t-80 32.5q-53 0 -93.5 -33t-50.5 -88q-10 -54 18 -87t81 -33q62 0 104 42q31 33 40 80z
" />
    <glyph glyph-name="zero.tnum" horiz-adv-x="650" 
d="M403 756q119 0 169.5 -100t21.5 -283q-29 -182 -110 -281.5t-199 -99.5q-120 0 -170 99.5t-21 283.5q29 182 110 281.5t199 99.5zM404 748q-115 0 -194 -96.5t-108 -278.5q-29 -180 19.5 -276.5t162.5 -96.5q115 0 194 96.5t108 278.5q29 180 -20 276.5t-162 96.5z" />
    <glyph glyph-name="one.tnum" horiz-adv-x="650" 
d="M322 8h190l-1 -8h-398l1 8h200l129 730l-240 -181l-4 6l255 193z" />
    <glyph glyph-name="two.tnum" horiz-adv-x="650" 
d="M415 756q93 0 134 -56.5t25 -149.5q-16 -90 -67.5 -160.5t-151.5 -154.5l-265 -227h403l-1 -8h-422l281 241q99 84 149.5 153t65.5 158q16 88 -22.5 142t-127.5 54q-96 0 -158.5 -55.5t-82.5 -154.5h-8q20 103 85 160.5t163 57.5z" />
    <glyph glyph-name="three.tnum" horiz-adv-x="650" 
d="M410 756q89 0 134 -50.5t31 -136.5q-12 -71 -63 -120.5t-117 -59.5q78 -8 119 -58.5t27 -134.5q-14 -92 -80.5 -148t-163.5 -56q-98 0 -146.5 54.5t-43.5 153.5h8q-4 -96 41.5 -148t139.5 -52q95 0 159.5 54t78.5 144q15 90 -36 138t-147 48h-68l1 8h68q78 0 140.5 50
t75.5 129q13 82 -30.5 129.5t-126.5 47.5q-86 0 -145.5 -50t-80.5 -140h-8q22 93 83 145.5t150 52.5z" />
    <glyph glyph-name="four.tnum" horiz-adv-x="650" 
d="M424 246h161l-1 -8h-161l-42 -238h-8l42 238h-368l467 518zM64 246h352l86 485z" />
    <glyph glyph-name="five.tnum" horiz-adv-x="650" 
d="M222 740l-64 -368q93 66 190 66q98 0 148.5 -61.5t33.5 -160.5q-16 -98 -82.5 -161t-167.5 -63q-97 0 -144.5 54.5t-43.5 153.5h8q-4 -95 41.5 -147.5t137.5 -52.5q99 0 163.5 61.5t79.5 156.5q17 94 -31.5 153t-141.5 59q-97 0 -193 -68h-8l68 386h380l-2 -8h-372z" />
    <glyph glyph-name="six.tnum" horiz-adv-x="650" 
d="M351 457q100 0 156.5 -63.5t39.5 -170.5q-16 -105 -92 -168t-175 -63q-101 0 -157.5 63.5t-39.5 169.5q14 89 68 146l11 11l360 366h11l-326 -331q66 40 144 40zM540 225q16 101 -38 162.5t-150 61.5q-112 0 -191 -79q-56 -56 -71 -147q-16 -101 38 -162t151 -61
t170.5 61.5t90.5 163.5z" />
    <glyph glyph-name="seven.tnum" horiz-adv-x="650" 
d="M111 -1h-10l557 740h-482l2 8h496z" />
    <glyph glyph-name="eight.tnum" horiz-adv-x="650" 
d="M402 756q89 0 139 -50.5t36 -137.5q-12 -73 -62.5 -120t-122.5 -60q74 -12 113.5 -64.5t27.5 -132.5q-15 -91 -85 -145t-164 -54q-95 0 -149 54.5t-40 146.5q12 80 67 131t135 64q-67 13 -103 61t-24 121q14 86 79 136t153 50zM403 748q-86 0 -149.5 -48.5t-75.5 -131.5
q-12 -81 35 -128.5t132 -47.5t148.5 48.5t75.5 129.5q13 81 -34 129.5t-132 48.5zM346 384q-92 0 -160.5 -52t-82.5 -141q-14 -87 37.5 -139t142.5 -52q92 0 160 52.5t82 140.5t-37 139.5t-142 51.5z" />
    <glyph glyph-name="nine.tnum" horiz-adv-x="650" 
d="M414 756q101 0 157.5 -63.5t39.5 -169.5q-14 -89 -68 -146l-11 -11l-360 -366h-11l326 331q-66 -40 -144 -40q-100 0 -156.5 63.5t-39.5 170.5q16 105 92 168t175 63zM604 525q16 101 -38 162t-151 61t-170.5 -61.5t-90.5 -163.5q-16 -101 38 -162.5t150 -61.5
q112 0 191 79q56 56 71 147z" />
    <glyph glyph-name="zero.dnom" horiz-adv-x="367" 
d="M211 416q66 0 93.5 -55t9.5 -156q-18 -100 -64 -154.5t-111 -54.5q-66 0 -93 54.5t-9 156.5q18 100 63.5 154.5t110.5 54.5zM212 408q-62 0 -105.5 -52t-61.5 -151q-17 -97 8 -149t86 -52q62 0 106 52t61 151q18 97 -7.5 149t-86.5 52z" />
    <glyph glyph-name="one.dnom" horiz-adv-x="207" 
d="M95 0h-8l70 398l-117 -86l-4 6l132 98z" />
    <glyph glyph-name="two.dnom" horiz-adv-x="307" 
d="M186 416q53 0 75.5 -31t13.5 -83q-8 -49 -36 -87.5t-82 -84.5l-142 -122h216l-1 -8h-235l156 135q53 46 80.5 83t35.5 85q8 47 -12.5 76t-67.5 29q-52 0 -86 -30t-44 -83l-8 1q11 57 47 88.5t90 31.5z" />
    <glyph glyph-name="three.dnom" horiz-adv-x="315" 
d="M184 416q50 0 74 -28t16 -76q-6 -37 -34.5 -64.5t-60.5 -33.5q39 -5 60 -32.5t13 -73.5q-9 -51 -47 -81.5t-91 -30.5q-109 0 -103 114l8 1q-2 -52 22 -79.5t73 -27.5q52 0 87 28.5t43 77.5q9 48 -18 73.5t-79 25.5h-37l1 8h37q42 0 76.5 27t41.5 70q8 44 -14.5 69
t-66.5 25q-47 0 -80 -27t-44 -75h-8q13 51 47.5 80.5t83.5 29.5z" />
    <glyph glyph-name="four.dnom" horiz-adv-x="339" 
d="M209 135h87l-2 -8h-87l-22 -127h-8l22 127h-202l261 289zM15 135h186l45 256z" />
    <glyph glyph-name="five.dnom" horiz-adv-x="317" 
d="M88 403l-34 -196q49 35 104 35q54 0 81 -33.5t17 -89.5q-9 -54 -47 -88.5t-94 -34.5q-54 0 -79.5 30t-22.5 84h8q-2 -50 21.5 -78t72.5 -28q54 0 89 33t44 84q9 50 -16.5 81.5t-74.5 31.5q-53 0 -105 -36h-8l37 213h210l-1 -8h-202z" />
    <glyph glyph-name="six.dnom" horiz-adv-x="332" 
d="M167 253q57 0 87 -35t20 -95q-10 -58 -53 -92.5t-98 -34.5q-57 0 -87 35t-20 94q7 46 39 79l8 8l193 199h10l-170 -175q32 17 71 17zM266 125q10 54 -18 87t-81 33q-61 0 -102 -41l-1 -1q-33 -33 -40 -80q-10 -54 19 -86.5t80 -32.5q53 0 93 33t50 88z" />
    <glyph glyph-name="seven.dnom" horiz-adv-x="313" 
d="M18 0h-10l301 403h-259l1 8h274z" />
    <glyph glyph-name="eight.dnom" horiz-adv-x="335" 
d="M196 416q49 0 76 -28.5t19 -76.5q-6 -37 -31.5 -62t-58.5 -35q34 -10 52 -38t10 -71q-9 -50 -48 -79.5t-91 -29.5q-54 0 -83.5 30t-19.5 81q8 43 36 70t65 37q-69 25 -57 99q8 47 45 75t86 28zM197 408q-47 0 -81.5 -26t-42.5 -71q-8 -44 17 -68.5t71 -24.5t80 25.5
t42 69.5t-17 69.5t-69 25.5zM162 210q-51 0 -88 -27.5t-45 -76.5q-9 -47 18.5 -74.5t76.5 -27.5q50 0 86.5 27.5t45.5 76.5q8 47 -19 74.5t-75 27.5z" />
    <glyph glyph-name="nine.dnom" horiz-adv-x="332" 
d="M195 415q57 0 87.5 -35t19.5 -94q-8 -47 -39 -80l-9 -9l-192 -197h-10l170 174q-34 -16 -70 -16q-57 0 -87.5 35.5t-19.5 94.5q10 58 52.5 92.5t97.5 34.5zM295 288q10 54 -19 86.5t-80 32.5q-53 0 -93.5 -33t-50.5 -88q-10 -54 18 -87t81 -33q62 0 104 42q31 33 40 80z
" />
    <glyph glyph-name="zero.numr" horiz-adv-x="367" 
d="M264 737q66 0 93.5 -55t9.5 -156q-18 -100 -64 -154.5t-111 -54.5q-66 0 -93 54.5t-9 156.5q18 100 63.5 154.5t110.5 54.5zM265 729q-62 0 -105.5 -52t-61.5 -151q-17 -97 8 -149t86 -52q62 0 106 52t61 151q18 97 -7.5 149t-86.5 52z" />
    <glyph glyph-name="one.numr" horiz-adv-x="207" 
d="M148 322h-8l70 398l-117 -86l-4 6l132 98z" />
    <glyph glyph-name="two.numr" horiz-adv-x="307" 
d="M239 738q53 0 75.5 -31t13.5 -83q-8 -49 -36 -87.5t-82 -84.5l-142 -122h216l-1 -8h-235l156 135q53 46 80.5 83t35.5 85q8 47 -12.5 76t-67.5 29q-52 0 -86 -30t-44 -83l-8 1q11 57 47 88.5t90 31.5z" />
    <glyph glyph-name="three.numr" horiz-adv-x="315" 
d="M237 738q50 0 74 -28t16 -76q-6 -37 -34.5 -64.5t-60.5 -33.5q39 -5 60 -32.5t13 -73.5q-9 -51 -47 -81.5t-91 -30.5q-109 0 -103 114l8 1q-2 -52 22 -79.5t73 -27.5q52 0 87 28.5t43 77.5q9 48 -18 73.5t-79 25.5h-37l1 8h37q42 0 76.5 27t41.5 70q8 44 -14.5 69
t-66.5 25q-47 0 -80 -27t-44 -75h-8q13 51 47.5 80.5t83.5 29.5z" />
    <glyph glyph-name="four.numr" horiz-adv-x="339" 
d="M262 457h87l-2 -8h-87l-22 -127h-8l22 127h-202l261 289zM68 457h186l45 256z" />
    <glyph glyph-name="five.numr" horiz-adv-x="317" 
d="M141 725l-34 -196q49 35 104 35q54 0 81 -33.5t17 -89.5q-9 -54 -47 -88.5t-94 -34.5q-54 0 -79.5 30t-22.5 84h8q-2 -50 21.5 -78t72.5 -28q54 0 89 33t44 84q9 50 -16.5 81.5t-74.5 31.5q-53 0 -105 -36h-8l37 213h210l-1 -8h-202z" />
    <glyph glyph-name="six.numr" horiz-adv-x="332" 
d="M220 575q57 0 87 -35t20 -95q-10 -58 -53 -92.5t-98 -34.5q-57 0 -87 35t-20 94q7 46 39 79l8 8l193 199h10l-170 -175q32 17 71 17zM319 447q10 54 -18 87t-81 33q-61 0 -102 -41l-1 -1q-33 -33 -40 -80q-10 -54 19 -86.5t80 -32.5q53 0 93 33t50 88z" />
    <glyph glyph-name="seven.numr" horiz-adv-x="313" 
d="M71 322h-10l301 403h-259l1 8h274z" />
    <glyph glyph-name="eight.numr" horiz-adv-x="335" 
d="M254 738q49 0 76 -28.5t19 -76.5q-6 -37 -31.5 -62t-58.5 -35q34 -10 52 -38t10 -71q-9 -50 -48 -79.5t-91 -29.5q-54 0 -83.5 30t-19.5 81q8 43 36 70t65 37q-69 25 -57 99q8 47 45 75t86 28zM255 730q-47 0 -81.5 -26t-42.5 -71q-8 -44 17 -68.5t71 -24.5t80 25.5
t42 69.5t-17 69.5t-69 25.5zM220 532q-51 0 -88 -27.5t-45 -76.5q-9 -47 18.5 -74.5t76.5 -27.5q50 0 86.5 27.5t45.5 76.5q8 47 -19 74.5t-75 27.5z" />
    <glyph glyph-name="nine.numr" horiz-adv-x="332" 
d="M248 737q57 0 87.5 -35t19.5 -94q-8 -47 -39 -80l-9 -9l-192 -197h-10l170 174q-34 -16 -70 -16q-57 0 -87.5 35.5t-19.5 94.5q10 58 52.5 92.5t97.5 34.5zM348 610q10 54 -19 86.5t-80 32.5q-53 0 -93.5 -33t-50.5 -88q-10 -54 18 -87t81 -33q62 0 104 42q31 33 40 80z
" />
    <glyph glyph-name="exclamdown.cap" horiz-adv-x="221" 
d="M193 715q-21 0 -18 22q4 19 23 19q9 0 14 -6t4 -15q-1 -8 -8 -14t-15 -6zM164 580h8l-102 -580h-8z" />
    <glyph glyph-name="periodcentered.cap" horiz-adv-x="147" 
d="M97 396q21 0 18 -22q-4 -19 -23 -19q-9 0 -14 6t-4 15q1 8 8 14t15 6z" />
    <glyph glyph-name="questiondown.cap" horiz-adv-x="458" 
d="M322 715q-21 0 -18 22q4 19 23 19q9 0 14 -6t4 -15q-1 -8 -8 -14t-15 -6zM184 -8q-97 0 -141 57t-29 144q11 65 44.5 105t103.5 83q64 42 89 78.5t36 96.5l4 24h8l-4 -24q-11 -60 -36 -98.5t-92 -82.5q-66 -41 -100 -80t-45 -104q-15 -82 27 -136.5t134 -54.5
q179 0 231 166l8 -1q-24 -82 -85.5 -127.5t-152.5 -45.5z" />
    <glyph glyph-name="braceleft.cap" horiz-adv-x="183" 
d="M246 761h-6q-58 0 -86 -52.5t-23 -151.5q1 -44 1 -81t-13 -66t-40 -38q18 -7 24.5 -24t0.5 -45.5t-14.5 -53.5t-24.5 -64q-39 -97 -29.5 -149.5t67.5 -52.5h6l-2 -8h-6q-64 0 -74 56.5t31 157.5q12 29 18.5 47t13.5 41.5t7.5 37.5t-2.5 27.5t-14 19.5t-29 6h-8l1 8h8
q35 0 52.5 25t18.5 65.5t-1 90.5q-5 101 24.5 156.5t93.5 55.5h6z" />
    <glyph glyph-name="braceright.cap" horiz-adv-x="183" 
d="M114 769h6q42 0 61 -25.5t14.5 -73t-31.5 -115.5q-12 -29 -18.5 -47t-13.5 -41.5t-7.5 -37.5t2.5 -27.5t14 -19.5t29 -6h8l-1 -8h-8q-35 0 -52.5 -25t-18.5 -65.5t1 -90.5q5 -101 -25 -156.5t-94 -55.5h-6l2 8h6q58 0 86 52.5t23 151.5q-1 44 -1 81t12.5 66t39.5 38
q-18 7 -24 24t0 46t14 53t24 64q39 97 30 149.5t-67 52.5h-6z" />
    <glyph glyph-name="bracketleft.cap" horiz-adv-x="209" 
d="M272 762h-111l-137 -779h111l-2 -8h-119l141 795h119z" />
    <glyph glyph-name="bracketright.cap" horiz-adv-x="209" 
d="M93 -25h-119l2 8h111l137 779h-111l2 8h119z" />
    <glyph glyph-name="parenleft.cap" horiz-adv-x="200" 
d="M254 760l6 -4q-67 -76 -119.5 -178.5t-72.5 -216.5q-18 -126 -2.5 -221.5t55.5 -170.5l-8 -4q-91 177 -52 398q20 113 73 217t120 180z" />
    <glyph glyph-name="parenright.cap" horiz-adv-x="200" 
d="M110 756l8 4q91 -177 52 -399q-20 -113 -72.5 -216t-120.5 -180l-6 4q152 173 192 394q18 126 2.5 222t-55.5 171z" />
    <glyph glyph-name="emdash.cap" horiz-adv-x="790" 
d="M768 372h-700l2 8h700z" />
    <glyph glyph-name="endash.cap" horiz-adv-x="558" 
d="M533 372h-468l2 8h468z" />
    <glyph glyph-name="hyphen.cap" horiz-adv-x="398" 
d="M374 372h-308l2 8h308z" />
    <glyph glyph-name="guillemotleft.cap" horiz-adv-x="464" 
d="M273 570l-226 -193l158 -193l-6 -6l-165 199l235 199zM492 570l-226 -193l158 -193l-6 -6l-165 199l235 199z" />
    <glyph glyph-name="guillemotright.cap" horiz-adv-x="464" 
d="M249 377l-235 -199l-4 6l226 193l-158 193l6 6zM468 377l-235 -199l-4 6l226 193l-158 193l6 6z" />
    <glyph glyph-name="guilsinglleft.cap" horiz-adv-x="266" 
d="M297 570l-247 -193l179 -193l-7 -6l-185 199l255 199z" />
    <glyph glyph-name="guilsinglright.cap" horiz-adv-x="266" 
d="M273 377l-255 -199l-5 6l247 193l-179 193l7 6z" />
    <glyph glyph-name="emdash_guilsinglright" horiz-adv-x="809" 
d="M775 256l-255 -199l-5 6l242 189h-712l2 8h712l-176 189l7 6z" />
    <glyph glyph-name="endash_guilsinglright" horiz-adv-x="559" 
d="M525 256l-255 -199l-5 6l242 189h-462l2 8h462l-176 189l7 6z" />
    <glyph glyph-name="guilsinglleft_emdash" horiz-adv-x="809" 
d="M296 449l-242 -189h712l-2 -8h-712l176 -189l-7 -6l-185 199l255 199z" />
    <glyph glyph-name="guilsinglleft_endash" horiz-adv-x="559" 
d="M296 449l-242 -189h462l-2 -8h-462l176 -189l-7 -6l-185 199l255 199z" />
    <glyph glyph-name="at.cap" horiz-adv-x="787" 
d="M459 715q149 0 232.5 -97.5t62.5 -246.5q-13 -89 -51 -141t-90 -52q-37 0 -52 22t-7 63l5 26q-52 -115 -179 -115q-84 0 -127 54t-29 151q13 96 71.5 149.5t140.5 53.5q65 0 104.5 -31.5t47.5 -88.5l20 113h8l-54 -312q-13 -77 51 -77q49 0 85 50t48 137
q20 145 -60.5 239.5t-226.5 94.5t-254 -95t-128 -241q-20 -145 60 -239t226 -94q110 0 202 58l3 -8q-94 -58 -204 -58q-149 0 -232.5 97t-62.5 246q21 148 131.5 245t258.5 97zM380 182q76 0 126 45t65 135l5 30q15 90 -24 136t-115 46q-80 0 -136 -51.5t-69 -145.5
q-13 -93 28 -144t120 -51z" />
    <glyph glyph-name="acute.case" horiz-adv-x="253" 
d="M138 797h-14l197 124h16z" />
    <glyph glyph-name="breve.case" horiz-adv-x="302" 
d="M377 909h8q-7 -42 -43.5 -66.5t-89.5 -24.5q-55 0 -82.5 24.5t-20.5 66.5h8q-7 -38 19 -60.5t76 -22.5q51 0 84.5 22.5t40.5 60.5z" />
    <glyph glyph-name="caron.case" horiz-adv-x="308" 
d="M252 797h-4l-101 121h11l94 -110l134 110h11z" />
    <glyph glyph-name="circumflex.case" horiz-adv-x="308" 
d="M375 797h-11l-94 110l-134 -110h-11l145 121h4z" />
    <glyph glyph-name="dieresis.case" horiz-adv-x="192" 
d="M159 873q17 0 14 -17q-3 -14 -18 -14q-17 0 -14 16q4 15 18 15zM252 873q16 0 13 -17q-3 -14 -17 -14q-18 0 -15 16q4 15 19 15z" />
    <glyph glyph-name="dotaccent.case" horiz-adv-x="102" 
d="M158 863q8 0 13 -6t4 -14q-1 -7 -8 -12.5t-14 -5.5q-8 0 -13 6t-3 14q2 7 8 12.5t13 5.5z" />
    <glyph glyph-name="grave.case" horiz-adv-x="253" 
d="M319 797h-14l-155 124h16z" />
    <glyph glyph-name="hungarumlaut.case" horiz-adv-x="250" 
d="M133 800h-9l79 120h10zM261 800h-9l79 120h10z" />
    <glyph glyph-name="macron.case" horiz-adv-x="265" 
d="M348 862h-215l1 8h215z" />
    <glyph glyph-name="ring.case" horiz-adv-x="244" 
d="M248 965q38 0 59.5 -24t14.5 -62q-7 -36 -36.5 -60t-65.5 -24q-38 0 -59.5 24t-14.5 62q7 36 36.5 60t65.5 24zM249 957q-34 0 -61.5 -22t-33.5 -56q-6 -32 13.5 -54t52.5 -22q34 0 61 22t33 56q6 33 -13 54.5t-52 21.5z" />
    <glyph glyph-name="tilde.case" horiz-adv-x="331" 
d="M210 906q32 0 66.5 -35t61.5 -35t46.5 18t24.5 45h8q-6 -31 -27.5 -51t-50.5 -20q-32 0 -67 35t-62 35t-46.5 -18t-24.5 -45h-8q6 30 28 50.5t51 20.5z" />
    <glyph glyph-name="anneau" horiz-adv-x="566" 
d="M362 756q105 0 167 -72t47 -177q-14 -104 -96 -175.5t-185 -71.5q-105 0 -167 72t-47 177q14 104 96 175.5t185 71.5zM364 748q-101 0 -181.5 -70.5t-94.5 -170.5t45.5 -169.5t159.5 -69.5q101 0 181.5 70.5t94.5 170.5t-45.5 169.5t-159.5 69.5z" />
    <glyph glyph-name="null" horiz-adv-x="600" 
 />
    </font>
</defs>
</svg>
