<?xml version="1.0" standalone="no"?>
<!DOCTYPE svg PUBLIC "-//W3C//DTD SVG 1.1//EN" "http://www.w3.org/Graphics/SVG/1.1/DTD/svg11.dtd" >
<svg xmlns="http://www.w3.org/2000/svg" xmlns:xlink="http://www.w3.org/1999/xlink" version="1.1">
<metadata>
Created by FontForge 20161013 at Sun Jan 26 01:20:08 2014
 By ,,,
Copyright (c) 2013 by Type Dynamic. All rights reserved.
</metadata>
<defs>
<font id="Celias-BoldItalic" horiz-adv-x="602" >
  <font-face 
    font-family="Celias"
    font-weight="700"
    font-style="italic"
    font-stretch="normal"
    units-per-em="1000"
    panose-1="0 0 8 0 0 0 0 0 0 0"
    ascent="750"
    descent="-250"
    x-height="517"
    cap-height="748"
    bbox="-264 -380 1246.34 1079"
    underline-thickness="50"
    underline-position="-200"
    slope="-10"
    unicode-range="U+000D-FB02"
  />
<missing-glyph horiz-adv-x="735" 
d="M623 0h-602l132 748h602zM326 645l76 -179l144 179h-220zM162 179l161 193l-88 194zM458 372l85 -186l70 373zM237 104h215l-74 175z" />
    <glyph glyph-name="fi" unicode="fi" horiz-adv-x="670" 
d="M401 783q37 0 56 -4l-23 -125q-8 2 -27 2q-42 0 -72 -24.5t-37 -62.5l-9 -52h120l-22 -126h-120l-69 -391h-145l68 391h-93l22 126h94l10 58q17 96 85 152t162 56zM605 774q41 0 64.5 -28.5t16.5 -68.5q-6 -33 -32.5 -55.5t-58.5 -22.5q-40 0 -64 28t-17 68q7 33 33.5 56
t57.5 23zM552 0h-146l92 517h146z" />
    <glyph glyph-name="f_j" unicode="fj" horiz-adv-x="670" 
d="M401 783q37 0 56 -4l-23 -125q-8 2 -27 2q-42 0 -72 -24.5t-37 -62.5l-9 -52h120l-22 -126h-120l-69 -391h-145l68 391h-93l22 126h94l10 58q17 96 85 152t162 56zM605 774q41 0 64.5 -28.5t16.5 -68.5q-6 -33 -32.5 -55.5t-58.5 -22.5q-40 0 -64 28t-17 68q7 34 33 56.5
t58 22.5zM645 517l-101 -572q-17 -96 -84 -151.5t-161 -55.5q-28 0 -56 4l22 125q10 -2 29 -2q41 0 69.5 24.5t35.5 62.5l99 565h147z" />
    <glyph glyph-name=".notdef" horiz-adv-x="735" 
d="M623 0h-602l132 748h602zM326 645l76 -179l144 179h-220zM162 179l161 193l-88 194zM458 372l85 -186l70 373zM237 104h215l-74 175z" />
    <glyph glyph-name=".null" horiz-adv-x="0" 
 />
    <glyph glyph-name="nonmarkingreturn" horiz-adv-x="333" 
 />
    <glyph glyph-name="CR" unicode="&#xd;" horiz-adv-x="600" 
 />
    <glyph glyph-name="space" unicode=" " horiz-adv-x="226" 
 />
    <glyph glyph-name="exclam" unicode="!" horiz-adv-x="324" 
d="M234 228h-154l83 520h170zM134 166q41 0 65.5 -29t16.5 -69q-6 -34 -32.5 -56.5t-58.5 -22.5q-41 0 -65 28.5t-17 69.5q6 33 32.5 56t58.5 23z" />
    <glyph glyph-name="quotedbl" unicode="&#x22;" horiz-adv-x="419" 
d="M203 473h-111l35 282h140zM401 473h-112l36 282h140z" />
    <glyph glyph-name="numbersign" unicode="#" horiz-adv-x="669" 
d="M610 563h107l-47 -116h-108l-63 -151h110l-48 -116h-109l-75 -180h-121l75 180h-113l-75 -180h-120l75 180h-106l47 116h106l63 151h-108l48 116h107l78 185h121l-78 -185h113l77 185h121zM329 447l-63 -151h113l62 151h-112z" />
    <glyph glyph-name="dollar" unicode="$" horiz-adv-x="663" 
d="M647 532l-158 -6q5 47 -20.5 73t-75.5 26q-56 0 -91 -26t-40 -68q-6 -40 20.5 -59t103.5 -38q128 -31 186.5 -80t45.5 -145q-15 -103 -88.5 -158t-179.5 -61l-19 -108h-121l21 115q-97 20 -147 79.5t-38 150.5l157 5q-6 -50 26.5 -79.5t90.5 -29.5q59 0 96.5 23t43.5 69
q6 39 -24.5 60.5t-104.5 40.5q-60 15 -97 28.5t-73 38.5t-49.5 63.5t-5.5 92.5q13 90 80 151.5t179 67.5l19 107h121l-20 -116q85 -20 128.5 -77.5t33.5 -139.5z" />
    <glyph glyph-name="percent" unicode="%" horiz-adv-x="892" 
d="M285 759q82 0 125 -54.5t27 -142.5q-14 -81 -68.5 -130t-127.5 -49q-82 0 -125 54.5t-28 142.5q15 82 69.5 130.5t127.5 48.5zM226 0h-144l625 748h144zM280 657q-34 0 -57 -24t-30 -68q-5 -37 10 -59t44 -22q33 0 56 24.5t30 68.5q5 38 -9 59t-44 21zM693 365
q81 0 124 -54.5t27 -141.5q-14 -82 -68.5 -131t-127.5 -49q-82 0 -125 55t-28 143q15 81 70 129.5t128 48.5zM687 264q-35 0 -57.5 -24t-29.5 -68q-7 -37 9 -59t45 -22q34 0 56.5 24t29.5 69q5 37 -9.5 58.5t-43.5 21.5z" />
    <glyph glyph-name="ampersand" unicode="&#x26;" horiz-adv-x="720" 
d="M615 -11l-100 98q-104 -97 -238 -97q-132 0 -193.5 64t-48.5 162q10 66 47 113t102 88q-50 68 -39 142q14 97 82 148.5t169 51.5q96 0 154.5 -52.5t59.5 -142.5l-148 -2q0 71 -66 71q-41 0 -67 -22.5t-32 -63.5q-4 -23 6 -46.5t21.5 -37t37.5 -40.5l142 -133
q31 53 60 128l133 -45q-42 -102 -92 -178l104 -98zM279 121q74 0 141 59l-150 147q-67 -46 -78 -116q-7 -42 16.5 -66t70.5 -24z" />
    <glyph glyph-name="quotesingle" unicode="'" horiz-adv-x="222" 
d="M204 473h-111l35 282h140z" />
    <glyph glyph-name="parenleft" unicode="(" horiz-adv-x="298" 
d="M237 739l123 -52q-134 -181 -168 -376q-35 -199 32 -366l-126 -36q-90 186 -48 420q40 233 187 410z" />
    <glyph glyph-name="parenright" unicode=")" horiz-adv-x="298" 
d="M96 695l128 36q88 -185 47 -420q-40 -232 -188 -410l-122 52q133 179 168 376q34 200 -33 366z" />
    <glyph glyph-name="asterisk" unicode="*" horiz-adv-x="369" 
d="M290 642l120 40l12 -76l-123 -37l57 -95l-70 -48l-50 99l-88 -100l-61 49l89 95l-109 37l38 76l108 -40l20 122h81z" />
    <glyph glyph-name="plus" unicode="+" horiz-adv-x="548" 
d="M375 436h172l-23 -132h-172l-31 -178h-142l31 178h-172l24 132h172l31 176h141z" />
    <glyph glyph-name="comma" unicode="," horiz-adv-x="244" 
d="M96 166q43 0 63 -30t12 -77q-26 -147 -187 -222l2 65q59 35 85 90q-33 6 -51 32.5t-12 62.5q6 34 31 56.5t57 22.5z" />
    <glyph glyph-name="hyphen" unicode="-" horiz-adv-x="406" 
d="M350 194h-316l24 136h316z" />
    <glyph glyph-name="period" unicode="." horiz-adv-x="253" 
d="M98 166q42 0 66 -29t17 -69q-6 -34 -33 -56.5t-59 -22.5q-41 0 -65 28.5t-16 69.5q6 33 32 56t58 23z" />
    <glyph glyph-name="slash" unicode="/" horiz-adv-x="421" 
d="M104 -67h-156l399 815h156z" />
    <glyph glyph-name="zero" unicode="0" horiz-adv-x="651" 
d="M391 759q133 0 198.5 -104.5t38.5 -289.5q-26 -179 -114.5 -277.5t-212.5 -98.5q-133 0 -199 104.5t-38 289.5q26 179 114.5 277.5t212.5 98.5zM387 622q-69 0 -109.5 -63t-60.5 -191q-35 -242 87 -242q69 0 110.5 63t59.5 191q35 242 -87 242z" />
    <glyph glyph-name="one" unicode="1" horiz-adv-x="393" 
d="M271 0h-154l90 496l-112 -71l-44 122l352 212z" />
    <glyph glyph-name="two" unicode="2" horiz-adv-x="542" 
d="M347 759q121 0 174 -62t35 -168q-10 -54 -38 -106t-54.5 -83.5t-72.5 -80.5l-127 -122h226l-24 -137h-490l278 306q75 80 107 129.5t42 104.5q7 38 -9 60t-52 22q-44 0 -72.5 -29t-38.5 -80l-152 17q22 109 93 169t175 60z" />
    <glyph glyph-name="three" unicode="3" horiz-adv-x="568" 
d="M357 759q114 0 167.5 -62t35.5 -167q-16 -97 -108 -149q37 -15 57 -60t9 -108q-18 -106 -92 -165t-179 -59q-121 0 -177 63t-41 170l153 -1q-11 -95 73 -95q93 0 111 101q7 44 -14 69t-65 25h-82l24 129h70q40 0 70.5 23.5t37.5 65.5q6 38 -10 60.5t-50 22.5
q-80 0 -103 -99l-150 19q20 104 88 160.5t175 56.5z" />
    <glyph glyph-name="four" unicode="4" horiz-adv-x="603" 
d="M493 238h91l-20 -118h-91l-21 -120h-141l22 120h-363l615 642zM233 238h120l31 160z" />
    <glyph glyph-name="five" unicode="5" horiz-adv-x="570" 
d="M279 612l-26 -148q31 11 66 11q107 0 166.5 -65.5t39.5 -181.5q-16 -110 -89.5 -174.5t-184.5 -64.5q-116 0 -174 60t-47 160l153 4q-4 -41 16.5 -64t60.5 -23q48 0 76 29.5t36 82.5q8 45 -11.5 72.5t-58.5 27.5q-40 0 -84 -29l-146 3l77 436h438l-24 -136h-284z" />
    <glyph glyph-name="six" unicode="6" horiz-adv-x="608" 
d="M613 748l-235 -263q98 -16 152 -85t39 -169q-16 -109 -93.5 -175.5t-186.5 -66.5q-121 0 -192 72.5t-54 187.5q14 92 72 157l309 342h189zM413 246q8 58 -17 88t-70 30q-54 0 -90 -39q-30 -33 -37 -82q-7 -57 18 -87t71 -30q51 0 85 34.5t40 85.5z" />
    <glyph glyph-name="seven" unicode="7" horiz-adv-x="557" 
d="M168 0h-174l400 612h-312l24 136h540z" />
    <glyph glyph-name="eight" unicode="8" horiz-adv-x="615" 
d="M377 759q110 0 172.5 -60t45.5 -160q-13 -92 -94 -146q36 -26 53.5 -73t8.5 -108q-17 -103 -96 -163t-189 -60q-119 0 -185.5 66t-49.5 176q18 113 118 174q-62 54 -47 152q15 94 88 148t175 54zM368 622q-41 0 -70 -25t-33 -65q-4 -37 16 -57t57 -20q41 0 70 23.5
t33 63.5q4 37 -16 58.5t-57 21.5zM324 332q-52 0 -86.5 -29.5t-41.5 -79.5q-4 -45 20 -71t69 -26q52 0 86.5 29.5t40.5 79.5q4 45 -19.5 71t-68.5 26z" />
    <glyph glyph-name="nine" unicode="9" horiz-adv-x="608" 
d="M360 759q121 0 192 -72.5t54 -187.5q-14 -92 -72 -157l-309 -342h-189l235 263q-98 16 -152 85t-39 169q16 109 93.5 175.5t186.5 66.5zM323 384q54 0 90 39q30 33 37 82q7 57 -18 87t-71 30q-51 0 -85 -34.5t-40 -85.5q-8 -58 17 -88t70 -30z" />
    <glyph glyph-name="colon" unicode=":" horiz-adv-x="253" 
d="M162 527q41 0 65 -28.5t17 -69.5q-6 -33 -32.5 -55.5t-58.5 -22.5q-42 0 -65.5 28t-16.5 69q6 33 32.5 56t58.5 23zM97 166q42 0 66 -29t17 -69q-6 -34 -33 -56.5t-59 -22.5q-41 0 -65 28.5t-16 69.5q6 33 32 56t58 23z" />
    <glyph glyph-name="semicolon" unicode=";" horiz-adv-x="253" 
d="M162 527q41 0 65 -28.5t17 -69.5q-6 -33 -32.5 -55.5t-58.5 -22.5q-42 0 -65.5 28t-16.5 69q6 33 32.5 56t58.5 23zM104 166q43 0 63 -30t12 -77q-27 -147 -187 -222l2 65q59 35 85 90q-34 6 -52 32.5t-11 62.5q6 34 31 56.5t57 22.5z" />
    <glyph glyph-name="less" unicode="&#x3c;" horiz-adv-x="538" 
d="M546 470l-212 -101l174 -101l-28 -166l-431 267l523 266z" />
    <glyph glyph-name="equal" unicode="=" horiz-adv-x="548" 
d="M546 424h-486l25 137h485zM502 179h-485l24 137h486z" />
    <glyph glyph-name="greater" unicode="&#x3e;" horiz-adv-x="538" 
d="M529 369l-524 -267l27 166l212 101l-175 101l28 165z" />
    <glyph glyph-name="question" unicode="?" horiz-adv-x="535" 
d="M343 760q121 0 181 -64.5t40 -171.5q-9 -54 -39 -91.5t-80 -72.5q-5 -4 -21 -15t-21 -15t-16.5 -13t-16 -14.5t-11.5 -14.5t-10 -17.5t-5 -18.5l-4 -24h-154l6 36q14 85 116 160q4 3 16 11.5t16 11t14 10.5t13.5 11.5t11.5 11t11 13t8 13t7.5 15t3.5 15.5q7 40 -13.5 64
t-61.5 24q-46 0 -76.5 -27t-42.5 -75l-150 14q22 103 97 163.5t181 60.5zM240 166q41 0 65.5 -29t16.5 -69q-6 -34 -32.5 -56.5t-58.5 -22.5q-41 0 -65 28.5t-17 69.5q6 33 32.5 56t58.5 23z" />
    <glyph glyph-name="at" unicode="@" horiz-adv-x="794" 
d="M439 607q161 0 251 -105t67 -265q-14 -98 -61 -148.5t-119 -50.5q-73 0 -101 42q-48 -45 -119 -45q-90 0 -141 61.5t-37 159.5q13 92 70.5 147t138.5 55q86 0 121 -51l9 36h105l-51 -292q-6 -37 28 -37q30 0 54.5 35.5t35.5 106.5q17 124 -53 204.5t-195 80.5
q-131 0 -227.5 -86t-114.5 -218q-19 -128 56 -205.5t201 -77.5q93 0 175 46l24 -67q-86 -46 -199 -46q-164 0 -255.5 103.5t-68.5 265.5q22 152 137.5 251.5t268.5 99.5zM369 133q44 0 72.5 27t35.5 76l3 17q7 49 -14.5 77.5t-64.5 28.5t-72 -28t-37 -81q-9 -53 13 -85
t64 -32z" />
    <glyph glyph-name="A" unicode="A" horiz-adv-x="806" 
d="M742 0h-170l-30 109h-318l-70 -109h-184l518 763zM307 235h195l-59 212z" />
    <glyph glyph-name="B" unicode="B" horiz-adv-x="706" 
d="M161 748h308q104 0 160.5 -59.5t38.5 -163.5q-15 -87 -93 -136q37 -18 58.5 -65t9.5 -115q-18 -102 -91 -155.5t-183 -53.5h-340zM292 612l-29 -164h146q88 0 103 82q7 40 -14.5 61t-64.5 21h-141zM240 317l-32 -180h159q48 0 81.5 22t41.5 68q7 45 -16.5 67.5
t-68.5 22.5h-165z" />
    <glyph glyph-name="C" unicode="C" horiz-adv-x="826" 
d="M492 759q142 0 232.5 -78t92.5 -208l-161 -12q-4 78 -50 119.5t-121 41.5q-103 0 -173.5 -70t-86.5 -187q-16 -114 36 -176.5t144 -62.5q82 0 141.5 42t84.5 119l159 -18q-38 -129 -143.5 -204.5t-239.5 -75.5q-172 0 -266.5 106.5t-69.5 287.5q16 116 76 202t149 130
t196 44z" />
    <glyph glyph-name="D" unicode="D" horiz-adv-x="803" 
d="M161 748h289q165 0 258.5 -104t63.5 -279q-29 -175 -141 -270t-275 -95h-327zM292 616l-85 -484h159q102 0 171 64t86 185q16 115 -32.5 175t-148.5 60h-150z" />
    <glyph glyph-name="E" unicode="E" 
d="M617 612h-326l-28 -162h282l-24 -133h-282l-31 -180h326l-24 -137h-481l132 748h480z" />
    <glyph glyph-name="F" unicode="F" horiz-adv-x="588" 
d="M617 612h-326l-28 -162h265l-25 -136h-264l-55 -314h-155l132 748h480z" />
    <glyph glyph-name="G" unicode="G" horiz-adv-x="834" 
d="M453 408h357l-7 -55q-23 -167 -130 -265.5t-267 -98.5q-171 0 -265.5 106.5t-69.5 287.5q16 116 76 202t149 130t196 44q135 0 222 -70t100 -192l-159 -18q-6 68 -50.5 105.5t-116.5 37.5q-107 0 -176.5 -66t-86.5 -191q-16 -117 33.5 -178t148.5 -61q74 0 129.5 36.5
t82.5 109.5h-185z" />
    <glyph glyph-name="H" unicode="H" horiz-adv-x="762" 
d="M641 0h-154l56 315h-304l-55 -315h-155l132 748h155l-53 -296h304l52 296h154z" />
    <glyph glyph-name="I" unicode="I" horiz-adv-x="305" 
d="M184 0h-155l132 748h155z" />
    <glyph glyph-name="J" unicode="J" horiz-adv-x="614" 
d="M630 748l-85 -486q-23 -130 -102.5 -201.5t-198.5 -71.5t-180 71.5t-47 191.5l156 7q-15 -133 82 -133q52 0 88 36.5t48 100.5l85 485h154z" />
    <glyph glyph-name="K" unicode="K" horiz-adv-x="721" 
d="M456 436l205 -436h-168l-152 322l-120 -115l-37 -207h-155l132 748h155l-57 -309l309 309h204z" />
    <glyph glyph-name="L" unicode="L" horiz-adv-x="591" 
d="M208 137h326l-24 -137h-481l132 748h155z" />
    <glyph glyph-name="M" unicode="M" horiz-adv-x="956" 
d="M835 0h-154l60 322l-301 -323l-195 340l-61 -339h-155l133 762l305 -530l501 530z" />
    <glyph glyph-name="N" unicode="N" horiz-adv-x="748" 
d="M528 327l76 421h154l-132 -762l-366 434l-76 -420h-155l133 762z" />
    <glyph glyph-name="O" unicode="O" horiz-adv-x="875" 
d="M488 759q174 0 275 -108t82 -286q-18 -171 -134.5 -273.5t-281.5 -102.5q-176 0 -277 108.5t-81 285.5q18 171 134.5 273.5t282.5 102.5zM486 622q-108 0 -179 -69.5t-81 -187.5q-10 -111 47 -175t157 -64q108 0 179 69.5t81 187.5q10 111 -47 175t-157 64z" />
    <glyph glyph-name="P" unicode="P" horiz-adv-x="667" 
d="M161 748h300q111 0 174 -68t47 -184q-14 -110 -86 -170t-181 -60h-184l-47 -266h-155zM291 612l-36 -209h153q48 0 81 26.5t39 78.5q6 48 -19 76t-70 28h-148z" />
    <glyph glyph-name="Q" unicode="Q" horiz-adv-x="879" 
d="M488 759q174 0 275 -108.5t81 -285.5q-15 -141 -101 -240l81 -97l-112 -101l-89 106q-88 -44 -194 -44q-176 0 -277 108.5t-81 285.5q19 171 135 273.5t282 102.5zM543 363l102 -122q38 61 45 142q9 111 -48 175t-156 64q-108 0 -179 -69.5t-81 -187.5q-10 -111 47 -175
t157 -64q54 0 99 18l-100 118z" />
    <glyph glyph-name="R" unicode="R" horiz-adv-x="707" 
d="M679 497q-30 -161 -160 -210l106 -287h-162l-99 269h-133l-47 -269h-155l132 748h296q110 0 173.5 -68t48.5 -183zM523 509q7 47 -17.5 75t-69.5 28h-145l-36 -206h150q47 0 78 25.5t40 77.5z" />
    <glyph glyph-name="S" unicode="S" horiz-adv-x="663" 
d="M391 759q128 0 198 -61.5t58 -165.5l-158 -6q5 47 -20.5 73t-75.5 26q-56 0 -91 -26t-40 -68q-6 -40 20.5 -59t103.5 -38q128 -31 186.5 -80t45.5 -145q-16 -110 -98 -165t-199 -55q-137 0 -213.5 63.5t-61.5 174.5l157 5q-6 -50 26.5 -79.5t90.5 -29.5q59 0 96.5 23
t43.5 69q6 39 -24.5 60.5t-104.5 40.5q-60 15 -97 28.5t-73 38.5t-49.5 63.5t-5.5 92.5q14 95 88 157.5t197 62.5z" />
    <glyph glyph-name="T" unicode="T" horiz-adv-x="693" 
d="M736 612h-250l-108 -612h-154l108 612h-251l25 136h655z" />
    <glyph glyph-name="U" unicode="U" horiz-adv-x="777" 
d="M793 748l-79 -449q-27 -149 -121.5 -229.5t-240.5 -80.5q-151 0 -225 85.5t-48 233.5l77 440h155l-79 -444q-16 -88 18 -133t112 -45q83 0 134 47.5t66 134.5l77 440h154z" />
    <glyph glyph-name="V" unicode="V" horiz-adv-x="775" 
d="M344 -14l-248 762h166l129 -426l280 426h184z" />
    <glyph glyph-name="W" unicode="W" horiz-adv-x="1079" 
d="M730 352l234 396h178l-466 -762l-108 411l-254 -411l-202 762h168l93 -399l251 410z" />
    <glyph glyph-name="X" unicode="X" horiz-adv-x="727" 
d="M491 372l171 -372h-172l-122 268l-212 -268h-185l306 392l-158 356h171l110 -257l199 257h186z" />
    <glyph glyph-name="Y" unicode="Y" horiz-adv-x="744" 
d="M456 288l-52 -288h-154l53 288l-203 460h171l125 -304l236 304h189z" />
    <glyph glyph-name="Z" unicode="Z" horiz-adv-x="626" 
d="M250 137h320l-24 -137h-567l434 612h-309l24 136h554z" />
    <glyph glyph-name="bracketleft" unicode="[" horiz-adv-x="307" 
d="M346 597h-88l-97 -553h87l-20 -121h-234l140 795h234z" />
    <glyph glyph-name="backslash" unicode="\" horiz-adv-x="421" 
d="M355 -67h-149l-111 815h149z" />
    <glyph glyph-name="bracketright" unicode="]" horiz-adv-x="307" 
d="M196 -77h-234l21 121h88l98 553h-88l21 121h234z" />
    <glyph glyph-name="asciicircum" unicode="^" horiz-adv-x="596" 
d="M588 372h-162l-74 167l-138 -167h-169l339 394z" />
    <glyph glyph-name="underscore" unicode="_" horiz-adv-x="688" 
d="M574 -137h-598l24 137h598z" />
    <glyph glyph-name="grave" unicode="`" horiz-adv-x="268" 
d="M317 598h-110l-102 191h162z" />
    <glyph glyph-name="a" unicode="a" horiz-adv-x="657" 
d="M321 527q57 0 97.5 -20t59.5 -50l14 60h137l-89 -517h-136l7 47q-50 -58 -145 -58q-115 0 -176.5 77t-43.5 202q16 118 90 188.5t185 70.5zM334 402q-57 0 -95.5 -36t-46.5 -102q-10 -69 20.5 -109t85.5 -40q57 0 93.5 33.5t45.5 93.5l4 24q8 64 -21.5 100t-85.5 36z" />
    <glyph glyph-name="b" unicode="b" horiz-adv-x="657" 
d="M309 777l-57 -301q46 51 139 51q115 0 176.5 -77t43.5 -201q-16 -119 -90 -189.5t-185 -70.5q-57 0 -97.5 20t-60.5 50l-14 -59h-137l136 777h146zM358 402q-56 0 -92.5 -34t-45.5 -94l-4 -24q-9 -64 21 -100t86 -36q57 0 95.5 36.5t46.5 102.5q9 69 -21.5 109t-85.5 40z
" />
    <glyph glyph-name="c" unicode="c" horiz-adv-x="592" 
d="M333 527q100 0 163 -55.5t66 -147.5l-142 -10q0 42 -23.5 65t-64.5 23q-56 0 -94 -40.5t-48 -112.5q-8 -63 18.5 -98.5t76.5 -35.5q45 0 76 23t43 60l141 -15q-26 -90 -96.5 -142t-162.5 -52q-122 0 -189 75.5t-51 203.5q15 121 94.5 190t192.5 69z" />
    <glyph glyph-name="d" unicode="d" horiz-adv-x="657" 
d="M540 0h-136l7 47q-50 -58 -145 -58q-115 0 -176.5 77t-43.5 202q16 118 90 188.5t185 70.5q56 0 95.5 -17.5t54.5 -43.5l59 311h146zM334 402q-57 0 -95.5 -36t-46.5 -102q-10 -69 20.5 -109t85.5 -40q57 0 93.5 33.5t45.5 93.5l4 24q8 64 -21.5 100t-85.5 36z" />
    <glyph glyph-name="e" unicode="e" horiz-adv-x="598" 
d="M333 527q117 0 179 -71.5t44 -191.5l-9 -52h-354q-4 -50 20.5 -77.5t73.5 -27.5q75 0 101 57l147 -10q-24 -77 -93 -121t-157 -44q-124 0 -190.5 75.5t-48.5 203.5q17 120 95.5 189.5t191.5 69.5zM331 413q-48 0 -80.5 -27.5t-43.5 -76.5h207q7 50 -15 77t-68 27z" />
    <glyph glyph-name="f" unicode="f" horiz-adv-x="380" 
d="M401 783q37 0 56 -4l-22 -125q-9 2 -28 2q-41 0 -71.5 -25t-36.5 -62l-9 -52h120l-23 -126h-120l-68 -391h-146l69 391h-94l23 126h93l11 58q16 96 84 152t162 56z" />
    <glyph glyph-name="g" unicode="g" horiz-adv-x="648" 
d="M321 527q57 0 98 -20t60 -50l14 60h137l-95 -541q-19 -111 -99.5 -176t-197.5 -65q-119 0 -178.5 53.5t-57.5 141.5l142 4q-1 -37 24.5 -56t71.5 -19q59 0 99 31t50 85l12 63q-41 -49 -135 -49q-115 0 -176 77t-43 202q16 118 90 188.5t184 70.5zM334 402
q-56 0 -94.5 -36t-47.5 -102q-9 -69 21.5 -109t85.5 -40q56 0 92.5 33.5t45.5 93.5l4 24q9 64 -21 100t-86 36z" />
    <glyph glyph-name="h" unicode="h" horiz-adv-x="616" 
d="M309 777l-56 -299q47 49 133 49q93 0 142 -58.5t31 -158.5l-54 -310h-146l51 289q9 49 -10.5 75.5t-60.5 26.5q-46 0 -77 -29t-39 -77l-51 -285h-146l137 777h146z" />
    <glyph glyph-name="i" unicode="i" horiz-adv-x="291" 
d="M225 774q41 0 64.5 -28.5t16.5 -68.5q-6 -33 -32.5 -55.5t-58.5 -22.5q-40 0 -64 28t-17 68q7 33 33.5 56t57.5 23zM172 0h-146l92 517h146z" />
    <glyph glyph-name="j" unicode="j" horiz-adv-x="291" 
d="M225 774q41 0 64.5 -28.5t16.5 -68.5q-6 -33 -32.5 -55.5t-58.5 -22.5q-40 0 -64 28t-17 68q7 34 33 56.5t58 22.5zM265 517l-101 -572q-17 -96 -84 -151.5t-161 -55.5q-28 0 -56 4l22 125q10 -2 29 -2q41 0 69.5 24.5t35.5 62.5l99 565h147z" />
    <glyph glyph-name="k" unicode="k" horiz-adv-x="582" 
d="M230 335l197 182h186l-243 -225l154 -292h-162l-101 190l-64 -55l-25 -135h-146l137 777h146z" />
    <glyph glyph-name="l" unicode="l" horiz-adv-x="291" 
d="M172 0h-146l137 777h146z" />
    <glyph glyph-name="m" unicode="m" horiz-adv-x="930" 
d="M704 527q94 0 140 -56.5t29 -153.5l-56 -317h-146l51 289q9 49 -9 75.5t-56 26.5q-44 0 -73 -27t-38 -71l-2 -10l-50 -283h-145l51 289q8 49 -9.5 75.5t-56.5 26.5q-46 0 -74.5 -28.5t-37.5 -77.5l-50 -285h-146l92 517h134l-9 -52q48 62 138 62q116 0 157 -82
q62 82 166 82z" />
    <glyph glyph-name="n" unicode="n" horiz-adv-x="618" 
d="M386 527q93 0 142 -58.5t31 -158.5l-54 -310h-146l51 289q9 49 -10.5 75.5t-60.5 26.5q-46 0 -77 -29t-39 -77l-51 -285h-146l92 517h134l-8 -47q48 57 142 57z" />
    <glyph glyph-name="o" unicode="o" horiz-adv-x="638" 
d="M339 527q125 0 197 -77t56 -201q-13 -117 -95 -188.5t-198 -71.5q-125 0 -197 77t-56 202q13 117 95 188t198 71zM341 402q-61 0 -102.5 -41.5t-47.5 -111.5q-4 -63 24.5 -98.5t81.5 -35.5q61 0 102.5 41.5t47.5 111.5q5 63 -24 98.5t-82 35.5z" />
    <glyph glyph-name="p" unicode="p" horiz-adv-x="657" 
d="M391 527q115 0 176.5 -77t43.5 -201q-16 -119 -89.5 -189.5t-184.5 -70.5q-56 0 -95.5 17.5t-55.5 43.5l-58 -305h-146l135 772h136l-7 -48q50 58 145 58zM359 402q-56 0 -93 -34t-46 -94l-3 -24q-9 -64 21 -100t85 -36q57 0 95.5 36.5t46.5 102.5q10 69 -20.5 109
t-85.5 40z" />
    <glyph glyph-name="q" unicode="q" horiz-adv-x="657" 
d="M321 527q57 0 98 -20t60 -50l14 60h137l-136 -772h-146l58 296q-47 -52 -140 -52q-115 0 -176 77t-43 202q16 118 90 188.5t184 70.5zM334 402q-56 0 -94.5 -36t-47.5 -102q-9 -69 21.5 -109t85.5 -40q56 0 92.5 33.5t45.5 93.5l4 24q9 64 -21 100t-86 36z" />
    <glyph glyph-name="r" unicode="r" horiz-adv-x="378" 
d="M400 522l-24 -141q-62 0 -105.5 -35t-52.5 -89l-46 -257h-146l92 517h136l-9 -55q51 60 155 60z" />
    <glyph glyph-name="s" unicode="s" horiz-adv-x="506" 
d="M277 527q98 0 148 -48.5t48 -120.5l-145 -3q3 27 -13 43.5t-46 16.5q-58 0 -66 -45q-2 -13 2.5 -22t18.5 -15.5t26 -10t39 -9.5q87 -22 128.5 -57.5t32.5 -103.5q-11 -76 -70.5 -119.5t-154.5 -43.5q-103 0 -156 45t-49 123l144 5q-3 -29 14.5 -45t52.5 -16q67 0 73 46
q4 23 -13.5 36.5t-64.5 25.5q-39 10 -62 17.5t-48.5 21t-37.5 29t-18.5 40t-1.5 56.5q11 72 68.5 113t150.5 41z" />
    <glyph glyph-name="t" unicode="t" horiz-adv-x="404" 
d="M275 391l-36 -194q-6 -40 11.5 -58t47.5 -18q28 0 52 6l-22 -132q-35 -5 -76 -5q-91 0 -135.5 45.5t-28.5 133.5l41 222h-95l22 126h96l31 171h146l-31 -171h120l-22 -126h-121z" />
    <glyph glyph-name="u" unicode="u" 
d="M484 0h-132l7 51q-47 -62 -138 -62q-93 0 -137.5 54.5t-28.5 149.5l58 324h146l-52 -296q-17 -96 63 -96q45 0 72.5 26.5t35.5 72.5l52 293h145z" />
    <glyph glyph-name="v" unicode="v" horiz-adv-x="573" 
d="M243 -13l-191 530h155l76 -244l162 244h170z" />
    <glyph glyph-name="w" unicode="w" horiz-adv-x="850" 
d="M557 266l166 251h170l-366 -530l-99 259l-191 -259l-185 530h155l77 -251l180 252z" />
    <glyph glyph-name="x" unicode="x" horiz-adv-x="553" 
d="M372 257l122 -257h-157l-75 158l-127 -158h-169l216 266l-118 251h155l70 -154l127 154h169z" />
    <glyph glyph-name="y" unicode="y" horiz-adv-x="587" 
d="M85 -255h-174l275 388l-133 384h156l78 -248l171 248h171z" />
    <glyph glyph-name="z" unicode="z" horiz-adv-x="471" 
d="M211 118h208l-21 -118h-433l282 399h-194l20 118h419z" />
    <glyph glyph-name="braceleft" unicode="{" horiz-adv-x="303" 
d="M342 597h-2q-45 0 -66.5 -31.5t-25.5 -107.5q0 -31 -2.5 -51t-11 -40.5t-27 -32t-48.5 -14.5q86 -10 40 -156q-24 -70 -17 -95t51 -25h11l-21 -121h-2q-113 0 -163 64t-5 182q26 52 24.5 72t-47.5 20h-13l21 119h3q47 0 61 24t12 86q-6 112 60 170t178 58h11z" />
    <glyph glyph-name="bar" unicode="|" horiz-adv-x="288" 
d="M159 -67h-145l144 815h145z" />
    <glyph glyph-name="braceright" unicode="}" horiz-adv-x="303" 
d="M102 718h2q112 0 162 -64t6 -182q-27 -52 -25 -72t47 -20h14l-21 -119h-3q-47 0 -61 -24t-13 -86q6 -113 -59.5 -170.5t-177.5 -57.5h-11l21 121h2q45 0 66.5 31.5t25.5 107.5q0 64 17 98t73 41q-87 9 -41 155q24 70 17 95t-51 25h-11z" />
    <glyph glyph-name="asciitilde" unicode="~" horiz-adv-x="544" 
d="M500 467l56 -105q-85 -88 -170 -88q-48 0 -99 28.5t-79 28.5q-70 0 -125 -56l-54 105q81 87 167 87q44 0 95.5 -28.5t82.5 -28.5q72 0 126 57z" />
    <glyph glyph-name="exclamdown" unicode="&#xa1;" horiz-adv-x="324" 
d="M188 334q-42 0 -66 29t-17 69q6 34 33 56.5t59 22.5q41 0 65 -28.5t16 -69.5q-5 -33 -31.5 -56t-58.5 -23zM88 272h154l-83 -520h-171z" />
    <glyph glyph-name="cent" unicode="&#xa2;" horiz-adv-x="592" 
d="M285 115q45 0 76.5 23t43.5 60l141 -15q-24 -82 -85 -132.5t-142 -59.5l-20 -109h-121l21 119q-82 25 -124 94.5t-29 172.5q14 109 80.5 176.5t164.5 79.5l18 103h121l-20 -110q68 -19 109 -69.5t43 -123.5l-142 -10q0 42 -23.5 65t-64.5 23q-56 0 -93.5 -40.5
t-47.5 -112.5q-9 -63 18 -98.5t76 -35.5z" />
    <glyph glyph-name="sterling" unicode="&#xa3;" horiz-adv-x="566" 
d="M588 552l-153 -5q6 35 -8 55t-45 20q-39 0 -61.5 -27t-26.5 -76l-8 -92h149l-21 -121h-138l-1 -11q-8 -103 -78 -162l326 4l-24 -137h-516l18 127q62 12 92.5 55.5t37.5 123.5h-95l22 121h83l6 68q20 264 249 264q102 0 154 -56t38 -151z" />
    <glyph glyph-name="currency" unicode="&#xa4;" horiz-adv-x="601" 
d="M487 243q-9 -50 -32 -88l90 -107l-103 -91l-93 109q-33 -13 -74 -13q-47 0 -82 18l-131 -114l-81 91l135 117q-12 43 -3 97q9 48 33 87l-93 108l105 92l93 -111q36 14 73 14q44 0 82 -18l132 115l80 -92l-135 -118q13 -45 4 -96zM230 246q-8 -43 5.5 -66.5t43.5 -23.5
q35 0 59 27t33 75q7 42 -7 66t-44 24q-35 0 -59 -26.5t-31 -75.5z" />
    <glyph glyph-name="yen" unicode="&#xa5;" horiz-adv-x="744" 
d="M509 354h91l-16 -90h-131l-13 -66h133l-17 -91h-132l-20 -107h-154l20 107h-135l17 91h134l13 66h-136l16 90h95l-174 394h172l124 -304l236 304h189z" />
    <glyph glyph-name="brokenbar" unicode="&#xa6;" horiz-adv-x="288" 
d="M247 429h-145l56 319h145zM159 -67h-145l57 319h145z" />
    <glyph glyph-name="section" unicode="&#xa7;" horiz-adv-x="529" 
d="M527 598l-144 -3q4 28 -12 45t-48 17q-72 0 -80 -59q-3 -25 15.5 -39.5t76.5 -27.5q51 -12 81.5 -22t58.5 -28t37.5 -44.5t4.5 -63.5q-10 -74 -87 -117q57 -39 45 -121q-11 -73 -74.5 -118t-161.5 -45q-112 0 -169.5 46t-45.5 124l145 2q-5 -32 12.5 -51.5t54.5 -19.5
q41 0 66 17.5t29 48.5q4 25 -16 39.5t-80 28.5q-50 11 -81 21t-59.5 27.5t-39 44.5t-5.5 65q6 41 28.5 69t61.5 50q-52 38 -41 117q11 72 70.5 115t152.5 43q107 0 161 -43.5t44 -117.5zM383 372q4 27 -18 38.5t-91 26.5q-1 1 -1.5 1h-1.5l-19 4q-30 -17 -47 -34t-20 -43
q-4 -26 20 -38.5t92 -27.5l18 -4q31 17 47.5 33.5t20.5 43.5z" />
    <glyph glyph-name="dieresis" unicode="&#xa8;" horiz-adv-x="371" 
d="M166 757q37 0 59.5 -26t15.5 -61q-6 -30 -29 -50t-52 -20q-37 0 -58.5 25.5t-15.5 62.5q5 30 28 49.5t52 19.5zM359 757q37 0 59 -26t16 -61q-6 -31 -29.5 -50.5t-52.5 -19.5q-37 0 -58.5 25.5t-14.5 62.5q4 30 27.5 49.5t52.5 19.5z" />
    <glyph glyph-name="copyright" unicode="&#xa9;" horiz-adv-x="595" 
d="M367 761q120 0 189.5 -77t53.5 -189q-15 -106 -98.5 -176t-195.5 -70q-122 0 -191.5 77t-53.5 191q16 106 99.5 175t196.5 69zM369 711q-92 0 -160 -57t-81 -145q-13 -91 39.5 -150.5t146.5 -59.5q91 0 159 57.5t80 146.5q13 90 -39 149t-145 59zM354 663q61 0 98.5 -32
t38.5 -85l-80 -3q-1 24 -16 37t-38 13q-35 0 -58 -25t-30 -70q-6 -38 11 -57.5t46 -19.5q55 0 72 51l82 -9q-16 -52 -57 -82.5t-93 -30.5q-72 0 -112 45.5t-29 120.5q10 69 56 108t109 39z" />
    <glyph glyph-name="ordfeminine" unicode="&#xaa;" horiz-adv-x="524" 
d="M308 757q77 0 119 -46l9 37h122l-71 -415h-119l4 26q-43 -34 -113 -34q-92 0 -140 60.5t-35 160.5q12 93 75.5 152t148.5 59zM319 645q-40 0 -68 -26.5t-35 -74.5q-7 -50 14 -79t61 -29q84 0 101 96l2 11q7 47 -14 74.5t-61 27.5z" />
    <glyph glyph-name="guillemotleft" unicode="&#xab;" horiz-adv-x="581" 
d="M325 415l-150 -169l84 -155l-117 -68l-128 238l199 233zM596 415l-150 -169l84 -155l-117 -68l-128 238l199 233z" />
    <glyph glyph-name="logicalnot" unicode="&#xac;" 
d="M544 147h-114l34 190h-417l20 113h531z" />
    <glyph glyph-name="registered" unicode="&#xae;" horiz-adv-x="595" 
d="M367 761q120 0 189.5 -77t53.5 -189q-15 -106 -98.5 -176t-195.5 -70q-122 0 -191.5 77t-53.5 191q16 106 99.5 175t196.5 69zM553 503q13 90 -39 149t-145 59q-92 0 -160 -57t-81 -145q-13 -91 39.5 -150.5t146.5 -59.5q91 0 159 57.5t80 146.5zM251 659h135
q45 0 69.5 -29.5t15.5 -79.5q-10 -60 -58 -81l35 -116h-85l-31 106h-36l-19 -106h-80zM306 523h36q44 0 50 36q6 35 -33 35h-40z" />
    <glyph glyph-name="macron" unicode="&#xaf;" horiz-adv-x="317" 
d="M372 619h-300l20 112h300z" />
    <glyph glyph-name="degree" unicode="&#xb0;" horiz-adv-x="377" 
d="M265 758q76 0 117 -42.5t28 -112.5l-3 -22q-12 -69 -60.5 -107t-116.5 -38q-76 0 -116.5 42.5t-27.5 112.5l4 22q12 70 59 107.5t116 37.5zM262 669q-61 0 -73 -64l-4 -16q-6 -30 7.5 -47t40.5 -17q30 0 50.5 17.5t25.5 48.5l2 14q10 64 -49 64z" />
    <glyph glyph-name="plusminus" unicode="&#xb1;" horiz-adv-x="548" 
d="M395 547h172l-23 -132h-172l-31 -177h-142l31 177h-172l24 132h172l31 176h141zM480 50h-486l25 136h485z" />
    <glyph glyph-name="acute" unicode="&#xb4;" horiz-adv-x="268" 
d="M184 598h-117l119 191h168z" />
    <glyph glyph-name="paragraph" unicode="&#xb6;" horiz-adv-x="711" 
d="M760 640h-69l-125 -707h-112l124 707h-96l-125 -707h-112l77 435h-50q-97 0 -148 52t-35 148q15 89 78 134.5t160 45.5h453z" />
    <glyph glyph-name="periodcentered" unicode="&#xb7;" horiz-adv-x="269" 
d="M148 412q41 0 65.5 -29t17.5 -69q-7 -34 -33.5 -56.5t-58.5 -22.5q-41 0 -65 28.5t-16 69.5q5 33 31.5 56t58.5 23z" />
    <glyph glyph-name="cedilla" unicode="&#xb8;" horiz-adv-x="274" 
d="M116 12l-25 -53q48 -4 75.5 -33t18.5 -80q-8 -47 -50 -72.5t-93 -25.5q-64 0 -106 21l27 73q17 -12 52 -12q58 0 65 33q3 17 -8 28t-29 11q-23 0 -45 -6l52 116h66z" />
    <glyph glyph-name="ordmasculine" unicode="&#xba;" horiz-adv-x="513" 
d="M326 757q102 0 159 -63t42 -163q-13 -93 -79.5 -149.5t-159.5 -56.5q-102 0 -159.5 62.5t-42.5 162.5q13 93 80 150t160 57zM324 645q-43 0 -73.5 -30t-36.5 -81q-4 -46 16.5 -72t58.5 -26q43 0 74 30t36 80q5 47 -15.5 73t-59.5 26z" />
    <glyph glyph-name="guillemotright" unicode="&#xbb;" horiz-adv-x="581" 
d="M298 256l-199 -233l-112 79l150 168l-85 156l118 68zM568 256l-198 -233l-112 79l150 168l-85 156l118 68z" />
    <glyph glyph-name="onequarter" unicode="&#xbc;" horiz-adv-x="703" 
d="M139 0h-152l638 748h152zM211 322h-112l42 227l-51 -31l-33 91l226 131zM625 128h39l-15 -84h-40l-7 -44h-105l7 44h-202l374 384zM471 128h49l12 62z" />
    <glyph glyph-name="onehalf" unicode="&#xbd;" horiz-adv-x="780" 
d="M139 0h-152l638 748h152zM211 322h-112l42 227l-51 -31l-33 91l226 131zM631 418q74 0 105.5 -36t21.5 -98q-11 -60 -81 -138l-44 -47h92l-17 -99h-284l168 201q51 57 55 94q3 24 -20 24q-29 0 -37 -40l-107 9q12 61 51.5 95.5t96.5 34.5z" />
    <glyph glyph-name="threequarters" unicode="&#xbe;" horiz-adv-x="781" 
d="M217 0h-152l638 748h152zM237 739q69 0 101 -36.5t21 -97.5q-8 -48 -56 -78q18 -8 28 -32.5t4 -57.5q-10 -58 -51.5 -90.5t-99.5 -32.5q-71 0 -105 37t-24 94l112 4q-3 -35 22 -35q14 0 25 13t12 32q4 27 -26 27h-47l15 88h37q16 0 31.5 13.5t16.5 33.5q3 21 -20 21
q-13 0 -23.5 -10.5t-13.5 -27.5l-105 10q20 125 146 125zM703 128h39l-15 -84h-40l-7 -44h-105l7 44h-202l374 384zM549 128h49l12 62z" />
    <glyph glyph-name="questiondown" unicode="&#xbf;" horiz-adv-x="535" 
d="M295 351q-41 0 -65 28.5t-17 69.5q6 33 32.5 55.5t58.5 22.5q41 0 65 -28t17 -69q-6 -33 -32.5 -56t-58.5 -23zM192 -243q-121 0 -181 64.5t-40 171.5q9 54 39 91.5t80 71.5l24.5 17.5t23.5 17.5t18 15.5t17 17.5t10.5 17.5t7.5 22.5l4 24h154l-6 -35q-13 -84 -116 -161
q-2 -2 -14 -10t-14.5 -10t-13 -9.5t-13 -10t-10.5 -9.5t-11 -11t-8.5 -11t-7.5 -12.5t-5 -12.5t-4 -15q-7 -40 13.5 -64t61.5 -24q94 0 119 102l150 -14q-22 -103 -97 -163.5t-181 -60.5z" />
    <glyph glyph-name="Agrave" unicode="&#xc0;" horiz-adv-x="806" 
d="M557 795h-130l-167 154h196zM742 0h-170l-30 109h-318l-70 -109h-184l518 763zM307 235h194l-58 212z" />
    <glyph glyph-name="Aacute" unicode="&#xc1;" horiz-adv-x="806" 
d="M566 795h-136l155 154h202zM742 0h-170l-30 109h-318l-70 -109h-184l518 763zM307 235h194l-58 212z" />
    <glyph glyph-name="Acircumflex" unicode="&#xc2;" horiz-adv-x="806" 
d="M684 795h-120l-48 75l-81 -75h-125l144 160h141zM742 0h-170l-30 109h-318l-70 -109h-184l518 763zM307 235h194l-58 212z" />
    <glyph glyph-name="Atilde" unicode="&#xc3;" horiz-adv-x="806" 
d="M449 959q37 0 68 -26.5t51 -26.5q50 0 58 45h79q1 -65 -38.5 -109.5t-91.5 -44.5q-38 0 -69 26.5t-50 26.5q-49 0 -58 -47h-79q-1 65 38.5 110.5t91.5 45.5zM742 0h-170l-30 109h-318l-70 -109h-184l518 763zM307 235h194l-58 212z" />
    <glyph glyph-name="Adieresis" unicode="&#xc4;" horiz-adv-x="806" 
d="M419 957q38 0 60 -26t15 -62q-5 -30 -28 -50t-52 -20q-37 0 -59 25.5t-16 62.5q5 30 28 50t52 20zM612 957q37 0 59 -26t16 -62q-5 -30 -28.5 -50t-52.5 -20q-37 0 -59 25.5t-15 62.5q5 30 28 50t52 20zM742 0h-170l-30 109h-318l-70 -109h-184l518 763zM307 235h194
l-58 212z" />
    <glyph glyph-name="Aring" unicode="&#xc5;" horiz-adv-x="806" 
d="M525 1008q52 0 82.5 -33.5t20.5 -83.5q-7 -43 -41 -70.5t-77 -27.5q-53 0 -84 33.5t-23 82.5q8 44 42.5 71.5t79.5 27.5zM521 941q-17 0 -30 -10.5t-16 -27.5t7.5 -29.5t29.5 -12.5q17 0 29.5 10t15.5 27q3 18 -7 30.5t-29 12.5zM742 0h-170l-30 109h-318l-70 -109h-184
l518 763zM307 235h194l-58 212z" />
    <glyph glyph-name="AE" unicode="&#xc6;" horiz-adv-x="1036" 
d="M725 612l-28 -162h282l-24 -133h-282l-31 -180h326l-24 -137h-480l19 109h-240l-93 -109h-192l636 748h481l-24 -136h-326zM505 235l42 238l-199 -238h157z" />
    <glyph glyph-name="Ccedilla" unicode="&#xc7;" horiz-adv-x="826" 
d="M405 126q82 0 141.5 42t85.5 119l159 -18q-39 -129 -144.5 -204.5t-238.5 -75.5l-17 -35q48 -4 75.5 -33t18.5 -80q-8 -47 -50 -72.5t-93 -25.5q-64 0 -106 21l27 73q17 -12 52 -12q58 0 65 33q3 17 -8 28t-29 11q-23 0 -45 -6l46 102q-144 20 -220 123.5t-53 266.5
q24 175 141 275.5t280 100.5q143 0 233 -77.5t92 -208.5l-160 -12q-4 78 -50.5 119.5t-121.5 41.5q-103 0 -173 -70t-87 -187q-16 -114 36 -176.5t144 -62.5z" />
    <glyph glyph-name="Egrave" unicode="&#xc8;" 
d="M473 795h-130l-167 154h196zM616 612h-325l-28 -162h282l-24 -133h-282l-32 -180h326l-24 -137h-480l132 748h480z" />
    <glyph glyph-name="Eacute" unicode="&#xc9;" 
d="M482 795h-136l155 154h202zM616 612h-325l-28 -162h282l-24 -133h-282l-32 -180h326l-24 -137h-480l132 748h480z" />
    <glyph glyph-name="Ecircumflex" unicode="&#xca;" 
d="M600 795h-120l-48 75l-81 -75h-125l144 160h141zM616 612h-325l-28 -162h282l-24 -133h-282l-32 -180h326l-24 -137h-480l132 748h480z" />
    <glyph glyph-name="Edieresis" unicode="&#xcb;" 
d="M335 957q38 0 60 -26t15 -62q-5 -30 -28 -50t-52 -20q-37 0 -59 25.5t-16 62.5q5 30 28 50t52 20zM528 957q37 0 59 -26t16 -62q-5 -30 -28.5 -50t-52.5 -20q-37 0 -59 25.5t-15 62.5q5 30 28 50t52 20zM616 612h-325l-28 -162h282l-24 -133h-282l-32 -180h326l-24 -137
h-480l132 748h480z" />
    <glyph glyph-name="Igrave" unicode="&#xcc;" horiz-adv-x="305" 
d="M311 795h-130l-167 154h196zM183 0h-154l132 748h154z" />
    <glyph glyph-name="Iacute" unicode="&#xcd;" horiz-adv-x="305" 
d="M320 795h-136l155 154h202zM183 0h-154l132 748h154z" />
    <glyph glyph-name="Icircumflex" unicode="&#xce;" horiz-adv-x="305" 
d="M438 795h-120l-48 75l-81 -75h-125l144 160h141zM183 0h-154l132 748h154z" />
    <glyph glyph-name="Idieresis" unicode="&#xcf;" horiz-adv-x="305" 
d="M173 957q38 0 60 -26t15 -62q-5 -30 -28 -50t-52 -20q-37 0 -59 25.5t-16 62.5q5 30 28 50t52 20zM366 957q37 0 59 -26t16 -62q-5 -30 -28.5 -50t-52.5 -20q-37 0 -59 25.5t-15 62.5q5 30 28 50t52 20zM183 0h-154l132 748h154z" />
    <glyph glyph-name="Eth" unicode="&#xd0;" horiz-adv-x="805" 
d="M161 748h288q165 0 259 -104t64 -279q-29 -175 -141.5 -270t-275.5 -95h-326l56 315h-67l20 117h67zM623 381q16 115 -32.5 175t-148.5 60h-150l-32 -184h126l-20 -117h-127l-32 -183h159q102 0 171 64t86 185z" />
    <glyph glyph-name="Ntilde" unicode="&#xd1;" horiz-adv-x="748" 
d="M412 959q37 0 68 -26.5t51 -26.5q50 0 58 45h79q1 -65 -38.5 -109.5t-91.5 -44.5q-38 0 -69 26.5t-50 26.5q-49 0 -58 -47h-79q-1 65 38.5 110.5t91.5 45.5zM528 327l76 421h154l-132 -762l-366 434l-77 -420h-154l133 762z" />
    <glyph glyph-name="Ograve" unicode="&#xd2;" horiz-adv-x="875" 
d="M588 795h-130l-167 154h196zM488 759q174 0 275 -108.5t81 -285.5q-19 -171 -134.5 -273.5t-280.5 -102.5q-176 0 -277 108.5t-81 285.5q19 171 135 273.5t282 102.5zM486 622q-108 0 -179 -69.5t-81 -187.5q-10 -111 47 -175t157 -64q107 0 178.5 69.5t81.5 187.5
q9 111 -48 175t-156 64z" />
    <glyph glyph-name="Oacute" unicode="&#xd3;" horiz-adv-x="875" 
d="M596 795h-136l155 154h202zM488 759q174 0 275 -108.5t81 -285.5q-19 -171 -134.5 -273.5t-280.5 -102.5q-176 0 -277 108.5t-81 285.5q19 171 135 273.5t282 102.5zM486 622q-108 0 -179 -69.5t-81 -187.5q-10 -111 47 -175t157 -64q107 0 178.5 69.5t81.5 187.5
q9 111 -48 175t-156 64z" />
    <glyph glyph-name="Ocircumflex" unicode="&#xd4;" horiz-adv-x="875" 
d="M714 795h-120l-48 75l-81 -75h-125l144 160h141zM488 759q174 0 275 -108.5t81 -285.5q-19 -171 -134.5 -273.5t-280.5 -102.5q-176 0 -277 108.5t-81 285.5q19 171 135 273.5t282 102.5zM486 622q-108 0 -179 -69.5t-81 -187.5q-10 -111 47 -175t157 -64
q107 0 178.5 69.5t81.5 187.5q9 111 -48 175t-156 64z" />
    <glyph glyph-name="Otilde" unicode="&#xd5;" horiz-adv-x="875" 
d="M479 959q37 0 68 -26.5t51 -26.5q50 0 58 45h79q1 -65 -38.5 -109.5t-91.5 -44.5q-38 0 -69 26.5t-50 26.5q-49 0 -58 -47h-79q-1 65 38.5 110.5t91.5 45.5zM488 759q174 0 275 -108.5t81 -285.5q-19 -171 -134.5 -273.5t-280.5 -102.5q-176 0 -277 108.5t-81 285.5
q19 171 135 273.5t282 102.5zM486 622q-108 0 -179 -69.5t-81 -187.5q-10 -111 47 -175t157 -64q107 0 178.5 69.5t81.5 187.5q9 111 -48 175t-156 64z" />
    <glyph glyph-name="Odieresis" unicode="&#xd6;" horiz-adv-x="875" 
d="M450 957q38 0 60 -26t15 -62q-5 -30 -28 -50t-52 -20q-37 0 -59 25.5t-16 62.5q5 30 28 50t52 20zM643 957q37 0 59 -26t16 -62q-5 -30 -28.5 -50t-52.5 -20q-37 0 -59 25.5t-15 62.5q5 30 28 50t52 20zM488 759q174 0 275 -108.5t81 -285.5q-19 -171 -134.5 -273.5
t-280.5 -102.5q-176 0 -277 108.5t-81 285.5q19 171 135 273.5t282 102.5zM486 622q-108 0 -179 -69.5t-81 -187.5q-10 -111 47 -175t157 -64q107 0 178.5 69.5t81.5 187.5q9 111 -48 175t-156 64z" />
    <glyph glyph-name="multiply" unicode="&#xd7;" horiz-adv-x="549" 
d="M550 502l-159 -135l112 -134l-107 -93l-112 135l-160 -138l-87 101l161 137l-111 135l106 92l111 -135l158 135z" />
    <glyph glyph-name="Oslash" unicode="&#xd8;" horiz-adv-x="875" 
d="M861 728l-86 -91q88 -109 69 -272q-19 -171 -134.5 -273.5t-280.5 -102.5q-122 0 -210 54l-87 -92l-86 72l89 95q-82 105 -64 265q19 171 135 273.5t282 102.5q114 0 202 -50l85 90zM226 365q-6 -75 19 -130l343 365q-46 22 -102 22q-108 0 -179 -69.5t-81 -187.5z
M690 383q6 82 -23 138l-346 -369q46 -26 109 -26q107 0 178.5 69.5t81.5 187.5z" />
    <glyph glyph-name="Ugrave" unicode="&#xd9;" horiz-adv-x="777" 
d="M542 795h-130l-167 154h196zM793 748l-79 -449q-27 -149 -121.5 -229.5t-240.5 -80.5q-151 0 -225 85.5t-48 233.5l77 440h155l-79 -444q-16 -88 18 -133t112 -45q83 0 134 47.5t66 134.5l77 440h154z" />
    <glyph glyph-name="Uacute" unicode="&#xda;" horiz-adv-x="777" 
d="M551 795h-136l155 154h202zM793 748l-79 -449q-27 -149 -121.5 -229.5t-240.5 -80.5q-151 0 -225 85.5t-48 233.5l77 440h155l-79 -444q-16 -88 18 -133t112 -45q83 0 134 47.5t66 134.5l77 440h154z" />
    <glyph glyph-name="Ucircumflex" unicode="&#xdb;" horiz-adv-x="777" 
d="M669 795h-120l-48 75l-81 -75h-125l144 160h141zM793 748l-79 -449q-27 -149 -121.5 -229.5t-240.5 -80.5q-151 0 -225 85.5t-48 233.5l77 440h155l-79 -444q-16 -88 18 -133t112 -45q83 0 134 47.5t66 134.5l77 440h154z" />
    <glyph glyph-name="Udieresis" unicode="&#xdc;" horiz-adv-x="777" 
d="M404 957q38 0 60 -26t15 -62q-5 -30 -28 -50t-52 -20q-37 0 -59 25.5t-16 62.5q5 30 28 50t52 20zM597 957q37 0 59 -26t16 -62q-5 -30 -28.5 -50t-52.5 -20q-37 0 -59 25.5t-15 62.5q5 30 28 50t52 20zM793 748l-79 -449q-27 -149 -121.5 -229.5t-240.5 -80.5
q-151 0 -225 85.5t-48 233.5l77 440h155l-79 -444q-16 -88 18 -133t112 -45q83 0 134 47.5t66 134.5l77 440h154z" />
    <glyph glyph-name="Yacute" unicode="&#xdd;" horiz-adv-x="744" 
d="M535 795h-136l155 154h202zM457 288l-53 -288h-154l53 288l-203 460h172l124 -304l236 304h189z" />
    <glyph glyph-name="Thorn" unicode="&#xde;" horiz-adv-x="656" 
d="M299 653h152q110 0 167 -67t36 -182q-19 -110 -94 -170.5t-183 -60.5h-163l-30 -173h-155l132 748h155zM275 516l-36 -206h133q46 0 82.5 30t45.5 82q9 46 -13.5 70t-68.5 24h-143z" />
    <glyph glyph-name="germandbls" unicode="&#xdf;" horiz-adv-x="659" 
d="M390 785q113 0 172.5 -51t45.5 -134q-6 -34 -24 -59.5t-36.5 -38t-35.5 -32t-22 -44.5q-4 -21 9 -40t33 -36t39.5 -37.5t29.5 -54.5t2 -77q-16 -90 -86.5 -139.5t-167.5 -49.5q-64 0 -113 18l39 117q33 -13 67 -13q45 0 78.5 22t41.5 67q4 26 -8 50.5t-31.5 44t-39 40
t-31 47t-6.5 56.5q5 31 22.5 53t35.5 32t34.5 27t20.5 39q6 32 -13 52t-58 20q-47 0 -79 -29t-40 -77l-98 -558h-146l101 571q17 99 89 156.5t175 57.5z" />
    <glyph glyph-name="agrave" unicode="&#xe0;" horiz-adv-x="657" 
d="M431 598h-110l-102 191h162zM321 527q57 0 97.5 -20t59.5 -50l14 60h137l-89 -517h-136l7 47q-50 -58 -145 -58q-115 0 -176.5 77t-43.5 202q16 118 90 188.5t185 70.5zM333 402q-56 0 -94.5 -36t-47.5 -102q-9 -69 21.5 -109t85.5 -40q56 0 93 33.5t45 93.5l4 24
q9 64 -21 100t-86 36z" />
    <glyph glyph-name="aacute" unicode="&#xe1;" horiz-adv-x="657" 
d="M435 598h-117l119 191h168zM321 527q57 0 97.5 -20t59.5 -50l14 60h137l-89 -517h-136l7 47q-50 -58 -145 -58q-115 0 -176.5 77t-43.5 202q16 118 90 188.5t185 70.5zM333 402q-56 0 -94.5 -36t-47.5 -102q-9 -69 21.5 -109t85.5 -40q56 0 93 33.5t45 93.5l4 24
q9 64 -21 100t-86 36z" />
    <glyph glyph-name="acircumflex" unicode="&#xe2;" horiz-adv-x="657" 
d="M566 599h-120l-47 82l-82 -82h-126l148 177h141zM321 527q57 0 97.5 -20t59.5 -50l14 60h137l-89 -517h-136l7 47q-50 -58 -145 -58q-115 0 -176.5 77t-43.5 202q16 118 90 188.5t185 70.5zM333 402q-56 0 -94.5 -36t-47.5 -102q-9 -69 21.5 -109t85.5 -40q56 0 93 33.5
t45 93.5l4 24q9 64 -21 100t-86 36z" />
    <glyph glyph-name="atilde" unicode="&#xe3;" horiz-adv-x="657" 
d="M330 761q29 0 49.5 -13.5t36 -27t33.5 -13.5q50 0 58 46h80q1 -65 -39 -110t-92 -45q-38 0 -69 26.5t-50 26.5q-49 0 -58 -47h-79q-1 65 38.5 111t91.5 46zM321 527q57 0 97.5 -20t59.5 -50l14 60h137l-89 -517h-136l7 47q-50 -58 -145 -58q-115 0 -176.5 77t-43.5 202
q16 118 90 188.5t185 70.5zM333 402q-56 0 -94.5 -36t-47.5 -102q-9 -69 21.5 -109t85.5 -40q56 0 93 33.5t45 93.5l4 24q9 64 -21 100t-86 36z" />
    <glyph glyph-name="adieresis" unicode="&#xe4;" horiz-adv-x="657" 
d="M299 757q37 0 59.5 -26t15.5 -61q-6 -30 -29 -50t-52 -20q-37 0 -58.5 25.5t-15.5 62.5q5 30 28 49.5t52 19.5zM492 757q37 0 59 -26t16 -61q-6 -31 -29.5 -50.5t-52.5 -19.5q-37 0 -58.5 25.5t-14.5 62.5q4 30 27.5 49.5t52.5 19.5zM321 527q57 0 97.5 -20t59.5 -50
l14 60h137l-89 -517h-136l7 47q-50 -58 -145 -58q-115 0 -176.5 77t-43.5 202q16 118 90 188.5t185 70.5zM333 402q-56 0 -94.5 -36t-47.5 -102q-9 -69 21.5 -109t85.5 -40q56 0 93 33.5t45 93.5l4 24q9 64 -21 100t-86 36z" />
    <glyph glyph-name="aring" unicode="&#xe5;" horiz-adv-x="657" 
d="M407 823q60 0 94.5 -37.5t24.5 -93.5q-9 -50 -49 -81.5t-90 -31.5q-60 0 -94.5 37.5t-24.5 93.5q8 50 48 81.5t91 31.5zM400 745q-18 0 -31.5 -11.5t-16.5 -29.5q-4 -20 7.5 -33t32.5 -13q18 0 31 10.5t17 28.5q3 21 -8 34.5t-32 13.5zM321 527q57 0 97.5 -20t59.5 -50
l14 60h137l-89 -517h-136l7 47q-50 -58 -145 -58q-115 0 -176.5 77t-43.5 202q16 118 90 188.5t185 70.5zM333 402q-56 0 -94.5 -36t-47.5 -102q-9 -69 21.5 -109t85.5 -40q56 0 93 33.5t45 93.5l4 24q9 64 -21 100t-86 36z" />
    <glyph glyph-name="ae" unicode="&#xe6;" horiz-adv-x="892" 
d="M631 527q117 0 179 -71.5t43 -191.5l-8 -52h-354q-4 -50 20.5 -77.5t73.5 -27.5q73 0 101 57l147 -10q-24 -77 -93 -121t-157 -44q-130 0 -195 82q-85 -82 -195 -82q-90 0 -135 44t-32 119q23 137 229 148l96 5l4 23q7 35 -6.5 56t-45.5 21q-39 0 -60 -21t-26 -51
l-143 11q13 73 78 128t158 55q99 0 147 -55q73 55 174 55zM629 413q-48 0 -80.5 -27.5t-43.5 -76.5h207q7 50 -15 77t-68 27zM335 208l-74 -4q-81 -5 -91 -55q-4 -22 9.5 -33.5t41.5 -11.5q38 0 70.5 23t39.5 66z" />
    <glyph glyph-name="ccedilla" unicode="&#xe7;" horiz-adv-x="592" 
d="M285 115q45 0 76.5 23t43.5 60l141 -15q-27 -90 -97 -142t-162 -52l-16 -34q48 -4 75.5 -33t18.5 -80q-8 -47 -50 -72.5t-93 -25.5q-64 0 -106 21l27 73q17 -12 52 -12q58 0 65 33q3 17 -8 28t-29 11q-23 0 -45 -6l46 103q-94 18 -143 90.5t-35 182.5q15 121 94.5 190
t192.5 69q100 0 163 -55.5t66 -147.5l-142 -10q0 42 -23.5 65t-64.5 23q-56 0 -93.5 -40.5t-47.5 -112.5q-9 -63 18 -98.5t76 -35.5z" />
    <glyph glyph-name="egrave" unicode="&#xe8;" horiz-adv-x="598" 
d="M304 598l-102 191h162l50 -191h-110zM333 527q117 0 179 -71.5t43 -191.5l-8 -52h-354q-4 -50 20.5 -77.5t73.5 -27.5q75 0 101 57l147 -10q-24 -77 -93 -121t-157 -44q-124 0 -190.5 75.5t-48.5 203.5q17 120 95.5 189.5t191.5 69.5zM331 413q-48 0 -80.5 -27.5
t-43.5 -76.5h207q7 50 -15 77t-68 27z" />
    <glyph glyph-name="eacute" unicode="&#xe9;" horiz-adv-x="598" 
d="M418 598h-117l119 191h168zM333 527q117 0 179 -71.5t43 -191.5l-8 -52h-354q-4 -50 20.5 -77.5t73.5 -27.5q75 0 101 57l147 -10q-24 -77 -93 -121t-157 -44q-124 0 -190.5 75.5t-48.5 203.5q17 120 95.5 189.5t191.5 69.5zM331 413q-48 0 -80.5 -27.5t-43.5 -76.5h207
q7 50 -15 77t-68 27z" />
    <glyph glyph-name="ecircumflex" unicode="&#xea;" horiz-adv-x="598" 
d="M300 599h-126l148 177h141l86 -177h-120l-47 82zM333 527q117 0 179 -71.5t43 -191.5l-8 -52h-354q-4 -50 20.5 -77.5t73.5 -27.5q75 0 101 57l147 -10q-24 -77 -93 -121t-157 -44q-124 0 -190.5 75.5t-48.5 203.5q17 120 95.5 189.5t191.5 69.5zM331 413
q-48 0 -80.5 -27.5t-43.5 -76.5h207q7 50 -15 77t-68 27z" />
    <glyph glyph-name="edieresis" unicode="&#xeb;" horiz-adv-x="598" 
d="M275 600q-37 0 -58.5 25.5t-15.5 62.5q5 30 28 49.5t52 19.5q37 0 59.5 -26t15.5 -61q-6 -30 -29 -50t-52 -20zM467 600q-37 0 -58.5 25.5t-14.5 62.5q4 30 27.5 49.5t52.5 19.5q37 0 59 -26t16 -61q-6 -31 -29.5 -50.5t-52.5 -19.5zM333 527q117 0 179 -71.5t43 -191.5
l-8 -52h-354q-4 -50 20.5 -77.5t73.5 -27.5q75 0 101 57l147 -10q-24 -77 -93 -121t-157 -44q-124 0 -190.5 75.5t-48.5 203.5q17 120 95.5 189.5t191.5 69.5zM331 413q-48 0 -80.5 -27.5t-43.5 -76.5h207q7 50 -15 77t-68 27z" />
    <glyph glyph-name="igrave" unicode="&#xec;" horiz-adv-x="291" 
d="M259 598h-110l-102 191h162zM172 0h-146l92 517h145z" />
    <glyph glyph-name="iacute" unicode="&#xed;" horiz-adv-x="291" 
d="M264 598h-117l119 191h168zM172 0h-146l92 517h145z" />
    <glyph glyph-name="icircumflex" unicode="&#xee;" horiz-adv-x="291" 
d="M394 599h-120l-47 82l-82 -82h-126l148 177h141zM172 0h-146l92 517h145z" />
    <glyph glyph-name="idieresis" unicode="&#xef;" horiz-adv-x="291" 
d="M127 757q37 0 59.5 -26t15.5 -61q-6 -30 -29 -50t-52 -20q-37 0 -58.5 25.5t-15.5 62.5q5 30 28 49.5t52 19.5zM320 757q37 0 59 -26t16 -61q-6 -31 -29.5 -50.5t-52.5 -19.5q-37 0 -58.5 25.5t-14.5 62.5q4 30 27.5 49.5t52.5 19.5zM172 0h-146l92 517h145z" />
    <glyph glyph-name="eth" unicode="&#xf0;" horiz-adv-x="608" 
d="M563 272l-1 -9l-1 -4q-23 -132 -97.5 -201t-189.5 -69q-113 0 -183 70.5t-50 188.5q19 108 95 170t177 62q62 0 119 -25q-6 82 -42 134l-81 -66l-58 65l70 58q-46 21 -113 24l9 107q123 0 205 -50l91 75l60 -63l-83 -68q117 -135 73 -399zM281 107q53 0 89 36t47 96
q9 59 -18 93t-80 34q-54 0 -92 -38t-45 -100q-7 -56 20.5 -88.5t78.5 -32.5z" />
    <glyph glyph-name="ntilde" unicode="&#xf1;" horiz-adv-x="618" 
d="M331 761q37 0 68 -27t51 -27q50 0 58 46h80q1 -65 -39 -110t-92 -45q-38 0 -69 26.5t-50 26.5q-49 0 -58 -47h-79q-1 65 38.5 111t91.5 46zM386 527q92 0 141.5 -58.5t31.5 -158.5l-55 -310h-146l51 289q9 49 -10 75.5t-60 26.5q-47 0 -77 -29t-39 -77l-51 -285h-146
l92 517h133l-7 -47q46 57 142 57z" />
    <glyph glyph-name="ograve" unicode="&#xf2;" horiz-adv-x="638" 
d="M421 598h-110l-102 191h162zM339 527q124 0 196 -77t57 -201q-13 -117 -95.5 -188.5t-197.5 -71.5q-125 0 -197 77t-57 202q13 117 95.5 188t198.5 71zM341 402q-61 0 -102 -41.5t-47 -111.5q-5 -63 24 -98.5t82 -35.5q62 0 103 41.5t47 111.5q4 63 -25 98.5t-82 35.5z
" />
    <glyph glyph-name="oacute" unicode="&#xf3;" horiz-adv-x="638" 
d="M426 598h-117l119 191h168zM339 527q124 0 196 -77t57 -201q-13 -117 -95.5 -188.5t-197.5 -71.5q-125 0 -197 77t-57 202q13 117 95.5 188t198.5 71zM341 402q-61 0 -102 -41.5t-47 -111.5q-5 -63 24 -98.5t82 -35.5q62 0 103 41.5t47 111.5q4 63 -25 98.5t-82 35.5z
" />
    <glyph glyph-name="ocircumflex" unicode="&#xf4;" horiz-adv-x="638" 
d="M556 599h-120l-47 82l-82 -82h-126l148 177h141zM339 527q124 0 196 -77t57 -201q-13 -117 -95.5 -188.5t-197.5 -71.5q-125 0 -197 77t-57 202q13 117 95.5 188t198.5 71zM341 402q-61 0 -102 -41.5t-47 -111.5q-5 -63 24 -98.5t82 -35.5q62 0 103 41.5t47 111.5
q4 63 -25 98.5t-82 35.5z" />
    <glyph glyph-name="otilde" unicode="&#xf5;" horiz-adv-x="638" 
d="M320 761q29 0 49.5 -13.5t36 -27t33.5 -13.5q50 0 58 46h80q1 -65 -39 -110t-92 -45q-38 0 -69 26.5t-50 26.5q-49 0 -58 -47h-79q-1 65 38.5 111t91.5 46zM339 527q124 0 196 -77t57 -201q-13 -117 -95.5 -188.5t-197.5 -71.5q-125 0 -197 77t-57 202q13 117 95.5 188
t198.5 71zM341 402q-61 0 -102 -41.5t-47 -111.5q-5 -63 24 -98.5t82 -35.5q62 0 103 41.5t47 111.5q4 63 -25 98.5t-82 35.5z" />
    <glyph glyph-name="odieresis" unicode="&#xf6;" horiz-adv-x="638" 
d="M289 757q37 0 59.5 -26t15.5 -61q-6 -30 -29 -50t-52 -20q-37 0 -58.5 25.5t-15.5 62.5q5 30 28 49.5t52 19.5zM482 757q37 0 59 -26t16 -61q-6 -31 -29.5 -50.5t-52.5 -19.5q-37 0 -58.5 25.5t-14.5 62.5q4 30 27.5 49.5t52.5 19.5zM339 527q124 0 196 -77t57 -201
q-13 -117 -95.5 -188.5t-197.5 -71.5q-125 0 -197 77t-57 202q13 117 95.5 188t198.5 71zM341 402q-61 0 -102 -41.5t-47 -111.5q-5 -63 24 -98.5t82 -35.5q62 0 103 41.5t47 111.5q4 63 -25 98.5t-82 35.5z" />
    <glyph glyph-name="divide" unicode="&#xf7;" horiz-adv-x="548" 
d="M341 702q41 0 65 -29t17 -69q-5 -33 -31.5 -55.5t-59.5 -22.5q-41 0 -65 28t-16 68q5 34 31.5 57t58.5 23zM524 303h-486l25 137h485zM256 218q41 0 65 -28.5t17 -69.5q-6 -33 -33 -56t-59 -23q-41 0 -64.5 29t-16.5 69q6 34 32.5 56.5t58.5 22.5z" />
    <glyph glyph-name="oslash" unicode="&#xf8;" horiz-adv-x="638" 
d="M602 492l-54 -58q57 -75 44 -185q-13 -117 -95.5 -188.5t-197.5 -71.5q-77 0 -134 30l-60 -65l-74 59l60 65q-59 77 -46 190q13 117 95.5 188t198.5 71q79 0 137 -32l53 57zM192 249q-3 -30 4 -57l188 203q-18 7 -43 7q-61 0 -102 -41.5t-47 -111.5zM448 268q2 32 -4 53
l-185 -200q18 -6 39 -6q62 0 103 41.5t47 111.5z" />
    <glyph glyph-name="ugrave" unicode="&#xf9;" 
d="M413 598h-110l-102 191h162zM484 0h-132l7 51q-47 -62 -138 -62q-93 0 -137 54.5t-28 149.5l57 324h146l-52 -296q-17 -96 63 -96q45 0 72.5 26.5t35.5 72.5l52 293h146z" />
    <glyph glyph-name="uacute" unicode="&#xfa;" 
d="M417 598h-117l119 191h168zM484 0h-132l7 51q-47 -62 -138 -62q-93 0 -137 54.5t-28 149.5l57 324h146l-52 -296q-17 -96 63 -96q45 0 72.5 26.5t35.5 72.5l52 293h146z" />
    <glyph glyph-name="ucircumflex" unicode="&#xfb;" 
d="M548 599h-120l-47 82l-82 -82h-126l148 177h141zM484 0h-132l7 51q-47 -62 -138 -62q-93 0 -137 54.5t-28 149.5l57 324h146l-52 -296q-17 -96 63 -96q45 0 72.5 26.5t35.5 72.5l52 293h146z" />
    <glyph glyph-name="udieresis" unicode="&#xfc;" 
d="M281 757q37 0 59.5 -26t15.5 -61q-6 -30 -29 -50t-52 -20q-37 0 -58.5 25.5t-15.5 62.5q5 30 28 49.5t52 19.5zM474 757q37 0 59 -26t16 -61q-6 -31 -29.5 -50.5t-52.5 -19.5q-37 0 -58.5 25.5t-14.5 62.5q4 30 27.5 49.5t52.5 19.5zM484 0h-132l7 51q-47 -62 -138 -62
q-93 0 -137 54.5t-28 149.5l57 324h146l-52 -296q-17 -96 63 -96q45 0 72.5 26.5t35.5 72.5l52 293h146z" />
    <glyph glyph-name="yacute" unicode="&#xfd;" horiz-adv-x="587" 
d="M418 598h-117l119 191h168zM86 -255h-174l275 388l-133 384h156l78 -248l171 248h171z" />
    <glyph glyph-name="thorn" unicode="&#xfe;" horiz-adv-x="657" 
d="M310 777l-57 -300q50 50 143 50q115 0 175 -77.5t40 -202.5q-18 -118 -94 -188t-184 -70q-104 0 -147 61l-58 -305h-146l182 1032h146zM361 402q-56 0 -93.5 -33.5t-47.5 -94.5l-3 -23q-10 -65 19 -101t85 -36q57 0 96 36.5t48 102.5q11 69 -19 109t-85 40z" />
    <glyph glyph-name="ydieresis" unicode="&#xff;" horiz-adv-x="587" 
d="M282 757q37 0 59.5 -26t15.5 -61q-6 -30 -29 -50t-52 -20q-37 0 -58.5 25.5t-15.5 62.5q5 30 28 49.5t52 19.5zM475 757q37 0 59 -26t16 -61q-6 -31 -29.5 -50.5t-52.5 -19.5q-37 0 -58.5 25.5t-14.5 62.5q4 30 27.5 49.5t52.5 19.5zM86 -255h-174l275 388l-133 384h156
l78 -248l171 248h171z" />
    <glyph glyph-name="Amacron" unicode="&#x100;" horiz-adv-x="806" 
d="M651 815h-299l19 111h301zM742 0h-170l-30 109h-318l-70 -109h-184l518 763zM307 235h194l-58 212z" />
    <glyph glyph-name="amacron" unicode="&#x101;" horiz-adv-x="657" 
d="M533 619h-300l20 112h300zM321 527q57 0 97.5 -20t59.5 -50l14 60h137l-89 -517h-136l7 47q-50 -58 -145 -58q-115 0 -176.5 77t-43.5 202q16 118 90 188.5t185 70.5zM333 402q-56 0 -94.5 -36t-47.5 -102q-9 -69 21.5 -109t85.5 -40q56 0 93 33.5t45 93.5l4 24
q9 64 -21 100t-86 36z" />
    <glyph glyph-name="Abreve" unicode="&#x102;" horiz-adv-x="806" 
d="M595 961h117q-14 -84 -68.5 -124.5t-134.5 -40.5q-89 0 -135.5 43.5t-31.5 121.5h117q-6 -32 10 -48t46 -16q31 0 53 18.5t27 45.5zM742 0h-170l-30 109h-318l-70 -109h-184l518 763zM307 235h194l-58 212z" />
    <glyph glyph-name="abreve" unicode="&#x103;" horiz-adv-x="657" 
d="M475 758h117q-14 -84 -68 -124.5t-135 -40.5q-88 0 -134.5 44t-31.5 121h116q-5 -33 10.5 -49t45.5 -16q32 0 53 19t27 46zM321 527q57 0 97.5 -20t59.5 -50l14 60h137l-89 -517h-136l7 47q-50 -58 -145 -58q-115 0 -176.5 77t-43.5 202q16 118 90 188.5t185 70.5z
M333 402q-56 0 -94.5 -36t-47.5 -102q-9 -69 21.5 -109t85.5 -40q56 0 93 33.5t45 93.5l4 24q9 64 -21 100t-86 36z" />
    <glyph glyph-name="Aogonek" unicode="&#x104;" horiz-adv-x="806" 
d="M587 -115q23 0 53 14l11 -75q-40 -16 -85 -16q-59 0 -92.5 27t-24.5 77q12 67 118 107l-25 90h-318l-70 -109h-184l518 763l254 -763h-92q-43 -23 -65.5 -41.5t-26.5 -44.5q-5 -29 29 -29zM501 235l-58 212l-136 -212h194z" />
    <glyph glyph-name="aogonek" unicode="&#x105;" horiz-adv-x="657" 
d="M540 0h-19q-83 -42 -90 -85q-5 -29 29 -29q23 0 53 14l11 -75q-40 -16 -85 -16q-59 0 -92.5 27t-24.5 77q11 57 83 92l6 42q-50 -58 -145 -58q-115 0 -176.5 77t-43.5 202q16 118 90 188.5t185 70.5q57 0 97.5 -20t59.5 -50l14 60h137zM298 115q56 0 93 33.5t45 93.5
l4 24q9 64 -21 100t-86 36t-94.5 -36t-47.5 -102q-9 -69 21.5 -109t85.5 -40z" />
    <glyph glyph-name="Cacute" unicode="&#x106;" horiz-adv-x="826" 
d="M580 795h-136l155 154h202zM492 759q143 0 233 -77.5t92 -208.5l-160 -12q-4 78 -50.5 119.5t-121.5 41.5q-103 0 -173 -70t-87 -187q-16 -114 36 -176.5t144 -62.5q82 0 141.5 42t85.5 119l159 -18q-39 -129 -144.5 -204.5t-238.5 -75.5q-172 0 -267 106.5t-70 287.5
q24 175 141 275.5t280 100.5z" />
    <glyph glyph-name="cacute" unicode="&#x107;" horiz-adv-x="592" 
d="M413 598h-117l119 191h168zM333 527q100 0 163 -55.5t66 -147.5l-142 -10q0 42 -23.5 65t-64.5 23q-56 0 -93.5 -40.5t-47.5 -112.5q-9 -63 18 -98.5t76 -35.5q45 0 76.5 23t43.5 60l141 -15q-27 -90 -97.5 -142t-162.5 -52q-121 0 -188.5 75.5t-51.5 203.5
q15 121 94.5 190t192.5 69z" />
    <glyph glyph-name="Ccircumflex" unicode="&#x108;" horiz-adv-x="826" 
d="M698 795h-120l-48 75l-81 -75h-125l144 160h141zM492 759q143 0 233 -77.5t92 -208.5l-160 -12q-4 78 -50.5 119.5t-121.5 41.5q-103 0 -173 -70t-87 -187q-16 -114 36 -176.5t144 -62.5q82 0 141.5 42t85.5 119l159 -18q-39 -129 -144.5 -204.5t-238.5 -75.5
q-172 0 -267 106.5t-70 287.5q24 175 141 275.5t280 100.5z" />
    <glyph glyph-name="ccircumflex" unicode="&#x109;" horiz-adv-x="592" 
d="M544 599h-120l-47 82l-82 -82h-126l148 177h141zM333 527q100 0 163 -55.5t66 -147.5l-142 -10q0 42 -23.5 65t-64.5 23q-56 0 -93.5 -40.5t-47.5 -112.5q-9 -63 18 -98.5t76 -35.5q45 0 76.5 23t43.5 60l141 -15q-27 -90 -97.5 -142t-162.5 -52q-121 0 -188.5 75.5
t-51.5 203.5q15 121 94.5 190t192.5 69z" />
    <glyph glyph-name="Cdotaccent" unicode="&#x10a;" horiz-adv-x="826" 
d="M532 973q41 0 65.5 -28.5t17.5 -68.5q-6 -33 -32.5 -55.5t-59.5 -22.5q-40 0 -64 28t-17 68q6 33 32.5 56t57.5 23zM492 759q143 0 233 -77.5t92 -208.5l-160 -12q-4 78 -50.5 119.5t-121.5 41.5q-103 0 -173 -70t-87 -187q-16 -114 36 -176.5t144 -62.5q82 0 141.5 42
t85.5 119l159 -18q-39 -129 -144.5 -204.5t-238.5 -75.5q-172 0 -267 106.5t-70 287.5q24 175 141 275.5t280 100.5z" />
    <glyph glyph-name="cdotaccent" unicode="&#x10b;" horiz-adv-x="592" 
d="M377 770q40 0 64 -28.5t17 -69.5q-6 -33 -32.5 -55.5t-58.5 -22.5q-41 0 -65 28.5t-16 68.5q6 33 32.5 56t58.5 23zM333 527q100 0 163 -55.5t66 -147.5l-142 -10q0 42 -23.5 65t-64.5 23q-56 0 -93.5 -40.5t-47.5 -112.5q-9 -63 18 -98.5t76 -35.5q45 0 76.5 23t43.5 60
l141 -15q-27 -90 -97.5 -142t-162.5 -52q-121 0 -188.5 75.5t-51.5 203.5q15 121 94.5 190t192.5 69z" />
    <glyph glyph-name="Ccaron" unicode="&#x10c;" horiz-adv-x="826" 
d="M584 795h-140l-89 160h119l49 -75l80 75h126zM492 759q143 0 233 -77.5t92 -208.5l-160 -12q-4 78 -50.5 119.5t-121.5 41.5q-103 0 -173 -70t-87 -187q-16 -114 36 -176.5t144 -62.5q82 0 141.5 42t85.5 119l159 -18q-39 -129 -144.5 -204.5t-238.5 -75.5
q-172 0 -267 106.5t-70 287.5q24 175 141 275.5t280 100.5z" />
    <glyph glyph-name="ccaron" unicode="&#x10d;" horiz-adv-x="592" 
d="M430 597h-141l-85 176h119l48 -82l81 82h126zM333 527q100 0 163 -55.5t66 -147.5l-142 -10q0 42 -23.5 65t-64.5 23q-56 0 -93.5 -40.5t-47.5 -112.5q-9 -63 18 -98.5t76 -35.5q45 0 76.5 23t43.5 60l141 -15q-27 -90 -97.5 -142t-162.5 -52q-121 0 -188.5 75.5
t-51.5 203.5q15 121 94.5 190t192.5 69z" />
    <glyph glyph-name="Dcaron" unicode="&#x10e;" horiz-adv-x="803" 
d="M515 795h-140l-89 160h119l49 -75l80 75h126zM161 748h288q165 0 259 -104t64 -279q-29 -175 -141.5 -270t-275.5 -95h-326zM292 616l-85 -484h159q102 0 171 64t86 185q16 115 -32.5 175t-148.5 60h-150z" />
    <glyph glyph-name="dcaron" unicode="&#x10f;" horiz-adv-x="816" 
d="M530 777h146l-136 -777h-136l7 47q-50 -58 -145 -58q-115 0 -176.5 77t-43.5 202q16 118 90 188.5t185 70.5q56 0 95 -17.5t55 -43.5zM802 776q43 0 63 -30t12 -77q-26 -147 -187 -222l2 65q59 35 85 90q-33 6 -51 32.5t-12 62.5q6 34 31 56.5t57 22.5zM436 242l4 24
q9 64 -21 100t-86 36t-94.5 -36t-47.5 -102q-9 -69 21.5 -109t85.5 -40q56 0 93 33.5t45 93.5z" />
    <glyph glyph-name="Dcroat" unicode="&#x110;" horiz-adv-x="805" 
d="M161 748h288q165 0 259 -104t64 -279q-29 -175 -141.5 -270t-275.5 -95h-326l56 315h-67l20 117h67zM623 381q16 115 -32.5 175t-148.5 60h-150l-32 -184h126l-20 -117h-127l-32 -183h159q102 0 171 64t86 185z" />
    <glyph glyph-name="dcroat" unicode="&#x111;" horiz-adv-x="655" 
d="M714 596h-70l-104 -596h-136l7 47q-50 -58 -145 -58q-115 0 -176.5 77t-43.5 202q16 118 90 188.5t185 70.5q56 0 95 -17.5t55 -43.5l25 130h-81l19 112h83l13 69h146l-12 -69h71zM436 242l4 24q9 64 -21 100t-86 36t-94.5 -36t-47.5 -102q-9 -69 21.5 -109t85.5 -40
q56 0 93 33.5t45 93.5z" />
    <glyph glyph-name="Emacron" unicode="&#x112;" 
d="M567 815h-299l19 111h301zM616 612h-325l-28 -162h282l-24 -133h-282l-32 -180h326l-24 -137h-480l132 748h480z" />
    <glyph glyph-name="emacron" unicode="&#x113;" horiz-adv-x="598" 
d="M516 619h-300l20 112h300zM333 527q117 0 179 -71.5t43 -191.5l-8 -52h-354q-4 -50 20.5 -77.5t73.5 -27.5q75 0 101 57l147 -10q-24 -77 -93 -121t-157 -44q-124 0 -190.5 75.5t-48.5 203.5q17 120 95.5 189.5t191.5 69.5zM331 413q-48 0 -80.5 -27.5t-43.5 -76.5h207
q7 50 -15 77t-68 27z" />
    <glyph glyph-name="Ebreve" unicode="&#x114;" 
d="M512 961h117q-14 -84 -68.5 -124.5t-134.5 -40.5q-89 0 -135.5 43.5t-31.5 121.5h117q-6 -32 10 -48t46 -16q31 0 53 18.5t27 45.5zM616 612h-325l-28 -162h282l-24 -133h-282l-32 -180h326l-24 -137h-480l132 748h480z" />
    <glyph glyph-name="ebreve" unicode="&#x115;" horiz-adv-x="598" 
d="M372 593q-88 0 -134.5 44t-31.5 121h116q-5 -33 10.5 -49t45.5 -16q32 0 53 19t27 46h117q-14 -84 -68 -124.5t-135 -40.5zM333 527q117 0 179 -71.5t43 -191.5l-8 -52h-354q-4 -50 20.5 -77.5t73.5 -27.5q75 0 101 57l147 -10q-24 -77 -93 -121t-157 -44
q-124 0 -190.5 75.5t-48.5 203.5q17 120 95.5 189.5t191.5 69.5zM331 413q-48 0 -80.5 -27.5t-43.5 -76.5h207q7 50 -15 77t-68 27z" />
    <glyph glyph-name="Edotaccent" unicode="&#x116;" 
d="M434 973q41 0 65.5 -28.5t17.5 -68.5q-6 -33 -32.5 -55.5t-59.5 -22.5q-40 0 -64 28t-17 68q6 33 32.5 56t57.5 23zM616 612h-325l-28 -162h282l-24 -133h-282l-32 -180h326l-24 -137h-480l132 748h480z" />
    <glyph glyph-name="edotaccent" unicode="&#x117;" horiz-adv-x="598" 
d="M372 594q-41 0 -65 28.5t-16 68.5q6 33 32.5 56t58.5 23q40 0 64 -28.5t17 -69.5q-6 -33 -32.5 -55.5t-58.5 -22.5zM333 527q117 0 179 -71.5t43 -191.5l-8 -52h-354q-4 -50 20.5 -77.5t73.5 -27.5q75 0 101 57l147 -10q-24 -77 -93 -121t-157 -44q-124 0 -190.5 75.5
t-48.5 203.5q17 120 95.5 189.5t191.5 69.5zM331 413q-48 0 -80.5 -27.5t-43.5 -76.5h207q7 50 -15 77t-68 27z" />
    <glyph glyph-name="Eogonek" unicode="&#x118;" 
d="M291 612l-28 -162h282l-24 -133h-282l-32 -180h326l-23 -134l1 -2q-44 -22 -67 -41.5t-27 -45.5q-5 -29 29 -29q23 0 53 14l11 -75q-40 -16 -85 -16q-59 0 -92.5 27t-24.5 77q9 52 74 88h-353l132 748h480l-25 -136h-325z" />
    <glyph glyph-name="eogonek" unicode="&#x119;" horiz-adv-x="598" 
d="M333 527q117 0 179 -71.5t43 -191.5l-8 -52h-354q-4 -50 20.5 -77.5t73.5 -27.5q75 0 101 57l147 -10q-20 -66 -75 -108t-128 -54q-72 -37 -78 -78q-5 -29 29 -29q23 0 53 14l11 -75q-40 -16 -85 -16q-59 0 -92.5 27t-24.5 77q10 52 68 85q-91 21 -136.5 92.5
t-30.5 178.5q17 120 95.5 189.5t191.5 69.5zM331 413q-48 0 -80.5 -27.5t-43.5 -76.5h207q7 50 -15 77t-68 27z" />
    <glyph glyph-name="Ecaron" unicode="&#x11a;" 
d="M486 795h-140l-89 160h119l49 -75l80 75h126zM616 612h-325l-28 -162h282l-24 -133h-282l-32 -180h326l-24 -137h-480l132 748h480z" />
    <glyph glyph-name="ecaron" unicode="&#x11b;" horiz-adv-x="598" 
d="M294 597l-85 176h119l48 -82l81 82h126l-148 -176h-141zM333 527q117 0 179 -71.5t43 -191.5l-8 -52h-354q-4 -50 20.5 -77.5t73.5 -27.5q75 0 101 57l147 -10q-24 -77 -93 -121t-157 -44q-124 0 -190.5 75.5t-48.5 203.5q17 120 95.5 189.5t191.5 69.5zM331 413
q-48 0 -80.5 -27.5t-43.5 -76.5h207q7 50 -15 77t-68 27z" />
    <glyph glyph-name="Gcircumflex" unicode="&#x11c;" horiz-adv-x="834" 
d="M450 795h-125l144 160h141l89 -160h-120l-48 75zM454 408h357l-8 -55q-23 -167 -129.5 -265.5t-266.5 -98.5q-172 0 -266.5 106.5t-69.5 287.5q24 175 141 275.5t280 100.5q135 0 222 -70t100 -192l-159 -18q-6 68 -50.5 105.5t-116.5 37.5q-106 0 -176 -66t-87 -191
q-16 -117 33.5 -178t148.5 -61q74 0 129.5 36.5t82.5 109.5h-185z" />
    <glyph glyph-name="gcircumflex" unicode="&#x11d;" horiz-adv-x="648" 
d="M564 599h-120l-47 82l-82 -82h-126l148 177h141zM322 527q57 0 97.5 -20t59.5 -50l14 60h138l-95 -541q-19 -111 -99.5 -176t-197.5 -65q-119 0 -179 53.5t-58 141.5l143 4q-1 -37 24 -56t71 -19q59 0 99.5 31t50.5 85l12 63q-41 -49 -135 -49q-115 0 -176.5 77
t-43.5 202q16 118 90 188.5t185 70.5zM334 402q-56 0 -94.5 -36t-47.5 -102q-9 -69 21.5 -109t85.5 -40q56 0 93 33.5t45 93.5l4 24q9 64 -21 100t-86 36z" />
    <glyph glyph-name="Gbreve" unicode="&#x11e;" horiz-adv-x="834" 
d="M525 796q-89 0 -135.5 43.5t-31.5 121.5h117q-6 -32 10 -48t46 -16q31 0 53 18.5t27 45.5h117q-14 -84 -68.5 -124.5t-134.5 -40.5zM454 408h357l-8 -55q-23 -167 -129.5 -265.5t-266.5 -98.5q-172 0 -266.5 106.5t-69.5 287.5q24 175 141 275.5t280 100.5q135 0 222 -70
t100 -192l-159 -18q-6 68 -50.5 105.5t-116.5 37.5q-106 0 -176 -66t-87 -191q-16 -117 33.5 -178t148.5 -61q74 0 129.5 36.5t82.5 109.5h-185z" />
    <glyph glyph-name="gbreve" unicode="&#x11f;" horiz-adv-x="648" 
d="M473 758h117q-14 -84 -68 -124.5t-135 -40.5q-88 0 -134.5 44t-31.5 121h116q-5 -33 10.5 -49t45.5 -16q32 0 53 19t27 46zM322 527q57 0 97.5 -20t59.5 -50l14 60h138l-95 -541q-19 -111 -99.5 -176t-197.5 -65q-119 0 -179 53.5t-58 141.5l143 4q-1 -37 24 -56t71 -19
q59 0 99.5 31t50.5 85l12 63q-41 -49 -135 -49q-115 0 -176.5 77t-43.5 202q16 118 90 188.5t185 70.5zM334 402q-56 0 -94.5 -36t-47.5 -102q-9 -69 21.5 -109t85.5 -40q56 0 93 33.5t45 93.5l4 24q9 64 -21 100t-86 36z" />
    <glyph glyph-name="Gdotaccent" unicode="&#x120;" horiz-adv-x="834" 
d="M524 798q-40 0 -64 28t-17 68q6 33 32.5 56t57.5 23q41 0 65.5 -28.5t17.5 -68.5q-6 -33 -32.5 -55.5t-59.5 -22.5zM454 408h357l-8 -55q-23 -167 -129.5 -265.5t-266.5 -98.5q-172 0 -266.5 106.5t-69.5 287.5q24 175 141 275.5t280 100.5q135 0 222 -70t100 -192
l-159 -18q-6 68 -50.5 105.5t-116.5 37.5q-106 0 -176 -66t-87 -191q-16 -117 33.5 -178t148.5 -61q74 0 129.5 36.5t82.5 109.5h-185z" />
    <glyph glyph-name="gdotaccent" unicode="&#x121;" horiz-adv-x="648" 
d="M398 770q40 0 64 -28.5t17 -69.5q-6 -33 -32.5 -55.5t-58.5 -22.5q-41 0 -65 28.5t-16 68.5q6 33 32.5 56t58.5 23zM322 527q57 0 97.5 -20t59.5 -50l14 60h138l-95 -541q-19 -111 -99.5 -176t-197.5 -65q-119 0 -179 53.5t-58 141.5l143 4q-1 -37 24 -56t71 -19
q59 0 99.5 31t50.5 85l12 63q-41 -49 -135 -49q-115 0 -176.5 77t-43.5 202q16 118 90 188.5t185 70.5zM334 402q-56 0 -94.5 -36t-47.5 -102q-9 -69 21.5 -109t85.5 -40q56 0 93 33.5t45 93.5l4 24q9 64 -21 100t-86 36z" />
    <glyph glyph-name="Gcommaaccent" unicode="&#x122;" horiz-adv-x="834" 
d="M454 408h357l-8 -55q-23 -167 -129.5 -265.5t-266.5 -98.5q-172 0 -266.5 106.5t-69.5 287.5q24 175 141 275.5t280 100.5q135 0 222 -70t100 -192l-159 -18q-6 68 -50.5 105.5t-116.5 37.5q-106 0 -176 -66t-87 -191q-16 -117 33.5 -178t148.5 -61q74 0 129.5 36.5
t82.5 109.5h-185zM358 -48q43 0 63 -30t12 -77q-26 -147 -187 -222l2 65q59 35 85 90q-33 6 -51 32.5t-12 62.5q6 34 31 56.5t57 22.5z" />
    <glyph glyph-name="gcommaaccent" unicode="&#x123;" horiz-adv-x="648" 
d="M516 793q-26 -147 -187 -222l2 65q59 35 85 90q-33 6 -51 32.5t-12 62.5q6 34 31 56.5t57 22.5q43 0 63 -30t12 -77zM631 517l-95 -541q-19 -111 -99.5 -176t-197.5 -65q-119 0 -179 53.5t-58 141.5l143 4q-1 -37 24 -56t71 -19q59 0 99.5 31t50.5 85l12 63
q-41 -49 -135 -49q-115 0 -176.5 77t-43.5 202q16 118 90 188.5t185 70.5q57 0 97.5 -20t59.5 -50l14 60h138zM437 242l4 24q9 64 -21 100t-86 36t-94.5 -36t-47.5 -102q-9 -69 21.5 -109t85.5 -40q56 0 93 33.5t45 93.5z" />
    <glyph glyph-name="Hcircumflex" unicode="&#x124;" horiz-adv-x="762" 
d="M663 795h-120l-48 75l-81 -75h-125l144 160h141zM641 0h-154l55 315h-303l-56 -315h-154l132 748h154l-52 -296h304l52 296h154z" />
    <glyph glyph-name="hcircumflex" unicode="&#x125;" horiz-adv-x="616" 
d="M428 801h-119l-48 76l-81 -76h-125l144 160h141zM309 777l-57 -299q49 49 134 49q92 0 141.5 -58.5t31.5 -158.5l-55 -310h-146l51 289q9 49 -10 75.5t-60 26.5q-47 0 -77 -29t-39 -77l-51 -285h-146l137 777h146z" />
    <glyph glyph-name="Hbar" unicode="&#x126;" horiz-adv-x="779" 
d="M819 539h-75l-95 -539h-154l56 315h-304l-56 -315h-154l95 539h-74l21 117h74l16 92h154l-16 -92h304l16 92h154l-16 -92h75zM590 539h-304l-15 -87h304z" />
    <glyph glyph-name="hbar" unicode="&#x127;" horiz-adv-x="616" 
d="M386 527q92 0 141.5 -58.5t31.5 -158.5l-55 -310h-146l51 289q9 49 -10 75.5t-60 26.5q-47 0 -77 -29t-39 -77l-51 -285h-146l105 596h-68l20 112h68l12 69h146l-13 -69h87l-20 -112h-89l-22 -118q49 49 134 49z" />
    <glyph glyph-name="Itilde" unicode="&#x128;" horiz-adv-x="305" 
d="M202 959q37 0 68 -26.5t51 -26.5q50 0 58 45h79q1 -65 -38.5 -109.5t-91.5 -44.5q-38 0 -69 26.5t-50 26.5q-49 0 -58 -47h-79q-1 65 38.5 110.5t91.5 45.5zM183 0h-154l132 748h154z" />
    <glyph glyph-name="itilde" unicode="&#x129;" horiz-adv-x="291" 
d="M158 761q29 0 49.5 -13.5t36 -27t33.5 -13.5q50 0 58 46h80q1 -65 -39 -110t-92 -45q-38 0 -69 26.5t-50 26.5q-49 0 -58 -47h-79q-1 65 38.5 111t91.5 46zM172 0h-146l92 517h145z" />
    <glyph glyph-name="Imacron" unicode="&#x12a;" horiz-adv-x="305" 
d="M404 815h-299l19 111h301zM183 0h-154l132 748h154z" />
    <glyph glyph-name="imacron" unicode="&#x12b;" horiz-adv-x="291" 
d="M362 619h-300l20 112h300zM172 0h-146l92 517h145z" />
    <glyph glyph-name="Ibreve" unicode="&#x12c;" horiz-adv-x="305" 
d="M349 961h117q-14 -84 -68.5 -124.5t-134.5 -40.5q-89 0 -135.5 43.5t-31.5 121.5h117q-6 -32 10 -48t46 -16q31 0 53 18.5t27 45.5zM183 0h-154l132 748h154z" />
    <glyph glyph-name="ibreve" unicode="&#x12d;" horiz-adv-x="291" 
d="M303 758h117q-14 -84 -68 -124.5t-135 -40.5q-88 0 -134.5 44t-31.5 121h116q-5 -33 10.5 -49t45.5 -16q32 0 53 19t27 46zM172 0h-146l92 517h145z" />
    <glyph glyph-name="Iogonek" unicode="&#x12e;" horiz-adv-x="305" 
d="M183 0h-57q-83 -42 -90 -85q-5 -29 29 -29q23 0 53 14l11 -75q-40 -16 -85 -16q-59 0 -92.5 27t-24.5 77q12 65 105 102l129 733h154z" />
    <glyph glyph-name="iogonek" unicode="&#x12f;" horiz-adv-x="291" 
d="M228 770q40 0 64 -28.5t17 -69.5q-6 -33 -32.5 -55.5t-58.5 -22.5q-41 0 -65 28.5t-16 68.5q6 33 32.5 56t58.5 23zM118 517h145l-91 -517h-33q-83 -42 -90 -85q-5 -29 29 -29q23 0 53 14l11 -75q-40 -16 -85 -16q-59 0 -92.5 27t-24.5 77q11 58 87 95z" />
    <glyph glyph-name="Idotaccent" unicode="&#x130;" horiz-adv-x="305" 
d="M271 973q41 0 65.5 -28.5t17.5 -68.5q-6 -33 -32.5 -55.5t-59.5 -22.5q-40 0 -64 28t-17 68q6 33 32.5 56t57.5 23zM183 0h-154l132 748h154z" />
    <glyph glyph-name="dotlessi" unicode="&#x131;" horiz-adv-x="291" 
d="M172 0h-146l92 517h146z" />
    <glyph glyph-name="Jcircumflex" unicode="&#x134;" horiz-adv-x="614" 
d="M756 795h-120l-48 75l-81 -75h-125l144 160h141zM631 748l-86 -486q-23 -131 -102 -202t-198 -71t-180 71.5t-47 191.5l155 7q-14 -133 83 -133q51 0 87.5 36.5t48.5 100.5l85 485h154z" />
    <glyph glyph-name="jcircumflex" unicode="&#x135;" horiz-adv-x="291" 
d="M390 599h-120l-47 82l-82 -82h-126l148 177h141zM264 517l-101 -572q-19 -107 -78 -158.5t-144 -51.5q-79 0 -130 36l71 114q23 -21 44 -21q36 0 60.5 21.5t31.5 60.5l101 571h145z" />
    <glyph glyph-name="Kcommaaccent" unicode="&#x136;" horiz-adv-x="721" 
d="M456 436l204 -436h-167l-153 322l-119 -115l-38 -207h-154l132 748h154l-56 -309l308 309h204zM301 -43q43 0 63 -30t12 -77q-26 -147 -187 -222l2 65q59 35 85 90q-33 6 -51 32.5t-12 62.5q6 34 31 56.5t57 22.5z" />
    <glyph glyph-name="kcommaaccent" unicode="&#x137;" horiz-adv-x="582" 
d="M369 292l154 -292h-161l-101 190l-64 -55l-25 -135h-146l137 777h146l-79 -442l196 182h187zM233 -43q43 0 63 -30t12 -77q-26 -147 -187 -222l2 65q59 35 85 90q-33 6 -51 32.5t-12 62.5q6 34 31 56.5t57 22.5z" />
    <glyph glyph-name="Lacute" unicode="&#x139;" horiz-adv-x="591" 
d="M322 795h-136l155 154h202zM207 137h327l-24 -137h-481l132 748h154z" />
    <glyph glyph-name="lacute" unicode="&#x13a;" horiz-adv-x="291" 
d="M317 812h-137l155 154h202zM172 0h-146l137 777h146z" />
    <glyph glyph-name="Lcommaaccent" unicode="&#x13b;" horiz-adv-x="591" 
d="M534 137l-24 -137h-481l132 748h154l-108 -611h327zM255 -43q43 0 63 -30t12 -77q-26 -147 -187 -222l2 65q59 35 85 90q-33 6 -51 32.5t-12 62.5q6 34 31 56.5t57 22.5z" />
    <glyph glyph-name="lcommaaccent" unicode="&#x13c;" horiz-adv-x="291" 
d="M309 777l-137 -777h-146l137 777h146zM78 -43q43 0 63 -30t12 -77q-26 -147 -187 -222l2 65q59 35 85 90q-33 6 -51 32.5t-12 62.5q6 34 31 56.5t57 22.5z" />
    <glyph glyph-name="Lcaron" unicode="&#x13d;" horiz-adv-x="591" 
d="M597 776q43 0 63 -30t12 -77q-26 -147 -187 -222l2 65q59 35 85 90q-33 6 -51 32.5t-12 62.5q6 34 31 56.5t57 22.5zM207 137h327l-24 -137h-481l132 748h154z" />
    <glyph glyph-name="lcaron" unicode="&#x13e;" horiz-adv-x="451" 
d="M163 777h146l-137 -777h-146zM434 776q43 0 63 -30t12 -77q-26 -147 -187 -222l2 65q59 35 85 90q-33 6 -51 32.5t-12 62.5q6 34 31 56.5t57 22.5z" />
    <glyph glyph-name="Ldot" unicode="&#x13f;" horiz-adv-x="591" 
d="M207 137h327l-24 -137h-481l132 748h154zM517 502q42 0 66 -29t17 -69q-6 -34 -33 -56.5t-59 -22.5q-41 0 -65 28.5t-16 69.5q6 33 32 56t58 23z" />
    <glyph glyph-name="ldot" unicode="&#x140;" horiz-adv-x="469" 
d="M172 0h-146l137 777h146zM374 412q42 0 66 -29t17 -69q-6 -34 -33 -56.5t-59 -22.5q-41 0 -65 28.5t-16 69.5q6 33 32 56t58 23z" />
    <glyph glyph-name="Lslash" unicode="&#x141;" horiz-adv-x="601" 
d="M534 137l-24 -137h-481l48 272l-64 -12l4 117l81 15l63 356h154l-58 -326l102 19l-3 -116l-120 -23l-29 -165h327z" />
    <glyph glyph-name="lslash" unicode="&#x142;" horiz-adv-x="315" 
d="M230 261l-46 -261h-146l39 222l-77 -20l-7 115l106 27l76 433h146l-69 -394l80 21l7 -115z" />
    <glyph glyph-name="Nacute" unicode="&#x143;" horiz-adv-x="748" 
d="M529 795h-136l155 154h202zM528 327l76 421h154l-132 -762l-366 434l-77 -420h-154l133 762z" />
    <glyph glyph-name="nacute" unicode="&#x144;" horiz-adv-x="618" 
d="M436 598h-117l119 191h168zM386 527q92 0 141.5 -58.5t31.5 -158.5l-55 -310h-146l51 289q9 49 -10 75.5t-60 26.5q-47 0 -77 -29t-39 -77l-51 -285h-146l92 517h133l-7 -47q46 57 142 57z" />
    <glyph glyph-name="Ncommaaccent" unicode="&#x145;" horiz-adv-x="748" 
d="M758 748l-132 -762l-366 434l-77 -420h-154l133 762l366 -435l76 421h154zM321 -43q43 0 63 -30t12 -77q-26 -147 -187 -222l2 65q59 35 85 90q-33 6 -51 32.5t-12 62.5q6 34 31 56.5t57 22.5z" />
    <glyph glyph-name="ncommaaccent" unicode="&#x146;" horiz-adv-x="618" 
d="M386 527q92 0 141.5 -58.5t31.5 -158.5l-55 -310h-146l51 289q9 49 -10 75.5t-60 26.5q-47 0 -77 -29t-39 -77l-51 -285h-146l92 517h133l-7 -47q46 57 142 57zM244 -43q43 0 63 -30t12 -77q-26 -147 -187 -222l2 65q59 35 85 90q-33 6 -51 32.5t-12 62.5q6 34 31 56.5
t57 22.5z" />
    <glyph glyph-name="Ncaron" unicode="&#x147;" horiz-adv-x="748" 
d="M533 795h-140l-89 160h119l49 -75l80 75h126zM528 327l76 421h154l-132 -762l-366 434l-77 -420h-154l133 762z" />
    <glyph glyph-name="ncaron" unicode="&#x148;" horiz-adv-x="618" 
d="M453 597h-141l-85 176h119l48 -82l81 82h126zM386 527q92 0 141.5 -58.5t31.5 -158.5l-55 -310h-146l51 289q9 49 -10 75.5t-60 26.5q-47 0 -77 -29t-39 -77l-51 -285h-146l92 517h133l-7 -47q46 57 142 57z" />
    <glyph glyph-name="Eng" unicode="&#x14a;" horiz-adv-x="748" 
d="M682 308l-57 -335q-18 -101 -99 -164.5t-202 -63.5l13 136q53 0 91.5 37t50.5 104l20 115l-239 283l-77 -420h-154l133 762l366 -435l76 421h154z" />
    <glyph glyph-name="eng" unicode="&#x14b;" horiz-adv-x="618" 
d="M386 527q92 0 141.5 -58.5t31.5 -158.5l-23 -134l-40 -231q-17 -97 -86 -152t-172 -55l21 127q31 0 58 25t34 62l8 48h-1l51 289q9 49 -10 75.5t-60 26.5q-47 0 -77 -29t-39 -77l-51 -285h-146l92 517h133l-7 -47q46 57 142 57z" />
    <glyph glyph-name="Omacron" unicode="&#x14c;" horiz-adv-x="875" 
d="M681 815h-299l19 111h301zM488 759q174 0 275 -108.5t81 -285.5q-19 -171 -134.5 -273.5t-280.5 -102.5q-176 0 -277 108.5t-81 285.5q19 171 135 273.5t282 102.5zM486 622q-108 0 -179 -69.5t-81 -187.5q-10 -111 47 -175t157 -64q107 0 178.5 69.5t81.5 187.5
q9 111 -48 175t-156 64z" />
    <glyph glyph-name="omacron" unicode="&#x14d;" horiz-adv-x="638" 
d="M524 619h-300l20 112h300zM339 527q124 0 196 -77t57 -201q-13 -117 -95.5 -188.5t-197.5 -71.5q-125 0 -197 77t-57 202q13 117 95.5 188t198.5 71zM341 402q-61 0 -102 -41.5t-47 -111.5q-5 -63 24 -98.5t82 -35.5q62 0 103 41.5t47 111.5q4 63 -25 98.5t-82 35.5z" />
    <glyph glyph-name="Obreve" unicode="&#x14e;" horiz-adv-x="875" 
d="M626 961h117q-14 -84 -68.5 -124.5t-134.5 -40.5q-89 0 -135.5 43.5t-31.5 121.5h117q-6 -32 10 -48t46 -16q31 0 53 18.5t27 45.5zM488 759q174 0 275 -108.5t81 -285.5q-19 -171 -134.5 -273.5t-280.5 -102.5q-176 0 -277 108.5t-81 285.5q19 171 135 273.5t282 102.5z
M486 622q-108 0 -179 -69.5t-81 -187.5q-10 -111 47 -175t157 -64q107 0 178.5 69.5t81.5 187.5q9 111 -48 175t-156 64z" />
    <glyph glyph-name="obreve" unicode="&#x14f;" horiz-adv-x="638" 
d="M465 758h117q-14 -84 -68 -124.5t-135 -40.5q-88 0 -134.5 44t-31.5 121h116q-5 -33 10.5 -49t45.5 -16q32 0 53 19t27 46zM339 527q124 0 196 -77t57 -201q-13 -117 -95.5 -188.5t-197.5 -71.5q-125 0 -197 77t-57 202q13 117 95.5 188t198.5 71zM341 402
q-61 0 -102 -41.5t-47 -111.5q-5 -63 24 -98.5t82 -35.5q62 0 103 41.5t47 111.5q4 63 -25 98.5t-82 35.5z" />
    <glyph glyph-name="Ohungarumlaut" unicode="&#x150;" horiz-adv-x="875" 
d="M480 798h-117l91 169h141zM682 798h-117l91 169h141zM488 759q174 0 275 -108.5t81 -285.5q-19 -171 -134.5 -273.5t-280.5 -102.5q-176 0 -277 108.5t-81 285.5q19 171 135 273.5t282 102.5zM486 622q-108 0 -179 -69.5t-81 -187.5q-10 -111 47 -175t157 -64
q107 0 178.5 69.5t81.5 187.5q9 111 -48 175t-156 64z" />
    <glyph glyph-name="ohungarumlaut" unicode="&#x151;" horiz-adv-x="638" 
d="M325 602h-117l94 180h141zM527 602h-117l94 180h141zM339 527q124 0 196 -77t57 -201q-13 -117 -95.5 -188.5t-197.5 -71.5q-125 0 -197 77t-57 202q13 117 95.5 188t198.5 71zM341 402q-61 0 -102 -41.5t-47 -111.5q-5 -63 24 -98.5t82 -35.5q62 0 103 41.5t47 111.5
q4 63 -25 98.5t-82 35.5z" />
    <glyph glyph-name="OE" unicode="&#x152;" horiz-adv-x="1195" 
d="M885 612l-28 -162h282l-24 -133h-279q-4 -25 -12 -48l-23 -132h326l-24 -137h-480l6 36q-89 -47 -200 -47q-176 0 -277 108.5t-81 285.5q19 171 135 273.5t282 102.5q156 0 254 -87l13 76h479l-24 -136h-325zM430 126q93 0 160 53t90 147l9 50l1 7q9 111 -48 175t-156 64
q-108 0 -179 -69.5t-81 -187.5q-10 -111 47 -175t157 -64z" />
    <glyph glyph-name="oe" unicode="&#x153;" horiz-adv-x="1001" 
d="M735 527q117 0 179 -71.5t43 -191.5l-8 -52h-354q-4 -50 20.5 -77.5t73.5 -27.5q75 0 101 57l147 -10q-24 -77 -93 -121t-157 -44q-123 0 -188 74q-83 -74 -200 -74q-125 0 -197 77t-57 202q13 117 95.5 188t198.5 71q125 0 196 -77q80 77 200 77zM733 413
q-48 0 -80.5 -27.5t-43.5 -76.5h207q7 50 -15 77t-68 27zM298 115q58 0 98 37t50 100l2 16q4 63 -25 98.5t-82 35.5q-61 0 -102 -41.5t-47 -111.5q-5 -63 24 -98.5t82 -35.5z" />
    <glyph glyph-name="Racute" unicode="&#x154;" horiz-adv-x="707" 
d="M481 795h-136l155 154h202zM161 748h296q110 0 173.5 -68t47.5 -183q-28 -161 -159 -210l106 -287h-162l-99 269h-133l-48 -269h-154zM523 509q6 47 -18.5 75t-69.5 28h-144l-36 -206h149q100 0 119 103z" />
    <glyph glyph-name="racute" unicode="&#x155;" horiz-adv-x="378" 
d="M339 598h-117l119 191h168zM399 522l-23 -141q-62 0 -106 -35t-53 -89l-45 -257h-146l92 517h136l-9 -55q49 60 154 60z" />
    <glyph glyph-name="Rcommaaccent" unicode="&#x156;" horiz-adv-x="707" 
d="M678 497q-28 -161 -159 -210l106 -287h-162l-99 269h-133l-48 -269h-154l132 748h296q110 0 173.5 -68t47.5 -183zM523 509q6 47 -18.5 75t-69.5 28h-144l-36 -206h149q100 0 119 103zM291 -43q43 0 63 -30t12 -77q-26 -147 -187 -222l2 65q59 35 85 90q-33 6 -51 32.5
t-12 62.5q6 34 31 56.5t57 22.5z" />
    <glyph glyph-name="rcommaaccent" unicode="&#x157;" horiz-adv-x="378" 
d="M254 517l-9 -55q49 60 154 60l-23 -141q-62 0 -106 -35t-53 -89l-45 -257h-146l92 517h136zM78 -43q43 0 63 -30t12 -77q-26 -147 -187 -222l2 65q59 35 85 90q-33 6 -51 32.5t-12 62.5q6 34 31 56.5t57 22.5z" />
    <glyph glyph-name="Rcaron" unicode="&#x158;" horiz-adv-x="707" 
d="M345 795l-89 160h119l49 -75l80 75h126l-145 -160h-140zM678 497q-28 -161 -159 -210l106 -287h-162l-99 269h-133l-48 -269h-154l132 748h296q110 0 173.5 -68t47.5 -183zM523 509q6 47 -18.5 75t-69.5 28h-144l-36 -206h149q100 0 119 103z" />
    <glyph glyph-name="rcaron" unicode="&#x159;" horiz-adv-x="378" 
d="M356 597h-141l-85 176h119l48 -82l81 82h126zM399 522l-23 -141q-62 0 -106 -35t-53 -89l-45 -257h-146l92 517h136l-9 -55q49 60 154 60z" />
    <glyph glyph-name="Sacute" unicode="&#x15a;" horiz-adv-x="663" 
d="M480 795h-136l155 154h202zM391 759q128 0 198 -61.5t58 -165.5l-158 -6q5 47 -20.5 73t-75.5 26q-56 0 -91 -26t-40 -68q-6 -40 20.5 -59t103.5 -38q128 -31 186.5 -80t45.5 -145q-16 -110 -98 -165t-199 -55q-137 0 -213.5 63.5t-61.5 174.5l157 5q-6 -50 26.5 -79.5
t90.5 -29.5q59 0 96.5 23t43.5 69q6 39 -24.5 60.5t-104.5 40.5q-60 15 -97 28.5t-73 38.5t-49.5 63.5t-5.5 92.5q14 95 88 157.5t197 62.5z" />
    <glyph glyph-name="sacute" unicode="&#x15b;" horiz-adv-x="506" 
d="M354 598h-117l119 191h168zM277 527q98 0 148 -48.5t48 -120.5l-145 -3q3 27 -13 43.5t-46 16.5q-58 0 -66 -45q-2 -13 2.5 -22t18.5 -15.5t26 -10t39 -9.5q87 -22 128.5 -57.5t32.5 -103.5q-11 -76 -70.5 -119.5t-154.5 -43.5q-103 0 -156 45t-49 123l144 5
q-3 -29 14.5 -45t52.5 -16q67 0 73 46q4 23 -13.5 36.5t-64.5 25.5q-39 10 -62 17.5t-48.5 21t-37.5 29t-18.5 40t-1.5 56.5q11 72 68.5 113t150.5 41z" />
    <glyph glyph-name="Scircumflex" unicode="&#x15c;" horiz-adv-x="663" 
d="M598 795h-120l-48 75l-81 -75h-125l144 160h141zM391 759q128 0 198 -61.5t58 -165.5l-158 -6q5 47 -20.5 73t-75.5 26q-56 0 -91 -26t-40 -68q-6 -40 20.5 -59t103.5 -38q128 -31 186.5 -80t45.5 -145q-16 -110 -98 -165t-199 -55q-137 0 -213.5 63.5t-61.5 174.5l157 5
q-6 -50 26.5 -79.5t90.5 -29.5q59 0 96.5 23t43.5 69q6 39 -24.5 60.5t-104.5 40.5q-60 15 -97 28.5t-73 38.5t-49.5 63.5t-5.5 92.5q14 95 88 157.5t197 62.5z" />
    <glyph glyph-name="scircumflex" unicode="&#x15d;" horiz-adv-x="506" 
d="M484 599h-120l-47 82l-82 -82h-126l148 177h141zM277 527q98 0 148 -48.5t48 -120.5l-145 -3q3 27 -13 43.5t-46 16.5q-58 0 -66 -45q-2 -13 2.5 -22t18.5 -15.5t26 -10t39 -9.5q87 -22 128.5 -57.5t32.5 -103.5q-11 -76 -70.5 -119.5t-154.5 -43.5q-103 0 -156 45
t-49 123l144 5q-3 -29 14.5 -45t52.5 -16q67 0 73 46q4 23 -13.5 36.5t-64.5 25.5q-39 10 -62 17.5t-48.5 21t-37.5 29t-18.5 40t-1.5 56.5q11 72 68.5 113t150.5 41z" />
    <glyph glyph-name="Scedilla" unicode="&#x15e;" horiz-adv-x="663" 
d="M647 532l-158 -6q5 47 -20.5 73t-75.5 26q-56 0 -91 -26t-40 -68q-6 -40 20.5 -59t103.5 -38q128 -31 186.5 -80t45.5 -145q-16 -107 -93 -162t-189 -58l-17 -35q48 -4 75.5 -33t18.5 -80q-8 -47 -50 -72.5t-93 -25.5q-64 0 -106 21l27 73q17 -12 52 -12q58 0 65 33
q3 17 -8 28t-29 11q-23 0 -45 -6l45 100q-114 12 -176 74t-49 162l157 5q-6 -50 26.5 -79.5t90.5 -29.5q59 0 96.5 23t43.5 69q6 39 -24.5 60.5t-104.5 40.5q-60 15 -97 28.5t-73 38.5t-49.5 63.5t-5.5 92.5q14 95 88 157.5t197 62.5q128 0 198 -61.5t58 -165.5z" />
    <glyph glyph-name="scedilla" unicode="&#x15f;" horiz-adv-x="506" 
d="M473 358l-145 -3q3 27 -13 43.5t-46 16.5q-58 0 -66 -45q-2 -13 2.5 -22t18.5 -15.5t26 -10t39 -9.5q87 -22 128.5 -57.5t32.5 -103.5q-11 -72 -65.5 -115.5t-142.5 -47.5l-17 -35q48 -4 75.5 -33t18.5 -80q-8 -47 -50 -72.5t-93 -25.5q-64 0 -106 21l27 73
q17 -12 52 -12q58 0 65 33q3 17 -8 28t-29 11q-23 0 -45 -6l45 101q-79 10 -119.5 53.5t-37.5 111.5l144 5q-3 -29 14.5 -45t52.5 -16q67 0 73 46q4 23 -13.5 36.5t-64.5 25.5q-39 10 -62 17.5t-48.5 21t-37.5 29t-18.5 40t-1.5 56.5q11 72 68.5 113t150.5 41
q98 0 148 -48.5t48 -120.5z" />
    <glyph glyph-name="Scaron" unicode="&#x160;" horiz-adv-x="663" 
d="M484 795h-140l-89 160h119l49 -75l80 75h126zM391 759q128 0 198 -61.5t58 -165.5l-158 -6q5 47 -20.5 73t-75.5 26q-56 0 -91 -26t-40 -68q-6 -40 20.5 -59t103.5 -38q128 -31 186.5 -80t45.5 -145q-16 -110 -98 -165t-199 -55q-137 0 -213.5 63.5t-61.5 174.5l157 5
q-6 -50 26.5 -79.5t90.5 -29.5q59 0 96.5 23t43.5 69q6 39 -24.5 60.5t-104.5 40.5q-60 15 -97 28.5t-73 38.5t-49.5 63.5t-5.5 92.5q14 95 88 157.5t197 62.5z" />
    <glyph glyph-name="scaron" unicode="&#x161;" horiz-adv-x="506" 
d="M370 597h-141l-85 176h119l48 -82l81 82h126zM277 527q98 0 148 -48.5t48 -120.5l-145 -3q3 27 -13 43.5t-46 16.5q-58 0 -66 -45q-2 -13 2.5 -22t18.5 -15.5t26 -10t39 -9.5q87 -22 128.5 -57.5t32.5 -103.5q-11 -76 -70.5 -119.5t-154.5 -43.5q-103 0 -156 45t-49 123
l144 5q-3 -29 14.5 -45t52.5 -16q67 0 73 46q4 23 -13.5 36.5t-64.5 25.5q-39 10 -62 17.5t-48.5 21t-37.5 29t-18.5 40t-1.5 56.5q11 72 68.5 113t150.5 41z" />
    <glyph glyph-name="Tcaron" unicode="&#x164;" horiz-adv-x="693" 
d="M517 795h-140l-89 160h119l49 -75l80 75h126zM736 612h-250l-108 -612h-154l108 612h-251l24 136h656z" />
    <glyph glyph-name="tcaron" unicode="&#x165;" horiz-adv-x="585" 
d="M567 776q43 0 63 -30t12 -77q-26 -147 -187 -222l2 65q59 35 85 90q-33 6 -51 32.5t-12 62.5q6 34 31 56.5t57 22.5zM298 517h120l-22 -126h-121l-36 -194q-7 -39 11 -57.5t48 -18.5q29 0 51 6l-22 -132q-35 -5 -76 -5q-91 0 -135 45.5t-28 133.5l41 222h-95l22 126h96
l31 171h146z" />
    <glyph glyph-name="Tbar" unicode="&#x166;" horiz-adv-x="693" 
d="M486 612l-35 -198h123l-21 -118h-123l-52 -296h-154l52 296h-124l21 118h124l35 198h-251l24 136h656l-25 -136h-250z" />
    <glyph glyph-name="tbar" unicode="&#x167;" horiz-adv-x="404" 
d="M278 391l-14 -76h118l-18 -104h-119l-3 -14q-7 -39 11 -57.5t48 -18.5q29 0 51 6l-22 -132q-35 -5 -76 -5q-91 0 -135 45.5t-28 133.5l8 42h-97l18 104h98l14 76h-95l22 126h96l31 171h146l-31 -171h120l-22 -126h-121z" />
    <glyph glyph-name="Utilde" unicode="&#x168;" horiz-adv-x="777" 
d="M434 959q37 0 68 -26.5t51 -26.5q50 0 58 45h79q1 -65 -38.5 -109.5t-91.5 -44.5q-38 0 -69 26.5t-50 26.5q-49 0 -58 -47h-79q-1 65 38.5 110.5t91.5 45.5zM793 748l-79 -449q-27 -149 -121.5 -229.5t-240.5 -80.5q-151 0 -225 85.5t-48 233.5l77 440h155l-79 -444
q-16 -88 18 -133t112 -45q83 0 134 47.5t66 134.5l77 440h154z" />
    <glyph glyph-name="utilde" unicode="&#x169;" 
d="M312 761q37 0 68 -27t51 -27q50 0 58 46h80q1 -65 -39 -110t-92 -45q-38 0 -69 26.5t-50 26.5q-49 0 -58 -47h-79q-1 65 38.5 111t91.5 46zM484 0h-132l7 51q-47 -62 -138 -62q-93 0 -137 54.5t-28 149.5l57 324h146l-52 -296q-17 -96 63 -96q45 0 72.5 26.5t35.5 72.5
l52 293h146z" />
    <glyph glyph-name="Umacron" unicode="&#x16a;" horiz-adv-x="777" 
d="M636 815h-299l19 111h301zM793 748l-79 -449q-27 -149 -121.5 -229.5t-240.5 -80.5q-151 0 -225 85.5t-48 233.5l77 440h155l-79 -444q-16 -88 18 -133t112 -45q83 0 134 47.5t66 134.5l77 440h154z" />
    <glyph glyph-name="umacron" unicode="&#x16b;" 
d="M515 619h-300l20 112h300zM484 0h-132l7 51q-47 -62 -138 -62q-93 0 -137 54.5t-28 149.5l57 324h146l-52 -296q-17 -96 63 -96q45 0 72.5 26.5t35.5 72.5l52 293h146z" />
    <glyph glyph-name="Ubreve" unicode="&#x16c;" horiz-adv-x="777" 
d="M581 961h117q-14 -84 -68.5 -124.5t-134.5 -40.5q-89 0 -135.5 43.5t-31.5 121.5h117q-6 -32 10 -48t46 -16q31 0 53 18.5t27 45.5zM793 748l-79 -449q-27 -149 -121.5 -229.5t-240.5 -80.5q-151 0 -225 85.5t-48 233.5l77 440h155l-79 -444q-16 -88 18 -133t112 -45
q83 0 134 47.5t66 134.5l77 440h154z" />
    <glyph glyph-name="ubreve" unicode="&#x16d;" 
d="M457 758h117q-14 -84 -68 -124.5t-135 -40.5q-88 0 -134.5 44t-31.5 121h116q-5 -33 10.5 -49t45.5 -16q32 0 53 19t27 46zM484 0h-132l7 51q-47 -62 -138 -62q-93 0 -137 54.5t-28 149.5l57 324h146l-52 -296q-17 -96 63 -96q45 0 72.5 26.5t35.5 72.5l52 293h146z" />
    <glyph glyph-name="Uring" unicode="&#x16e;" horiz-adv-x="777" 
d="M510 1008q52 0 82.5 -33.5t20.5 -83.5q-7 -43 -41 -70.5t-77 -27.5q-53 0 -84 33.5t-23 82.5q8 44 42.5 71.5t79.5 27.5zM506 941q-17 0 -30 -10.5t-16 -27.5t7.5 -29.5t29.5 -12.5q17 0 29.5 10t15.5 27q3 18 -7 30.5t-29 12.5zM793 748l-79 -449
q-27 -149 -121.5 -229.5t-240.5 -80.5q-151 0 -225 85.5t-48 233.5l77 440h155l-79 -444q-16 -88 18 -133t112 -45q83 0 134 47.5t66 134.5l77 440h154z" />
    <glyph glyph-name="uring" unicode="&#x16f;" 
d="M389 823q60 0 94.5 -37.5t24.5 -93.5q-9 -50 -49 -81.5t-90 -31.5q-60 0 -94.5 37.5t-24.5 93.5q8 50 48 81.5t91 31.5zM382 745q-18 0 -31.5 -11.5t-16.5 -29.5q-4 -20 7.5 -33t32.5 -13q18 0 31 10.5t17 28.5q3 21 -8 34.5t-32 13.5zM484 0h-132l7 51q-47 -62 -138 -62
q-93 0 -137 54.5t-28 149.5l57 324h146l-52 -296q-17 -96 63 -96q45 0 72.5 26.5t35.5 72.5l52 293h146z" />
    <glyph glyph-name="Uhungarumlaut" unicode="&#x170;" horiz-adv-x="777" 
d="M435 798h-117l91 169h141zM637 798h-117l91 169h141zM793 748l-79 -449q-27 -149 -121.5 -229.5t-240.5 -80.5q-151 0 -225 85.5t-48 233.5l77 440h155l-79 -444q-16 -88 18 -133t112 -45q83 0 134 47.5t66 134.5l77 440h154z" />
    <glyph glyph-name="uhungarumlaut" unicode="&#x171;" 
d="M317 602h-117l94 180h141zM519 602h-117l94 180h141zM484 0h-132l7 51q-47 -62 -138 -62q-93 0 -137 54.5t-28 149.5l57 324h146l-52 -296q-17 -96 63 -96q45 0 72.5 26.5t35.5 72.5l52 293h146z" />
    <glyph glyph-name="Uogonek" unicode="&#x172;" horiz-adv-x="777" 
d="M793 748l-79 -449q-23 -127 -95 -204.5t-184 -98.5q-76 -40 -83 -81q-5 -29 29 -29q23 0 53 14l11 -75q-40 -16 -85 -16q-59 0 -92.5 27t-24.5 77q8 47 58 79q-126 14 -186 97.5t-36 218.5l77 440h155l-79 -444q-16 -88 18 -133t112 -45q83 0 134 47.5t66 134.5l77 440
h154z" />
    <glyph glyph-name="uogonek" unicode="&#x173;" 
d="M484 0h-25q-43 -23 -65.5 -41.5t-26.5 -44.5q-5 -29 29 -29q23 0 53 14l11 -75q-40 -16 -85 -16q-59 0 -92.5 27t-24.5 77q10 60 95 98l6 41q-47 -62 -138 -62q-93 0 -137 54.5t-28 149.5l57 324h146l-52 -296q-17 -96 63 -96q45 0 72.5 26.5t35.5 72.5l52 293h146z" />
    <glyph glyph-name="Wcircumflex" unicode="&#x174;" horiz-adv-x="1079" 
d="M821 795h-120l-48 75l-81 -75h-125l144 160h141zM729 352l234 396h179l-467 -762l-107 411l-254 -411l-202 762h167l94 -399l251 410z" />
    <glyph glyph-name="wcircumflex" unicode="&#x175;" horiz-adv-x="850" 
d="M671 599h-120l-47 82l-82 -82h-126l148 177h141zM557 266l166 251h170l-366 -530l-99 259l-191 -259l-185 530h155l77 -251l180 252z" />
    <glyph glyph-name="Ycircumflex" unicode="&#x176;" horiz-adv-x="744" 
d="M653 795h-120l-48 75l-81 -75h-125l144 160h141zM457 288l-53 -288h-154l53 288l-203 460h172l124 -304l236 304h189z" />
    <glyph glyph-name="ycircumflex" unicode="&#x177;" horiz-adv-x="587" 
d="M549 599h-120l-47 82l-82 -82h-126l148 177h141zM86 -255h-174l275 388l-133 384h156l78 -248l171 248h171z" />
    <glyph glyph-name="Ydieresis" unicode="&#x178;" horiz-adv-x="744" 
d="M388 957q38 0 60 -26t15 -62q-5 -30 -28 -50t-52 -20q-37 0 -59 25.5t-16 62.5q5 30 28 50t52 20zM581 957q37 0 59 -26t16 -62q-5 -30 -28.5 -50t-52.5 -20q-37 0 -59 25.5t-15 62.5q5 30 28 50t52 20zM457 288l-53 -288h-154l53 288l-203 460h172l124 -304l236 304h189
z" />
    <glyph glyph-name="Zacute" unicode="&#x179;" horiz-adv-x="626" 
d="M473 795h-136l155 154h202zM251 137h320l-25 -137h-566l433 612h-309l25 136h554z" />
    <glyph glyph-name="zacute" unicode="&#x17a;" horiz-adv-x="471" 
d="M353 598h-117l119 191h168zM212 118h208l-21 -118h-433l281 399h-194l21 118h419z" />
    <glyph glyph-name="Zdotaccent" unicode="&#x17b;" horiz-adv-x="626" 
d="M425 973q41 0 65.5 -28.5t17.5 -68.5q-6 -33 -32.5 -55.5t-59.5 -22.5q-40 0 -64 28t-17 68q6 33 32.5 56t57.5 23zM251 137h320l-25 -137h-566l433 612h-309l25 136h554z" />
    <glyph glyph-name="zdotaccent" unicode="&#x17c;" horiz-adv-x="471" 
d="M317 770q40 0 64 -28.5t17 -69.5q-6 -33 -32.5 -55.5t-58.5 -22.5q-41 0 -65 28.5t-16 68.5q6 33 32.5 56t58.5 23zM212 118h208l-21 -118h-433l281 399h-194l21 118h419z" />
    <glyph glyph-name="Zcaron" unicode="&#x17d;" horiz-adv-x="626" 
d="M477 795h-140l-89 160h119l49 -75l80 75h126zM251 137h320l-25 -137h-566l433 612h-309l25 136h554z" />
    <glyph glyph-name="zcaron" unicode="&#x17e;" horiz-adv-x="471" 
d="M370 597h-141l-85 176h119l48 -82l81 82h126zM212 118h208l-21 -118h-433l281 399h-194l21 118h419z" />
    <glyph glyph-name="florin" unicode="&#x192;" horiz-adv-x="444" 
d="M447 786q89 0 148 -44l-73 -113q-20 28 -60 28q-71 0 -95 -71l-25 -69h123l-22 -121h-144l-192 -538h-150l190 538h-94l22 121h115l36 103q59 166 221 166z" />
    <glyph glyph-name="Aringacute" unicode="&#x1fa;" horiz-adv-x="806" 
d="M494 772q-53 0 -84 33.5t-22 82.5q9 54 57 82l133 109h187l-191 -110q51 -36 39 -99q-7 -43 -41.5 -70.5t-77.5 -27.5zM541 877q3 18 -7 30.5t-29 12.5q-17 0 -29.5 -10.5t-15.5 -27.5t7 -29.5t29 -12.5q40 0 45 37zM488 763l254 -763h-170l-30 109h-318l-70 -109h-184z
M501 235l-58 212l-136 -212h194z" />
    <glyph glyph-name="aringacute" unicode="&#x1fb;" horiz-adv-x="657" 
d="M386 575q-54 0 -84.5 33.5t-21.5 83.5q9 55 60 83l132 107h187l-193 -110q51 -35 39 -99q-7 -43 -41.5 -70.5t-77.5 -27.5zM433 680q3 18 -7 30.5t-29 12.5q-17 0 -29.5 -10.5t-15.5 -26.5q-3 -18 7 -30.5t29 -12.5q18 0 30.5 10t14.5 27zM492 517h137l-89 -517h-136
l7 47q-50 -58 -145 -58q-115 0 -176.5 77t-43.5 202q16 118 90 188.5t185 70.5q57 0 97.5 -20t59.5 -50zM436 242l4 24q9 64 -21 100t-86 36t-94.5 -36t-47.5 -102q-9 -69 21.5 -109t85.5 -40q56 0 93 33.5t45 93.5z" />
    <glyph glyph-name="AEacute" unicode="&#x1fc;" horiz-adv-x="1036" 
d="M827 795h-136l155 154h202zM725 612l-28 -162h282l-24 -133h-282l-31 -180h326l-24 -137h-480l19 109h-240l-93 -109h-192l636 748h481l-24 -136h-326zM505 235l42 238l-199 -238h157z" />
    <glyph glyph-name="aeacute" unicode="&#x1fd;" horiz-adv-x="892" 
d="M549 598h-117l119 191h168zM631 527q117 0 179 -71.5t43 -191.5l-8 -52h-354q-4 -50 20.5 -77.5t73.5 -27.5q73 0 101 57l147 -10q-24 -77 -93 -121t-157 -44q-130 0 -195 82q-85 -82 -195 -82q-90 0 -135 44t-32 119q23 137 229 148l96 5l4 23q7 35 -6.5 56t-45.5 21
q-39 0 -60 -21t-26 -51l-143 11q13 73 78 128t158 55q99 0 147 -55q73 55 174 55zM629 413q-48 0 -80.5 -27.5t-43.5 -76.5h207q7 50 -15 77t-68 27zM335 208l-74 -4q-81 -5 -91 -55q-4 -22 9.5 -33.5t41.5 -11.5q38 0 70.5 23t39.5 66z" />
    <glyph glyph-name="Oslashacute" unicode="&#x1fe;" horiz-adv-x="875" 
d="M596 795h-136l155 154h202zM861 728l-86 -91q88 -109 69 -272q-19 -171 -134.5 -273.5t-280.5 -102.5q-122 0 -210 54l-87 -92l-86 72l89 95q-82 105 -64 265q19 171 135 273.5t282 102.5q114 0 202 -50l85 90zM226 365q-6 -75 19 -130l343 365q-46 22 -102 22
q-108 0 -179 -69.5t-81 -187.5zM690 383q6 82 -23 138l-346 -369q46 -26 109 -26q107 0 178.5 69.5t81.5 187.5z" />
    <glyph glyph-name="oslashacute" unicode="&#x1ff;" horiz-adv-x="638" 
d="M426 598h-117l119 191h168zM602 492l-54 -58q57 -75 44 -185q-13 -117 -95.5 -188.5t-197.5 -71.5q-77 0 -134 30l-60 -65l-74 59l60 65q-59 77 -46 190q13 117 95.5 188t198.5 71q79 0 137 -32l53 57zM192 249q-3 -30 4 -57l188 203q-18 7 -43 7q-61 0 -102 -41.5
t-47 -111.5zM448 268q2 32 -4 53l-185 -200q18 -6 39 -6q62 0 103 41.5t47 111.5z" />
    <glyph glyph-name="Scommaaccent" unicode="&#x218;" horiz-adv-x="663" 
d="M647 532l-158 -6q5 47 -20.5 73t-75.5 26q-56 0 -91 -26t-40 -68q-6 -40 20.5 -59t103.5 -38q128 -31 186.5 -80t45.5 -145q-16 -110 -98 -165t-199 -55q-137 0 -213.5 63.5t-61.5 174.5l157 5q-6 -50 26.5 -79.5t90.5 -29.5q59 0 96.5 23t43.5 69q6 39 -24.5 60.5
t-104.5 40.5q-60 15 -97 28.5t-73 38.5t-49.5 63.5t-5.5 92.5q14 95 88 157.5t197 62.5q128 0 198 -61.5t58 -165.5zM283 -48q43 0 63 -30t12 -77q-26 -147 -187 -222l2 65q59 35 85 90q-33 6 -51 32.5t-12 62.5q6 34 31 56.5t57 22.5z" />
    <glyph glyph-name="scommaaccent" unicode="&#x219;" horiz-adv-x="506" 
d="M473 358l-145 -3q3 27 -13 43.5t-46 16.5q-58 0 -66 -45q-2 -13 2.5 -22t18.5 -15.5t26 -10t39 -9.5q87 -22 128.5 -57.5t32.5 -103.5q-11 -76 -70.5 -119.5t-154.5 -43.5q-103 0 -156 45t-49 123l144 5q-3 -29 14.5 -45t52.5 -16q67 0 73 46q4 23 -13.5 36.5t-64.5 25.5
q-39 10 -62 17.5t-48.5 21t-37.5 29t-18.5 40t-1.5 56.5q11 72 68.5 113t150.5 41q98 0 148 -48.5t48 -120.5zM189 -48q43 0 63 -30t12 -77q-26 -147 -187 -222l2 65q59 35 85 90q-33 6 -51 32.5t-12 62.5q6 34 31 56.5t57 22.5z" />
    <glyph glyph-name="uni021A" unicode="&#x21a;" horiz-adv-x="693" 
d="M761 748l-25 -136h-250l-108 -612h-154l108 612h-251l24 136h656zM280 -43q43 0 63 -30t12 -77q-26 -147 -187 -222l2 65q59 35 85 90q-33 6 -51 32.5t-12 62.5q6 34 31 56.5t57 22.5z" />
    <glyph glyph-name="uni021B" unicode="&#x21b;" horiz-adv-x="404" 
d="M275 391l-36 -194q-7 -39 11 -57.5t48 -18.5q29 0 51 6l-22 -132q-35 -5 -76 -5q-91 0 -135 45.5t-28 133.5l41 222h-95l22 126h96l31 171h146l-31 -171h120l-22 -126h-121zM164 -51q43 0 63 -30t12 -77q-26 -147 -187 -222l2 65q59 35 85 90q-33 6 -51 32.5t-12 62.5
q6 34 31 56.5t57 22.5z" />
    <glyph glyph-name="dotlessj" unicode="&#x237;" horiz-adv-x="291" 
d="M264 517l-101 -572q-19 -107 -78 -158.5t-144 -51.5q-79 0 -130 36l71 114q23 -21 44 -21q36 0 60.5 21.5t31.5 60.5l100 571h146z" />
    <glyph glyph-name="circumflex" unicode="&#x2c6;" horiz-adv-x="391" 
d="M442 599h-120l-47 82l-82 -82h-126l148 177h141z" />
    <glyph glyph-name="caron" unicode="&#x2c7;" horiz-adv-x="391" 
d="M328 597h-141l-85 176h119l48 -82l81 82h126z" />
    <glyph glyph-name="breve" unicode="&#x2d8;" horiz-adv-x="391" 
d="M351 758h117q-14 -84 -68 -124.5t-135 -40.5q-88 0 -134.5 44t-31.5 121h116q-5 -33 10.5 -49t45.5 -16q32 0 53 19t27 46z" />
    <glyph glyph-name="dotaccent" unicode="&#x2d9;" horiz-adv-x="195" 
d="M177 770q40 0 64 -28.5t17 -69.5q-6 -33 -32.5 -55.5t-58.5 -22.5q-41 0 -65 28.5t-16 68.5q6 33 32.5 56t58.5 23z" />
    <glyph glyph-name="ring" unicode="&#x2da;" horiz-adv-x="281" 
d="M229 823q60 0 94.5 -37.5t24.5 -93.5q-9 -50 -49 -81.5t-90 -31.5q-60 0 -94.5 37.5t-24.5 93.5q8 50 48 81.5t91 31.5zM222 745q-18 0 -31.5 -11.5t-16.5 -29.5q-4 -20 7.5 -33t32.5 -13q18 0 31 10.5t17 28.5q3 21 -8 34.5t-32 13.5z" />
    <glyph glyph-name="ogonek" unicode="&#x2db;" horiz-adv-x="235" 
d="M126 41l29 -37q-44 -22 -67 -41.5t-27 -45.5q-5 -29 29 -29q23 0 53 14l11 -75q-40 -16 -85 -16q-59 0 -92.5 27t-24.5 77q8 46 52 74.5t122 51.5z" />
    <glyph glyph-name="tilde" unicode="&#x2dc;" horiz-adv-x="384" 
d="M203 761q29 0 49.5 -13.5t36 -27t33.5 -13.5q50 0 58 46h80q1 -65 -39 -110t-92 -45q-38 0 -69 26.5t-50 26.5q-49 0 -58 -47h-79q-1 65 38.5 111t91.5 46z" />
    <glyph glyph-name="hungarumlaut" unicode="&#x2dd;" horiz-adv-x="420" 
d="M185 602h-117l94 180h141zM387 602h-117l94 180h141z" />
    <glyph glyph-name="commaaccentcomb" unicode="&#x326;" horiz-adv-x="0" 
d="M57 -43q43 0 62.5 -30t11.5 -76q-26 -148 -187 -223l2 66q59 34 85 89q-33 6 -51 33t-11 62q5 34 30 56.5t58 22.5z" />
    <glyph glyph-name="Omega" unicode="&#x3a9;" horiz-adv-x="798" 
d="M471 726q156 0 231 -101.5t48 -254.5q-14 -80 -56.5 -150t-92.5 -111l150 3l-19 -112h-309l15 106q66 38 122 116t70 161q18 103 -23 167t-134 64q-102 0 -173.5 -69.5t-90.5 -180.5q-14 -78 12 -151.5t77 -111.5l-14 -101h-309l20 112l159 3q-37 43 -57.5 116t-5.5 157
q26 147 129 242.5t251 95.5z" />
    <glyph glyph-name="mu" unicode="&#x3bc;" horiz-adv-x="607" 
d="M580 517l-91 -517h-132l7 51q-47 -62 -138 -62q-30 0 -54 6l-44 -250h-146l75 423q2 16 3 25l58 324h146l-52 -296q-17 -96 63 -96q45 0 72.5 26.5t35.5 72.5l52 293h145z" />
    <glyph glyph-name="pi" unicode="&#x3c0;" horiz-adv-x="721" 
d="M630 535l105 -74q-60 -128 -182 -128h-12l-54 -186q-5 -14 -6 -21t1.5 -10t9.5 -3q24 0 49 21l57 -93q-58 -50 -125 -50q-72 0 -98.5 43.5t-5.5 113.5l56 185h-93l-60 -198q-25 -83 -64 -139l-140 8q4 6 15.5 24t15.5 24t13 21t13.5 23.5t11 21.5t11 25t8.5 25l52 165
h-11q-53 0 -98 -53l-56 107q47 40 88 57.5t108 17.5h254q54 0 84.5 18.5t52.5 54.5z" />
    <glyph glyph-name="Wgrave" unicode="&#x1e80;" horiz-adv-x="1079" 
d="M694 795h-130l-167 154h196zM729 352l234 396h179l-467 -762l-107 411l-254 -411l-202 762h167l94 -399l251 410z" />
    <glyph glyph-name="wgrave" unicode="&#x1e81;" horiz-adv-x="850" 
d="M536 598h-110l-102 191h162zM557 266l166 251h170l-366 -530l-99 259l-191 -259l-185 530h155l77 -251l180 252z" />
    <glyph glyph-name="Wacute" unicode="&#x1e82;" horiz-adv-x="1079" 
d="M703 795h-136l155 154h202zM729 352l234 396h179l-467 -762l-107 411l-254 -411l-202 762h167l94 -399l251 410z" />
    <glyph glyph-name="wacute" unicode="&#x1e83;" horiz-adv-x="850" 
d="M540 598h-117l119 191h168zM557 266l166 251h170l-366 -530l-99 259l-191 -259l-185 530h155l77 -251l180 252z" />
    <glyph glyph-name="Wdieresis" unicode="&#x1e84;" horiz-adv-x="1079" 
d="M556 957q38 0 60 -26t15 -62q-5 -30 -28 -50t-52 -20q-37 0 -59 25.5t-16 62.5q5 30 28 50t52 20zM749 957q37 0 59 -26t16 -62q-5 -30 -28.5 -50t-52.5 -20q-37 0 -59 25.5t-15 62.5q5 30 28 50t52 20zM729 352l234 396h179l-467 -762l-107 411l-254 -411l-202 762h167
l94 -399l251 410z" />
    <glyph glyph-name="wdieresis" unicode="&#x1e85;" horiz-adv-x="850" 
d="M404 757q37 0 59.5 -26t15.5 -61q-6 -30 -29 -50t-52 -20q-37 0 -58.5 25.5t-15.5 62.5q5 30 28 49.5t52 19.5zM597 757q37 0 59 -26t16 -61q-6 -31 -29.5 -50.5t-52.5 -19.5q-37 0 -58.5 25.5t-14.5 62.5q4 30 27.5 49.5t52.5 19.5zM557 266l166 251h170l-366 -530
l-99 259l-191 -259l-185 530h155l77 -251l180 252z" />
    <glyph glyph-name="Ygrave" unicode="&#x1ef2;" horiz-adv-x="744" 
d="M526 795h-130l-167 154h196zM457 288l-53 -288h-154l53 288l-203 460h172l124 -304l236 304h189z" />
    <glyph glyph-name="ygrave" unicode="&#x1ef3;" horiz-adv-x="587" 
d="M414 598h-110l-102 191h162zM86 -255h-174l275 388l-133 384h156l78 -248l171 248h171z" />
    <glyph glyph-name="endash" unicode="&#x2013;" horiz-adv-x="566" 
d="M510 194h-476l24 136h476z" />
    <glyph glyph-name="emdash" unicode="&#x2014;" horiz-adv-x="798" 
d="M742 194h-708l24 136h708z" />
    <glyph glyph-name="quoteleft" unicode="&#x2018;" horiz-adv-x="224" 
d="M268 778l-2 -66q-60 -35 -85 -89q34 -6 52 -33t11 -62q-5 -34 -30 -56.5t-58 -22.5q-43 0 -63 29.5t-12 76.5q27 148 187 223z" />
    <glyph glyph-name="quoteright" unicode="&#x2019;" horiz-adv-x="224" 
d="M193 775q43 0 63 -29.5t12 -76.5q-28 -147 -187 -223l2 66q59 35 85 90q-33 6 -51 32.5t-12 61.5q6 34 30.5 56.5t57.5 22.5z" />
    <glyph glyph-name="quotesinglbase" unicode="&#x201a;" horiz-adv-x="224" 
d="M85 166q43 0 63 -30t12 -77q-26 -147 -187 -222l2 65q59 35 85 90q-33 6 -51 32.5t-12 62.5q6 34 31 56.5t57 22.5z" />
    <glyph glyph-name="quotedblleft" unicode="&#x201c;" horiz-adv-x="433" 
d="M78 555q27 148 187 223l-2 -66q-60 -35 -85 -89q34 -6 52 -33t11 -62q-5 -34 -30 -56.5t-58 -22.5q-43 0 -63 29.5t-12 76.5zM474 778l-2 -66q-60 -35 -85 -89q34 -6 52 -33t11 -62q-5 -34 -30 -56.5t-58 -22.5q-43 0 -63 29.5t-12 76.5q27 148 187 223z" />
    <glyph glyph-name="quotedblright" unicode="&#x201d;" horiz-adv-x="433" 
d="M191 775q43 0 63 -29.5t12 -76.5q-28 -147 -187 -223l2 66q59 35 85 90q-33 6 -51 32.5t-12 61.5q6 34 30.5 56.5t57.5 22.5zM401 775q43 0 63 -29.5t12 -76.5q-28 -147 -187 -223l2 66q59 35 85 90q-33 6 -51 32.5t-12 61.5q6 34 30.5 56.5t57.5 22.5z" />
    <glyph glyph-name="quotedblbase" unicode="&#x201e;" horiz-adv-x="433" 
d="M86 166q43 0 63 -30t12 -77q-27 -147 -187 -222l2 65q59 35 85 90q-34 6 -52 32.5t-11 62.5q6 34 31 56.5t57 22.5zM295 166q43 0 63 -30t12 -77q-26 -147 -187 -222l2 65q59 35 85 90q-33 6 -51 32.5t-12 62.5q6 34 31 56.5t57 22.5z" />
    <glyph glyph-name="dagger" unicode="&#x2020;" horiz-adv-x="534" 
d="M392 556h178l-22 -131h-178l-87 -492h-146l87 492h-177l22 131h178l34 192h146z" />
    <glyph glyph-name="daggerdbl" unicode="&#x2021;" horiz-adv-x="534" 
d="M393 556h177l-22 -131h-178l-30 -169h178l-23 -131h-178l-34 -192h-146l35 192h-178l23 131h178l29 169h-177l22 131h178l34 192h146z" />
    <glyph glyph-name="bullet" unicode="&#x2022;" horiz-adv-x="349" 
d="M186 381q56 0 89.5 -39.5t23.5 -95.5q-9 -49 -49 -83.5t-87 -34.5q-58 0 -91.5 40t-22.5 96q9 49 48.5 83t88.5 34z" />
    <glyph glyph-name="ellipsis" unicode="&#x2026;" horiz-adv-x="779" 
d="M99 166q41 0 65.5 -29t17.5 -69q-6 -34 -33 -56.5t-59 -22.5q-41 0 -65 28.5t-16 69.5q5 33 31.5 56t58.5 23zM353 166q41 0 65.5 -29t17.5 -69q-6 -34 -33 -56.5t-59 -22.5q-41 0 -65 28.5t-16 69.5q5 33 31.5 56t58.5 23zM609 166q41 0 65 -29t17 -69q-6 -34 -33 -56.5
t-59 -22.5q-41 0 -65 28.5t-16 69.5q6 33 32.5 56t58.5 23z" />
    <glyph glyph-name="perthousand" unicode="&#x2030;" horiz-adv-x="1290" 
d="M285 759q82 0 125 -54.5t27 -142.5q-14 -81 -68.5 -130t-127.5 -49q-82 0 -125 54.5t-28 142.5q15 82 69.5 130.5t127.5 48.5zM226 0h-144l625 748h144zM280 657q-34 0 -57 -24t-30 -68q-5 -37 10 -59t44 -22q33 0 56 24.5t30 68.5q5 38 -9 59t-44 21zM693 365
q81 0 124 -54.5t27 -141.5q-14 -82 -68.5 -131t-127.5 -49q-82 0 -125 55t-28 143q15 81 70 129.5t128 48.5zM1090 365q82 0 125 -54.5t27 -141.5q-14 -82 -68.5 -131t-127.5 -49q-82 0 -125 55t-28 143q15 81 70 129.5t127 48.5zM687 264q-35 0 -57.5 -24t-29.5 -68
q-7 -37 9 -59t45 -22q34 0 56.5 24t29.5 69q5 37 -9.5 58.5t-43.5 21.5zM1084 264q-34 0 -57 -24t-29 -68q-7 -37 9 -59t45 -22q34 0 56.5 24t29.5 69q5 37 -9.5 58.5t-44.5 21.5z" />
    <glyph glyph-name="guilsinglleft" unicode="&#x2039;" horiz-adv-x="338" 
d="M345 390l-156 -140l106 -141l-112 -84l-169 236l235 230z" />
    <glyph glyph-name="guilsinglright" unicode="&#x203a;" horiz-adv-x="338" 
d="M325 254l-236 -230l-95 101l155 140l-106 140l113 85z" />
    <glyph glyph-name="fraction" unicode="&#x2044;" horiz-adv-x="222" 
d="M-112 0h-152l638 748h152z" />
    <glyph glyph-name="Euro" unicode="&#x20ac;" horiz-adv-x="706" 
d="M530 622q-129 0 -197 -123h291l-46 -90h-280q-6 -21 -9 -45q-2 -10 -4 -30h253l-47 -90h-202q13 -58 50.5 -88t94.5 -30q88 0 160 57l56 -134q-101 -60 -223 -60q-116 0 -196 67t-98 188h-123l46 90h74q1 14 5 49l4 26h-105l46 90h85q48 124 145.5 192t211.5 68
q69 0 116 -16t91 -49l-62 -123q-51 51 -137 51z" />
    <glyph glyph-name="trademark" unicode="&#x2122;" horiz-adv-x="894" 
d="M859 389h-107l21 117l-124 -124l-85 128l-22 -121h-107l62 367l169 -232l255 232zM428 645h-117l-44 -256h-107l44 256h-116l19 103h340z" />
    <glyph glyph-name="estimated" unicode="&#x212e;" horiz-adv-x="604" 
d="M315 541q110 0 180.5 -68.5t70.5 -193.5h-385v-177q0 -45 35 -61q34 -23 99 -23q70 0 126.5 34t93.5 93l26 -17q-91 -141 -246 -141q-120 0 -198.5 76.5t-78.5 199.5q0 124 78.5 201t198.5 77zM315 509q-63 0 -101 -24q-33 -14 -33 -59v-116h254v116q0 28 -6 41.5
t-27 22.5q-33 19 -87 19z" />
    <glyph glyph-name="partialdiff" unicode="&#x2202;" horiz-adv-x="615" 
d="M347 759q81 0 135 -34t78.5 -94t30 -142.5t-10.5 -179.5q-23 -155 -103.5 -237.5t-200.5 -82.5t-186.5 72.5t-49.5 191.5q16 106 93 168.5t184 62.5q77 0 128 -39q11 91 -11.5 134t-80.5 43q-83 0 -156 -64l-72 133q104 68 222 68zM278 126q53 0 92 34.5t47 86.5l2 13
q5 48 -18 76t-66 28q-52 0 -91.5 -35.5t-47.5 -91.5q-8 -51 14 -81t68 -30z" />
    <glyph glyph-name="product" unicode="&#x220f;" horiz-adv-x="661" 
d="M705 612h-96l-136 -776h-132l137 776h-170l-137 -776h-132l137 776h-95l24 136h624z" />
    <glyph glyph-name="summation" unicode="&#x2211;" horiz-adv-x="600" 
d="M621 612h-336l137 -238l-218 -237h333l-24 -137h-512l19 113l242 261l-147 261l18 113h512z" />
    <glyph glyph-name="minus" unicode="&#x2212;" horiz-adv-x="548" 
d="M524 303h-486l25 136h485z" />
    <glyph glyph-name="radical" unicode="&#x221a;" horiz-adv-x="676" 
d="M725 643l-430 -720l-98 320l-117 -65l-54 114l252 142l58 -213l274 472z" />
    <glyph glyph-name="infinity" unicode="&#x221e;" horiz-adv-x="777" 
d="M583 506q88 0 135.5 -61t34.5 -150q-12 -83 -70 -139t-137 -56q-95 0 -164 88l-12 17l-18 -19q-74 -71 -157 -71q-82 0 -124.5 56.5t-30.5 140.5q12 77 63.5 128.5t124.5 51.5q51 0 83.5 -19t63.5 -56l12 -17l17 16q51 47 89.5 68.5t89.5 21.5zM581 383q-22 0 -41.5 -9
t-32.5 -20t-35 -33l-21 -22l12 -18q40 -57 85 -57q35 0 58 22t28 57q5 32 -10.5 56t-42.5 24zM229 374q-32 0 -52.5 -22t-25.5 -54q-5 -27 9 -46t39 -19q47 0 93 49l18 20l-9 16q-35 56 -72 56z" />
    <glyph glyph-name="integral" unicode="&#x222b;" horiz-adv-x="336" 
d="M318 759q53 0 111 -20l-34 -107q-26 9 -46 9q-49 0 -59 -54l-106 -600q-27 -158 -152 -158q-52 0 -111 19l33 107q26 -8 41 -8q26 0 43.5 14.5t22.5 39.5l105 601q28 157 152 157z" />
    <glyph glyph-name="approxequal" unicode="&#x2248;" horiz-adv-x="544" 
d="M522 591l55 -105q-83 -89 -168 -89q-48 0 -99.5 29t-79.5 29q-71 0 -125 -57l-55 105q83 88 167 88q45 0 96 -29t82 -29q70 0 127 58zM479 345l56 -105q-85 -88 -170 -88q-48 0 -99 28.5t-79 28.5q-71 0 -125 -57l-55 105q83 88 167 88q45 0 96 -29t82 -29q70 0 127 58z
" />
    <glyph glyph-name="notequal" unicode="&#x2260;" horiz-adv-x="548" 
d="M382 424l-47 -108h192l-24 -137h-228l-52 -119l-122 30l39 89h-123l24 137h159l47 108h-187l24 137h223l51 117l123 -29l-39 -88h128l-24 -137h-164z" />
    <glyph glyph-name="lessequal" unicode="&#x2264;" horiz-adv-x="538" 
d="M560 556l-202 -84l172 -84l-26 -150l-437 234l518 233zM472 57h-478l24 136h478z" />
    <glyph glyph-name="greaterequal" unicode="&#x2265;" horiz-adv-x="538" 
d="M547 472l-519 -234l25 150l202 84l-171 84l25 149zM474 57h-478l23 136h478z" />
    <glyph glyph-name="lozenge" unicode="&#x25ca;" horiz-adv-x="558" 
d="M545 346l-273 -401h-93l-135 401l274 402h93zM195 346l61 -194l138 194l-61 193z" />
    <glyph glyph-name="fl" unicode="&#xfb02;" horiz-adv-x="670" 
d="M401 783q37 0 56 -4l-23 -125q-8 2 -27 2q-42 0 -72 -24.5t-37 -62.5l-9 -52h120l-22 -126h-120l-69 -391h-145l68 391h-93l22 126h94l10 58q17 96 85 152t162 56zM552 0h-146l137 777h146z" />
    <glyph glyph-name="n.001" horiz-adv-x="618" 
d="M350 527q91 0 146 -54.5t55 -151.5v-321h-146v288q0 49 -24.5 76t-66.5 27q-43 0 -69.5 -28.5t-26.5 -75.5v-287h-146v517h138v-56q16 28 52.5 47t87.5 19z" />
    <glyph glyph-name="germandbls.cap" horiz-adv-x="703" 
d="M415 756q176 0 264 -125l-138 -176q146 -68 118 -227q-19 -109 -103.5 -172.5t-204.5 -63.5q-54 0 -107 11l45 133q21 -7 57 -7q60 0 103.5 30.5t53.5 87.5q11 63 -28.5 97t-125.5 52l140 194q-30 30 -82 30t-92 -31.5t-50 -81.5l-89 -507h-154l91 515q19 111 103.5 176
t198.5 65z" />
    <glyph glyph-name="a.sups" horiz-adv-x="524" 
d="M308 757q77 0 119 -46l9 37h123l-72 -415h-119l4 26q-43 -34 -113 -34q-92 0 -139.5 60.5t-34.5 160.5q11 93 74.5 152t148.5 59zM319 645q-40 0 -68 -26.5t-35 -74.5q-7 -50 14 -79t60 -29q84 0 101 96l2 11q8 47 -12.5 74.5t-61.5 27.5z" />
    <glyph glyph-name="b.sups" horiz-adv-x="528" 
d="M308 955l-41 -226q37 28 101 28q91 0 139 -61t35 -161q-11 -93 -75 -151.5t-149 -58.5q-77 0 -117 44l-9 -36h-125l110 622h131zM335 645q-83 0 -100 -95l-2 -12q-7 -47 14.5 -74.5t61.5 -27.5t67.5 26t34.5 75q7 50 -15 79t-61 29z" />
    <glyph glyph-name="c.sups" horiz-adv-x="477" 
d="M312 757q82 0 134.5 -44.5t56.5 -119.5l-125 -7q-1 28 -17.5 43.5t-44.5 15.5q-41 0 -68 -30.5t-33 -83.5q-6 -45 14 -70t54 -25q66 0 84 62l125 -14q-20 -74 -76.5 -116.5t-130.5 -42.5q-99 0 -155.5 61t-44.5 164q10 96 73.5 151.5t153.5 55.5z" />
    <glyph glyph-name="d.sups" horiz-adv-x="528" 
d="M487 333h-119l4 26q-43 -34 -113 -34q-92 0 -139.5 60.5t-34.5 160.5q11 93 75 152t149 59q73 0 114 -41l43 239h130zM318 645q-40 0 -67.5 -26.5t-34.5 -74.5q-7 -50 14.5 -79t60.5 -29q85 0 100 96l2 11q7 47 -14 74.5t-61 27.5z" />
    <glyph glyph-name="e.sups" horiz-adv-x="481" 
d="M317 757q95 0 144.5 -57t35.5 -156l-6 -43h-274q-12 -72 54 -72q61 0 80 41l130 -8q-19 -62 -75 -99.5t-126 -37.5q-102 0 -156 61t-39 164q13 96 77 151.5t155 55.5zM314 660q-33 0 -54.5 -20t-29.5 -54h142q4 35 -11 54.5t-47 19.5z" />
    <glyph glyph-name="f.sups" horiz-adv-x="308" 
d="M376 960q26 0 48 -4l-20 -112q-10 3 -25 3q-32 0 -53.5 -18t-26.5 -48l-6 -33h94l-20 -112h-93l-54 -303h-130l53 303h-72l20 112h73l7 41q14 78 70.5 124.5t134.5 46.5z" />
    <glyph glyph-name="g.sups" horiz-adv-x="524" 
d="M310 757q76 0 117 -45l8 36h125l-77 -433q-17 -90 -80.5 -141.5t-159.5 -51.5q-100 0 -148 42.5t-46 117.5l128 4q-2 -26 15.5 -40.5t50.5 -14.5q44 0 73 22t36 63l6 36q-40 -27 -99 -27q-93 0 -141 62t-32 162q14 93 77 150.5t147 57.5zM320 645q-40 0 -68 -26.5
t-35 -74.5q-8 -50 13 -79t60 -29q85 0 102 95l2 15q7 46 -13.5 72.5t-60.5 26.5z" />
    <glyph glyph-name="h.sups" horiz-adv-x="495" 
d="M308 955l-45 -232q38 34 99 34q76 0 115.5 -47t26.5 -126l-45 -251h-130l41 229q12 74 -46 74q-33 0 -56.5 -21t-30.5 -57l-39 -225h-131l110 622h131z" />
    <glyph glyph-name="i.sups" horiz-adv-x="239" 
d="M232 957q36 0 57.5 -25.5t15.5 -61.5q-5 -28 -28 -47t-50 -19q-37 0 -58 25t-15 60q5 29 28 48.5t50 19.5zM198 333h-131l74 415h130z" />
    <glyph glyph-name="j.sups" horiz-adv-x="239" 
d="M231 957q37 0 58.5 -25.5t15.5 -61.5q-5 -28 -28 -47t-51 -19q-37 0 -57.5 25t-14.5 60q5 29 27 48.5t50 19.5zM271 748l-80 -454q-14 -79 -70.5 -125t-133.5 -46q-27 0 -49 4l20 111q7 -2 22 -2q32 0 55 19t28 47l78 446h130z" />
    <glyph glyph-name="k.sups" horiz-adv-x="475" 
d="M245 610l145 138h161l-188 -179l116 -236h-141l-74 143l-46 -40l-20 -103h-131l110 622h131z" />
    <glyph glyph-name="l.sups" horiz-adv-x="239" 
d="M198 333h-131l110 622h131z" />
    <glyph glyph-name="m.sups" horiz-adv-x="743" 
d="M611 757q76 0 114 -47t25 -126l-45 -251h-130l40 229q14 74 -42 74q-61 0 -79 -61l-42 -242h-131l41 229q14 74 -43 74q-32 0 -53.5 -20.5t-28.5 -56.5l-39 -226h-131l74 415h119l-5 -29q36 38 103 38q87 0 123 -60q51 60 130 60z" />
    <glyph glyph-name="n.sups" horiz-adv-x="497" 
d="M362 757q76 0 115.5 -47t26.5 -126l-45 -251h-130l41 229q7 35 -6 54.5t-41 19.5q-33 0 -56 -21.5t-30 -56.5l-39 -225h-131l74 415h119l-5 -29q36 38 107 38z" />
    <glyph glyph-name="o.sups" horiz-adv-x="513" 
d="M326 757q102 0 158.5 -62.5t42.5 -163.5q-13 -93 -80 -149.5t-160 -56.5q-102 0 -159 62.5t-43 162.5q13 93 80.5 150t160.5 57zM324 645q-43 0 -73.5 -30t-35.5 -81q-5 -46 15.5 -72t58.5 -26q44 0 74.5 30t36.5 80q4 47 -16.5 73t-59.5 26z" />
    <glyph glyph-name="p.sups" horiz-adv-x="528" 
d="M369 757q91 0 139 -61t35 -161q-11 -93 -75 -151.5t-149 -58.5q-74 0 -114 40l-43 -236h-130l109 619h118l-3 -26q43 35 113 35zM336 645q-83 0 -100 -95l-2 -12q-7 -47 14.5 -74.5t61.5 -27.5t67.5 26t34.5 75q7 50 -15 79t-61 29z" />
    <glyph glyph-name="q.sups" horiz-adv-x="528" 
d="M309 757q78 0 117 -45l9 36h125l-110 -619h-130l40 223q-36 -27 -101 -27q-91 0 -139 60.5t-35 160.5q12 93 75.5 152t148.5 59zM318 645q-40 0 -67 -26.5t-34 -74.5q-7 -50 14 -79t61 -29q83 0 100 96l2 11q7 47 -14 74.5t-62 27.5z" />
    <glyph glyph-name="r.sups" horiz-adv-x="306" 
d="M380 752l-23 -125q-49 0 -82.5 -27t-41.5 -69l-35 -198h-131l74 415h123l-6 -37q39 41 122 41z" />
    <glyph glyph-name="s.sups" horiz-adv-x="406" 
d="M277 757q83 0 123.5 -40t35.5 -103l-130 -1q4 21 -5 32.5t-28 11.5q-43 0 -48 -32q-3 -14 9.5 -21t49.5 -18q72 -21 105 -49t23 -83q-11 -62 -59 -95.5t-127 -33.5q-86 0 -129.5 37.5t-37.5 103.5l130 1q-5 -43 40 -43q48 0 54 32q2 15 -8.5 23t-44.5 17q-17 5 -27 8.5
t-24 8t-22.5 8.5t-18.5 9.5t-16 11t-12.5 12.5t-9.5 15t-5.5 17.5t-2 21t2.5 24.5q11 58 59 91.5t123 33.5z" />
    <glyph glyph-name="t.sups" horiz-adv-x="327" 
d="M280 636l-26 -140q-5 -29 8 -42t35 -13q11 0 43 4l-21 -116q-24 -4 -62 -4q-77 0 -113.5 37.5t-22.5 109.5l30 164h-77l21 112h76l25 136h130l-25 -136h93l-20 -112h-94z" />
    <glyph glyph-name="u.sups" horiz-adv-x="485" 
d="M443 333h-117l4 29q-41 -37 -103 -37q-76 0 -112.5 44.5t-23.5 120.5l46 258h130l-42 -233q-11 -69 42 -69q32 0 52.5 18t25.5 51l41 233h131z" />
    <glyph glyph-name="v.sups" horiz-adv-x="468" 
d="M249 322l-159 426h139l53 -174l119 174h152z" />
    <glyph glyph-name="w.sups" horiz-adv-x="686" 
d="M495 568l124 180h153l-302 -426l-79 188l-145 -188l-156 426h139l58 -180l136 180z" />
    <glyph glyph-name="x.sups" horiz-adv-x="451" 
d="M361 531l92 -198h-140l-51 117l-91 -117h-151l169 219l-91 196h139l50 -116l92 116h150z" />
    <glyph glyph-name="y.sups" horiz-adv-x="482" 
d="M121 129h-156l233 324l-107 295h139l58 -175l124 175h154z" />
    <glyph glyph-name="z.sups" horiz-adv-x="378" 
d="M237 438h153l-19 -105h-351l211 310h-142l18 105h342z" />
    <glyph glyph-name="zero.onum" horiz-adv-x="653" 
d="M361 601q132 0 203 -85.5t52 -228.5q-18 -137 -103.5 -217.5t-208.5 -80.5q-132 0 -203 86.5t-52 229.5q19 137 104 216.5t208 79.5zM360 465q-61 0 -102.5 -47.5t-51.5 -130.5q-9 -76 17.5 -118.5t80.5 -42.5q62 0 103.5 48t51.5 131q10 76 -17 118t-82 42z" />
    <glyph glyph-name="one.onum" horiz-adv-x="393" 
d="M271 0h-153l61 338l-111 -71l-44 122l352 212z" />
    <glyph glyph-name="two.onum" horiz-adv-x="542" 
d="M319 601q121 0 175 -59.5t36 -157.5q-10 -61 -45.5 -105.5t-106.5 -99.5l-60 -42h172l-24 -137h-490l271 226q3 2 17 13.5t17.5 14.5t16 13.5t16 14.5t13.5 14t14 16t11 15.5t10 17.5t6.5 18.5t5.5 20.5q7 39 -9.5 59.5t-51.5 20.5q-89 0 -110 -109l-151 17
q21 109 92 169t175 60z" />
    <glyph glyph-name="three.onum" horiz-adv-x="568" 
d="M327 601q114 0 167.5 -62t35.5 -167q-16 -97 -108 -149q37 -15 57 -60t9 -108q-18 -106 -92 -165t-179 -59q-121 0 -177 63t-41 170l153 -1q-11 -95 73 -95q93 0 111 101q7 44 -14 69t-65 25h-82l24 129h70q40 0 70.5 23.5t37.5 65.5q6 38 -10 60.5t-50 22.5
q-80 0 -103 -99l-150 19q20 104 88 160.5t175 56.5z" />
    <glyph glyph-name="four.onum" horiz-adv-x="603" 
d="M461 80h91l-20 -118h-91l-21 -120h-141l22 120h-363l615 642zM201 80h120l31 160z" />
    <glyph glyph-name="five.onum" horiz-adv-x="570" 
d="M257 454l-26 -148q31 11 66 11q107 0 166.5 -65.5t39.5 -181.5q-16 -110 -89.5 -174.5t-184.5 -64.5q-116 0 -174 60t-47 160l153 4q-4 -41 16.5 -64t60.5 -23q48 0 76 29.5t36 82.5q8 45 -11.5 72.5t-58.5 27.5q-40 0 -84 -29l-146 3l77 436h438l-24 -136h-284z" />
    <glyph glyph-name="six.onum" horiz-adv-x="608" 
d="M613 748l-235 -263q98 -16 152 -84.5t39 -169.5q-16 -109 -93.5 -175.5t-186.5 -66.5q-121 0 -192 72.5t-54 187.5q14 92 72 157l309 342h189zM413 246q8 58 -17 88t-70 30q-54 0 -90 -39q-30 -33 -37 -82q-7 -57 18 -87t71 -30q51 0 85 34.5t40 85.5z" />
    <glyph glyph-name="seven.onum" horiz-adv-x="557" 
d="M141 -158h-174l400 612h-312l24 136h540z" />
    <glyph glyph-name="eight.onum" horiz-adv-x="615" 
d="M376 759q110 0 172.5 -60t45.5 -160q-13 -92 -94 -146q36 -26 53.5 -73t8.5 -108q-17 -103 -96 -163t-189 -60q-119 0 -185.5 66t-49.5 176q18 113 118 174q-62 54 -47 152q15 94 88 148t175 54zM367 622q-41 0 -70 -25t-33 -65q-4 -37 16 -57t57 -20q41 0 70 23.5
t33 63.5q4 37 -16 58.5t-57 21.5zM323 332q-52 0 -86.5 -29.5t-41.5 -79.5q-4 -45 20 -71t69 -26q52 0 86.5 29.5t40.5 79.5q4 45 -19.5 71t-68.5 26z" />
    <glyph glyph-name="nine.onum" horiz-adv-x="608" 
d="M328 601q121 0 192 -72.5t54 -187.5q-14 -92 -72 -157l-309 -342h-189l235 263q-98 16 -152 85t-39 169q16 109 93.5 175.5t186.5 66.5zM291 226q54 0 90 39q30 33 37 82q7 57 -18 87t-71 30q-51 0 -85 -34.5t-40 -85.5q-8 -58 17 -88t70 -30z" />
    <glyph glyph-name="zero.slash" horiz-adv-x="652" 
d="M391 759q132 0 198 -104.5t39 -289.5q-26 -179 -114.5 -277.5t-212.5 -98.5q-133 0 -199 104.5t-39 289.5q26 179 115 277.5t213 98.5zM217 368q-10 -70 -7 -113l234 346q-22 21 -57 21q-69 0 -109.5 -63t-60.5 -191zM474 380q9 59 7 108l-232 -344q23 -18 55 -18
q69 0 110.5 63t59.5 191z" />
    <glyph glyph-name="zero.subs" horiz-adv-x="372" 
d="M189 338q77 0 114.5 -59t19.5 -162q-18 -98 -68.5 -151t-118.5 -53q-77 0 -115 59.5t-20 162.5q18 97 69 150t119 53zM183 238q-50 0 -70 -113q-19 -112 28 -112q26 0 42 27t26 87q21 111 -26 111z" />
    <glyph glyph-name="one.subs" horiz-adv-x="234" 
d="M138 -80h-112l42 227l-51 -31l-33 91l226 131z" />
    <glyph glyph-name="two.subs" horiz-adv-x="319" 
d="M149 338q74 0 105.5 -36t21.5 -98q-11 -60 -81 -138l-44 -47h92l-17 -99h-284l168 201q51 57 55 94q3 24 -20 24q-29 0 -37 -40l-107 9q12 61 51.5 95.5t96.5 34.5z" />
    <glyph glyph-name="three.subs" horiz-adv-x="329" 
d="M166 338q69 0 101 -36.5t21 -97.5q-8 -48 -56 -78q18 -8 28 -32.5t4 -57.5q-10 -58 -51.5 -90.5t-99.5 -32.5q-71 0 -105 37t-24 94l112 4q-4 -35 22 -35q14 0 25 13t12 32q5 27 -26 27h-47l15 88h37q16 0 31.5 13.5t16.5 33.5q3 21 -20 21q-13 0 -23.5 -10.5
t-13.5 -27.5l-105 10q20 125 146 125z" />
    <glyph glyph-name="four.subs" horiz-adv-x="351" 
d="M256 48h39l-15 -84h-40l-7 -44h-105l7 44h-202l374 384zM102 48h49l12 62z" />
    <glyph glyph-name="five.subs" horiz-adv-x="324" 
d="M141 232l-7 -45l15 1q61 0 94.5 -37t21.5 -105q-12 -63 -54 -98t-104 -35q-69 0 -102.5 34t-24.5 90l111 3q-3 -27 23 -27q31 0 38 40q4 16 -2 25.5t-19 9.5t-27 -12l-102 2l44 253h252l-17 -99h-140z" />
    <glyph glyph-name="six.subs" horiz-adv-x="352" 
d="M328 331l-124 -143q47 -14 70 -52t14 -90q-10 -60 -56 -96.5t-107 -36.5q-70 0 -109 42.5t-28 108.5q8 42 43 86l159 181h138zM177 60q3 18 -4.5 31t-24.5 13q-18 0 -31 -15q-12 -12 -16 -32q-3 -19 5 -31.5t24 -12.5q17 0 30 12t17 35z" />
    <glyph glyph-name="seven.subs" horiz-adv-x="333" 
d="M91 -80h-127l190 312h-139l17 99h306z" />
    <glyph glyph-name="eight.subs" horiz-adv-x="354" 
d="M177 338q66 0 103 -36t26 -95q-5 -40 -44 -73q36 -37 26 -97q-10 -57 -55.5 -90.5t-107.5 -33.5q-70 0 -109.5 39.5t-27.5 103.5q9 50 58 91q-24 34 -18 78q10 53 51.5 83t97.5 30zM172 238q-17 0 -29 -10t-14 -27q-2 -15 6 -24t23 -9q37 0 42 37q2 15 -5.5 24t-22.5 9z
M147 91q-18 0 -31 -11t-16 -30q-2 -17 6.5 -27t25.5 -10q39 0 46 41q3 17 -6 27t-25 10z" />
    <glyph glyph-name="nine.subs" horiz-adv-x="352" 
d="M178 338q70 0 109.5 -42.5t27.5 -108.5q-8 -41 -43 -87l-158 -180h-139l125 143q-47 14 -70.5 52t-13.5 90q10 60 55.5 96.5t106.5 36.5zM155 147q17 0 32 15q12 12 15 32q4 19 -4.5 31.5t-24.5 12.5t-29.5 -12t-17.5 -35q-3 -18 4.5 -31t24.5 -13z" />
    <glyph glyph-name="zero.sups" horiz-adv-x="372" 
d="M275 820q77 0 114.5 -59t19.5 -162q-18 -98 -68.5 -151t-118.5 -53q-77 0 -115 59.5t-20 162.5q18 97 69 150t119 53zM269 720q-50 0 -70 -113q-19 -112 28 -112q26 0 42 27t26 87q21 111 -26 111z" />
    <glyph glyph-name="one.sups" horiz-adv-x="234" 
d="M221 402h-112l42 227l-51 -31l-33 91l226 131z" />
    <glyph glyph-name="two.sups" horiz-adv-x="319" 
d="M237 820q74 0 105.5 -36t21.5 -98q-11 -60 -81 -138l-44 -47h92l-17 -99h-284l168 201q51 57 55 94q3 24 -20 24q-29 0 -37 -40l-107 9q12 61 51.5 95.5t96.5 34.5z" />
    <glyph glyph-name="three.sups" horiz-adv-x="329" 
d="M249 820q69 0 101 -36.5t21 -97.5q-8 -48 -56 -78q18 -8 28 -32.5t4 -57.5q-10 -58 -51.5 -90.5t-99.5 -32.5q-71 0 -105 37t-24 94l112 4q-3 -35 22 -35q14 0 25 13t12 32q4 27 -26 27h-47l15 88h37q16 0 31.5 13.5t16.5 33.5q3 21 -20 21q-13 0 -23.5 -10.5
t-13.5 -27.5l-105 10q20 125 146 125z" />
    <glyph glyph-name="four.sups" horiz-adv-x="351" 
d="M340 530h39l-15 -84h-40l-7 -44h-105l7 44h-202l374 384zM186 530h49l12 62z" />
    <glyph glyph-name="five.sups" horiz-adv-x="324" 
d="M227 714l-7 -45l15 1q61 0 94.5 -37t21.5 -105q-12 -63 -54 -98t-104 -35q-69 0 -102.5 34t-24.5 90l111 3q-3 -27 23 -27q31 0 38 40q4 16 -2 25.5t-19 9.5t-27 -12l-102 2l44 253h252l-17 -99h-140z" />
    <glyph glyph-name="six.sups" horiz-adv-x="352" 
d="M414 813l-124 -143q47 -14 70 -52t14 -90q-10 -60 -56 -96.5t-107 -36.5q-70 0 -109 42.5t-28 108.5q8 42 43 86l159 181h138zM263 542q3 18 -4.5 31t-24.5 13q-18 0 -31 -15q-12 -12 -16 -32q-3 -19 5 -31.5t24 -12.5q17 0 30 12t17 35z" />
    <glyph glyph-name="seven.sups" horiz-adv-x="333" 
d="M174 402h-127l190 312h-139l17 99h306z" />
    <glyph glyph-name="eight.sups" horiz-adv-x="354" 
d="M263 820q66 0 103 -36t26 -95q-5 -40 -44 -73q36 -37 26 -97q-10 -57 -55.5 -90.5t-107.5 -33.5q-70 0 -109.5 39.5t-27.5 103.5q9 50 58 91q-24 34 -18 78q10 53 51.5 83t97.5 30zM258 720q-17 0 -29 -10t-14 -27q-2 -15 6 -24t23 -9q37 0 42 37q2 15 -5.5 24t-22.5 9z
M233 573q-18 0 -31 -11t-16 -30q-2 -17 6.5 -27t25.5 -10q39 0 46 41q3 17 -6 27t-25 10z" />
    <glyph glyph-name="nine.sups" horiz-adv-x="352" 
d="M262 820q70 0 109.5 -42.5t27.5 -108.5q-8 -41 -43 -87l-158 -180h-139l125 143q-47 14 -70.5 52t-13.5 90q10 60 55.5 96.5t106.5 36.5zM239 629q17 0 32 15q12 12 15 32q4 19 -4.5 31.5t-24.5 12.5t-29.5 -12t-17.5 -35q-3 -18 4.5 -31t24.5 -13z" />
    <glyph glyph-name="zero.tnum" horiz-adv-x="650" 
d="M388 759q133 0 198.5 -104.5t38.5 -289.5q-25 -179 -114 -277.5t-213 -98.5q-133 0 -198.5 104.5t-38.5 289.5q26 179 114.5 277.5t212.5 98.5zM384 622q-68 0 -109 -63t-60 -191q-37 -242 87 -242q69 0 110 63.5t59 190.5q18 119 -4 180.5t-83 61.5z" />
    <glyph glyph-name="one.tnum" horiz-adv-x="650" 
d="M414 137h130l-24 -137h-430l24 137h146l66 361l-125 -79l-44 123l365 217z" />
    <glyph glyph-name="two.tnum" horiz-adv-x="650" 
d="M395 759q121 0 173.5 -62t34.5 -168q-10 -54 -38 -106t-53.5 -83t-72.5 -81l-128 -122h227l-24 -137h-491l279 306q74 80 106 129t42 105q7 38 -9 60t-52 22q-44 0 -72.5 -29.5t-37.5 -79.5l-152 17q21 109 92 169t176 60z" />
    <glyph glyph-name="three.tnum" horiz-adv-x="650" 
d="M397 759q114 0 167.5 -62t35.5 -167q-18 -99 -109 -149q37 -15 57.5 -60t9.5 -108q-18 -105 -92.5 -164.5t-179.5 -59.5q-121 0 -177 63t-41 170l154 -1q-11 -95 73 -95q93 0 111 101q7 44 -14 69t-65 25h-82l23 129h71q39 0 69.5 23.5t38.5 65.5q6 38 -10 60.5t-50 22.5
q-82 0 -103 -99l-151 19q21 104 88.5 160.5t175.5 56.5z" />
    <glyph glyph-name="four.tnum" horiz-adv-x="650" 
d="M514 238h91l-21 -118h-91l-21 -120h-140l21 120h-363l615 642zM253 238h120l31 160z" />
    <glyph glyph-name="five.tnum" horiz-adv-x="650" 
d="M318 612l-25 -147q32 10 66 10q107 0 166.5 -65.5t39.5 -181.5q-17 -110 -90 -174.5t-184 -64.5q-116 0 -174.5 60t-47.5 160l154 4q-4 -41 16.5 -64t60.5 -23q95 0 111 112q8 46 -11 73t-59 27t-83 -29l-147 3l77 436h438l-24 -136h-284z" />
    <glyph glyph-name="six.tnum" horiz-adv-x="650" 
d="M629 748l-235 -263q98 -16 152 -84.5t39 -169.5q-16 -109 -93.5 -175.5t-186.5 -66.5q-121 0 -192 72.5t-54 187.5q14 90 72 157l309 342h189zM429 246q8 58 -17 88t-70 30q-54 0 -90 -39q-30 -33 -37 -82q-7 -57 18 -87t71 -30q51 0 85.5 34.5t39.5 85.5z" />
    <glyph glyph-name="seven.tnum" horiz-adv-x="650" 
d="M212 0h-173l400 612h-313l24 136h540z" />
    <glyph glyph-name="eight.tnum" horiz-adv-x="650" 
d="M389 759q110 0 172.5 -60t45.5 -160q-13 -92 -94 -146q36 -26 53.5 -73t8.5 -108q-16 -103 -95.5 -163t-189.5 -60q-118 0 -185 66t-50 176q18 112 118 174q-62 54 -47 152q15 94 88.5 148t174.5 54zM381 622q-41 0 -70.5 -25t-33.5 -65q-4 -37 16 -57t57 -20
q41 0 70 23.5t33 63.5q4 37 -15.5 58.5t-56.5 21.5zM336 332q-51 0 -86 -30t-41 -79q-5 -45 19 -71t69 -26q52 0 87 30t40 79q4 46 -19.5 71.5t-68.5 25.5z" />
    <glyph glyph-name="nine.tnum" horiz-adv-x="650" 
d="M385 759q120 0 191.5 -72.5t54.5 -187.5q-14 -90 -72 -157l-309 -342h-189l235 263q-98 16 -152 84.5t-39 169.5q16 109 93.5 175.5t186.5 66.5zM348 384q52 0 90 39q30 33 37 82q7 57 -18 87t-71 30q-51 0 -85.5 -34.5t-39.5 -85.5q-8 -58 17 -88t70 -30z" />
    <glyph glyph-name="zero.dnom" horiz-adv-x="372" 
d="M204 418q77 0 114.5 -59t19.5 -162q-18 -98 -68.5 -151t-118.5 -53q-77 0 -115 59.5t-20 162.5q18 97 69 150t119 53zM198 318q-50 0 -70 -113q-19 -112 28 -112q26 0 42 27t26 87q21 111 -26 111z" />
    <glyph glyph-name="one.dnom" horiz-adv-x="234" 
d="M156 0h-112l42 227l-51 -31l-33 91l226 131z" />
    <glyph glyph-name="two.dnom" horiz-adv-x="319" 
d="M170 418q74 0 105.5 -36t21.5 -98q-11 -60 -81 -138l-44 -47h92l-17 -99h-284l168 201q51 57 55 94q3 24 -20 24q-29 0 -37 -40l-107 9q12 61 51.5 95.5t96.5 34.5z" />
    <glyph glyph-name="three.dnom" horiz-adv-x="329" 
d="M179 418q69 0 101 -36.5t21 -97.5q-8 -48 -56 -78q18 -8 28 -32.5t4 -57.5q-10 -58 -51.5 -90.5t-99.5 -32.5q-71 0 -105 37t-24 94l112 4q-3 -35 22 -35q14 0 25 13t12 32q4 27 -26 27h-47l15 88h37q16 0 31.5 13.5t16.5 33.5q3 21 -20 21q-13 0 -23.5 -10.5
t-13.5 -27.5l-105 10q20 125 146 125z" />
    <glyph glyph-name="four.dnom" horiz-adv-x="351" 
d="M273 128h39l-15 -84h-40l-7 -44h-105l7 44h-202l374 384zM119 128h49l12 62z" />
    <glyph glyph-name="five.dnom" horiz-adv-x="324" 
d="M158 312l-7 -45l15 1q61 0 94.5 -37t21.5 -105q-12 -63 -54 -98t-104 -35q-69 0 -102.5 34t-24.5 90l111 3q-3 -27 23 -27q31 0 38 40q4 16 -2 25.5t-19 9.5t-27 -12l-102 2l44 253h252l-17 -99h-140z" />
    <glyph glyph-name="six.dnom" horiz-adv-x="352" 
d="M344 411l-124 -143q47 -14 70 -52t14 -90q-10 -60 -56 -96.5t-107 -36.5q-70 0 -109 42.5t-28 108.5q8 42 43 86l159 181h138zM193 140q3 18 -4.5 31t-24.5 13q-18 0 -31 -15q-12 -12 -16 -32q-3 -19 5 -31.5t24 -12.5q17 0 30 12t17 35z" />
    <glyph glyph-name="seven.dnom" horiz-adv-x="333" 
d="M100 0h-127l190 312h-139l17 99h306z" />
    <glyph glyph-name="eight.dnom" horiz-adv-x="354" 
d="M193 418q66 0 103 -36t26 -95q-5 -40 -44 -73q36 -37 26 -97q-10 -57 -55.5 -90.5t-107.5 -33.5q-70 0 -109.5 39.5t-27.5 103.5q9 50 58 91q-24 34 -18 78q10 53 51.5 83t97.5 30zM188 318q-17 0 -29 -10t-14 -27q-2 -15 6 -24t23 -9q37 0 42 37q2 15 -5.5 24t-22.5 9z
M163 171q-18 0 -31 -11t-16 -30q-2 -17 6.5 -27t25.5 -10q39 0 46 41q3 17 -6 27t-25 10z" />
    <glyph glyph-name="nine.dnom" horiz-adv-x="352" 
d="M192 418q70 0 109.5 -42.5t27.5 -108.5q-8 -41 -43 -87l-158 -180h-139l125 143q-47 14 -70.5 52t-13.5 90q10 60 55.5 96.5t106.5 36.5zM169 227q17 0 32 15q12 12 15 32q4 19 -4.5 31.5t-24.5 12.5t-29.5 -12t-17.5 -35q-3 -18 4.5 -31t24.5 -13z" />
    <glyph glyph-name="zero.numr" horiz-adv-x="372" 
d="M259 739q77 0 114.5 -59t19.5 -162q-18 -98 -68.5 -151t-118.5 -53q-77 0 -115 59.5t-20 162.5q18 97 69 150t119 53zM253 639q-50 0 -70 -113q-19 -112 28 -112q26 0 42 27t26 87q21 111 -26 111z" />
    <glyph glyph-name="one.numr" horiz-adv-x="234" 
d="M211 322h-112l42 227l-51 -31l-33 91l226 131z" />
    <glyph glyph-name="two.numr" horiz-adv-x="319" 
d="M226 739q74 0 105.5 -36t21.5 -98q-11 -60 -81 -138l-44 -47h92l-17 -99h-284l168 201q51 57 55 94q3 24 -20 24q-29 0 -37 -40l-107 9q12 61 51.5 95.5t96.5 34.5z" />
    <glyph glyph-name="three.numr" horiz-adv-x="329" 
d="M237 739q69 0 101 -36.5t21 -97.5q-8 -48 -56 -78q18 -8 28 -32.5t4 -57.5q-10 -58 -51.5 -90.5t-99.5 -32.5q-71 0 -105 37t-24 94l112 4q-3 -35 22 -35q14 0 25 13t12 32q4 27 -26 27h-47l15 88h37q16 0 31.5 13.5t16.5 33.5q3 21 -20 21q-13 0 -23.5 -10.5
t-13.5 -27.5l-105 10q20 125 146 125z" />
    <glyph glyph-name="four.numr" horiz-adv-x="351" 
d="M328 449h39l-15 -84h-40l-7 -44h-105l7 44h-202l374 384zM174 449h49l12 62z" />
    <glyph glyph-name="five.numr" horiz-adv-x="324" 
d="M211 634l-7 -45l15 1q61 0 94.5 -37t21.5 -105q-12 -63 -54 -98t-104 -35q-69 0 -102.5 34t-24.5 90l111 3q-3 -27 23 -27q31 0 38 40q4 16 -2 25.5t-19 9.5t-27 -12l-102 2l44 253h252l-17 -99h-140z" />
    <glyph glyph-name="six.numr" horiz-adv-x="352" 
d="M399 732l-124 -143q47 -14 70 -52t14 -90q-10 -60 -56 -96.5t-107 -36.5q-70 0 -109 42.5t-28 108.5q8 42 43 86l159 181h138zM248 461q3 18 -4.5 31t-24.5 13q-18 0 -31 -15q-12 -12 -16 -32q-3 -19 5 -31.5t24 -12.5q17 0 30 12t17 35z" />
    <glyph glyph-name="seven.numr" horiz-adv-x="333" 
d="M160 322h-127l190 312h-139l17 99h306z" />
    <glyph glyph-name="eight.numr" horiz-adv-x="354" 
d="M248 739q66 0 103 -36t26 -95q-5 -40 -44 -73q36 -37 26 -97q-10 -57 -55.5 -90.5t-107.5 -33.5q-70 0 -109.5 39.5t-27.5 103.5q9 50 58 91q-24 34 -18 78q10 53 51.5 83t97.5 30zM243 639q-17 0 -29 -10t-14 -27q-2 -15 6 -24t23 -9q37 0 42 37q2 15 -5.5 24t-22.5 9z
M218 492q-18 0 -31 -11t-16 -30q-2 -17 6.5 -27t25.5 -10q39 0 46 41q3 17 -6 27t-25 10z" />
    <glyph glyph-name="nine.numr" horiz-adv-x="352" 
d="M246 739q70 0 109.5 -42.5t27.5 -108.5q-8 -41 -43 -87l-158 -180h-139l125 143q-47 14 -70.5 52t-13.5 90q10 60 55.5 96.5t106.5 36.5zM223 548q17 0 32 15q12 12 15 32q4 19 -4.5 31.5t-24.5 12.5t-29.5 -12t-17.5 -35q-3 -18 4.5 -31t24.5 -13z" />
    <glyph glyph-name="exclamdown.cap" horiz-adv-x="324" 
d="M233 582q-41 0 -65 29t-17 69q6 34 32.5 56.5t58.5 22.5q41 0 65 -28.5t17 -69.5q-6 -33 -32.5 -56t-58.5 -23zM133 520h154l-83 -520h-170z" />
    <glyph glyph-name="periodcentered.cap" horiz-adv-x="269" 
d="M168 529q41 0 65.5 -29t17.5 -69q-7 -34 -33.5 -56.5t-58.5 -22.5q-41 0 -65 28.5t-16 69.5q5 33 31.5 56t58.5 23z" />
    <glyph glyph-name="questiondown.cap" horiz-adv-x="535" 
d="M336 582q-41 0 -65 29t-17 69q6 34 32.5 56.5t58.5 22.5q41 0 65 -28.5t17 -69.5q-6 -33 -32.5 -56t-58.5 -23zM233 -12q-121 0 -181 64.5t-40 171.5q9 54 39 91.5t80 72.5q5 4 21 15t21 15t16.5 13t16 14.5t11.5 14.5t10 17.5t5 18.5l4 24h154l-6 -36q-14 -85 -116 -160
q-4 -3 -16 -11.5t-16 -11t-14 -10.5t-13.5 -11.5t-11.5 -11t-11 -13t-8 -13t-7.5 -15t-3.5 -15.5q-7 -40 13.5 -64t61.5 -24q46 0 76.5 27t42.5 75l150 -14q-22 -103 -97 -163.5t-181 -60.5z" />
    <glyph glyph-name="braceleft.cap" horiz-adv-x="303" 
d="M349 649h-2q-45 0 -66.5 -31.5t-25.5 -107.5q0 -31 -2.5 -51t-11 -40.5t-27 -32t-48.5 -14.5q86 -10 40 -156q-24 -70 -17 -95t51 -25h11l-21 -121h-2q-112 0 -162.5 64t-5.5 182q26 52 24.5 72t-47.5 20h-13l21 119h3q47 0 61 24t12 86q-6 112 60 170t178 58h11z" />
    <glyph glyph-name="braceright.cap" horiz-adv-x="303" 
d="M109 770h2q112 0 162 -64t6 -182q-27 -52 -25 -72t47 -20h14l-21 -119h-3q-47 0 -61 -24t-13 -86q6 -113 -59.5 -170.5t-177.5 -57.5h-11l21 121h2q45 0 66.5 31.5t25.5 107.5q0 64 17 98t73 41q-87 9 -41 155q24 70 17 95t-51 25h-11z" />
    <glyph glyph-name="bracketleft.cap" horiz-adv-x="307" 
d="M353 649h-88l-97 -553h87l-20 -121h-234l140 795h234z" />
    <glyph glyph-name="bracketright.cap" horiz-adv-x="319" 
d="M203 -25h-234l21 121h88l98 553h-88l21 121h234z" />
    <glyph glyph-name="parenleft.cap" horiz-adv-x="298" 
d="M237 781l122 -52q-133 -182 -167 -376q-35 -199 32 -366l-126 -36q-90 186 -48 420q40 233 187 410z" />
    <glyph glyph-name="parenright.cap" horiz-adv-x="293" 
d="M102 737l128 36q89 -187 48 -420q-41 -231 -188 -410l-123 52q134 180 169 376q33 198 -34 366z" />
    <glyph glyph-name="emdash.cap" horiz-adv-x="798" 
d="M762 309h-708l25 136h708z" />
    <glyph glyph-name="endash.cap" horiz-adv-x="566" 
d="M528 309h-476l24 136h476z" />
    <glyph glyph-name="hyphen.cap" horiz-adv-x="406" 
d="M370 309h-316l24 136h316z" />
    <glyph glyph-name="guillemotleft.cap" horiz-adv-x="581" 
d="M345 544l-150 -169l84 -155l-117 -68l-128 238l199 233zM616 544l-150 -169l84 -155l-117 -68l-128 238l199 233z" />
    <glyph glyph-name="guillemotright.cap" horiz-adv-x="581" 
d="M318 385l-199 -233l-112 79l150 168l-85 156l118 68zM588 385l-198 -233l-112 79l150 168l-85 156l118 68z" />
    <glyph glyph-name="guilsinglleft.cap" horiz-adv-x="338" 
d="M366 519l-156 -140l106 -141l-113 -84l-169 236l236 230z" />
    <glyph glyph-name="guilsinglright.cap" horiz-adv-x="338" 
d="M345 383l-235 -230l-96 101l156 140l-106 140l112 85z" />
    <glyph glyph-name="emdash_guilsinglright" horiz-adv-x="885" 
d="M850 260l-281 -263l-90 96l119 108h-563l21 120h579l-90 114l109 87z" />
    <glyph glyph-name="endash_guilsinglright" horiz-adv-x="615" 
d="M580 260l-281 -263l-90 96l119 108h-293l21 120h309l-90 114l109 87z" />
    <glyph glyph-name="guilsinglleft_emdash" horiz-adv-x="885" 
d="M408 425l-120 -107h562l-21 -120h-579l88 -114l-107 -87l-196 263l280 262z" />
    <glyph glyph-name="guilsinglleft_endash" horiz-adv-x="615" 
d="M408 425l-120 -107h292l-21 -120h-309l88 -114l-107 -87l-196 263l280 262z" />
    <glyph glyph-name="at.cap" horiz-adv-x="794" 
d="M459 734q161 0 251 -105t67 -265q-14 -98 -61 -148.5t-119 -50.5q-73 0 -101 42q-48 -45 -119 -45q-90 0 -141 61.5t-37 159.5q13 92 70.5 147t138.5 55q86 0 121 -51l9 36h105l-51 -292q-6 -37 28 -37q30 0 54.5 35.5t35.5 106.5q17 124 -53 204.5t-195 80.5
q-131 0 -227.5 -86t-114.5 -218q-19 -128 56 -205.5t201 -77.5q93 0 175 46l24 -67q-86 -46 -199 -46q-164 0 -255.5 103.5t-68.5 265.5q22 152 137.5 251.5t268.5 99.5zM389 260q44 0 72.5 27t35.5 76l3 17q7 49 -14.5 77.5t-64.5 28.5t-72 -28t-37 -81q-9 -53 13 -85
t64 -32z" />
    <glyph glyph-name="acute.case" horiz-adv-x="346" 
d="M239 797h-136l155 154h202z" />
    <glyph glyph-name="breve.case" horiz-adv-x="391" 
d="M388 963h117q-14 -84 -68.5 -124.5t-134.5 -40.5q-89 0 -135.5 43.5t-31.5 121.5h117q-6 -32 10 -48t46 -16q31 0 53 18.5t27 45.5z" />
    <glyph glyph-name="caron.case" horiz-adv-x="392" 
d="M363 797h-140l-89 160h119l49 -75l80 75h126z" />
    <glyph glyph-name="circumflex.case" horiz-adv-x="392" 
d="M477 797h-120l-48 75l-81 -75h-125l144 160h141z" />
    <glyph glyph-name="dieresis.case" horiz-adv-x="371" 
d="M201 959q38 0 60 -26t15 -62q-5 -30 -28 -50t-52 -20q-37 0 -59 25.5t-16 62.5q5 30 28 50t52 20zM394 959q37 0 59 -26t16 -62q-5 -30 -28.5 -50t-52.5 -20q-37 0 -59 25.5t-15 62.5q5 30 28 50t52 20z" />
    <glyph glyph-name="dotaccent.case" horiz-adv-x="195" 
d="M212 975q41 0 65.5 -28.5t17.5 -68.5q-6 -33 -32.5 -55.5t-59.5 -22.5q-40 0 -64 28t-17 68q6 33 32.5 56t57.5 23z" />
    <glyph glyph-name="grave.case" horiz-adv-x="346" 
d="M430 797h-130l-167 154h196z" />
    <glyph glyph-name="hungarumlaut.case" horiz-adv-x="419" 
d="M220 800h-117l91 169h141zM422 800h-117l91 169h141z" />
    <glyph glyph-name="macron.case" horiz-adv-x="317" 
d="M406 817h-299l19 111h301z" />
    <glyph glyph-name="ring.case" horiz-adv-x="249" 
d="M247 1010q52 0 82.5 -33.5t20.5 -83.5q-7 -43 -41 -70.5t-77 -27.5q-53 0 -84 33.5t-23 82.5q8 44 42.5 71.5t79.5 27.5zM243 943q-17 0 -30 -10.5t-16 -27.5t7.5 -29.5t29.5 -12.5q17 0 29.5 10t15.5 27q3 18 -7 30.5t-29 12.5z" />
    <glyph glyph-name="tilde.case" horiz-adv-x="384" 
d="M238 961q37 0 68 -26.5t51 -26.5q50 0 58 45h79q1 -65 -38.5 -109.5t-91.5 -44.5q-38 0 -69 26.5t-50 26.5q-49 0 -58 -47h-79q-1 65 38.5 110.5t91.5 45.5z" />
    <glyph glyph-name="anneau" horiz-adv-x="595" 
d="M367 761q120 0 190 -77t53 -189q-15 -106 -98.5 -176t-195.5 -70q-122 0 -191.5 77t-53.5 191q16 106 99.5 175t196.5 69zM369 711q-92 0 -160 -57t-81 -145q-13 -91 39.5 -150.5t146.5 -59.5q91 0 159 57.5t80 146.5q13 90 -39 149t-145 59z" />
    <glyph glyph-name="null" horiz-adv-x="600" 
 />
    </font>
</defs>
</svg>
